<svg xmlns="http://www.w3.org/2000/svg" xml:space="preserve" width="38.1mm" height="23.9739mm" version="1.1" style="shape-rendering:geometricPrecision; text-rendering:geometricPrecision; image-rendering:optimizeQuality; fill-rule:evenodd; clip-rule:evenodd"
viewBox="0 0 450.05 283.19"
 xmlns:xlink="http://www.w3.org/1999/xlink">
 <defs>
  <style type="text/css">
   <![CDATA[
    .fil2 {fill:black;fill-rule:nonzero}
    .fil0 {fill:black;fill-rule:nonzero}
    .fil1 {fill:url(#id0)}
   ]]>
  </style>
  <linearGradient id="id0" gradientUnits="userSpaceOnUse" x1="0" y1="115.32" x2="418.93" y2="115.32">
   <stop offset="0" style="stop-opacity:1; stop-color:#AD8D2E"/>
   <stop offset="0.278431" style="stop-opacity:1; stop-color:#E3BF52"/>
   <stop offset="0.568627" style="stop-opacity:1; stop-color:#AF912E"/>
   <stop offset="0.8" style="stop-opacity:1; stop-color:#E3BF52"/>
   <stop offset="1" style="stop-opacity:1; stop-color:#AF8F32"/>
  </linearGradient>
 </defs>
 <g id="Layer_x0020_1">
  <metadata id="CorelCorpID_0Corel-Layer"/>
  <g id="_2680930415328">
   <path class="fil0" d="M436.29 32.13c2.31,0 4.57,0.59 6.77,1.78 2.2,1.18 3.92,2.89 5.15,5.09 1.23,2.21 1.84,4.52 1.84,6.91 0,2.37 -0.6,4.66 -1.82,6.85 -1.21,2.19 -2.9,3.89 -5.09,5.1 -2.19,1.22 -4.47,1.82 -6.85,1.82 -2.39,0 -4.67,-0.6 -6.86,-1.82 -2.19,-1.21 -3.89,-2.91 -5.1,-5.1 -1.21,-2.19 -1.83,-4.47 -1.83,-6.85 0,-2.39 0.62,-4.7 1.85,-6.91 1.24,-2.21 2.96,-3.91 5.16,-5.09 2.21,-1.19 4.46,-1.78 6.78,-1.78zm0 2.28c-1.94,0 -3.83,0.5 -5.66,1.49 -1.83,0.99 -3.26,2.41 -4.3,4.26 -1.03,1.84 -1.55,3.76 -1.55,5.76 0,1.99 0.51,3.89 1.53,5.71 1.02,1.82 2.44,3.24 4.26,4.26 1.83,1.02 3.73,1.53 5.72,1.53 1.98,0 3.89,-0.51 5.71,-1.53 1.83,-1.02 3.25,-2.44 4.26,-4.26 1.01,-1.82 1.51,-3.72 1.51,-5.71 0,-1.99 -0.52,-3.91 -1.55,-5.76 -1.03,-1.85 -2.46,-3.26 -4.3,-4.26 -1.84,-0.99 -3.72,-1.49 -5.64,-1.49zm-6.05 19.11l0 -14.81 5.1 0c1.74,0 3,0.14 3.78,0.41 0.79,0.27 1.4,0.75 1.87,1.43 0.46,0.68 0.69,1.4 0.69,2.17 0,1.08 -0.39,2.03 -1.16,2.82 -0.77,0.8 -1.8,1.25 -3.09,1.35 0.52,0.22 0.95,0.48 1.26,0.79 0.6,0.58 1.33,1.56 2.19,2.93l1.81 2.9 -2.9 0 -1.32 -2.33c-1.03,-1.84 -1.88,-2.99 -2.51,-3.45 -0.44,-0.34 -1.07,-0.51 -1.91,-0.5l-1.41 0 0 6.28 -2.39 0zm2.39 -8.34l2.9 0c1.39,0 2.34,-0.21 2.84,-0.62 0.51,-0.41 0.76,-0.96 0.76,-1.63 0,-0.44 -0.13,-0.83 -0.37,-1.17 -0.24,-0.35 -0.58,-0.6 -1.01,-0.77 -0.44,-0.17 -1.23,-0.26 -2.41,-0.26l-2.72 0 0 4.45z"/>
   <g>
    <path class="fil1" d="M262.94 60.89l6.57 -35.33 -33.78 -25.56 -15.05 81.59c-1.29,-2.42 -2.72,-4.29 -4.73,-6.19 -3.05,-2.83 -6.17,-4.68 -10.15,-6.04 -1.78,-0.63 -3.32,-1.05 -5.18,-1.41 -3.28,-0.64 -6.1,-0.94 -9.44,-0.99 -0.19,-0 -0.36,-0 -0.55,0 -12.64,0.33 -23.32,0.66 -35.96,1.09l0 32.97 17.07 -0.14c-1.44,0.46 -2.64,0.9 -4.05,1.46 -4.1,1.66 -7.38,3.53 -10.88,6.19 -3.18,2.07 -5.69,4.06 -8.42,6.66 -0.12,0.11 -0.22,0.21 -0.34,0.32l-3 -102.68 -84.21 105.76 -60.85 76.39c11.66,12.5 16.04,17.34 26.65,28.94 16.91,-22.24 31.21,-41 48.18,-63.2l35.2 0 0 29.47 40.97 25.98 -1.07 -36.63c3.41,2.33 7.45,4.22 11.45,5.5 3.07,0.98 5.72,1.62 8.91,2.13 4.66,0.73 8.65,1.05 13.37,1.07 3.04,1.79 5.62,3.28 8.69,5.02l16.75 9.51c0.92,-7.11 1.7,-13.1 2.62,-20.21l24.74 20.97 6.83 -36.83c0.57,0.65 1.08,1.19 1.7,1.8 4.6,4.53 10.33,7.71 16.53,9.7 3.07,0.99 5.73,1.62 8.92,2.14 4.69,0.74 8.7,1.06 13.45,1.07 4.07,2.35 7.52,4.32 11.6,6.66 -2.94,9.16 -5.11,15.93 -7.95,24.76l33.87 17.81 16.04 -49.14 1.6 -4.78c15.51,-1.03 28.49,-4.11 42.81,-10.16 13.22,-5.88 28.09,-15.91 36.84,-32.09 4.48,-8.29 7.13,-17.46 7.1,-26.85 -0.04,-9.92 -3.21,-19.41 -9.26,-27.33 -2.16,-2.82 -4.23,-5.03 -6.94,-7.38 -2.58,-2.24 -4.92,-3.95 -7.85,-5.73 -3.04,-1.85 -5.74,-3.23 -9.03,-4.63 -0.12,-0.05 -0.22,-0.09 -0.34,-0.14 -6.81,-2.68 -13.08,-3.77 -20.43,-3.56l-34.79 -0.3c-5.89,18.4 -10.88,33.94 -16.8,52.33 1.13,-8.57 2.08,-15.81 3.21,-24.38 0.14,-1.06 0.14,-1.98 0.01,-3.04 -0.21,-1.67 -0.51,-3.06 -1.01,-4.67 -1.26,-4.09 -3.26,-7.3 -6.41,-10.29 -1.63,-1.54 -3.18,-2.68 -5.15,-3.79 -3.32,-1.83 -6.39,-2.94 -10.14,-3.66 -3.3,-0.65 -6.14,-0.95 -9.5,-1 -0.19,-0 -0.36,-0 -0.55,0 -9.8,0.26 -18.07,0.5 -27.87,0.82zm87.1 81.35l15.42 -49.52 4.77 0c3.14,-0.02 5.81,0.69 8.49,2.27 1.61,0.97 2.88,1.92 4.25,3.19 1.32,1.22 2.28,2.43 3.15,3.98 1.69,3.06 1.95,6.56 1.24,9.95 -0.51,2.36 -1.21,4.29 -2.33,6.44 -1.37,2.62 -2.78,4.72 -4.71,6.98 -4.23,4.95 -8.67,8.47 -14.53,11.51 -3,1.49 -5.64,2.54 -8.86,3.51 -2.39,0.72 -4.44,1.22 -6.89,1.68zm-68.65 -15.41c-0.93,7.22 -1.71,13.32 -2.62,20.55 -1.55,-0.24 -3.2,-0.64 -4.64,-1.26 -0.5,-0.21 -0.9,-0.43 -1.35,-0.72 -0.87,-0.57 -1.42,-1.32 -1.68,-2.3 -0.27,-1.48 -0.33,-2.77 -0.21,-4.27 0.29,-3.98 2.42,-7.28 5.82,-9.61 1.52,-1.04 2.93,-1.75 4.68,-2.38zm-100.19 6.89l-2.66 20.47c-1.67,-0.24 -3.05,-0.62 -4.61,-1.25 -0.5,-0.22 -0.91,-0.44 -1.37,-0.73 -0.87,-0.56 -1.43,-1.3 -1.73,-2.28 -0.24,-1.46 -0.29,-2.71 -0.17,-4.18 0.31,-3.99 2.45,-7.32 5.87,-9.66 1.52,-1.04 2.93,-1.75 4.67,-2.38zm132.5 78.9l14.09 -43.17 1.13 -3.97c13.83,0.21 25.57,-1.46 38.79,-5.52 44.23,-13.51 65.06,-66.71 19.68,-86.07 -5.18,-1.99 -9.93,-2.8 -15.5,-2.66 -3.6,-0.04 -7.31,-0.07 -11.06,-0.1l-14.47 -0.12 -2.22 6.92c-14.48,45.18 -26.76,82.98 -41.48,128.89l11.02 5.8zm18.51 -57.4c6.38,-20.48 13.23,-41.67 19.61,-62.18l3.94 -12.67 14.3 0c5.59,0.05 10.33,1.33 15.14,4.08 28.29,17.11 12.99,49.78 -13.63,63.54 -3.94,1.97 -7.95,3.5 -12.03,4.68 -7.76,2.23 -16.89,3.07 -27.33,2.55zm-64.75 -72.91c7.53,-0.13 15.24,-0.76 22.77,-0.82 4.43,0 8.78,0.25 8.45,8.56 -0.34,4.47 -1.62,8.87 -1.87,13.27 -13.21,-0.49 -23.9,1.61 -32.43,8.37 -11.62,7.45 -18.15,17.8 -17.14,32.45 1.17,17.49 15.64,25.56 39.97,24.87 3.85,2.23 7.69,4.47 11.62,6.7 3.93,-30.21 7.86,-60.48 11.87,-90.76 -1,-7.82 -7.19,-12.22 -19.73,-12.53 -7.86,0.19 -15.64,0.43 -23.5,0.68l0 9.2zm28.51 30.07c-1.7,12.89 -3.34,25.74 -4.96,38.62l-1.24 9.77 -9.3 -0.73c-12.46,-0.98 -19.81,-5.7 -22.05,-14.22 -2.51,-12.78 3.35,-23.64 15.22,-29.28 5.94,-2.85 13.71,-4.09 22.33,-4.16zm-78.97 58.38l10.68 9.05 5.05 -27.27c3.98,-21.5 7.98,-43 11.98,-64.5l10.66 -57.32 -4.52 -3.42 -6.45 -4.88 -9.65 52.32c-5.9,32.02 -11.83,64.02 -17.75,96.03zm-49.72 -81.62l22.77 -0.76c4.43,0 8.78,0.25 8.44,8.56 -0.33,4.4 -1.62,8.81 -1.87,13.28 -13.21,-0.5 -23.9,1.61 -32.43,8.31 -11.62,7.51 -18.15,17.87 -17.14,32.51 1.17,17.43 15.64,25.5 39.97,24.81 3.85,2.3 7.69,4.53 11.62,6.76 3.93,-30.21 7.86,-60.48 11.87,-90.76 -1,-7.82 -7.28,-12.22 -19.73,-12.53 -7.86,0.19 -15.64,0.43 -23.5,0.68l0 9.13zm28.52 30.13c-1.79,13.54 -3.52,27.13 -5.3,40.68l-1.03 7.84 -10.25 -1.01c-11.81,-1.16 -18.81,-5.85 -21.05,-14.07 -2.42,-12.78 3.43,-23.64 15.3,-29.28 5.94,-2.85 13.71,-4.09 22.33,-4.16zm-170.25 84.99c14.22,-18.67 28.43,-37.34 42.65,-55.89l54.44 0 0 35.16 14.71 9.32 -4.23 -144.96 -22.72 28.55c-27.77,34.89 -55.58,69.78 -83.34,104.64l-10.6 13.31 3.12 3.37c2.01,2.17 4,4.34 5.99,6.51zm53.1 -69.91c13.71,-17.12 27.51,-34.18 41.23,-51.3 0.42,17.12 0.92,34.18 1.42,51.3l-42.65 0z"/>
    <path class="fil2" d="M145.53 282.64l-6.59 0 -2.61 -6.87 -12.11 0 -2.51 6.87 -6.47 0 11.72 -30.2 6.46 0 12.1 30.2zm-11.18 -11.98l-4.2 -11.18 -4.08 11.18 8.27 0z"/>
    <path id="1" class="fil2" d="M152.36 272.86l5.95 -0.59c0.36,1.99 1.08,3.44 2.17,4.38 1.09,0.93 2.56,1.4 4.41,1.4 1.95,0 3.43,-0.41 4.42,-1.24 0.99,-0.83 1.49,-1.8 1.49,-2.91 0,-0.72 -0.21,-1.32 -0.62,-1.83 -0.42,-0.5 -1.15,-0.94 -2.19,-1.3 -0.71,-0.25 -2.33,-0.69 -4.86,-1.32 -3.26,-0.82 -5.54,-1.81 -6.85,-3 -1.85,-1.67 -2.77,-3.7 -2.77,-6.1 0,-1.54 0.44,-2.99 1.3,-4.33 0.87,-1.34 2.12,-2.36 3.76,-3.07 1.64,-0.7 3.61,-1.05 5.93,-1.05 3.78,0 6.62,0.84 8.53,2.52 1.91,1.68 2.91,3.91 3.01,6.72l-6.12 0.21c-0.26,-1.56 -0.82,-2.68 -1.67,-3.36 -0.85,-0.68 -2.13,-1.03 -3.83,-1.03 -1.76,0 -3.14,0.37 -4.13,1.1 -0.64,0.47 -0.96,1.1 -0.96,1.88 0,0.72 0.3,1.33 0.91,1.83 0.77,0.65 2.63,1.33 5.59,2.03 2.96,0.7 5.15,1.43 6.56,2.17 1.42,0.75 2.53,1.77 3.33,3.07 0.8,1.3 1.2,2.9 1.2,4.81 0,1.73 -0.48,3.35 -1.44,4.86 -0.96,1.51 -2.32,2.64 -4.08,3.37 -1.76,0.74 -3.95,1.1 -6.57,1.1 -3.82,0 -6.75,-0.88 -8.79,-2.64 -2.05,-1.76 -3.26,-4.32 -3.66,-7.69z"/>
    <polygon id="2" class="fil2" points="194.05,282.64 194.05,257.55 185.11,257.55 185.11,252.44 209.07,252.44 209.07,257.55 200.17,257.55 200.17,282.64 "/>
    <path id="3" class="fil2" d="M216.17 267.72c0,-3.08 0.46,-5.67 1.39,-7.76 0.68,-1.54 1.62,-2.92 2.81,-4.15 1.19,-1.22 2.49,-2.13 3.9,-2.73 1.88,-0.79 4.06,-1.2 6.52,-1.2 4.46,0 8.01,1.39 10.69,4.15 2.67,2.77 4.01,6.61 4.01,11.54 0,4.89 -1.33,8.71 -3.98,11.47 -2.65,2.76 -6.2,4.14 -10.64,4.14 -4.49,0 -8.07,-1.37 -10.72,-4.12 -2.65,-2.74 -3.98,-6.52 -3.98,-11.35zm6.29 -0.2c0,3.42 0.79,6.02 2.38,7.79 1.58,1.76 3.59,2.65 6.02,2.65 2.44,0 4.44,-0.88 6,-2.63 1.56,-1.76 2.34,-4.39 2.34,-7.89 0,-3.47 -0.76,-6.05 -2.28,-7.75 -1.52,-1.71 -3.54,-2.56 -6.06,-2.56 -2.52,0 -4.55,0.86 -6.09,2.59 -1.54,1.73 -2.31,4.33 -2.31,7.81z"/>
    <path id="4" class="fil2" d="M255.41 282.64l0 -30.2 12.84 0c3.23,0 5.57,0.27 7.04,0.82 1.47,0.54 2.64,1.5 3.51,2.89 0.88,1.39 1.32,2.97 1.32,4.76 0,2.27 -0.66,4.14 -1.99,5.62 -1.33,1.48 -3.31,2.41 -5.95,2.79 1.31,0.77 2.4,1.61 3.25,2.53 0.86,0.92 2.01,2.56 3.46,4.91l3.68 5.89 -7.29 0 -4.37 -6.59c-1.57,-2.34 -2.64,-3.82 -3.23,-4.43 -0.58,-0.6 -1.19,-1.03 -1.83,-1.25 -0.65,-0.23 -1.68,-0.34 -3.09,-0.34l-1.24 0 0 12.61 -6.12 0zm6.12 -17.42l4.51 0c2.92,0 4.75,-0.13 5.48,-0.37 0.72,-0.25 1.3,-0.67 1.71,-1.28 0.41,-0.6 0.62,-1.36 0.62,-2.27 0,-1.02 -0.27,-1.83 -0.82,-2.47 -0.54,-0.63 -1.31,-1.02 -2.29,-1.18 -0.5,-0.07 -1.98,-0.11 -4.45,-0.11l-4.76 0 0 7.68z"/>
    <polygon id="5" class="fil2" points="290.83,282.64 290.83,252.44 296.94,252.44 296.94,282.64 "/>
    <path id="6" class="fil2" d="M335.13 282.64l-6.59 0 -2.61 -6.87 -12.11 0 -2.51 6.87 -6.47 0 11.72 -30.2 6.46 0 12.1 30.2zm-11.18 -11.98l-4.2 -11.18 -4.08 11.18 8.27 0z"/>
    <polygon class="fil2" points="0.33,265.34 105.05,265.34 105.05,269.75 0.33,269.75 "/>
    <polygon class="fil2" points="345.34,265.34 450.05,265.34 450.05,269.75 345.34,269.75 "/>
   </g>
  </g>
 </g>
</svg>
