<svg width="144" height="65" viewBox="0 0 144 65" fill="none" xmlns="http://www.w3.org/2000/svg">
<path fill-rule="evenodd" clip-rule="evenodd" d="M22.3916 34.0285L24.1612 29.0891L25.868 34.0285H22.3916ZM27.6271 39.0105H29.2815L25.0198 27.1133H23.3968L18.9258 39.0105H20.5906L21.8995 35.367H26.3601L27.6375 39.0105H27.6271Z" fill="#B9B9B9"/>
<path fill-rule="evenodd" clip-rule="evenodd" d="M32.4624 34.7273C30.988 34.3987 29.4327 34.0277 29.4327 32.1726C29.4327 30.5401 30.7456 29.5012 32.7351 29.5012C34.0094 29.4051 35.2244 30.0799 35.8657 31.2397L34.5327 31.8228C34.1334 31.087 33.3798 30.6426 32.5735 30.6673C31.4424 30.6673 30.8769 31.3669 30.8769 31.9818C30.8769 32.8298 31.9473 33.1902 32.8966 33.3811C34.7952 33.7839 36.4514 34.2927 36.4514 36.1796C36.4514 37.6425 35.2194 39.01 32.8562 39.01C31.1192 39.01 29.8266 38.3951 29.2812 37.1231L30.8163 36.8474C31.2818 37.5743 32.1 37.9606 32.9269 37.8439C34.2095 37.8439 34.9467 37.3351 34.9467 36.3704C34.9467 35.4058 33.7247 35.0241 32.4624 34.7273Z" fill="#B9B9B9"/>
<path fill-rule="evenodd" clip-rule="evenodd" d="M40.3086 29.8939H42.0282V31.1568H40.3086V36.3042C40.3086 37.3655 40.3086 37.8218 40.9683 37.8218C41.3118 37.7959 41.6501 37.7245 41.9741 37.6096V38.8619C41.4812 38.9487 40.9823 38.9984 40.4817 39.0105C38.6864 39.0105 38.6864 38.1614 38.708 36.9834V31.1568H37.248V29.8939H38.708V27.7713L40.3086 27.1133V29.9257V29.8939Z" fill="#B9B9B9"/>
<path fill-rule="evenodd" clip-rule="evenodd" d="M44.3992 29.6407V31.3154C45.0095 30.1307 46.2676 29.4175 47.6043 29.4984V31.1074C46.0624 31.1074 45.3024 31.4358 44.7957 32.2019C44.4348 32.9894 44.2977 33.86 44.3992 34.7194V39.01H42.8242V29.6407H44.3992Z" fill="#B9B9B9"/>
<path fill-rule="evenodd" clip-rule="evenodd" d="M64.9593 27.1133V28.6004L58.2091 37.5764H65.1297V39.0105H56.3672V37.4596L63.1493 28.5792H56.3778V27.1133H64.9593Z" fill="#B9B9B9"/>
<path fill-rule="evenodd" clip-rule="evenodd" d="M75.3491 29.7976V31.1399C75.8998 30.1092 76.9357 29.4786 78.052 29.4945C79.3577 29.4409 80.5322 30.3313 80.9079 31.6596C81.0358 32.2776 81.0838 32.9113 81.0506 33.5432V39.01H79.6023V33.7488C79.643 33.238 79.612 32.7236 79.5105 32.2225C79.2203 31.4153 78.4662 30.9052 77.6542 30.9667C77.0332 30.9409 76.4303 31.1921 75.9917 31.6596C75.4964 32.2117 75.2606 32.9706 75.3491 33.7272V38.9558H73.8906V29.7976H75.3491Z" fill="#B9B9B9"/>
<path fill-rule="evenodd" clip-rule="evenodd" d="M98.5841 37.2278C97.8364 38.3996 96.4984 39.08 95.0911 39.0042C91.857 39.0042 90.6172 36.5511 90.6172 34.3517C90.6172 31.8034 92.0294 29.4984 94.9294 29.4984C96.3809 29.4196 97.7666 30.0992 98.5733 31.2853L97.1287 31.8775C96.7618 31.0447 95.8943 30.5342 94.9726 30.6086C92.4391 30.6086 92.2882 33.4424 92.2882 34.2354C92.2882 37.2067 94.0239 37.8411 95.0588 37.8411C95.9572 37.9314 96.8178 37.4629 97.2149 36.6674L98.5733 37.2278H98.5841Z" fill="#B9B9B9"/>
<path fill-rule="evenodd" clip-rule="evenodd" d="M66.7888 33.4491H71.497C71.3717 31.0902 70.025 30.6988 69.1377 30.6988C67.8641 30.6988 66.9558 31.6403 66.7888 33.4491ZM72.7289 37.162C72.0203 38.3796 70.697 39.091 69.3047 39.0026C66.6844 39.0026 65.1289 37.1937 65.1289 34.1684C65.1289 30.7835 67.3316 29.493 69.2003 29.493C71.0518 29.4552 72.6451 30.8118 72.9272 32.6664C73.0501 33.2681 73.1061 33.8819 73.0942 34.4963H66.747C66.747 35.9984 67.3316 37.9025 69.43 37.8602C70.19 37.8747 70.8978 37.4695 71.2778 36.8024L72.7289 37.088V37.162Z" fill="#B9B9B9"/>
<path fill-rule="evenodd" clip-rule="evenodd" d="M83.4755 33.4501H88.1838C88.0585 31.0906 86.7118 30.6991 85.8244 30.6991C84.5508 30.6991 83.6426 31.6408 83.4755 33.4501ZM89.4156 37.1639C88.7141 38.3678 87.4109 39.0771 86.0332 39.0049C83.4129 39.0049 81.8574 37.1956 81.8574 34.1696C81.8574 30.7838 84.0602 29.493 85.9288 29.493C87.7803 29.4551 89.3736 30.8121 89.6557 32.6671C89.7786 33.2691 89.8346 33.883 89.8228 34.4976H83.4338C83.4338 36 84.0184 37.9045 86.1167 37.8622C86.8768 37.8768 87.5846 37.4715 87.9645 36.8042L89.4156 37.0898V37.1639Z" fill="#B9B9B9"/>
<path fill-rule="evenodd" clip-rule="evenodd" d="M106.553 38.8937H104.959C104.868 38.4579 104.806 38.0166 104.775 37.5728C104.024 38.4744 102.899 39.0015 101.708 39.01C99.9192 39.01 98.5859 37.9532 98.5859 36.4526C98.5856 35.9723 98.7287 35.5023 98.9978 35.1C99.529 34.3391 100.504 33.7367 103.247 33.5254L104.71 33.4091V33.1978C104.71 32.2678 104.71 30.7038 102.651 30.7038C101.361 30.7038 100.916 31.3168 100.765 31.8663L99.3447 31.2851C99.3447 31.2851 99.3447 31.19 99.4206 31.1371C100.059 30.0533 101.274 29.4179 102.553 29.4991C103.505 29.4749 104.441 29.7409 105.23 30.26C105.876 30.843 106.242 31.6633 106.238 32.5215L106.304 37.1289C106.315 37.7108 106.399 38.2891 106.553 38.8514V38.8937ZM104.385 36.4103C104.643 35.7692 104.729 35.0745 104.634 34.3919C104.027 34.487 103.214 34.6033 102.217 34.8146C100.504 35.1739 100.212 35.7974 100.212 36.4315C100.212 37.0655 100.797 37.763 101.946 37.763C102.965 37.8343 103.927 37.3005 104.385 36.4103Z" fill="#B9B9B9"/>
<path fill-rule="evenodd" clip-rule="evenodd" d="M55.5684 38.8938H53.9882C53.8967 38.4581 53.8352 38.017 53.8041 37.5733C53.0494 38.4803 51.9166 39.0079 50.7193 39.01C48.9226 39.01 47.6021 37.9536 47.6021 36.4535C47.5923 35.9785 47.7279 35.5113 47.9917 35.112C48.5113 34.3514 49.4962 33.7493 52.2347 33.538L53.6959 33.4218V33.1999C53.6959 32.2703 53.6959 30.7069 51.6394 30.7069C50.3405 30.7069 49.9075 31.3196 49.756 31.8689L48.3273 31.2879C48.3273 31.2879 48.3814 31.1928 48.403 31.14C49.0546 30.0388 50.2972 29.4016 51.5961 29.5027C52.5498 29.4797 53.4875 29.7454 54.2804 30.2632C54.9248 30.8455 55.2866 31.6668 55.2762 32.5239L55.3411 37.1296C55.3425 37.7245 55.4189 38.317 55.5684 38.8938ZM53.4037 36.4113C53.6418 35.9148 53.6526 35.7035 53.6526 34.3936C53.0573 34.4887 52.2455 34.6049 51.2497 34.8162C49.5395 35.1753 49.2473 35.7986 49.2473 36.4324C49.2473 37.0662 49.821 37.7634 50.9683 37.7634C51.9862 37.8377 52.9489 37.3032 53.4037 36.4113Z" fill="#B9B9B9"/>
<path fill-rule="evenodd" clip-rule="evenodd" d="M126.465 26.9177C126.465 26.8658 126.465 26.8138 126.465 26.7619C126.465 26.7099 126.402 26.5436 126.36 26.4397C126.316 26.3318 126.263 26.2275 126.202 26.1279C126.139 26.0109 126.065 25.8997 125.982 25.7954C125.938 25.7352 125.889 25.6795 125.835 25.6291L125.646 25.4524C125.498 25.3256 125.34 25.211 125.173 25.1095C124.816 24.8716 124.44 24.663 124.049 24.4859C123.576 24.2781 123.124 24.039 122.631 23.8624L119.322 22.74C119.322 22.1164 119.322 21.5033 119.322 20.8797C119.322 19.9652 119.248 19.0506 119.185 18.1361C119.185 17.5022 119.059 16.8682 118.954 16.2343C118.849 15.6003 118.754 15.2574 118.649 14.7689C118.62 14.6596 118.585 14.5521 118.544 14.4468C118.515 14.3476 118.48 14.2504 118.439 14.1558C118.439 14.0726 118.355 13.9791 118.313 13.9064C118.281 13.8249 118.239 13.748 118.187 13.6777C118.149 13.613 118.106 13.5506 118.061 13.4907L117.924 13.314L117.788 13.1893L117.651 13.075L117.525 12.9918L117.389 12.9295C117.313 12.8877 117.231 12.8562 117.147 12.8359H116.937H116.506H116.222C116.016 12.8824 115.815 12.9522 115.624 13.0438C115.512 13.0964 115.403 13.1554 115.298 13.2205C115.193 13.2932 115.077 13.3556 114.972 13.4387C114.787 13.5718 114.608 13.714 114.437 13.8648C113.754 14.4987 113.081 15.1535 112.42 15.8186C112.073 16.1719 111.726 16.5357 111.369 16.9202C110.098 18.4375 108.837 19.9548 107.619 21.5137C107.083 22.1996 106.568 22.927 106.096 23.6441C105.97 23.825 105.854 24.0123 105.749 24.2053C105.56 24.5379 105.381 24.8704 105.213 25.2446C105.168 25.3318 105.13 25.4221 105.098 25.5148C105.098 25.6083 105.034 25.7018 105.013 25.785C104.991 25.874 104.973 25.9642 104.961 26.0552C104.956 26.1348 104.956 26.2146 104.961 26.2942V26.4189V26.5436L105.045 26.6579L105.15 26.7826L105.402 27.0009C105.492 27.0768 105.586 27.1463 105.686 27.2087C105.854 27.3231 106.032 27.427 106.211 27.5309L106.442 27.6556C106.442 27.6556 106.442 27.6556 106.369 27.6037L106.495 27.666C107.545 28.2272 108.669 28.778 109.741 29.3496C110.812 29.9212 111.905 30.4928 112.976 31.0851L115.382 32.4154C114.552 33.0493 113.701 33.6521 112.882 34.2964C112.567 34.5437 112.269 34.811 111.989 35.0966C111.758 35.3233 111.541 35.5627 111.338 35.8137C111.18 36.0112 111.033 36.219 110.886 36.4373C110.779 36.6071 110.684 36.7842 110.602 36.9673C110.531 37.1029 110.475 37.2458 110.434 37.3934C110.404 37.4958 110.379 37.5999 110.361 37.7051C110.361 37.7675 110.361 37.8298 110.361 37.8922C110.361 37.9546 110.361 37.8922 110.361 37.965V38.1312C110.355 38.1865 110.355 38.2422 110.361 38.2975C110.35 38.3454 110.35 38.3951 110.361 38.443C110.361 38.443 110.361 38.5469 110.361 38.5885L110.424 38.7236C110.442 38.7653 110.467 38.8039 110.497 38.8379C110.548 38.9171 110.608 38.9903 110.676 39.0562L110.886 39.2328L111.127 39.3887L111.39 39.503C111.477 39.5483 111.568 39.5832 111.663 39.607C111.999 39.6797 112.336 39.7421 112.714 39.7836C112.881 39.8094 113.051 39.8094 113.218 39.7836C113.806 39.7836 114.384 39.6797 114.962 39.5966C115.54 39.5134 116.296 39.3472 116.968 39.2017C117.641 39.0562 118.534 38.8587 119.311 38.6509C119.864 38.5279 120.408 38.3682 120.939 38.1728C121.349 38.0065 121.769 37.8506 122.179 37.674L122.452 37.5285L122.673 37.383C122.742 37.343 122.806 37.2941 122.862 37.2375C122.913 37.1905 122.959 37.1382 122.998 37.0816C123.032 37.0368 123.061 36.9879 123.082 36.9361C123.088 36.8878 123.088 36.8389 123.082 36.7906C123.096 36.6976 123.096 36.603 123.082 36.51C123.087 36.4686 123.087 36.4267 123.082 36.3853C123.086 36.3438 123.086 36.3021 123.082 36.2606L122.998 36.1463L122.914 36.0423C122.857 35.9749 122.793 35.9123 122.725 35.8553L122.547 35.7202L122.368 35.6059L121.212 34.8472L119.406 33.808C120.456 33.0701 121.601 32.3426 122.694 31.5944C123.156 31.2722 123.608 30.9396 124.049 30.5551C124.49 30.1706 124.784 29.9316 125.099 29.6094C125.264 29.4496 125.419 29.2795 125.562 29.1002C125.634 29.0252 125.7 28.9454 125.761 28.8611L125.919 28.6221C126.055 28.3415 126.192 28.0609 126.307 27.7699C126.355 27.6533 126.387 27.531 126.402 27.4062C126.413 27.3478 126.413 27.2879 126.402 27.2295C126.408 27.1742 126.408 27.1185 126.402 27.0632C126.407 27.0079 126.407 26.9523 126.402 26.897L126.465 26.9177ZM112.987 19.643C113.607 19.0195 114.216 18.3855 114.836 17.7724C114.951 17.658 115.077 17.5541 115.203 17.4502L115.33 17.3463L115.435 17.2735H115.519H115.613H115.771V17.3359L115.96 17.471C115.989 17.5491 116.014 17.6289 116.033 17.71C116.033 17.8243 116.033 17.9386 116.107 18.053C116.107 18.3336 116.191 18.6245 116.222 18.9051C116.254 19.1857 116.296 19.6534 116.328 20.0171L116.517 21.9917L114.3 21.4825L112.199 21.1499H111.705H111.537L112.913 19.7054L112.987 19.643ZM111.6 22.3866H111.663H111.737L111.936 22.4698L112.21 22.5841L114.311 23.4778L115.718 24.0702L116.632 24.4651H116.716C116.716 25.1926 116.832 25.9097 116.863 26.6371C116.863 27.1983 116.863 27.7699 116.926 28.3311C116.926 28.4039 116.926 28.4766 116.926 28.5494C116.926 28.6221 116.926 28.6325 116.926 28.6637V28.7884C116.931 28.8229 116.931 28.8578 116.926 28.8923L116.863 28.9962H116.8H116.737H116.548H116.454H116.349L116.138 28.8923C116.06 28.8524 115.985 28.8035 115.918 28.7468C115.836 28.6938 115.759 28.6347 115.687 28.5702C115.605 28.5027 115.528 28.4298 115.456 28.3519C115.288 28.1752 115.13 28.009 114.983 27.8219C114.706 27.5065 114.447 27.1769 114.205 26.8346C113.88 26.3566 113.544 25.8785 113.229 25.4004C113.034 25.1123 112.855 24.8139 112.693 24.5067L111.758 23.1972L111.6 22.7504V22.6153V22.4906V22.3658V22.3866ZM119.479 34.7745L120.057 35.1382C120.298 35.2941 120.54 35.45 120.782 35.6266C120.953 35.7458 121.118 35.8741 121.275 36.0112C121.347 36.0717 121.414 36.1377 121.475 36.2086C121.528 36.2606 121.57 36.3229 121.622 36.3853H121.507L118.702 36.5931L115.035 36.8737H114.909L114.962 36.8114L115.193 36.6139C115.666 36.2606 116.128 35.8968 116.622 35.5747L118.723 34.1821L119.511 34.6809L119.479 34.7745ZM122.263 27.6244C122.267 27.6555 122.267 27.6869 122.263 27.718C122.252 27.7578 122.23 27.7938 122.2 27.8219C122.139 27.8961 122.072 27.9656 122 28.0297C121.85 28.1733 121.692 28.3086 121.528 28.435C120.95 28.8404 120.372 29.2561 119.784 29.651C119.374 29.9316 118.954 30.181 118.544 30.4512L116.117 32.0205L115.067 31.4385L110.707 28.9027C109.72 28.3207 108.732 27.7491 107.755 27.1568C107.566 27.0425 107.398 26.9177 107.22 26.793L107.062 26.6683L106.946 26.5644V26.4917C106.941 26.4642 106.941 26.4359 106.946 26.4085V26.315V26.2111V26.0967C106.96 26.0568 106.977 26.0185 106.999 25.9824C107.038 25.9093 107.084 25.8398 107.136 25.7746C107.196 25.6937 107.263 25.6173 107.335 25.5459C107.892 24.9744 108.47 24.4132 109.037 23.8416L110.56 22.3035L110.634 22.5529L110.812 22.9894C111.222 23.6753 111.6 24.382 112.031 25.0679C112.462 25.7538 113.081 26.606 113.575 27.3542C113.817 27.7076 114.079 28.0505 114.353 28.3935C114.626 28.7364 114.836 28.9651 115.098 29.2353C115.335 29.4669 115.584 29.6855 115.844 29.89C115.97 29.9939 116.117 30.0667 116.254 30.1602L116.464 30.2641L116.674 30.3369H116.884C116.95 30.3469 117.018 30.3469 117.084 30.3369H117.262H117.431H117.578H117.714L117.84 30.2849L117.945 30.2122L118.134 30.0667L118.271 29.9108C118.323 29.8456 118.368 29.776 118.408 29.7029C118.46 29.6094 118.513 29.5159 118.555 29.4223C118.606 29.3177 118.652 29.2101 118.691 29.1002C118.765 28.8715 118.838 28.6429 118.891 28.4143C118.983 28.0979 119.05 27.7747 119.09 27.4478L119.29 25.5771C119.742 25.785 120.204 25.972 120.645 26.2007C121.086 26.4293 121.486 26.6787 121.906 26.9177L122.042 27.0217L122.221 27.1776C122.251 27.2078 122.276 27.243 122.294 27.2815L122.357 27.3854V27.4997V27.5621C122.362 27.5826 122.362 27.6039 122.357 27.6244H122.263Z" fill="#B9B9B9"/>
</svg>
