<svg xmlns="http://www.w3.org/2000/svg" xml:space="preserve" width="30.2336mm" height="31.7499mm" version="1.1" style="shape-rendering:geometricPrecision; text-rendering:geometricPrecision; image-rendering:optimizeQuality; fill-rule:evenodd; clip-rule:evenodd"
viewBox="0 0 1501.95 1577.27"
 xmlns:xlink="http://www.w3.org/1999/xlink">
 <defs>
  <style type="text/css">
   <![CDATA[
    .fil0 {fill:#BD222F}
    .fil1 {fill:#2B2A29;fill-rule:nonzero}
   ]]>
  </style>
 </defs>
 <g id="Layer_x0020_1">
  <metadata id="CorelCorpID_0Corel-Layer"/>
  <g id="_2478429835056">
   <path class="fil0" d="M928.19 832.24c35.65,0.31 71.31,0.63 106.96,0.94 0.32,-42.22 0.63,-84.45 0.94,-126.67 -35.65,-0.31 -71.31,-0.62 -106.96,-0.94 -0.31,42.22 -0.63,84.45 -0.94,126.66zm305.87 57.23l-57.23 0 0 -183.9 -84.44 0 0 183.9 -220.49 0 0 -240.19 163.25 0c0.32,-44.09 0.63,-88.2 0.94,-132.29 -72.86,-0.31 -145.75,-0.63 -218.61,-0.94l0 189.53 -113.53 0c-0.31,42.22 -0.62,84.45 -0.94,126.66 38.15,0.31 76.32,0.63 114.47,0.94l0 56.29 -170.76 0 0 -183.9 -56.29 0 0 -56.3 169.82 0 0 -133.23 -212.04 0 0 833.17 804.08 0 0 -1349.21 -118.22 0 0 889.47zm-956.09 -577.97c9.38,-16.26 18.77,-32.53 28.15,-48.79 45.35,27.52 90.71,55.05 136.05,82.57l106.03 0 0 57.23 -121.04 0c-49.72,-30.33 -99.46,-60.68 -149.18,-91.01zm1.88 222.37c-28.14,37.83 -56.3,75.69 -84.44,113.52l0 0.94c28.15,0.32 56.3,0.63 84.44,0.94l0 240.19 -220.49 0 0 -56.29 163.26 0c0.32,-42.53 0.63,-85.07 0.94,-127.61l-142.61 0c46.28,-62.23 92.58,-124.48 138.86,-186.71 0.63,-0.63 1.26,-1.25 1.88,-1.88 -46.91,-0.31 -93.83,-0.63 -140.73,-0.94l0 -56.3 198.91 0 0 74.12zm812.54 -74.12l0 189.53 84.44 0 0 -649.27 -1172.83 0 0 1349.21 486.96 0 0 -833.17 -55.36 0 0 373.43 -57.23 0 0 -183.9 -65.67 0 0 -56.3 65.67 0 0 -132.29c-18.76,-0.31 -37.53,-0.63 -56.3,-0.94 0.31,-18.14 0.63,-36.28 0.94,-54.42l769.37 -1.88z"/>
   <path class="fil1" d="M26.4 1486.02l13.5 0c18.29,0 31.87,-2.95 40.8,-8.88 8.93,-5.9 13.37,-14.91 13.37,-26.96 0,-11.75 -3.85,-20.38 -11.5,-25.89 -7.69,-5.51 -19.82,-8.25 -36.4,-8.25l-19.78 0 0 69.98zm0 87.67l-26.4 0 0 -182.26 52.55 0c21.88,0 38.58,5.04 50.12,15.17 11.54,10.08 17.31,24.69 17.31,43.79 0,14.87 -4.83,27.26 -14.49,37.25 -9.66,9.96 -22.09,15.3 -37.3,16.07l51.78 69.98 -33.07 0 -60.5 -84.68 0 84.68z"/>
   <polygon id="1" class="fil1" points="254.1,1573.69 159.51,1573.69 159.51,1391.43 254.1,1391.43 254.1,1415.78 185.91,1415.78 185.91,1470.12 254.1,1470.12 254.1,1493.96 185.91,1493.96 185.91,1548.57 254.1,1548.57 "/>
   <path id="2" class="fil1" d="M291.37 1521.14l23.59 0c0.43,9.44 3.2,16.96 8.37,22.56 5.17,5.64 11.88,8.46 20.08,8.46 9.1,0 16.36,-2.82 21.83,-8.46 5.42,-5.6 8.16,-13.16 8.16,-22.56 0,-8.29 -2.01,-14.66 -5.98,-19.14 -3.97,-4.53 -12.35,-8.72 -25.04,-12.65 -0.69,-0.17 -1.79,-0.47 -3.37,-0.89 -15.21,-4.06 -26.24,-10.77 -33.03,-20.12 -3.08,-4.1 -5.39,-8.46 -6.93,-13.08 -1.54,-4.65 -2.31,-9.57 -2.31,-14.82 0,-15.64 4.62,-28.24 13.84,-37.89 9.23,-9.61 21.32,-14.44 36.32,-14.44 13.89,0 25.08,4.31 33.62,12.95 8.5,8.63 13.24,20.46 14.14,35.5l-24.61 0c-0.43,-7.26 -2.86,-13.15 -7.31,-17.64 -4.44,-4.49 -10,-6.71 -16.75,-6.71 -7.22,0 -13.08,2.48 -17.6,7.48 -4.53,4.96 -6.8,11.37 -6.8,19.23 0,2.74 0.43,5.34 1.24,7.73 0.85,2.43 2.14,4.7 3.88,6.8 3.59,4.27 11.24,7.94 22.99,11.02 5.39,1.41 9.57,2.65 12.48,3.63 11.96,4.49 21.06,11.07 27.25,19.65 6.19,8.59 9.31,18.89 9.31,30.89 0,17.61 -5,31.79 -14.99,42.51 -10,10.77 -23.29,16.15 -39.78,16.15 -15.51,0 -28.11,-5.13 -37.81,-15.42 -9.74,-10.3 -14.66,-23.89 -14.83,-40.72z"/>
   <polygon id="3" class="fil1" points="463.99,1573.69 437.58,1573.69 437.58,1391.43 463.99,1391.43 "/>
   <path id="4" class="fil1" d="M534.79 1549.34l32.04 0c20.3,0 36.36,-5.9 48.15,-17.73 11.83,-11.79 17.73,-27.85 17.73,-48.15 0,-21.06 -6.28,-37.51 -18.8,-49.39 -12.52,-11.84 -29.82,-17.77 -51.95,-17.77l-27.17 0 0 133.04zm25.55 24.35l-51.18 0 0 -182.26 58.7 0c27.39,0 49.47,8.46 66.31,25.42 16.79,16.92 25.21,39.05 25.21,66.35 0,15.51 -3.16,29.65 -9.44,42.43 -6.32,12.77 -15.38,23.41 -27.26,31.91 -7.99,5.77 -16.53,9.91 -25.63,12.39 -9.1,2.52 -21.36,3.76 -36.7,3.76z"/>
   <polygon id="5" class="fil1" points="792.95,1573.69 698.36,1573.69 698.36,1391.43 792.95,1391.43 792.95,1415.78 724.76,1415.78 724.76,1470.12 792.95,1470.12 792.95,1493.96 724.76,1493.96 724.76,1548.57 792.95,1548.57 "/>
   <polygon id="6" class="fil1" points="866.37,1573.69 839.96,1573.69 839.96,1391.43 867.14,1391.43 956.6,1529.39 955.32,1391.43 981.47,1391.43 981.47,1573.69 956.17,1573.69 864.57,1431.59 "/>
   <path id="7" class="fil1" d="M1193.74 1528.06c-7.9,15.89 -18.88,28.07 -32.85,36.53 -13.97,8.46 -30.16,12.69 -48.62,12.69 -13.67,0 -26.28,-2.65 -37.85,-7.9 -11.54,-5.25 -21.92,-13.03 -31.06,-23.37 -7.78,-8.59 -13.68,-18.37 -17.65,-29.35 -4.02,-10.98 -6.03,-22.69 -6.03,-35.21 0,-12.69 2.43,-24.73 7.26,-36.1 4.83,-11.41 11.92,-21.74 21.28,-31.1 8.84,-8.67 18.67,-15.25 29.48,-19.69 10.77,-4.49 22.39,-6.71 34.82,-6.71 18.71,0 35.12,4.4 49.26,13.24 14.14,8.85 24.78,21.36 31.96,37.51l-31.02 0c-5.85,-8.07 -13.03,-14.14 -21.53,-18.24 -8.54,-4.06 -18.16,-6.11 -28.97,-6.11 -8.59,0 -16.75,1.62 -24.53,4.87 -7.77,3.24 -14.65,7.99 -20.68,14.14 -6.24,6.41 -11.15,13.89 -14.66,22.39 -3.5,8.54 -5.26,17.22 -5.26,26.06 0,9.48 1.58,18.46 4.74,26.96 3.2,8.46 7.73,15.76 13.67,21.96 6.24,6.49 13.46,11.54 21.66,15.12 8.16,3.59 16.54,5.39 25.04,5.39 10.42,0 19.87,-1.96 28.24,-5.94 8.37,-3.93 15.3,-9.66 20.72,-17.13l32.55 0z"/>
   <polygon id="8" class="fil1" points="1295.56,1508.11 1295.56,1573.69 1269.16,1573.69 1269.16,1506.48 1213.28,1391.43 1242.71,1391.43 1282.79,1479.06 1322.69,1391.43 1351.96,1391.43 "/>
   <path class="fil1" d="M1445.38 30.84l-9.76 0 0 20.92 10.07 0c5.68,0 9.79,-0.8 12.24,-2.37 2.48,-1.6 3.72,-4.14 3.72,-7.68 0,-3.83 -1.29,-6.59 -3.85,-8.32 -2.59,-1.7 -6.72,-2.56 -12.43,-2.56zm2.12 -7.74c8.78,0 15.37,1.44 19.79,4.36 4.41,2.89 6.61,7.21 6.61,12.97 0,4.5 -1.27,8.24 -3.77,11.21 -2.53,2.97 -6.07,4.91 -10.67,5.81l14.13 28.87 -13.38 0 -12.87 -26.97 -11.72 0 0 26.97 -11.93 0 0 -63.23 23.81 0zm47.17 33.21c0,-6.74 -1.16,-13.07 -3.51,-18.96 -2.35,-5.89 -5.79,-11.08 -10.28,-15.55 -4.65,-4.7 -9.92,-8.27 -15.81,-10.7 -5.89,-2.45 -12.17,-3.66 -18.83,-3.66 -6.56,0 -12.76,1.18 -18.57,3.54 -5.82,2.37 -10.9,5.79 -15.24,10.2 -4.75,4.8 -8.4,10.18 -10.95,16.17 -2.56,6 -3.83,12.17 -3.83,18.52 0,6.3 1.21,12.35 3.67,18.16 2.45,5.84 6,11.05 10.59,15.68 4.55,4.65 9.77,8.21 15.66,10.69 5.86,2.5 11.96,3.75 18.21,3.75 6.59,0 12.81,-1.21 18.7,-3.61 5.89,-2.43 11.23,-5.97 16.09,-10.6 4.55,-4.44 8.03,-9.53 10.46,-15.29 2.43,-5.76 3.65,-11.88 3.65,-18.34zm-48.66 -56.31c7.62,0 14.85,1.42 21.64,4.23 6.82,2.85 12.89,6.95 18.18,12.35 5.19,5.24 9.17,11.26 11.96,18 2.77,6.77 4.16,13.85 4.16,21.21 0,7.62 -1.4,14.77 -4.16,21.47 -2.79,6.69 -6.82,12.6 -12.11,17.74 -5.5,5.35 -11.67,9.45 -18.52,12.3 -6.82,2.87 -13.9,4.29 -21.15,4.29 -7.42,0 -14.49,-1.42 -21.23,-4.29 -6.74,-2.85 -12.79,-7 -18.13,-12.45 -5.3,-5.35 -9.32,-11.37 -12.12,-18.06 -2.76,-6.69 -4.16,-13.69 -4.16,-21 0,-7.36 1.45,-14.49 4.37,-21.39 2.9,-6.9 7.08,-13.1 12.53,-18.57 5.09,-5.22 10.92,-9.15 17.51,-11.83 6.59,-2.66 13.67,-4 21.23,-4z"/>
  </g>
 </g>
</svg>
