<svg xmlns="http://www.w3.org/2000/svg" xml:space="preserve" width="38.1mm" height="20.2167mm" version="1.1" style="shape-rendering:geometricPrecision; text-rendering:geometricPrecision; image-rendering:optimizeQuality; fill-rule:evenodd; clip-rule:evenodd"
viewBox="0 0 3824.54 2029.38"
 xmlns:xlink="http://www.w3.org/1999/xlink">
 <defs>
  <style type="text/css">
   <![CDATA[
    .fil1 {fill:black}
    .fil0 {fill:#630622}
   ]]>
  </style>
 </defs>
 <g id="Layer_x0020_1">
  <metadata id="CorelCorpID_0Corel-Layer"/>
  <g id="_2478410035904">
   <path class="fil0" d="M1390.1 1251.78c53.62,0.47 107.26,0.94 160.88,1.42 0.48,-63.5 0.94,-127.02 1.42,-190.52 -53.62,-0.46 -107.26,-0.93 -160.88,-1.42 -0.47,63.5 -0.95,127.02 -1.42,190.52zm460.08 86.09l-86.1 0 0 -276.61 -127.01 0 0 276.61 -331.65 0 0 -361.28 245.56 0c0.48,-66.32 0.94,-132.66 1.42,-198.99 -109.6,-0.46 -219.23,-0.94 -328.83,-1.41l0 285.06 -170.76 0c-0.47,63.5 -0.94,127.02 -1.42,190.52 57.39,0.47 114.8,0.94 172.17,1.42l0 84.67 -256.85 0 0 -276.61 -84.67 0 0 -84.67 255.43 0 0 -200.39 -318.94 0 0 1253.19 1209.46 0 0 -2029.39 -177.82 0 0 1337.87zm-1438.09 -869.33c14.1,-24.46 28.23,-48.93 42.33,-73.39 68.21,41.4 136.44,82.8 204.64,124.19l159.48 0 0 86.09 -182.06 0c-74.78,-45.62 -149.59,-91.27 -224.38,-136.89zm2.82 334.47c-42.33,56.91 -84.68,113.85 -127.01,170.76l0 1.41c42.33,0.48 84.68,0.94 127.01,1.42l0 361.28 -331.65 0 0 -84.67 245.56 0c0.47,-63.97 0.94,-127.96 1.41,-191.94l-214.51 0c69.61,-93.6 139.25,-187.23 208.86,-280.83 0.94,-0.94 1.89,-1.89 2.82,-2.83 -70.55,-0.46 -141.14,-0.94 -211.68,-1.41l0 -84.68 299.19 0 0 111.49zm1222.15 -111.49l0 285.07 127.01 0 0 -976.59 -1764.08 0 0 2029.39 732.45 0 0 -1253.19 -83.27 0 0 561.67 -86.09 0 0 -276.61 -98.79 0 0 -84.67 98.79 0 0 -198.99c-28.22,-0.46 -56.45,-0.94 -84.67,-1.41 0.46,-27.28 0.94,-54.57 1.41,-81.85l1157.24 -2.83z"/>
   <path class="fil1" d="M3824.54 757.84l0 -63.51 -413.5 0 0 644.96 413.5 0 0 -63.52 -341.52 0 0 -237.08 327.4 0 0 -60.69 -327.4 0 0 -220.16 341.52 0zm-1409.79 -70.89c76.88,0 185.55,0 221.76,65.79 0,0 25.13,24.39 28.83,124.92 3.69,100.52 0,283.11 0,283.11 0,0 4.43,66.52 -29.57,117.54 -34.01,50.99 -104.97,60.61 -104.97,60.61 0,0 -42.87,4.49 -92.77,5.76l0 0 -0.06 0c-8.22,0.21 -16.62,0.33 -25.07,0.33l0 -0.33 0 0 0 0.33c-8.43,0 -16.84,-0.12 -25.07,-0.33l-0.71 0 0 -0.02c-49.62,-1.29 -92.12,-5.74 -92.12,-5.74 0,0 -70.96,-9.62 -104.97,-60.61 -34,-51.01 -29.56,-117.54 -29.56,-117.54 0,0 -3.7,-182.58 0,-283.11 3.69,-100.53 28.82,-124.92 28.82,-124.92 32.59,-59.21 123.86,-65.13 197.83,-65.72l0 0 0.14 0c8.16,-0.07 16.13,-0.07 23.79,-0.07l0 0.07 3.69 0 0 -0.07zm-0.5 62.58c55.59,0 134.18,0 160.38,47.58 0,0 18.18,17.64 20.85,90.35 2.67,72.71 -0.01,262.74 -0.01,262.74 0,0 3.21,48.11 -21.37,85 -24.6,36.89 -75.92,43.84 -75.92,43.84 0,0 -31.02,3.24 -67.11,4.18l0 0 -0.04 0c-5.94,0.14 -12.03,0.23 -18.13,0.23l0 -0.23 0 0 0 0.23c-6.1,0 -12.18,-0.09 -18.13,-0.23l-0.52 0 0 -0.02c-35.88,-0.94 -66.62,-4.16 -66.62,-4.16 0,0 -51.32,-6.95 -75.92,-43.84 -24.58,-36.89 -21.37,-85 -21.37,-85 0,0 -2.68,-190.03 -0.01,-262.74 2.67,-72.72 20.85,-90.35 20.85,-90.35 23.58,-42.81 89.58,-47.1 143.07,-47.53l0 0 0.1 0c5.91,-0.05 11.67,-0.05 17.21,-0.05l0 0.05 2.69 0 0 -0.05zm828.84 533.31l-2.81 0c-119,-195.21 -238.05,-390.47 -357.06,-585.68l-124.18 -2.83 0 644.96 74.78 0 0 -584.27c120.89,194.73 241.81,389.52 362.71,584.27l119.96 0 0 -644.96 -73.4 0 0 588.51z"/>
  </g>
 </g>
</svg>
