<svg width="145" height="65" viewBox="0 0 145 65" fill="none" xmlns="http://www.w3.org/2000/svg">
<path fill-rule="evenodd" clip-rule="evenodd" d="M19.9199 14.4219V33.4574H39.0381V14.4219H19.9199ZM33.158 27.5925H25.8001V20.2664H33.158V27.5925Z" fill="#B9B9B9"/>
<path d="M51.7835 19.9727H44.6133V27.111H51.7835V19.9727Z" fill="#B9B9B9"/>
<path fill-rule="evenodd" clip-rule="evenodd" d="M57.3697 14.4219H68.1134C72.0568 14.4219 73.8578 17.0172 73.8578 19.3877C73.9024 21.0402 72.9342 22.5565 71.4048 23.2295C73.5033 23.7749 74.9443 25.6759 74.8825 27.8172C74.8825 30.5454 72.8745 33.4574 68.1237 33.4574H57.3594L57.3697 14.4219ZM63.2384 29.1558H67.1197C67.6384 29.1957 68.1504 29.0197 68.5318 28.6704C68.9132 28.321 69.1293 27.8302 69.1277 27.3166C69.1095 26.8661 68.9059 26.4425 68.564 26.1435C68.2222 25.8446 67.7716 25.6963 67.3164 25.7328H63.2384V29.1558ZM63.2384 21.9114H66.3435C67.7718 21.9114 68.3411 21.2575 68.3411 20.297C68.3551 19.8845 68.188 19.486 67.8825 19.2041C67.5771 18.9221 67.1632 18.7842 66.7471 18.8257H63.2487L63.2384 21.9114Z" fill="#B9B9B9"/>
<path fill-rule="evenodd" clip-rule="evenodd" d="M81.0161 14.4219H87.0846L94.0027 33.4574H87.7724L86.8621 30.6123H81.0464L80.2676 33.4472H74.0879L81.0161 14.4219ZM83.8076 20.0711L82.1994 26.4163H85.6282L83.8076 20.0711Z" fill="#B9B9B9"/>
<path fill-rule="evenodd" clip-rule="evenodd" d="M104.293 19.7525H110.186C110.186 16.5751 107.744 13.6289 101.944 13.6289C95.5664 13.6289 93.5882 17.0577 93.5882 19.5715C93.5882 23.5935 98.6778 24.6996 98.8323 24.7499C99.5947 24.9811 102.747 25.7554 103.53 26.0872C104.228 26.2788 104.737 26.863 104.818 27.5653C104.818 28.6613 103.479 29.1842 102.366 29.1842C101.655 29.1842 99.2754 28.9529 99.2754 26.4793H93.207C93.207 29.7674 95.5252 33.4576 102.047 33.4576C109.259 33.4576 110.732 29.2747 110.732 27.0424C110.705 24.8951 109.318 22.9886 107.25 22.2562C105.787 21.673 103.355 21.1702 102.098 20.8284C101.49 20.6474 99.4402 20.2452 99.4402 19.0285C99.4402 17.4599 102.078 17.6711 101.686 17.6711C102.318 17.5921 102.956 17.7704 103.449 18.1641C103.942 18.5579 104.247 19.1323 104.293 19.7525Z" fill="#B9B9B9"/>
<path fill-rule="evenodd" clip-rule="evenodd" d="M111.557 14.4219H125.866V19.449H117.269V22.8004H124.934V27.6027H117.249V33.4574H111.527L111.557 14.4219Z" fill="#B9B9B9"/>
<path fill-rule="evenodd" clip-rule="evenodd" d="M27.4903 48.044V48.0144L25.664 41.3867H24.5213L22.6746 48.044H22.6032L22.593 48.0144L20.981 41.3867H19.9199L22.0217 49.3182H23.1236L25.0314 42.6016H25.1029V42.6214L26.9904 49.3182H28.082L30.2756 41.3867H29.2451L27.5617 48.044H27.4903Z" fill="#B9B9B9"/>
<path fill-rule="evenodd" clip-rule="evenodd" d="M35.2795 44.1552C35.0678 43.8155 34.78 43.5291 34.4386 43.3184C34.033 43.0824 33.569 42.9643 33.0993 42.9776C32.7101 42.9719 32.3242 43.0494 31.9677 43.2048C31.6273 43.3567 31.3231 43.5785 31.0749 43.8556C30.8149 44.1604 30.6143 44.5107 30.4831 44.8886C30.3428 45.294 30.2726 45.7201 30.2755 46.1488C30.2829 46.5767 30.3528 47.0012 30.4831 47.4091C30.5847 47.7886 30.769 48.1413 31.023 48.442C31.2677 48.7204 31.5731 48.9395 31.9158 49.0825C32.3096 49.2482 32.7342 49.3292 33.1616 49.3201C33.7695 49.3411 34.3676 49.1633 34.8643 48.8139C35.3248 48.4442 35.6317 47.9181 35.7259 47.3367H34.802C34.7363 47.6854 34.5442 47.9979 34.2621 48.2148C33.9552 48.4183 33.5927 48.5229 33.2239 48.5143C32.9212 48.524 32.62 48.4675 32.3415 48.3491C32.1109 48.2459 31.9055 48.0944 31.7393 47.9049C31.5741 47.7171 31.4534 47.4946 31.3863 47.2541C31.3127 47.0062 31.2811 46.7479 31.2929 46.4897H35.8505C35.8606 46.115 35.8257 45.7405 35.7467 45.3741C35.6681 44.9781 35.5167 44.5999 35.3003 44.2585M31.2929 45.6736C31.3016 45.442 31.3544 45.2142 31.4486 45.0022C31.5336 44.7953 31.6569 44.6061 31.812 44.4444C31.9655 44.2861 32.149 44.1597 32.3518 44.0725C32.5786 43.9786 32.8226 43.9329 33.0682 43.9382C33.307 43.9337 33.544 43.9794 33.7638 44.0725C33.9712 44.157 34.1586 44.2837 34.314 44.4444C34.471 44.6027 34.5977 44.7883 34.6878 44.9919C34.7794 45.2088 34.8355 45.439 34.8539 45.6736H31.2929Z" fill="#B9B9B9"/>
<path fill-rule="evenodd" clip-rule="evenodd" d="M42.6827 48.4919C42.3901 48.5001 42.1002 48.4355 41.8394 48.3039C41.6124 48.179 41.4176 48.0039 41.2702 47.7921C41.1213 47.568 41.0109 47.3209 40.9434 47.061C40.8766 46.7873 40.8413 46.507 40.838 46.2255C40.8402 45.9232 40.8756 45.622 40.9434 45.3272C41.0007 45.0495 41.1078 44.7842 41.2596 44.5439C41.4119 44.3167 41.6182 44.1302 41.8605 44.0008C42.1518 43.8587 42.4741 43.7905 42.7986 43.8023C43.1777 43.7823 43.5515 43.8971 43.8527 44.1261C44.1192 44.3601 44.2976 44.6768 44.3587 45.0244H45.339C45.3151 44.7087 45.2215 44.402 45.0649 44.1261C44.9249 43.8719 44.7306 43.6509 44.4957 43.4786C44.2528 43.3079 43.9817 43.1806 43.6946 43.1026C43.375 43.0172 43.0453 42.975 42.7143 42.9772C42.2792 42.968 41.8474 43.0536 41.4494 43.2279C41.1003 43.3849 40.7934 43.6211 40.5534 43.9172C40.304 44.2268 40.1178 44.5816 40.0053 44.9617C39.8883 45.3763 39.8315 45.8054 39.8366 46.2359C39.8288 46.6605 39.8893 47.0835 40.0158 47.4893C40.13 47.8466 40.3165 48.1771 40.5639 48.4606C40.8097 48.7378 41.1162 48.9557 41.4599 49.0977C41.8521 49.2516 42.2714 49.3262 42.6932 49.317C43.3752 49.3574 44.0468 49.1368 44.5695 48.7008C45.0412 48.2473 45.3393 47.6455 45.4128 46.9984H44.4324C44.3812 47.3934 44.1996 47.7606 43.9159 48.0428C43.58 48.3201 43.1509 48.4618 42.7143 48.4397" fill="#B9B9B9"/>
<path fill-rule="evenodd" clip-rule="evenodd" d="M48.0431 43.3203C47.6423 43.586 47.3183 43.9545 47.104 44.3881V43.128H46.207V49.3217H47.1567V46.5773C47.1523 46.2172 47.1949 45.8582 47.2834 45.5094C47.3502 45.2121 47.4838 44.9344 47.6738 44.6978C47.8593 44.4678 48.1039 44.2942 48.3808 44.1959C48.7056 44.0799 49.0497 44.0291 49.3938 44.0464V42.9785H49.2883C48.8498 42.9598 48.4159 43.0751 48.0431 43.3096" fill="#B9B9B9"/>
<path fill-rule="evenodd" clip-rule="evenodd" d="M54.4093 44.1686C54.1937 43.8245 53.9024 43.5349 53.5579 43.3222C53.1555 43.0849 52.6952 42.9654 52.229 42.9774C51.8397 42.9706 51.4535 43.0491 51.0973 43.2073C50.7523 43.3582 50.4441 43.5829 50.194 43.8656C49.9333 44.1716 49.7356 44.5268 49.6126 44.9105C49.4721 45.2955 49.3984 45.702 49.3945 46.1121C49.4121 46.544 49.4819 46.9721 49.6022 47.3869C49.7083 47.7691 49.8921 48.125 50.1421 48.4319C50.3868 48.7135 50.6922 48.935 51.035 49.0797C51.4295 49.245 51.8536 49.3268 52.2809 49.3201C52.8888 49.3413 53.4869 49.1614 53.9836 48.808C54.4442 48.434 54.7512 47.9018 54.8454 47.3138H53.9213C53.8605 47.6683 53.6674 47.986 53.3814 48.202C53.0751 48.4092 52.7122 48.5151 52.3432 48.505C52.0439 48.5132 51.7464 48.4562 51.471 48.3378C51.2359 48.2363 51.0265 48.0827 50.8585 47.8885C50.697 47.6959 50.5768 47.4718 50.5055 47.2302C50.4418 46.9775 50.4104 46.7177 50.412 46.457H54.97C54.9785 46.0785 54.9472 45.7002 54.8765 45.3285C54.7934 44.9292 54.6424 44.5474 54.4301 44.1999M50.3705 45.6001C50.3892 45.3673 50.4417 45.1385 50.5262 44.9209C50.6151 44.7137 50.738 44.523 50.8896 44.3567C51.0431 44.1966 51.2266 44.0687 51.4295 43.9805C51.6566 43.8864 51.9004 43.8402 52.1459 43.8447C52.3881 43.8401 52.6285 43.8864 52.8519 43.9805C53.2662 44.161 53.5966 44.4935 53.776 44.9105C53.8644 45.1304 53.917 45.3633 53.9317 45.6001H50.3705Z" fill="#B9B9B9"/>
<path fill-rule="evenodd" clip-rule="evenodd" d="M60.8055 48.3712C60.7842 48.1926 60.7842 48.012 60.8055 47.8334V44.6696C60.8203 44.3717 60.7523 44.0755 60.6094 43.8154C60.4864 43.5985 60.3079 43.4198 60.0931 43.2986C59.8677 43.1757 59.6232 43.0936 59.3703 43.0561C58.7899 42.9501 58.1956 42.9501 57.6151 43.0561C57.3316 43.1221 57.0623 43.24 56.82 43.4041C56.5908 43.5662 56.4003 43.7788 56.2625 44.0263C56.1218 44.3152 56.0443 44.6318 56.0353 44.9543H56.9646C56.9544 44.5846 57.1346 44.2364 57.4395 44.0368C57.7591 43.8708 58.1136 43.7876 58.4721 43.7943C58.6337 43.7838 58.7957 43.7838 58.9573 43.7943C59.1131 43.8146 59.2637 43.8646 59.4013 43.9419C59.5377 44.0194 59.6516 44.1321 59.7317 44.2689C59.8209 44.4368 59.8637 44.6264 59.8556 44.8172C59.8655 44.9905 59.8015 45.1597 59.6801 45.2813C59.5484 45.3936 59.3928 45.473 59.2258 45.5133C59.0085 45.5704 58.7878 45.6127 58.565 45.6398C58.3275 45.6398 58.0694 45.7031 57.7906 45.7558L57.0369 45.9351C56.8079 46.0039 56.5916 46.1108 56.3967 46.2515C56.2063 46.3922 56.0507 46.5763 55.9424 46.7893C55.8163 47.0514 55.756 47.3413 55.7669 47.633C55.7599 47.9018 55.8128 48.1687 55.9217 48.4134C56.0216 48.6199 56.1664 48.8003 56.3451 48.9407C56.5349 49.0788 56.7486 49.179 56.9749 49.236C57.2259 49.2918 57.4821 49.3201 57.739 49.3204C58.1382 49.3241 58.5344 49.2489 58.9057 49.0989C59.2707 48.9453 59.5933 48.7027 59.8453 48.3923V48.3185V48.4029C59.825 48.66 59.9068 48.9147 60.0724 49.1095C60.2347 49.2547 60.4455 49.3302 60.661 49.3204C60.8967 49.3309 61.1312 49.2801 61.3424 49.1727V48.4556C61.2534 48.4686 61.163 48.4686 61.074 48.4556C60.895 48.4556 60.7918 48.3923 60.7642 48.2658M59.7937 47.0319C59.7878 47.193 59.7491 47.351 59.6801 47.4959C59.5999 47.6738 59.4878 47.8347 59.3497 47.9705C59.1744 48.1199 58.9753 48.2376 58.7612 48.3185C58.4898 48.4177 58.2026 48.4642 57.9145 48.4556C57.7635 48.4717 57.6112 48.4717 57.4602 48.4556C57.3239 48.4234 57.1945 48.3663 57.0782 48.2869C56.9688 48.2138 56.877 48.1165 56.8097 48.0021C56.7372 47.8666 56.7015 47.7136 56.7065 47.5592C56.6951 47.3376 56.7569 47.1185 56.882 46.937C56.9986 46.7799 57.156 46.6593 57.3363 46.589C57.5335 46.4996 57.742 46.4392 57.9558 46.4097L58.6269 46.3148L59.2568 46.2093C59.4316 46.1757 59.5971 46.1038 59.742 45.9984L59.7937 47.0319Z" fill="#B9B9B9"/>
<path fill-rule="evenodd" clip-rule="evenodd" d="M70.3209 44.1553C70.1096 43.8156 69.8223 43.5292 69.4816 43.3185C69.0767 43.0825 68.6136 42.9643 68.1448 42.9776C67.7563 42.9719 67.3712 43.0494 67.0153 43.2048C66.6756 43.3568 66.3719 43.5786 66.1242 43.8557C65.8647 44.1605 65.6644 44.5108 65.5335 44.8887C65.3934 45.2941 65.3234 45.7203 65.3263 46.1491C65.3336 46.577 65.4035 47.0016 65.5335 47.4094C65.6349 47.789 65.8188 48.1417 66.0723 48.4425C66.3148 48.7183 66.6156 48.9371 66.9531 49.083C67.3501 49.2478 67.7771 49.3287 68.207 49.3206C68.8132 49.3378 69.409 49.1604 69.9064 48.8144C70.3661 48.4446 70.6724 47.9185 70.7665 47.3371H69.8442C69.7787 47.6858 69.5869 47.9983 69.3054 48.2152C68.9988 48.4182 68.6371 48.5227 68.2692 48.5148C67.9705 48.5229 67.6735 48.4665 67.3987 48.3495C67.1671 48.2439 66.9591 48.0928 66.7873 47.9053C66.6294 47.7143 66.5129 47.4927 66.4454 47.2545C66.3719 47.0066 66.3404 46.7482 66.3521 46.49H70.9012C70.9116 46.1153 70.8768 45.7407 70.7976 45.3743C70.7191 44.9782 70.568 44.6 70.352 44.2586M66.3729 45.6739C66.3815 45.4422 66.4343 45.2144 66.5283 45.0024C66.6133 44.7979 66.7325 44.6093 66.8806 44.4445C67.0395 44.2883 67.2256 44.1622 67.4298 44.0726C67.6559 43.9778 67.8996 43.9321 68.1448 43.9383C68.3831 43.9337 68.6198 43.9795 68.8391 44.0726C69.0446 44.1599 69.2312 44.2862 69.3883 44.4445C69.545 44.6029 69.6714 44.7884 69.7613 44.992C69.8528 45.209 69.9088 45.4392 69.9271 45.6739H66.3729Z" fill="#B9B9B9"/>
<path fill-rule="evenodd" clip-rule="evenodd" d="M77.7262 48.4615C77.432 48.4697 77.1404 48.405 76.8781 48.2734C76.6519 48.1456 76.4566 47.971 76.3055 47.7616C76.154 47.5383 76.0428 47.2909 75.9769 47.0303C75.9132 46.7562 75.8812 46.4759 75.8814 46.1946C75.8802 45.8927 75.9122 45.5915 75.9769 45.2963C76.0345 45.0185 76.1422 44.7531 76.2949 44.5128C76.4509 44.288 76.6578 44.102 76.8993 43.9696C77.1923 43.8275 77.5165 43.7593 77.8428 43.7711C78.6313 43.6915 79.339 44.2493 79.4332 45.0247H80.4298C80.3974 44.7091 80.3 44.4034 80.1435 44.1263C80.0027 43.872 79.8073 43.651 79.571 43.4786C79.3267 43.3079 79.054 43.1806 78.7652 43.1026C78.4438 43.0172 78.1121 42.975 77.7792 42.9772C77.3416 42.968 76.9073 43.0536 76.507 43.2279C76.1559 43.385 75.8472 43.6212 75.6058 43.9174C75.3543 44.2251 75.1702 44.5808 75.0651 44.962C74.943 45.376 74.8822 45.8053 74.8848 46.2364C74.8829 46.6607 74.9437 47.0829 75.0651 47.49C75.1799 47.8473 75.3675 48.1779 75.6164 48.4615C75.8636 48.7387 76.1719 48.9566 76.5176 49.0987C76.9125 49.2512 77.3339 49.3258 77.758 49.318C78.4318 49.3532 79.0943 49.1369 79.6134 48.7122C80.0879 48.2586 80.3877 47.6567 80.4616 47.0094H79.4862C79.4309 47.4056 79.2446 47.7728 78.9561 48.0541C78.6182 48.3314 78.1866 48.4731 77.7474 48.451" fill="#B9B9B9"/>
<path fill-rule="evenodd" clip-rule="evenodd" d="M86.4054 44.0568C86.2437 43.8652 86.0338 43.7191 85.7967 43.6331C85.4793 43.5108 85.139 43.4571 84.7988 43.4755C84.6215 43.4777 84.4446 43.4942 84.2699 43.5248C84.0876 43.5645 83.9102 43.624 83.7411 43.7021C83.5785 43.7801 83.4275 43.8796 83.292 43.9977C83.147 44.1187 83.0311 44.2702 82.9528 44.4411V41.3867H82.0547V49.2689H82.9528V46.0865C82.9529 45.8394 82.9898 45.5938 83.0625 45.3574C83.13 45.143 83.2421 44.945 83.3918 44.7761C83.542 44.6052 83.7297 44.4704 83.9407 44.382C84.1893 44.29 84.4536 44.2465 84.719 44.2539C85.0456 44.239 85.3649 44.3523 85.6071 44.5692C85.8332 44.805 85.9522 45.1217 85.9364 45.4461V49.3182H86.8345V45.5544C86.8387 45.2689 86.8051 44.9841 86.7347 44.7071C86.6803 44.4671 86.5672 44.2438 86.4054 44.0568Z" fill="#B9B9B9"/>
<path fill-rule="evenodd" clip-rule="evenodd" d="M92.6809 44.1686C92.4637 43.8245 92.1703 43.5349 91.8232 43.3222C91.4178 43.0849 90.9541 42.9654 90.4844 42.9774C90.0922 42.9706 89.7032 43.0491 89.3443 43.2073C88.9968 43.3582 88.6863 43.5829 88.4343 43.8656C88.1716 44.1716 87.9725 44.5268 87.8486 44.9105C87.7071 45.2955 87.6328 45.702 87.6289 46.1121C87.6466 46.544 87.7169 46.9721 87.8381 47.3869C87.945 47.7691 88.1302 48.125 88.382 48.4319C88.6285 48.7135 88.9362 48.935 89.2815 49.0797C89.679 49.245 90.1062 49.3268 90.5367 49.3201C91.1491 49.3413 91.7517 49.1614 92.2521 48.808C92.7005 48.4271 92.9943 47.8958 93.0784 47.3138H92.1475C92.0862 47.6683 91.8916 47.986 91.6036 48.202C91.2949 48.4092 90.9293 48.5151 90.5576 48.505C90.2561 48.5132 89.9564 48.4562 89.679 48.3378C89.4421 48.2363 89.2312 48.0827 89.0619 47.8885C88.8985 47.6979 88.7805 47.4729 88.7167 47.2302C88.639 46.9801 88.6036 46.7187 88.6121 46.457H93.2039C93.2144 46.078 93.1793 45.6991 93.0993 45.3285C93.0238 44.9284 92.8748 44.5458 92.66 44.1999M88.6121 45.6315C88.6309 45.3986 88.6838 45.1698 88.769 44.9523C88.8586 44.7451 88.9823 44.5543 89.1351 44.388C89.2897 44.2279 89.4746 44.1001 89.679 44.0119C89.9078 43.9178 90.1534 43.8715 90.4007 43.876C90.6447 43.8715 90.8869 43.9177 91.112 44.0119C91.5293 44.1923 91.8622 44.5249 92.0429 44.9418C92.132 45.1618 92.185 45.3947 92.1998 45.6315H88.6121Z" fill="#B9B9B9"/>
<path fill-rule="evenodd" clip-rule="evenodd" d="M102.296 43.3951C102.12 43.2484 101.92 43.1394 101.706 43.0741C101.453 43.0068 101.192 42.9744 100.93 42.9778C100.57 42.9709 100.215 43.0668 99.899 43.256C99.5918 43.436 99.3341 43.7018 99.1524 44.0262V44.0904V44.0155C99.0629 43.6727 98.8505 43.3836 98.5631 43.2132C98.2583 43.0481 97.921 42.9673 97.5807 42.9778C96.8289 42.9508 96.1195 43.3573 95.7143 44.0476V43.1169H94.8008V49.3217H95.6849V45.4491C95.6914 45.2916 95.7213 45.1362 95.7733 44.9891C95.836 44.7948 95.929 44.6139 96.0483 44.4542C96.181 44.2723 96.3443 44.1198 96.5297 44.0048C96.7545 43.8799 97.0042 43.8175 97.2566 43.823C97.4417 43.8141 97.6264 43.8507 97.7968 43.93C97.9335 43.9954 98.052 44.0987 98.1407 44.2295C98.223 44.367 98.2828 44.5191 98.3175 44.6788C98.3498 44.8658 98.3663 45.0556 98.3666 45.2458V49.3217H99.2507V45.4491C99.2325 45.0083 99.3817 44.5788 99.6633 44.2616C99.967 43.9571 100.371 43.7989 100.783 43.823C100.981 43.8134 101.179 43.8499 101.363 43.93C101.502 43.9997 101.624 44.1063 101.716 44.2402C101.801 44.3791 101.858 44.5358 101.883 44.7002C101.899 44.8817 101.899 45.0643 101.883 45.2458V49.3217H102.767V44.7644C102.772 44.4826 102.725 44.2027 102.63 43.9407C102.548 43.7256 102.416 43.5375 102.247 43.3951" fill="#B9B9B9"/>
<path fill-rule="evenodd" clip-rule="evenodd" d="M105.108 42.4674H104.359V41.3867H105.076L105.108 42.4674ZM105.108 43.5679H104.359V49.3182H105.076L105.108 43.5679Z" fill="#B9B9B9"/>
<path fill-rule="evenodd" clip-rule="evenodd" d="M110.76 48.9312C110.987 48.7893 111.178 48.5881 111.314 48.3462C111.462 48.0703 111.536 47.7557 111.528 47.4373C111.533 47.1901 111.479 46.9456 111.372 46.7269C111.27 46.5336 111.127 46.3689 110.954 46.2464C110.779 46.1052 110.582 45.999 110.372 45.933C110.146 45.8497 109.916 45.7834 109.682 45.7345L109.021 45.5674C108.82 45.5201 108.622 45.4572 108.429 45.3793C108.263 45.3143 108.111 45.2149 107.982 45.0868C107.863 44.9726 107.796 44.8089 107.797 44.6376C107.791 44.4914 107.833 44.3476 107.914 44.2302C107.996 44.1243 108.099 44.0388 108.215 43.9795C108.342 43.9192 108.476 43.877 108.613 43.8541C108.908 43.7913 109.212 43.7913 109.507 43.8541C109.655 43.8848 109.797 43.9451 109.925 44.0317C110.058 44.1051 110.169 44.2174 110.245 44.3555C110.328 44.4974 110.378 44.6586 110.391 44.8256H111.265C111.255 44.5198 111.182 44.2203 111.052 43.9481C110.938 43.712 110.771 43.5107 110.566 43.3631C110.347 43.2204 110.107 43.118 109.857 43.0601C109.562 43.0041 109.263 42.9761 108.963 42.9766C108.711 42.9775 108.46 43.009 108.215 43.0706C107.98 43.1396 107.755 43.2414 107.545 43.3735C107.348 43.5101 107.182 43.6921 107.059 43.9063C106.931 44.1402 106.867 44.4082 106.874 44.6794C106.856 45.0066 106.949 45.3297 107.137 45.5882C107.324 45.8104 107.557 45.9822 107.817 46.0897C108.104 46.2193 108.404 46.3139 108.71 46.3717C109.031 46.4449 109.332 46.518 109.604 46.6016C109.853 46.6708 110.089 46.7838 110.304 46.9359C110.496 47.0703 110.608 47.3054 110.595 47.5522C110.602 47.7261 110.55 47.8968 110.449 48.0328C110.364 48.1631 110.246 48.2646 110.109 48.3253C109.964 48.3938 109.81 48.4395 109.653 48.4611C109.312 48.5191 108.964 48.5191 108.623 48.4611C108.448 48.4216 108.281 48.351 108.127 48.2521C107.983 48.1574 107.86 48.0289 107.768 47.8761C107.685 47.7078 107.636 47.5228 107.622 47.3328H106.748C106.761 47.6516 106.834 47.9642 106.962 48.2521C107.089 48.5024 107.268 48.7171 107.486 48.879C107.714 49.0415 107.968 49.1583 108.234 49.2237C108.814 49.3544 109.413 49.3544 109.993 49.2237C110.264 49.1753 110.524 49.0725 110.76 48.9207" fill="#B9B9B9"/>
<path fill-rule="evenodd" clip-rule="evenodd" d="M114.259 41.3867H113.342V43.2332H112.324V44.0668H113.342V48.0341C113.333 48.2657 113.36 48.4975 113.424 48.7199C113.463 48.8709 113.545 49.0066 113.658 49.1103C113.782 49.2107 113.93 49.2761 114.086 49.3002C114.299 49.3242 114.514 49.3242 114.727 49.3002H115.45V48.4772H115.032H114.646C114.562 48.4687 114.482 48.4397 114.411 48.3928C114.349 48.3482 114.305 48.2801 114.289 48.2029C114.276 48.1049 114.276 48.0054 114.289 47.9074V44.0668H115.511V43.2332H114.289L114.259 41.3867Z" fill="#B9B9B9"/>
<path fill-rule="evenodd" clip-rule="evenodd" d="M64.067 41.3867H63.1536V43.2332H62.1387V44.0668H63.1536V48.0341C63.1483 48.2656 63.1757 48.4966 63.2348 48.7199C63.2742 48.8709 63.3554 49.0066 63.4682 49.1103C63.5922 49.2107 63.739 49.2761 63.8944 49.3002C64.1069 49.3242 64.3213 49.3242 64.5338 49.3002H65.2544V48.4772H64.8383H64.4628C64.3761 48.4703 64.2925 48.4413 64.2192 48.3928C64.1566 48.3482 64.1129 48.2801 64.0974 48.2029C64.0841 48.1049 64.0841 48.0054 64.0974 47.9074V44.0668H65.3254V43.2332H64.067V41.3867Z" fill="#B9B9B9"/>
<path fill-rule="evenodd" clip-rule="evenodd" d="M118.001 44.4668V43.0781H117.105V49.3217H118.001V46.6305C117.998 46.2683 118.038 45.9071 118.118 45.5541C118.19 45.2561 118.325 44.9771 118.512 44.7359C118.704 44.5087 118.95 44.3345 119.226 44.23C119.567 44.1015 119.929 44.0429 120.292 44.0577V42.9813C119.825 42.951 119.359 43.0676 118.96 43.315C118.558 43.5859 118.231 43.9565 118.011 44.3915" fill="#B9B9B9"/>
<path fill-rule="evenodd" clip-rule="evenodd" d="M122.905 50.902C123.035 50.6726 123.148 50.435 123.244 50.1907L125.868 43.7695H124.839L123.151 48.4465H123.079L121.32 43.789H120.291L122.668 49.4404L122.256 50.4148C122.18 50.5726 122.063 50.7099 121.917 50.8143C121.769 50.9099 121.592 50.9578 121.413 50.9507C121.307 50.9535 121.202 50.937 121.104 50.902L120.857 50.8337V51.6327L121.166 51.701H121.515C121.711 51.7025 121.905 51.6762 122.092 51.623C122.251 51.5611 122.398 51.4719 122.524 51.3599C122.671 51.2255 122.795 51.0712 122.894 50.902" fill="#B9B9B9"/>
</svg>
