<svg width="144" height="65" viewBox="0 0 144 65" fill="none" xmlns="http://www.w3.org/2000/svg">
<path fill-rule="evenodd" clip-rule="evenodd" d="M79.7164 20.8751C77.3918 19.6009 74.8288 18.8873 72.2118 18.7857C70.4653 18.7696 68.7336 19.1249 67.1198 19.8304C66.1206 20.2425 65.2169 20.8766 64.4699 21.69C64.1548 22.0604 63.9068 22.4889 63.7383 22.954H63.8075C64.6521 22.7091 65.5435 22.7091 66.3881 22.954C67.562 23.4224 68.5235 24.3449 69.0775 25.5345C69.6114 26.5792 70.2739 28.2925 70.2838 28.3029C70.2838 28.3029 70.2838 28.2298 70.2838 28.1149C70.0877 27.0121 70.3831 25.8754 71.0846 25.033C72.1525 23.9047 74.3969 24.5524 74.4167 24.5524L74.3277 24.4271C73.768 23.6647 73.484 22.7164 73.5268 21.7526C73.628 21.0653 74.0692 20.4876 74.6837 20.2378C75.5341 19.9614 76.4435 19.9614 77.2939 20.2378H77.4225C78.3519 20.4677 80.4381 21.2303 80.4579 21.2825C80.4579 21.2825 80.1613 21.1154 79.7164 20.8751Z" fill="#B9B9B9"/>
<path fill-rule="evenodd" clip-rule="evenodd" d="M68.5195 17.1555C69.4744 16.4952 70.5141 15.9699 71.6098 15.5941C73.3861 14.9992 75.2194 14.5945 77.0795 14.3867C79.3765 14.1081 81.6951 14.0593 84.0016 14.241H83.9295C83.429 14.0038 83.117 13.4877 83.1363 12.9295C83.0127 11.4619 85.2274 9.38012 85.248 9.38012L84.8874 9.5883C83.4162 10.4608 81.8505 11.1593 80.2212 11.67C79.4074 11.8262 78.5113 11.7533 78.3464 11.2329C78.2631 10.5657 78.3518 9.88801 78.604 9.26562L77.8623 9.70279C75.8022 10.8998 70.3016 14.241 69.426 15.3547C69.0026 15.8971 68.7004 16.5256 68.5401 17.1971L68.5195 17.1555Z" fill="#B9B9B9"/>
<path fill-rule="evenodd" clip-rule="evenodd" d="M80.9492 17.0816C81.6964 16.1947 82.6185 15.4815 83.6542 14.9893H83.1559C80.8767 14.7588 78.581 14.7588 76.3018 14.9893C74.1517 15.1722 72.0508 15.7497 70.0986 16.6945C69.1114 17.1381 68.217 17.774 67.4648 18.5671C67.1933 18.8277 67.0054 19.167 66.9258 19.5401C69.018 18.8138 71.2395 18.5674 73.4341 18.8182C75.9038 19.2446 78.3011 20.0338 80.5526 21.1616L80.4814 21.0256C79.8701 19.7306 80.0532 18.1874 80.9492 17.0816Z" fill="#B9B9B9"/>
<path fill-rule="evenodd" clip-rule="evenodd" d="M88.6061 15.8855C88.6061 15.9358 88.7572 16.1569 88.7572 16.1569L88.8177 16.2374C88.8678 16.3193 88.9251 16.3967 88.9889 16.4686L89.0695 16.5892C89.3323 16.8701 89.6613 17.0809 90.0267 17.2024V17.132C89.8672 16.3518 89.7528 15.563 89.6841 14.7697C89.6338 14.0535 89.6338 13.3347 89.6841 12.6184V12.4375L89.6237 12.5079C89.0665 13.077 88.4743 13.6108 87.8505 14.1062C87.3134 14.5653 86.7292 14.9662 86.1075 15.3025C86.4593 15.512 86.857 15.6328 87.2661 15.6543C87.439 15.6895 87.6172 15.6895 87.79 15.6543H87.9915V15.7448C87.8202 16.0564 87.2762 17.1019 87.2762 17.1019C85.5913 16.2973 83.5828 16.6219 82.2387 17.9161C81.5149 18.5767 81.2197 19.5843 81.473 20.5298C81.9409 21.5483 83.0195 22.1435 84.1328 21.9975C85.2994 21.8759 86.311 21.139 86.7825 20.0674C86.912 20.3866 86.9366 20.7386 86.853 21.0726C86.6225 21.8115 86.0768 22.4112 85.362 22.7112C84.3545 23.1133 83.0548 23.3747 80.5562 22.3694L80.0323 22.1483C79.4101 21.8813 78.7746 21.6464 78.1282 21.4446L77.8763 21.3742C77.117 21.1129 76.3217 20.9705 75.5187 20.952C74.9069 20.8664 74.3045 21.161 73.9974 21.6959C73.8819 21.9236 73.8198 22.1746 73.8161 22.4297C73.862 22.9448 74.0313 23.4412 74.3098 23.8773C74.6614 24.518 75.0482 25.1388 75.4684 25.737H75.3575C74.6773 25.4278 73.9536 25.2243 73.2116 25.1339C71.9119 25.0133 71.3276 25.1942 70.8339 25.9079C70.4481 26.6757 70.3413 27.5533 70.5317 28.3909C70.6929 29.4008 71.2748 30.2955 72.1336 30.8538L72.8086 31.1956V31.2458C72.0933 32.814 71.116 33.8696 70.3201 33.9299C69.766 33.9299 69.0708 33.1257 68.6073 32.5627C68.479 32.3944 68.3375 32.2364 68.1842 32.0903C67.7892 31.8846 67.3057 31.9623 66.9953 32.2813C67.1991 32.3471 67.3875 32.4531 67.5495 32.5929C67.7949 32.7681 67.9102 33.0737 67.8416 33.3669C67.8416 33.3066 67.5595 33.0855 66.9349 33.2362C66.1591 33.4172 66.1289 34.7843 66.1289 34.7944C66.2925 34.6092 66.4711 34.4377 66.6629 34.2817C67.348 33.7891 68.3555 34.8748 68.3958 34.9251C68.2986 34.9446 68.204 34.9749 68.1137 35.0155C67.5823 35.2534 67.1661 35.6903 66.955 36.2319H67.0759C68.7376 35.7868 70.4537 35.577 72.1739 35.6087C73.1944 35.6539 74.2074 35.8055 75.1963 36.061V35.9906C74.9765 35.619 74.6814 35.2972 74.3299 35.0457C73.6563 34.8252 72.9602 34.6802 72.2545 34.6134L72.4056 34.5431C72.8388 34.332 74.0075 33.7288 74.4206 33.4574C74.8099 33.2294 75.1519 32.9291 75.4281 32.5728C75.6503 32.2767 75.7988 31.9321 75.8613 31.5675C76.0075 31.6031 76.1404 31.6799 76.2441 31.7887C76.4084 31.9745 76.4981 32.2144 76.496 32.4622C76.4986 32.4187 76.4986 32.375 76.496 32.3315C76.7159 31.7406 76.6941 31.0871 76.4356 30.512C76.2075 30.0843 75.8567 29.7343 75.4281 29.5067C75.1846 29.3791 74.9742 29.1967 74.8135 28.974C74.5214 28.3813 74.7476 27.6643 75.3273 27.3454C75.6176 27.1692 75.9169 27.0081 76.224 26.8629C76.8559 27.8479 77.7076 28.6737 78.7125 29.2755C79.9108 29.8918 81.2434 30.2026 82.5914 30.1803C83.0023 30.5329 83.262 31.0295 83.3167 31.5675C83.3547 32.2239 83.1423 32.8704 82.7223 33.377C82.5251 33.6326 82.2361 33.802 81.9163 33.8495C81.3521 33.8495 80.657 33.0452 80.1935 32.4823C80.0711 32.3091 79.9292 32.1506 79.7704 32.0098C79.3817 31.7871 78.8897 31.8669 78.5916 32.2008C78.7988 32.2657 78.9907 32.3717 79.1558 32.5125C79.3998 32.6885 79.5115 32.9952 79.4379 33.2865C79.4379 33.2262 79.1558 33.005 78.5311 33.1558C77.7554 33.3368 77.7252 34.7039 77.7252 34.714C77.8888 34.5288 78.0674 34.3573 78.2591 34.2013C78.9341 33.7087 79.9416 34.7944 79.992 34.8447C79.8916 34.8642 79.7937 34.8945 79.6998 34.9351C79.174 35.1807 78.7603 35.615 78.5412 36.1515H78.6621C80.3273 35.7068 82.0466 35.497 83.7701 35.5282C84.7908 35.5723 85.8039 35.7239 86.7926 35.9806V35.9102C86.5695 35.541 86.275 35.2197 85.9262 34.9653C85.2504 34.7399 84.5504 34.5949 83.8406 34.533C83.8834 34.5065 83.921 34.4725 83.9515 34.4325C84.7396 33.8162 85.2881 32.9454 85.503 31.9696C85.508 31.8893 85.508 31.8087 85.503 31.7284C85.4755 31.2016 85.3162 30.6901 85.0396 30.2406C85.4616 30.3394 85.8659 30.5021 86.2385 30.7231C86.4705 30.8749 86.6836 31.0537 86.8732 31.2559C86.8783 31.2158 86.8783 31.1753 86.8732 31.1353C86.7061 30.4246 86.1907 29.8461 85.503 29.5972C84.0882 28.9445 82.8124 28.0264 81.7451 26.8931H81.866C82.7004 27.0398 83.5478 27.1004 84.3948 27.074C85.4601 27.06 86.5028 26.7652 87.4172 26.2196C88.3252 25.6723 89.0319 24.8474 89.4322 23.8673C89.7351 23.1572 89.9026 22.3969 89.9259 21.6255C89.917 21.0221 89.8221 20.423 89.6438 19.8462C89.3109 18.9018 88.7422 18.0576 87.9915 17.3934C87.9915 17.3934 88.5759 15.8855 88.596 15.8453L88.6061 15.8855ZM84.969 20.3489C84.6157 20.4853 84.2242 20.4853 83.8709 20.3489C83.6839 20.2645 83.5387 20.1087 83.4679 19.9166C83.3904 19.6849 83.4199 19.4309 83.5485 19.223C83.7232 18.9204 84.0144 18.7024 84.3545 18.6198C85.0151 18.5036 85.6891 18.7354 86.1377 19.233C86.1377 19.233 85.6441 20.1378 84.9791 20.369L84.969 20.3489ZM82.4201 27.5666C82.1913 27.3651 81.9852 27.1392 81.8055 26.8931C81.9717 27.135 82.1606 27.3605 82.3697 27.5666H82.4201Z" fill="#B9B9B9"/>
<path fill-rule="evenodd" clip-rule="evenodd" d="M65.5917 31.403C65.8231 30.9209 65.9622 30.3986 66.0016 29.864C66.6994 29.9902 67.4137 29.9902 68.1114 29.864C68.7946 29.7508 69.4646 29.5676 70.1112 29.3172C70.1112 29.2565 68.9613 25.2064 66.9115 24.0116C65.2717 23.0598 63.0519 23.9508 62.9719 24.0116C62.9734 23.988 62.9734 23.9643 62.9719 23.9407C63.1672 23.1139 63.5317 22.3377 64.0418 21.6625C64.71 20.9287 65.5024 20.3217 66.3816 19.8703C66.2916 19.7995 65.9716 19.516 66.2216 18.7464C66.5606 18.0253 67.2242 17.5156 68.0014 17.3795C67.608 17.0832 67.4434 16.5669 67.5915 16.0936C67.774 15.5486 68.2191 15.136 68.7714 15.0001H68.8314C68.5114 14.7368 68.0314 14.2204 68.3414 13.6129C68.6514 13.0054 69.3413 13.0054 69.6113 12.9548H69.7313C69.404 12.6559 69.0452 12.3944 68.6614 12.1751L68.4414 12.0334C68.1129 11.8563 67.9087 11.5091 67.9114 11.1322C67.9082 10.9513 68.0045 10.7835 68.1614 10.6968C68.6448 10.3637 69.0398 9.9151 69.3113 9.39068H69.1413C68.8248 9.40292 68.5083 9.36882 68.2014 9.28943C68.2914 9.1173 68.5614 8.56041 68.4914 8.49966C68.4214 8.43891 68.4314 8.49966 68.4214 8.49966C68.0072 8.6785 67.5692 8.7945 67.1215 8.84392L66.4116 8.98567C65.9248 9.0837 65.4767 9.32291 65.1217 9.67419C64.239 9.40571 63.3307 9.23261 62.412 9.1578C61.742 9.21855 61.2921 10.0995 61.2821 10.1096C60.6455 10.0154 59.9988 10.0154 59.3622 10.1096C58.8521 10.194 58.3708 10.4064 57.9624 10.7272C57.9624 10.7272 57.9624 10.7272 58.0224 10.7272C58.5674 10.6937 59.1142 10.7484 59.6422 10.8892C59.5897 10.9812 59.5653 11.0869 59.5722 11.193C59.5733 11.3573 59.6182 11.5182 59.7022 11.6587C59.8622 11.9524 60.3222 12.0334 60.8121 11.8511C60.979 11.7796 61.1265 11.6685 61.2421 11.5271C61.3915 11.3132 61.6453 11.2003 61.902 11.2335C62.2343 11.257 62.5072 11.5083 62.5619 11.841C61.341 12.1641 60.0842 12.3275 58.8223 12.327C58.3513 12.2695 57.884 12.185 57.4224 12.0739C57.4827 11.9384 57.5361 11.7998 57.5824 11.6587C57.2208 11.7091 56.8541 11.7091 56.4925 11.6587C55.974 11.6546 55.4687 11.4923 55.0427 11.193V11.274C55.1856 11.8357 55.4881 12.3426 55.9126 12.732C56.447 13.1938 57.07 13.5385 57.7424 13.7446V13.6939C57.6724 13.5218 57.4324 13.0459 57.4124 13.0054C57.7902 13.0977 58.1748 13.1586 58.5623 13.1877C59.1353 13.2572 59.7162 13.2125 60.2722 13.056C60.1481 13.2358 60.0723 13.4452 60.0522 13.6636V13.7344C60.0701 13.9221 60.1393 14.1009 60.2522 14.2508C60.3494 14.3733 60.4116 14.5203 60.4321 14.6761C60.437 14.7063 60.437 14.737 60.4321 14.7672C60.4169 14.8509 60.4169 14.9367 60.4321 15.0203C60.4616 15.404 60.5528 15.7802 60.7021 16.1341V16.0835C60.7721 15.9215 60.9321 15.4557 60.9321 15.4557C61.0675 15.0937 61.2527 14.7529 61.482 14.4432C61.482 14.5546 61.702 15.0203 61.702 15.0203C61.7535 14.7753 61.9115 14.567 62.132 14.4533C62.5788 14.2044 63.0733 14.0559 63.5819 14.0179L63.3819 14.2812C62.0716 15.9587 60.8756 17.7246 59.8022 19.5666C59.4382 20.362 59.2603 21.2317 59.2823 22.108C59.2855 22.639 59.3425 23.1683 59.4522 23.6876C58.9506 23.5344 58.4916 23.2638 58.1124 22.8978C57.7581 22.1219 57.5935 21.271 57.6324 20.4171L57.5624 19.4046C57.4482 18.765 57.0888 18.1972 56.5625 17.825C56.7071 17.4946 56.8241 17.1525 56.9125 16.8024C56.9277 16.6712 56.9277 16.5387 56.9125 16.4075C56.9119 16.1215 56.8646 15.8375 56.7725 15.5671C56.7725 15.5671 56.7725 15.5671 56.7725 15.6481C56.771 15.6279 56.771 15.6076 56.7725 15.5874C56.778 15.6344 56.778 15.682 56.7725 15.7291C56.7058 15.9014 56.5602 16.0299 56.3825 16.0734C56.2625 16.0734 56.1725 16.0734 56.1626 16.0734C56.1636 15.4278 55.7308 14.8644 55.1126 14.7065C54.8037 14.7326 54.5071 14.8408 54.2527 15.0203C54.5739 15.1277 54.8628 15.3159 55.0927 15.5671C55.2999 16.1475 55.395 16.7628 55.3726 17.3795C55.0438 17.0784 54.7517 16.7385 54.5027 16.367C54.4309 16.2486 54.3142 16.1653 54.18 16.1365C54.0457 16.1078 53.9057 16.1362 53.7928 16.2151C53.6303 16.2941 53.4896 16.4124 53.3828 16.5594C53.5968 16.4978 53.8269 16.5429 54.0028 16.6809C54.1677 17.1492 54.4382 17.5722 54.7927 17.9162C55.4 18.4237 55.6211 19.2663 55.3426 20.0121C55.1027 21.0246 53.7728 21.3588 53.7628 21.3588C54.0424 21.6868 54.4704 21.844 54.8927 21.7739C55.4119 21.5048 55.853 21.1035 56.1725 20.6095C56.1725 20.6095 56.1725 20.6905 56.1725 20.7816C56.1725 21.4701 56.3325 23.8192 56.3325 23.8192C56.4576 24.8038 56.8525 25.7333 57.4724 26.5024L58.0424 27.4036C58.2413 27.7218 58.3487 28.09 58.3523 28.4667C58.3331 29.0302 58.117 29.5684 57.7424 29.9855C57.7335 30.0012 57.7335 30.0205 57.7424 30.0361C57.8224 30.107 58.0724 30.0361 58.4623 29.864C58.758 29.7158 59.0309 29.5248 59.2723 29.297C59.633 28.9592 60.0633 28.7068 60.5321 28.5578C61.1161 28.3762 61.7512 28.5448 62.172 28.9932C62.172 28.9932 62.5219 29.4995 61.802 31.1398C61.0821 32.7801 60.1122 33.8534 59.3123 33.9141C58.7523 33.9141 58.0624 33.1041 57.6124 32.5371C57.4854 32.3641 57.3413 32.2046 57.1825 32.0612C56.7967 31.8369 56.3084 31.9172 56.0126 32.2536C56.2148 32.3199 56.4018 32.4266 56.5625 32.5674C56.8046 32.7448 56.9156 33.0537 56.8425 33.3471C56.8425 33.2863 56.5625 33.0636 55.9426 33.2155C55.1726 33.3977 55.1426 34.7748 55.1426 34.7849C55.305 34.5983 55.4823 34.4256 55.6726 34.2685C56.3425 33.7724 57.3524 34.8659 57.3924 34.9165C57.294 34.9408 57.1972 34.9712 57.1025 35.0076C56.5795 35.2502 56.1706 35.6898 55.9626 36.2328H56.0826C57.7315 35.7836 59.4348 35.5722 61.1421 35.605C62.1549 35.6506 63.1603 35.8033 64.1418 36.0607V35.9797C63.9202 35.6107 63.6278 35.2905 63.2819 35.038C62.6136 34.8149 61.9227 34.6689 61.2221 34.6026L61.3521 34.5115C62.1814 33.9594 62.9174 33.2756 63.5319 32.4864C63.9287 31.8408 64.1496 31.1001 64.1718 30.3399C64.1718 30.3399 64.3918 30.3905 64.7017 30.998C64.8888 31.3266 65.0016 31.6932 65.0317 32.0713C65.2403 31.8684 65.4279 31.6445 65.5917 31.403ZM63.4319 10.5247C63.3125 10.7442 63.0789 10.8743 62.8319 10.8588C62.6103 10.8327 62.4453 10.6392 62.452 10.4133L62.162 10.2513C62.342 10.2513 62.9719 10.2513 62.9719 10.2513L63.3719 10.3121C63.6366 10.3801 63.9087 10.4141 64.1818 10.4133L63.3919 10.5551L63.4319 10.5247ZM53.8028 21.4094H53.9128H53.8528H53.8028Z" fill="#B9B9B9"/>
<path fill-rule="evenodd" clip-rule="evenodd" d="M21.7764 54.4145C20.521 53.2536 19.8462 51.5996 19.9333 49.8967C19.9576 48.366 20.5648 46.9015 21.6322 45.7989C22.8881 44.6429 24.5696 44.0568 26.2761 44.1803C27.0146 44.1761 27.7521 44.2378 28.4795 44.3647C28.9898 44.4683 29.5054 44.5435 30.0241 44.5901C30.1991 44.5901 30.23 44.6618 30.23 44.754C30.23 44.8462 30.1785 45.0613 30.1476 45.6043C30.1167 46.1472 30.1476 46.936 30.1476 47.1614C30.1476 47.3868 30.0961 47.479 30.0138 47.479C29.9314 47.479 29.8902 47.3765 29.8902 47.1614C29.8994 46.5805 29.6686 46.0214 29.2518 45.6145C28.3405 45.0077 27.2583 44.7062 26.1628 44.754C24.8958 44.6288 23.633 45.0291 22.6722 45.8604C21.6657 46.9172 21.1665 48.3548 21.3027 49.8045C21.2835 51.266 21.8529 52.6743 22.8839 53.7155C23.9149 54.7567 25.3218 55.3441 26.7909 55.3467C27.7452 55.4705 28.7088 55.2002 29.4577 54.5989C29.7451 54.2261 29.9392 53.7907 30.0241 53.3286C30.0241 53.1647 30.0755 53.1032 30.1682 53.1032C30.2609 53.1032 30.2815 53.2056 30.2815 53.3286C30.2095 53.9805 30.096 54.6272 29.9417 55.2648C29.849 55.5516 29.8181 55.5823 29.5504 55.7053C28.6536 55.9589 27.7227 56.0729 26.7909 56.0433C24.9696 56.1737 23.1695 55.589 21.7764 54.4145Z" fill="#B9B9B9"/>
<path fill-rule="evenodd" clip-rule="evenodd" d="M63.9113 54.5996C63.9113 55.0083 64.0331 55.6213 64.5202 55.8052C64.7583 55.8695 65.0042 55.9004 65.2508 55.8971C65.2508 55.8971 65.332 55.8971 65.332 55.9584C65.332 56.0197 65.2406 56.0606 65.0986 56.0606C64.9565 56.0606 63.6373 56.0606 63.2213 55.989C62.9676 55.989 62.9067 55.989 62.9067 55.8767C62.9067 55.7643 62.9067 55.8154 62.9879 55.8052C63.069 55.7949 63.0589 55.6008 62.9879 55.3965L62.45 49.5528L59.7 55.4374C59.4565 55.938 59.426 56.0401 59.3246 56.0401C59.2231 56.0401 59.1926 55.9277 58.9795 55.5191C58.7664 55.1105 57.7212 53.0059 57.6603 52.8935C57.5994 52.7812 56.3005 49.9717 56.1788 49.6652L55.7221 54.9163C55.7221 55.1002 55.7221 55.3046 55.7221 55.4987C55.7245 55.6706 55.8481 55.8165 56.0164 55.846C56.1566 55.8766 56.2993 55.8937 56.4426 55.8971C56.4426 55.8971 56.5339 55.8971 56.5339 55.9584C56.5339 56.0197 56.4629 56.0606 56.331 56.0606C55.9149 56.0606 55.3771 56.0606 55.3162 56.0606H54.3725C54.2609 56.0606 54.1797 56.0606 54.1797 55.9584C54.1797 55.8562 54.2406 55.8971 54.2913 55.8971C54.4026 55.9093 54.5149 55.9093 54.6262 55.8971C55.0016 55.8358 55.0321 55.3863 55.0828 54.9572L55.7932 47.5505C55.7932 47.4279 55.8541 47.3462 55.9251 47.3462C55.9961 47.3462 56.0367 47.3972 56.0874 47.5198L59.5275 54.6712L62.8356 47.5198C62.8356 47.4177 62.927 47.3359 62.998 47.3359C63.069 47.3359 63.1096 47.4279 63.1401 47.6424L63.9113 54.5996Z" fill="#B9B9B9"/>
<path fill-rule="evenodd" clip-rule="evenodd" d="M74.3202 47.8536C74.3202 47.7915 74.3202 47.7501 74.4461 47.7294C74.6152 47.6944 74.787 47.6771 74.9592 47.6776C76.0146 47.6776 76.4115 48.7129 76.4115 49.6447C76.4163 50.0683 76.2789 50.4798 76.0242 50.8043C75.8016 51.0838 75.6466 51.1045 75.056 51.1045C74.8487 51.1162 74.6408 51.1023 74.4364 51.0631C74.3783 51.0631 74.3589 51.0631 74.3589 50.9389L74.3202 47.8536ZM73.4682 52.6989C73.4682 53.7964 73.4682 54.7075 73.4198 55.1837C73.3714 55.66 73.323 55.7738 73.11 55.8153C73.0004 55.8252 72.8903 55.8252 72.7808 55.8153C72.7602 55.8123 72.7394 55.8184 72.723 55.832C72.7066 55.8456 72.6961 55.8657 72.6936 55.8877C72.6936 55.9602 72.7517 55.9809 72.8679 55.9809H73.9233C74.0104 55.9809 75.0948 56.043 75.3465 56.043C76.0235 56.1272 76.7026 55.9059 77.2207 55.4324C77.7388 54.959 78.049 54.2761 78.0768 53.5479C78.0131 52.3986 77.2678 51.4222 76.2276 51.1252C76.808 50.6112 77.1595 49.8596 77.1958 49.0546C77.1958 48.4748 76.8085 47.3359 75.0464 47.3359C74.5526 47.3359 74.1363 47.3359 73.8845 47.3359C73.8264 47.3359 73.1487 47.3359 72.6743 47.3359C72.5484 47.3359 72.5 47.3359 72.5 47.4291C72.5 47.5223 72.5 47.4912 72.5871 47.4912C72.7061 47.4754 72.8264 47.4754 72.9454 47.4912C73.3036 47.5637 73.3907 47.7501 73.4101 48.1435C73.4295 48.5369 73.4101 48.8268 73.4101 50.6179L73.4682 52.6989ZM74.3299 51.4979C74.3299 51.4358 74.3299 51.4151 74.388 51.4151C74.4461 51.4151 75.0851 51.4151 75.2303 51.4151C75.5494 51.4395 75.8567 51.5538 76.1211 51.7464C76.7996 52.2914 77.1835 53.1589 77.1473 54.0656C77.1761 54.5035 77.0266 54.9334 76.7372 55.2449C76.4478 55.5563 76.0467 55.719 75.637 55.691C75.3063 55.7052 74.9765 55.6453 74.6688 55.515C74.3299 55.3494 74.3299 55.1837 74.3008 54.6246C74.3008 54.4486 74.3008 53.0302 74.3008 52.1502L74.3299 51.4979Z" fill="#B9B9B9"/>
<path fill-rule="evenodd" clip-rule="evenodd" d="M88.7929 47.9485C88.7857 47.8863 88.8259 47.8285 88.8869 47.8133C89.1403 47.7562 89.4 47.7317 89.6597 47.7405C90.9026 47.7405 91.665 48.6038 91.665 50.0495C91.7289 50.7185 91.4644 51.3771 90.9548 51.8176C90.6961 51.9794 90.3928 52.0559 90.0879 52.036C89.6763 52.057 89.2647 51.9969 88.8764 51.8592C88.8225 51.831 88.7899 51.7742 88.7929 51.7136V47.9485ZM87.8634 52.7433C87.8634 53.8458 87.8634 54.7611 87.8634 55.2395C87.8634 55.7179 87.7589 55.8324 87.5291 55.874C87.4145 55.8841 87.2992 55.8841 87.1845 55.874C87.1114 55.874 87.0905 55.874 87.0905 55.9468C87.0905 56.0196 87.0905 56.0404 87.268 56.0404H88.3124C88.3124 56.0404 89.0957 56.0404 89.7328 56.0404C89.8582 56.0404 89.9208 56.0092 89.9208 55.9468C89.9182 55.9246 89.9068 55.9044 89.8891 55.8908C89.8715 55.8771 89.849 55.871 89.8268 55.874H89.3046C88.96 55.874 88.8869 55.5723 88.8555 55.2395C88.8242 54.9067 88.7929 53.8458 88.7929 52.7433V52.4625C88.7929 52.4105 88.7929 52.3689 88.8764 52.3689H90.2968C90.3527 52.3655 90.4069 52.3887 90.443 52.4313C90.6832 52.7329 91.2263 53.4714 91.7067 54.137C92.1149 54.797 92.6468 55.3725 93.2733 55.8324C93.6571 56.0138 94.0827 56.0892 94.5057 56.0508H95.3308C95.5397 56.0508 95.6024 56.0508 95.6024 55.9572C95.6024 55.8636 95.6023 55.8844 95.4979 55.8844C95.3484 55.8951 95.1983 55.8951 95.0488 55.8844C94.4938 55.7845 93.9934 55.4892 93.6389 55.0523C92.9705 54.345 92.1872 53.3153 91.2368 52.1088C92.0731 51.4689 92.5848 50.4953 92.6363 49.4462C92.6145 48.8117 92.3029 48.2219 91.7903 47.8445C91.1627 47.4667 90.4329 47.2922 89.7015 47.3452H88.3333C88.2707 47.3452 87.55 47.3452 87.0278 47.3452C86.9025 47.3452 86.8398 47.3452 86.8398 47.4389C86.8398 47.5325 86.8398 47.5013 86.9338 47.5013C87.0656 47.4854 87.1989 47.4854 87.3307 47.5013C87.7067 47.5741 87.8007 47.7613 87.8216 48.1565C87.8425 48.5517 87.8216 48.843 87.8216 50.6423L87.8634 52.7433Z" fill="#B9B9B9"/>
<path fill-rule="evenodd" clip-rule="evenodd" d="M103.948 52.2308C103.948 53.2462 103.948 54.0892 104.016 54.5298C104.084 54.9705 104.129 55.0758 104.504 55.1141H105.071C105.094 55.1113 105.117 55.1172 105.134 55.13C105.152 55.1429 105.162 55.1616 105.161 55.1812C105.161 55.2387 105.161 55.2674 104.969 55.2674C104.277 55.2674 103.483 55.2674 103.426 55.2674H102.19C102.054 55.2674 101.986 55.2674 101.986 55.1812C101.989 55.1608 102.001 55.1422 102.02 55.1296C102.04 55.117 102.064 55.1114 102.088 55.1141C102.213 55.1235 102.338 55.1235 102.462 55.1141C102.712 55.1141 102.78 54.8364 102.825 54.5298C102.871 54.2233 102.893 53.2462 102.893 52.2308V50.3629C102.893 48.7057 102.893 48.4471 102.893 48.0735C102.893 47.6999 102.734 47.5275 102.462 47.4796C102.334 47.4636 102.205 47.4636 102.077 47.4796C102.077 47.4796 101.975 47.4796 101.975 47.4221C101.975 47.3647 102.043 47.3359 102.179 47.3359H103.449H104.674C104.81 47.3359 104.878 47.3359 104.878 47.4221C104.878 47.5084 104.878 47.4796 104.776 47.4796C104.67 47.4694 104.564 47.4694 104.458 47.4796C104.118 47.4796 104.016 47.7095 103.993 48.0831C103.971 48.4567 103.993 48.7153 103.993 50.3725L103.948 52.2308Z" fill="#B9B9B9"/>
<path fill-rule="evenodd" clip-rule="evenodd" d="M121.076 55.9576C120.917 55.9592 120.759 55.9384 120.606 55.8957C120.366 55.8236 120.032 55.6382 119.563 54.6288C118.853 52.8983 117.048 48.1807 116.871 47.7481C116.694 47.3155 116.683 47.3361 116.62 47.3361C116.558 47.3361 116.506 47.4082 116.36 47.779L113.741 54.8657C113.532 55.4425 113.302 55.8957 112.77 55.8957H112.436C112.374 55.8957 112.332 55.8957 112.332 55.9679C112.332 56.04 112.395 56.0606 112.551 56.0606C113.094 56.0606 113.73 56.0606 113.855 56.0606H114.753C114.857 56.0606 114.93 56.0606 114.93 55.9679C114.93 55.8751 114.93 55.8957 114.815 55.8957H114.701C114.502 55.8957 114.262 55.803 114.262 55.5661C114.272 55.3053 114.325 55.0478 114.419 54.8039L114.847 53.5473H117.977H118.029V53.6194L118.78 55.5764C118.843 55.7618 118.78 55.8648 118.707 55.8854C118.634 55.906 118.624 55.8854 118.624 55.9679C118.624 56.0503 118.759 56.04 118.979 56.0503C119.772 56.0503 120.617 56.0503 120.784 56.0503C120.951 56.0503 121.024 56.0503 121.024 55.9576C121.024 55.8648 121.138 55.9576 121.076 55.9576ZM115.379 52.27L116.422 49.1799C116.485 49.0048 116.537 49.0048 116.6 49.1799L117.643 52.27V52.3421H115.41C115.41 52.3421 115.347 52.3215 115.379 52.27ZM117.966 53.1455H115.076L115.17 52.8674C115.184 52.8151 115.23 52.7775 115.285 52.7747H117.768C117.815 52.7758 117.856 52.8042 117.873 52.8468L117.977 53.1352C117.974 53.139 117.97 53.1424 117.966 53.1455Z" fill="#B9B9B9"/>
<path fill-rule="evenodd" clip-rule="evenodd" d="M46.9355 55.9576C46.7801 55.9585 46.6254 55.9377 46.476 55.8957C46.2357 55.8236 45.9015 55.6382 45.4838 54.6288C44.7736 52.8983 42.9563 48.1807 42.7892 47.7481C42.6221 47.3155 42.6012 47.3361 42.5281 47.3361C42.455 47.3361 42.4132 47.4082 42.2775 47.779L39.656 54.8657C39.4472 55.4425 39.2174 55.8957 38.6847 55.8957H38.3505C38.2879 55.8957 38.2461 55.8957 38.2461 55.9679C38.2461 56.04 38.3088 56.0606 38.4654 56.0606C39.0085 56.0606 39.6456 56.0606 39.7709 56.0606H40.6691C40.7735 56.0606 40.8466 56.0606 40.8466 55.9679C40.8466 55.8751 40.8466 55.8957 40.7318 55.8957H40.6169C40.4184 55.8957 40.1782 55.803 40.1782 55.5661C40.1877 55.3053 40.2406 55.0478 40.3349 54.8039L40.7631 53.5576H40.8258H43.959H44.0112C44.0112 53.5576 44.0112 53.5576 44.0112 53.6194L44.7736 55.5867C44.8363 55.7721 44.7736 55.8751 44.7005 55.8957C44.6274 55.9163 44.6169 55.8958 44.6169 55.9782C44.6169 56.0606 44.7423 56.0503 44.9616 56.0606C45.7658 56.0606 46.6117 56.0606 46.7788 56.0606C46.9459 56.0606 47.0086 56.0606 47.0086 55.9679C47.0086 55.8751 47.0086 55.9576 46.9355 55.9576ZM41.2331 52.27L42.2775 49.1799C42.3297 49.0048 42.3924 49.0048 42.4446 49.1799L43.5516 52.27C43.5516 52.27 43.5516 52.3421 43.4994 52.3421H41.2749C41.2749 52.3421 41.2122 52.3215 41.2331 52.27ZM43.8441 53.1455H40.9406L41.0242 52.8777C41.0242 52.8777 41.0869 52.785 41.1495 52.785H43.6352C43.6352 52.785 43.7083 52.785 43.7396 52.8571L43.8441 53.1455Z" fill="#B9B9B9"/>
<path fill-rule="evenodd" clip-rule="evenodd" d="M122.278 48.0093C121.79 47.8876 121.448 47.4512 121.448 46.9506C121.448 46.45 121.79 46.0136 122.278 45.8919C122.766 46.0136 123.108 46.45 123.108 46.9506C123.108 47.4512 122.766 47.8876 122.278 48.0093ZM122.278 48.1294C122.763 48.1338 123.203 47.8456 123.391 47.4C123.578 46.9545 123.477 46.4401 123.134 46.0985C122.791 45.7568 122.274 45.6557 121.826 45.8427C121.379 46.0296 121.089 46.4675 121.094 46.9506C121.094 47.5974 121.617 48.1234 122.267 48.1294H122.278ZM121.927 47.0379C121.935 47.1615 121.935 47.2855 121.927 47.409C121.927 47.4854 121.927 47.4963 121.795 47.4963H122.234C122.234 47.4963 122.135 47.4963 122.113 47.4963C122.091 47.4963 122.113 47.4963 122.113 47.158V47.0161H122.355L122.541 47.278C122.597 47.3781 122.676 47.464 122.771 47.5291C122.843 47.5458 122.918 47.5458 122.99 47.5291H123.067C122.993 47.5197 122.925 47.4802 122.881 47.4199C122.782 47.3108 122.662 47.1471 122.519 46.9724C122.648 46.8765 122.728 46.7287 122.738 46.5686C122.733 46.4754 122.689 46.3885 122.618 46.3285C122.513 46.2746 122.395 46.2519 122.278 46.263H121.806C121.894 46.263 121.938 46.263 121.949 46.3503V47.027L121.927 47.0379ZM122.091 46.3176C122.091 46.3176 122.179 46.3176 122.201 46.3176C122.289 46.317 122.372 46.3537 122.431 46.4183C122.489 46.4829 122.517 46.5693 122.508 46.6559C122.512 46.7518 122.471 46.8441 122.398 46.9069C122.36 46.9221 122.317 46.9221 122.278 46.9069C122.216 46.9202 122.153 46.9202 122.091 46.9069V46.3176Z" fill="#B9B9B9"/>
</svg>
