<svg width="144" height="65" viewBox="0 0 144 65" fill="none" xmlns="http://www.w3.org/2000/svg">
<path fill-rule="evenodd" clip-rule="evenodd" d="M60.7402 22.2928V24.9855C60.7402 25.7091 61.3295 26.2958 62.0562 26.2958H68.0311V44.2435C68.0311 44.9671 68.6203 45.5538 69.3471 45.5538H72.5824C73.3091 45.5538 73.8984 44.9671 73.8984 44.2435V26.2958H79.8732C80.6 26.2958 81.1892 25.7091 81.1892 24.9855V22.2928C81.1892 21.5687 80.6005 20.9816 79.8732 20.9805H62.0646C61.3374 20.9816 60.7484 21.5687 60.7484 22.2928" fill="#B9B9B9"/>
<path fill-rule="evenodd" clip-rule="evenodd" d="M47.4729 20.9805V20.9906C55.2286 20.9906 60.5877 26.2917 60.5877 33.2076V33.2774C60.5877 40.1932 55.2286 45.5642 47.4729 45.5642H39.0749C38.3972 45.5642 37.8477 45.017 37.8477 44.3422V22.2024C37.8477 21.5276 38.3972 20.9805 39.0749 20.9805H47.4729ZM47.4729 26.2958H43.7088V40.2488H47.4729C51.6608 40.2488 54.4746 37.4759 54.4746 33.3475V33.2672C54.4746 31.241 53.8135 29.511 52.5469 28.2398C51.2807 26.9686 49.5246 26.2958 47.4729 26.2958Z" fill="#B9B9B9"/>
<path fill-rule="evenodd" clip-rule="evenodd" d="M114.11 23.7308C112.585 23.7308 111.348 22.4994 111.348 20.9805H107.516C107.516 24.6034 110.465 27.5404 114.104 27.5404C117.743 27.5404 120.692 24.6034 120.692 20.9805H116.87C116.871 22.4982 115.637 23.7297 114.112 23.7308H114.11Z" fill="#B9B9B9"/>
<path fill-rule="evenodd" clip-rule="evenodd" d="M114.11 14.4219C110.473 14.4174 107.52 17.3496 107.516 20.9714V20.9797H111.342C111.383 19.4613 112.653 18.2642 114.178 18.3056C115.645 18.3456 116.824 19.5198 116.864 20.9797H120.692C120.692 17.358 117.744 14.4219 114.106 14.4219H114.104" fill="#B9B9B9"/>
<path fill-rule="evenodd" clip-rule="evenodd" d="M97.6183 20.3789C94.4554 20.3789 92.0401 21.6686 90.0196 24.4375V22.3001C90.0196 21.5719 89.4268 20.9816 88.6955 20.9816H85.4765C84.7452 20.9816 84.1523 21.5719 84.1523 22.3001V44.2446C84.1523 44.9683 84.7416 45.5549 85.4683 45.5549H88.7138C89.4408 45.5549 90.0301 44.9683 90.0301 44.2446V31.6968C90.0301 28.0579 92.1725 25.7067 95.4863 25.7067C98.8001 25.7067 100.662 27.8543 100.662 31.6042V44.2487C100.662 44.9725 101.251 45.5592 101.978 45.5592H105.213C105.94 45.5592 106.529 44.9725 106.529 44.2487V29.8783C106.529 24.0178 103.124 20.3789 97.645 20.3789" fill="#B9B9B9"/>
</svg>
