<svg width="144" height="65" viewBox="0 0 144 65" fill="none" xmlns="http://www.w3.org/2000/svg">
<path fill-rule="evenodd" clip-rule="evenodd" d="M81.8052 35.7339H84.9801V33.1016H81.7852C81.7852 33.4505 81.7852 33.7995 81.7852 34.0987" fill="#B9B9B9"/>
<path fill-rule="evenodd" clip-rule="evenodd" d="M93.6602 35.4248V35.7339H96.8751C96.8554 35.4584 96.8554 35.1818 96.8751 34.9063V33.1016H93.6602" fill="#B9B9B9"/>
<path fill-rule="evenodd" clip-rule="evenodd" d="M100.441 35.7339C100.456 35.4582 100.456 35.182 100.441 34.9063V33.1016H103.636V35.714" fill="#B9B9B9"/>
<path fill-rule="evenodd" clip-rule="evenodd" d="M74.9746 33.1211V35.7534H78.1595V34.527C78.1496 34.0573 78.173 33.5875 78.2296 33.1211" fill="#B9B9B9"/>
<path fill-rule="evenodd" clip-rule="evenodd" d="M45.3633 33.1211V35.7534H48.5482V34.5769C48.5318 34.091 48.5485 33.6047 48.5983 33.1211" fill="#B9B9B9"/>
<path fill-rule="evenodd" clip-rule="evenodd" d="M58.1707 34.198V35.7534H61.3856V33.1211H58.1406C58.165 33.4796 58.165 33.8394 58.1406 34.198" fill="#B9B9B9"/>
<path fill-rule="evenodd" clip-rule="evenodd" d="M51.7715 33.1211C51.7715 33.5897 51.7715 34.0584 51.7715 34.3974V35.7534H54.9564V34.5769C54.948 34.0906 54.9714 33.6043 55.0265 33.1211" fill="#B9B9B9"/>
<path fill-rule="evenodd" clip-rule="evenodd" d="M105.539 33.1211V35.7534H108.714V34.5769C108.681 34.0922 108.681 33.6058 108.714 33.1211" fill="#B9B9B9"/>
<path fill-rule="evenodd" clip-rule="evenodd" d="M118.317 34.198V35.7534H121.472V33.1211H118.277C118.296 33.4798 118.296 33.8393 118.277 34.198" fill="#B9B9B9"/>
<path fill-rule="evenodd" clip-rule="evenodd" d="M111.887 33.1211C111.887 33.5897 111.887 34.0584 111.887 34.3974V35.7534H115.062V34.5769C115.053 34.0906 115.077 33.6043 115.132 33.1211" fill="#B9B9B9"/>
<path fill-rule="evenodd" clip-rule="evenodd" d="M73.524 34.5573C73.52 34.0698 73.4798 33.5832 73.4038 33.1016H62.9489C62.8629 33.582 62.8227 34.0694 62.8287 34.5573C62.8255 34.9518 62.859 35.3456 62.9289 35.7339H73.4539C73.4539 35.365 73.524 34.9761 73.524 34.5573Z" fill="#B9B9B9"/>
<path d="M90.8273 33.1211H87.6523V35.7534H90.8273V33.1211Z" fill="#B9B9B9"/>
<path fill-rule="evenodd" clip-rule="evenodd" d="M35.1173 34.4572C35.1194 33.9976 35.2148 33.5431 35.3978 33.1211H32.0225C31.9428 33.5486 31.9026 33.9825 31.9023 34.4173C31.9122 34.8649 31.9524 35.3113 32.0225 35.7534H35.3477C35.1787 35.3418 35.0903 34.9019 35.0873 34.4572" fill="#B9B9B9"/>
<path fill-rule="evenodd" clip-rule="evenodd" d="M43.2581 35.7339V33.1016H40.1133C40.4742 33.9353 40.4742 34.8802 40.1133 35.714" fill="#B9B9B9"/>
<path fill-rule="evenodd" clip-rule="evenodd" d="M31.0421 34.5573C31.0365 34.069 30.9896 33.582 30.9019 33.1016H20.4469C20.361 33.582 20.3207 34.0694 20.3268 34.5573C20.3235 34.9518 20.3571 35.3456 20.4269 35.7339H30.9319C31.0056 35.346 31.0425 34.9521 31.0421 34.5573Z" fill="#B9B9B9"/>
<path fill-rule="evenodd" clip-rule="evenodd" d="M121.609 29.3041H121.99V30.7H122.16V29.3041H122.531V29.1445H121.609" fill="#B9B9B9"/>
<path fill-rule="evenodd" clip-rule="evenodd" d="M124.165 29.0664L123.604 30.3626L123.033 29.0664L122.723 30.7016H122.893L123.103 29.6547L123.604 30.7714L124.095 29.6547H124.115L124.305 30.7016H124.475" fill="#B9B9B9"/>
<path d="M90.8273 35.7344H87.6523V39.8624H90.8273V35.7344Z" fill="#B9B9B9"/>
<path d="M96.8351 29.0664H93.6602V33.1246H96.8351V29.0664Z" fill="#B9B9B9"/>
<path fill-rule="evenodd" clip-rule="evenodd" d="M100.441 35.7344C100.321 36.7315 99.9203 37.6189 98.6685 37.6189C97.4167 37.6189 96.9961 36.7215 96.896 35.7344H93.6914C93.8016 38.7257 95.484 40.2113 98.6986 40.2113C101.913 40.2113 103.586 38.6858 103.706 35.7344" fill="#B9B9B9"/>
<path d="M103.655 29.0664H100.48V33.1146H103.655V29.0664Z" fill="#B9B9B9"/>
<path d="M78.1495 35.7344H74.9746V39.8624H78.1495V35.7344Z" fill="#B9B9B9"/>
<path d="M84.9796 35.7344H81.8047V39.8624H84.9796V35.7344Z" fill="#B9B9B9"/>
<path fill-rule="evenodd" clip-rule="evenodd" d="M84.9789 33.1236C84.9789 30.6708 83.9775 28.7164 81.1034 28.7164C79.9671 28.652 78.8736 29.1571 78.1892 30.0625V29.0654H74.9746V33.1336H78.2293C78.3594 32.1365 78.78 31.1992 80.0619 31.1992C81.3437 31.1992 81.7142 32.1265 81.7843 33.1336H84.9789" fill="#B9B9B9"/>
<path d="M61.3468 35.7344H58.1719V39.8624H61.3468V35.7344Z" fill="#B9B9B9"/>
<path d="M48.5675 35.7344H45.3926V39.8624H48.5675V35.7344Z" fill="#B9B9B9"/>
<path d="M54.9562 35.7344H51.7812V39.8624H54.9562V35.7344Z" fill="#B9B9B9"/>
<path fill-rule="evenodd" clip-rule="evenodd" d="M57.811 28.7174C56.5117 28.7019 55.292 29.3392 54.5664 30.4125C53.8888 29.3128 52.6665 28.6643 51.3719 28.7174C50.3068 28.7064 49.2983 29.1937 48.648 30.0336H48.5979V29.0365H45.3633V33.0947H48.5979C48.7181 32.0976 49.0686 31.1603 50.2302 31.1603C51.3919 31.1603 51.6523 32.1574 51.7224 33.0947H55.007C55.1372 32.0976 55.5278 31.1603 56.6294 31.1603C57.7309 31.1603 58.0414 32.1574 58.1115 33.0947H61.3861C61.3861 30.7316 60.6851 28.6875 57.8411 28.6875" fill="#B9B9B9"/>
<path fill-rule="evenodd" clip-rule="evenodd" d="M68.3958 37.899C67.3618 37.9013 66.4811 37.1515 66.3228 36.1341L66.2427 35.7852H62.918C63.3088 38.4553 65.691 40.3806 68.3958 40.2123C70.2741 40.2723 72.0418 39.3296 73.0324 37.7395L70.2084 36.9019C69.8123 37.518 69.1304 37.8931 68.3958 37.899Z" fill="#B9B9B9"/>
<path fill-rule="evenodd" clip-rule="evenodd" d="M68.2267 28.7163C65.571 28.5559 63.253 30.4916 62.9492 33.1235H66.284C66.2294 32.3318 66.6226 31.5759 67.3036 31.1635C67.9845 30.7511 68.8395 30.7511 69.5205 31.1635C70.2014 31.5759 70.5946 32.3318 70.5401 33.1235H73.4041C73.1502 30.5068 70.8623 28.5593 68.2267 28.7163Z" fill="#B9B9B9"/>
<path d="M121.491 35.7344H118.316V39.8624H121.491V35.7344Z" fill="#B9B9B9"/>
<path d="M108.714 35.7344H105.539V39.8624H108.714V35.7344Z" fill="#B9B9B9"/>
<path d="M115.105 35.7344H111.93V39.8624H115.105V35.7344Z" fill="#B9B9B9"/>
<path fill-rule="evenodd" clip-rule="evenodd" d="M117.947 28.7174C116.648 28.7055 115.43 29.3419 114.702 30.4125C114.016 29.2966 112.77 28.6457 111.458 28.7174C110.393 28.7095 109.386 29.1962 108.734 30.0336V29.0365H105.539V33.0947H108.764C108.884 32.0976 109.234 31.1603 110.396 31.1603C111.558 31.1603 111.818 32.1574 111.888 33.0947H115.173C115.293 32.0976 115.694 31.1603 116.805 31.1603C117.917 31.1603 118.207 32.1574 118.277 33.0947H121.472C121.472 30.7316 120.761 28.6875 117.927 28.6875" fill="#B9B9B9"/>
<path fill-rule="evenodd" clip-rule="evenodd" d="M25.8858 37.899C24.8518 37.9013 23.9711 37.1515 23.8128 36.1341L23.7327 35.7852H20.418C20.7849 38.4712 23.168 40.4224 25.8858 40.2621C27.7641 40.3222 29.5318 39.3795 30.5224 37.7893L27.7084 36.9019C27.3144 37.5252 26.6254 37.9021 25.8858 37.899Z" fill="#B9B9B9"/>
<path fill-rule="evenodd" clip-rule="evenodd" d="M25.7248 28.7165C23.069 28.5561 20.751 30.4918 20.4473 33.1237H23.782C23.838 31.9607 24.7499 31.0187 25.9151 30.9201C27.0783 31.0192 27.987 31.9623 28.0381 33.1237H30.9022C30.6533 30.5044 28.3622 28.5541 25.7248 28.7165Z" fill="#B9B9B9"/>
<path fill-rule="evenodd" clip-rule="evenodd" d="M90.8284 25.418H87.6534V29.0674H85.7305V31.6698H87.6534V33.1255H90.8284V31.6698H92.7113V29.0674H90.8284" fill="#B9B9B9"/>
<path fill-rule="evenodd" clip-rule="evenodd" d="M40.0862 30.0418H40.0361C39.2634 29.1717 38.1482 28.6802 36.9818 28.6957C34.4467 28.727 32.3168 30.6017 31.9746 33.1029H35.3594C35.7054 32.1 36.6528 31.4265 37.7178 31.4265C38.7828 31.4265 39.7303 32.1 40.0762 33.1029H43.2607V24.5977H40.0862" fill="#B9B9B9"/>
<path fill-rule="evenodd" clip-rule="evenodd" d="M37.7616 37.4992C36.6629 37.4794 35.6959 36.7723 35.3482 35.7344H32.0234C32.3449 38.2605 34.4739 40.1725 37.0306 40.2313C38.1898 40.2609 39.2981 39.7569 40.0349 38.8653H40.095V39.8624H43.2595V35.7543H40.135C39.788 36.7727 38.8413 37.4687 37.7616 37.4992Z" fill="#B9B9B9"/>
</svg>
