<svg width="144" height="65" viewBox="0 0 144 65" fill="none" xmlns="http://www.w3.org/2000/svg">
<path fill-rule="evenodd" clip-rule="evenodd" d="M23.6556 24.5859H28.1921L23.6556 32.4132L28.1921 40.2404H23.6556L19.1191 32.4132L23.6556 24.5859Z" fill="#B9B9B9"/>
<path fill-rule="evenodd" clip-rule="evenodd" d="M32.7298 24.5859L36.7756 31.0372H32.2391L28.1934 24.5859H32.7298Z" fill="#B9B9B9"/>
<path fill-rule="evenodd" clip-rule="evenodd" d="M29.8638 32.4141H37.2644L32.7279 40.2413H28.1914L31.4461 34.6177H29.8638V32.4141Z" fill="#B9B9B9"/>
<path fill-rule="evenodd" clip-rule="evenodd" d="M121.475 28.8328C121.478 28.6135 121.564 28.4033 121.715 28.2445C121.872 28.0887 122.085 28.0024 122.306 28.0052C122.528 27.9989 122.743 28.0857 122.897 28.2445C123.138 28.4813 123.21 28.8395 123.08 29.1504C122.951 29.4613 122.645 29.6629 122.306 29.6604C122.085 29.6631 121.872 29.5768 121.716 29.421C121.559 29.2652 121.472 29.0531 121.475 28.8328ZM122.306 29.8299C122.564 29.8325 122.811 29.7277 122.987 29.5407C123.357 29.2383 123.46 28.7181 123.233 28.2987C123.007 27.8793 122.515 27.6778 122.057 27.8174C121.6 27.9571 121.306 28.3991 121.355 28.8727C121.352 29.1223 121.449 29.3628 121.625 29.5407C121.803 29.6966 122.03 29.7849 122.266 29.79L122.306 29.8299Z" fill="#B9B9B9"/>
<path fill-rule="evenodd" clip-rule="evenodd" d="M122.107 29.2724H121.977V28.375H122.397C122.547 28.375 122.698 28.4249 122.698 28.6143C122.706 28.7076 122.653 28.7957 122.567 28.8337C122.567 28.8337 122.668 28.8337 122.678 29.0032V29.1627C122.678 29.2126 122.678 29.2325 122.678 29.2524H122.527C122.523 29.1794 122.523 29.1062 122.527 29.0331C122.527 28.9533 122.527 28.8735 122.367 28.8735H122.077L122.107 29.2724ZM122.107 28.7838H122.387C122.477 28.7838 122.567 28.7838 122.567 28.6342C122.574 28.5902 122.56 28.5455 122.528 28.5139C122.496 28.4824 122.451 28.4678 122.407 28.4747H122.107V28.7838Z" fill="#B9B9B9"/>
<path fill-rule="evenodd" clip-rule="evenodd" d="M85.9436 38.3168H90.6102L85.4529 27.8672H78.8935L74.1367 38.3168H78.4829L79.3341 36.4422H85.0723L85.9436 38.3168ZM80.2555 34.3982L82.2082 30.1605L84.2111 34.3982H80.2555Z" fill="#B9B9B9"/>
<path fill-rule="evenodd" clip-rule="evenodd" d="M70.042 34.2352C70.9994 34.0846 71.9025 33.6934 72.6657 33.0985C73.1874 32.091 73.2882 30.9191 72.9461 29.8379C72.4053 27.8437 67.8288 27.8438 67.8288 27.8438H59.3066V38.3133H63.4826V35.4516H67.258C67.6686 35.4516 68.5699 35.6211 68.5699 36.349V38.3432H72.9962C73.0254 37.416 72.9684 36.488 72.8259 35.5713C72.3052 34.1953 69.4711 34.2352 70.042 34.2352ZM67.7787 33.0885H63.4826V30.3166H67.6986C67.6986 30.3166 68.7 30.2069 68.7 31.7125C68.7 33.2181 67.7787 33.0885 67.7787 33.0885Z" fill="#B9B9B9"/>
<path fill-rule="evenodd" clip-rule="evenodd" d="M120.383 29.3791C118.621 27.5544 113.694 27.8635 113.694 27.8635C112.913 27.8635 108.747 27.7339 107.155 29.3891C106.093 30.4859 106.273 33.0584 106.273 33.0584C106.273 33.0584 106.103 35.8403 107.525 37.0468C109.318 38.5126 113.834 38.363 113.834 38.363C114.575 38.363 118.391 38.363 120.013 37.0468C121.435 35.8902 121.255 33.0584 121.255 33.0584C121.255 33.0584 121.435 30.4759 120.383 29.3791ZM116.558 35.2521C115.737 35.97 113.694 35.8503 113.694 35.8503C112.748 35.9302 111.8 35.7178 110.98 35.2421C110.559 34.8831 110.7 32.9488 110.7 32.9488C110.7 32.9488 110.539 31.144 111.02 30.7053C111.501 30.2666 113.834 30.2466 113.834 30.2466C114.315 30.2466 115.997 30.2466 116.508 30.7053C117.019 31.1639 116.828 32.9587 116.828 32.9587C116.828 32.9587 116.969 34.9031 116.558 35.2521Z" fill="#B9B9B9"/>
<path fill-rule="evenodd" clip-rule="evenodd" d="M100.485 34.2873V34.5864C100.485 35.7829 99.6341 35.8627 97.8516 35.8627C95.2779 35.9026 95.2278 35.2744 95.2278 33.7588V32.1734C95.2278 30.7177 95.4582 30.2391 97.9017 30.2391C99.3537 30.2391 100.365 30.3088 100.515 31.2362V31.635H104.932V31.2362C104.791 28.1651 102.739 27.9258 98.3223 27.9258C93.6155 27.9258 90.7715 28.4144 90.7715 31.7846V34.4169C90.7715 38.1361 93.956 38.2757 98.3223 38.2757C100.057 38.4311 101.804 38.1748 103.42 37.5278C104.882 36.7501 104.902 35.753 104.902 34.6363V34.3371L100.485 34.2873Z" fill="#B9B9B9"/>
<path fill-rule="evenodd" clip-rule="evenodd" d="M57.4149 31.1255C57.4149 27.8949 54.4106 27.875 50.3047 27.875C45.588 27.875 42.6738 28.3835 42.6738 31.7437V34.3761C42.6738 37.6765 45.2475 38.2249 50.3047 38.2249C56.0429 38.2249 57.4149 37.5967 57.4149 34.1667L57.535 32.5115H50.2346L50.1044 34.0371H53.0586C53.0586 35.453 52.4878 36.0313 50.3047 36.0313C48.1216 36.0313 47.0901 35.8418 47.0901 34.0371V32.342C47.0901 30.6968 47.2203 30.0985 50.3047 30.0985C51.5865 30.0985 52.9785 30.0985 53.0586 31.0956L57.4149 31.1255Z" fill="#B9B9B9"/>
</svg>
