<svg width="60" height="60" viewBox="0 0 60 60" fill="none" xmlns="http://www.w3.org/2000/svg">
<path d="M23.7555 10C24.8601 10 25.7555 10.8954 25.7555 12V12.7451H28.108V12C28.108 10.8955 29.0035 10.0001 30.108 10H30.4215C31.5261 10 32.4215 10.8954 32.4215 12V12.7451H34.5797V12C34.5797 10.8955 35.4752 10 36.5797 10H36.8932C37.9978 10 38.8932 10.8954 38.8932 12V14.667C38.8932 14.6797 38.8915 14.6924 38.8912 14.7051C38.8915 14.7183 38.8932 14.7318 38.8932 14.7451V17.4111C38.8932 18.3518 38.2428 19.1382 37.3678 19.3516C36.8043 21.5706 35.7555 26.1505 35.7555 29.5098C35.7555 34.095 37.7092 40.955 37.7164 40.9805H22.6188C22.6299 40.9414 24.5787 34.0904 24.5787 29.5098C24.5787 26.1503 23.529 21.5705 22.9655 19.3516C22.0913 19.1376 21.442 18.3512 21.442 17.4111V14.7451C21.442 14.7318 21.4437 14.7183 21.444 14.7051C21.4437 14.6924 21.442 14.6797 21.442 14.667V12C21.442 10.8954 22.3374 10 23.442 10H23.7555Z" fill="url(#paint0_linear_1_544)"/>
<rect x="21" y="19" width="18" height="3" rx="1.5" fill="url(#paint1_linear_1_544)"/>
<path d="M37 36.4998C38.1044 36.5 39 37.3953 39 38.4998V39.9998C39 40.3563 38.9048 40.6903 38.7412 40.9802H39.833C40.9376 40.9802 41.833 41.8757 41.833 42.9802V47.9998C41.833 49.1043 40.9376 49.9998 39.833 49.9998H20.5C19.3954 49.9998 18.5 49.1043 18.5 47.9998V42.9802C18.5 41.8757 19.3954 40.9802 20.5 40.9802H21.7578C21.5942 40.6903 21.5 40.3563 21.5 39.9998V38.4998C21.5 37.3952 22.3954 36.4998 23.5 36.4998H37Z" fill="url(#paint2_linear_1_544)"/>
<defs>
<linearGradient id="paint0_linear_1_544" x1="21.573" y1="40.7479" x2="38.7092" y2="30.1534" gradientUnits="userSpaceOnUse">
<stop stop-color="#5386EF"/>
<stop offset="1" stop-color="#C24FF1"/>
</linearGradient>
<linearGradient id="paint1_linear_1_544" x1="23.4326" y1="21.5946" x2="24.2653" y2="16.598" gradientUnits="userSpaceOnUse">
<stop stop-color="#00D4FE"/>
<stop offset="1" stop-color="#04C58F"/>
</linearGradient>
<linearGradient id="paint2_linear_1_544" x1="21.6533" y1="48.1753" x2="31.6706" y2="30.8618" gradientUnits="userSpaceOnUse">
<stop stop-color="#00D4FE"/>
<stop offset="1" stop-color="#04C58F"/>
</linearGradient>
</defs>
</svg>
