<svg width="60" height="60" viewBox="0 0 60 60" fill="none" xmlns="http://www.w3.org/2000/svg">
<path d="M49 27.5C49 24.9392 48.4956 22.4035 47.5157 20.0377C46.5357 17.6718 45.0993 15.5222 43.2886 13.7114C41.4778 11.9007 39.3282 10.4643 36.9623 9.48435C34.5965 8.50438 32.0608 8 29.5 8C26.9392 8 24.4035 8.50438 22.0377 9.48435C19.6718 10.4643 17.5222 11.9007 15.7114 13.7114C13.9007 15.5222 12.4643 17.6718 11.4843 20.0377C10.5044 22.4035 10 24.9392 10 27.5H15.85C15.85 25.7075 16.2031 23.9325 16.889 22.2764C17.575 20.6203 18.5805 19.1155 19.848 17.848C21.1155 16.5805 22.6203 15.575 24.2764 14.889C25.9325 14.2031 27.7075 13.85 29.5 13.85C31.2925 13.85 33.0675 14.2031 34.7236 14.889C36.3797 15.575 37.8845 16.5805 39.152 17.848C40.4195 19.1155 41.425 20.6203 42.111 22.2764C42.7969 23.9325 43.15 25.7075 43.15 27.5H49Z" fill="url(#paint0_linear_1_506)"/>
<path d="M29.7722 50.0996C29.359 50.8979 29.6689 51.8906 30.5125 52.2009C32.1228 52.7932 33.8396 53.0627 35.5645 52.9877C37.8332 52.8891 40.0365 52.198 41.9551 50.983C43.8736 49.7681 45.4404 48.0718 46.4996 46.063C47.3047 44.5358 47.7951 42.8686 47.9482 41.1597C48.0284 40.2644 47.2634 39.5598 46.3651 39.5921C45.4668 39.6243 44.7787 40.3832 44.6611 41.2743C44.5109 42.4133 44.1598 43.5211 43.6201 44.5448C42.8262 46.0506 41.6517 47.3222 40.2135 48.2329C38.7754 49.1436 37.1238 49.6617 35.4231 49.7356C34.2669 49.7859 33.1153 49.6296 32.0215 49.2785C31.1656 49.0037 30.1854 49.3013 29.7722 50.0996Z" fill="url(#paint1_linear_1_506)"/>
<path d="M42 25C42 23.8954 42.8954 23 44 23H49C51.7614 23 54 25.2386 54 28V40C54 42.7614 51.7614 45 49 45H44C42.8954 45 42 44.1046 42 43V25Z" fill="url(#paint2_linear_1_506)"/>
<path d="M18 25C18 23.8954 17.1046 23 16 23H11C8.23858 23 6 25.2386 6 28V40C6 42.7614 8.23858 45 11 45H16C17.1046 45 18 44.1046 18 43V25Z" fill="url(#paint3_linear_1_506)"/>
<defs>
<linearGradient id="paint0_linear_1_506" x1="15.2706" y1="41.7295" x2="48.6507" y2="8.34929" gradientUnits="userSpaceOnUse">
<stop stop-color="#00D4FE"/>
<stop offset="1" stop-color="#04C58F"/>
</linearGradient>
<linearGradient id="paint1_linear_1_506" x1="44.4863" y1="30.5137" x2="22.2328" y2="52.7671" gradientUnits="userSpaceOnUse">
<stop stop-color="#00D4FE"/>
<stop offset="1" stop-color="#04C58F"/>
</linearGradient>
<linearGradient id="paint2_linear_1_506" x1="42.0901" y1="44.8348" x2="54.0802" y2="37.6567" gradientUnits="userSpaceOnUse">
<stop stop-color="#5386EF"/>
<stop offset="1" stop-color="#C24FF1"/>
</linearGradient>
<linearGradient id="paint3_linear_1_506" x1="17.9099" y1="44.8348" x2="5.91981" y2="37.6567" gradientUnits="userSpaceOnUse">
<stop stop-color="#5386EF"/>
<stop offset="1" stop-color="#C24FF1"/>
</linearGradient>
</defs>
</svg>
