<svg width="60" height="60" viewBox="0 0 60 60" fill="none" xmlns="http://www.w3.org/2000/svg">
<path d="M23.2468 16.4721C23.6458 15.5277 23.8452 15.0556 24.0439 14.8217C24.8426 13.8815 26.2938 13.8815 27.0925 14.8217C27.2911 15.0556 27.4906 15.5277 27.8895 16.4721L30.0905 21.6822C30.1713 21.8735 30.2117 21.9691 30.2598 22.0572C30.4435 22.3935 30.7199 22.6699 31.0562 22.8536C31.1443 22.9017 31.2399 22.9421 31.4312 23.0229L36.6413 25.2239C37.5857 25.6228 38.0579 25.8223 38.2917 26.021C39.232 26.8197 39.232 28.2708 38.2917 29.0695C38.0579 29.2682 37.5857 29.4676 36.6413 29.8666L31.4312 32.0676C31.2399 32.1484 31.1443 32.1888 31.0562 32.2369C30.7199 32.4206 30.4435 32.697 30.2598 33.0333C30.2117 33.1213 30.1713 33.217 30.0905 33.4083L27.8895 38.6183C27.4906 39.5627 27.2911 40.0349 27.0925 40.2688C26.2938 41.209 24.8426 41.209 24.0439 40.2688C23.8452 40.0349 23.6458 39.5627 23.2468 38.6183L21.0459 33.4083C20.965 33.217 20.9246 33.1213 20.8765 33.0333C20.6928 32.697 20.4164 32.4206 20.0802 32.2369C19.9921 32.1888 19.8964 32.1484 19.7051 32.0676L14.4951 29.8666C13.5507 29.4676 13.0785 29.2682 12.8446 29.0695C11.9044 28.2708 11.9044 26.8197 12.8446 26.021C13.0785 25.8223 13.5507 25.6228 14.4951 25.2239L19.7051 23.0229C19.8964 22.9421 19.9921 22.9017 20.0802 22.8536C20.4164 22.6699 20.6928 22.3935 20.8765 22.0572C20.9246 21.9691 20.965 21.8735 21.0459 21.6822L23.2468 16.4721Z" fill="url(#paint0_linear_1_495)"/>
<path d="M37.6705 36.7557C37.9498 36.0947 38.0894 35.7641 38.2285 35.6004C38.7875 34.9423 39.8034 34.9423 40.3624 35.6004C40.5015 35.7641 40.6411 36.0947 40.9204 36.7557L42.2971 40.0145C42.3536 40.1484 42.3819 40.2154 42.4156 40.277C42.5442 40.5124 42.7377 40.7059 42.9731 40.8345C43.0347 40.8682 43.1017 40.8965 43.2356 40.953L46.4944 42.3297C47.1554 42.6089 47.486 42.7486 47.6497 42.8876C48.3078 43.4467 48.3078 44.4625 47.6497 45.0216C47.486 45.1607 47.1554 45.3003 46.4944 45.5796L43.2356 46.9562C43.1017 47.0128 43.0347 47.0411 42.9731 47.0748C42.7377 47.2034 42.5442 47.3969 42.4156 47.6322C42.3819 47.6939 42.3536 47.7608 42.2971 47.8947L40.9204 51.1535C40.6411 51.8146 40.5015 52.1451 40.3624 52.3088C39.8034 52.967 38.7875 52.967 38.2285 52.3088C38.0894 52.1451 37.9498 51.8146 37.6705 51.1535L36.2938 47.8947C36.2373 47.7608 36.209 47.6939 36.1753 47.6322C36.0467 47.3969 35.8532 47.2034 35.6179 47.0748C35.5562 47.0411 35.4892 47.0128 35.3553 46.9562L32.0966 45.5796C31.4355 45.3003 31.105 45.1607 30.9412 45.0216C30.2831 44.4625 30.2831 43.4467 30.9412 42.8876C31.105 42.7486 31.4355 42.6089 32.0966 42.3297L35.3553 40.953C35.4892 40.8965 35.5562 40.8682 35.6179 40.8345C35.8532 40.7059 36.0467 40.5124 36.1753 40.277C36.209 40.2154 36.2373 40.1484 36.2938 40.0145L37.6705 36.7557Z" fill="url(#paint1_linear_1_495)"/>
<path d="M39.6589 8.84655C39.9381 8.18548 40.0778 7.85495 40.2168 7.69124C40.7759 7.03308 41.7917 7.03308 42.3508 7.69124C42.4899 7.85495 42.6295 8.18548 42.9088 8.84655L43.8298 11.0269C43.8864 11.1608 43.9147 11.2277 43.9484 11.2894C44.077 11.5247 44.2704 11.7182 44.5058 11.8468C44.5675 11.8805 44.6344 11.9088 44.7683 11.9654L46.9486 12.8864C47.6097 13.1657 47.9402 13.3053 48.1039 13.4444C48.7621 14.0035 48.7621 15.0193 48.1039 15.5784C47.9402 15.7174 47.6097 15.8571 46.9486 16.1363L44.7683 17.0574C44.6344 17.1139 44.5675 17.1422 44.5058 17.1759C44.2704 17.3045 44.077 17.498 43.9484 17.7334C43.9147 17.795 43.8864 17.862 43.8298 17.9959L42.9088 20.1762C42.6295 20.8372 42.4899 21.1678 42.3508 21.3315C41.7917 21.9896 40.7759 21.9896 40.2168 21.3315C40.0778 21.1678 39.9381 20.8372 39.6589 20.1762L38.7378 17.9959C38.6812 17.862 38.653 17.795 38.6193 17.7334C38.4907 17.498 38.2972 17.3045 38.0618 17.1759C38.0002 17.1422 37.9332 17.1139 37.7993 17.0574L35.619 16.1363C34.9579 15.8571 34.6274 15.7174 34.4637 15.5784C33.8055 15.0193 33.8055 14.0035 34.4637 13.4444C34.6274 13.3053 34.9579 13.1657 35.619 12.8864L37.7993 11.9654C37.9332 11.9088 38.0002 11.8805 38.0618 11.8468C38.2972 11.7182 38.4907 11.5247 38.6193 11.2894C38.653 11.2277 38.6812 11.1608 38.7378 11.0269L39.6589 8.84655Z" fill="#5386EF"/>
<defs>
<linearGradient id="paint0_linear_1_495" x1="13.4781" y1="39.6353" x2="41.8396" y2="11.2738" gradientUnits="userSpaceOnUse">
<stop stop-color="#00D4FE"/>
<stop offset="1" stop-color="#04C58F"/>
</linearGradient>
<linearGradient id="paint1_linear_1_495" x1="28.4159" y1="54.8342" x2="42.0161" y2="39.9071" gradientUnits="userSpaceOnUse">
<stop stop-color="#5386EF"/>
<stop offset="1" stop-color="#C24FF1"/>
</linearGradient>
</defs>
</svg>
