<svg width="60" height="60" viewBox="0 0 60 60" fill="none" xmlns="http://www.w3.org/2000/svg">
<path d="M25.8984 17.5347C25.7568 17.0008 25.2081 16.68 24.6835 16.8527C21.8185 17.796 19.2499 19.4869 17.2474 21.7585C15.024 24.2808 13.5985 27.4056 13.1512 30.738C12.7038 34.0704 13.2546 37.4606 14.734 40.48C16.2134 43.4993 18.5549 46.0121 21.4624 47.7007C24.37 49.3893 27.7129 50.1777 31.0685 49.9664C34.4242 49.755 37.6418 48.5534 40.3145 46.5134C42.9872 44.4734 44.9949 41.6866 46.0838 38.5056C47.0645 35.6405 47.2602 32.5715 46.6597 29.6156C46.5498 29.0744 45.9992 28.7568 45.4653 28.8984L30.9666 32.7436C30.4328 32.8852 29.8852 32.5672 29.7436 32.0334L25.8984 17.5347Z" fill="#5386EF"/>
<path d="M25.8984 17.5347C25.7568 17.0008 25.2081 16.68 24.6835 16.8527C21.8185 17.796 19.2499 19.4869 17.2474 21.7585C15.024 24.2808 13.5985 27.4056 13.1512 30.738C12.7038 34.0704 13.2546 37.4606 14.734 40.48C16.2134 43.4993 18.5549 46.0121 21.4624 47.7007C24.37 49.3893 27.7129 50.1777 31.0685 49.9664C34.4242 49.755 37.6418 48.5534 40.3145 46.5134C42.9872 44.4734 44.9949 41.6866 46.0838 38.5056C47.0645 35.6405 47.2602 32.5715 46.6597 29.6156C46.5498 29.0744 45.9992 28.7568 45.4653 28.8984L30.9666 32.7436C30.4328 32.8852 29.8852 32.5672 29.7436 32.0334L25.8984 17.5347Z" fill="url(#paint0_linear_1_485)"/>
<path d="M51.2504 27.306C51.7838 27.163 52.1026 26.6139 51.9366 26.0871C51.1306 23.5295 49.8827 21.13 48.2471 18.9985C46.4084 16.6022 44.1157 14.5916 41.5 13.0814C38.8843 11.5712 35.9967 10.591 33.0021 10.1968C30.3384 9.84608 27.6364 9.96515 25.0184 10.546C24.4793 10.6656 24.163 11.2162 24.306 11.7496L29.7412 32.0341C29.8841 32.5675 30.4325 32.8841 30.9659 32.7412L51.2504 27.306Z" fill="#04C58F"/>
<path d="M51.2504 27.306C51.7838 27.163 52.1026 26.6139 51.9366 26.0871C51.1306 23.5295 49.8827 21.13 48.2471 18.9985C46.4084 16.6022 44.1157 14.5916 41.5 13.0814C38.8843 11.5712 35.9967 10.591 33.0021 10.1968C30.3384 9.84608 27.6364 9.96515 25.0184 10.546C24.4793 10.6656 24.163 11.2162 24.306 11.7496L29.7412 32.0341C29.8841 32.5675 30.4325 32.8841 30.9659 32.7412L51.2504 27.306Z" fill="url(#paint1_linear_1_485)"/>
<path d="M25.8589 17.5452C25.716 17.0117 26.0321 16.4603 26.5731 16.349C28.4282 15.9672 30.3365 15.8976 32.219 16.1454C34.4323 16.4368 36.5666 17.1613 38.5 18.2776C40.4334 19.3938 42.128 20.8799 43.487 22.6511C44.6429 24.1574 45.5368 25.8448 46.1337 27.6423C46.3077 28.1665 45.9883 28.716 45.4548 28.8589L30.9659 32.7412C30.4325 32.8841 29.8841 32.5675 29.7412 32.0341L25.8589 17.5452Z" fill="#5386EF"/>
<defs>
<linearGradient id="paint0_linear_1_485" x1="46.7448" y1="49.7447" x2="23.7705" y2="28.8127" gradientUnits="userSpaceOnUse">
<stop stop-color="#5386EF"/>
<stop offset="1" stop-color="#C24FF1"/>
</linearGradient>
<linearGradient id="paint1_linear_1_485" x1="51.7222" y1="13.8333" x2="23.6111" y2="37.4722" gradientUnits="userSpaceOnUse">
<stop stop-color="#00D4FE"/>
<stop offset="1" stop-color="#04C58F"/>
</linearGradient>
</defs>
</svg>
