<svg width="60" height="60" viewBox="0 0 60 60" fill="none" xmlns="http://www.w3.org/2000/svg">
<path d="M30.522 15.3916C33.2001 15.3916 35.4492 17.2262 36.0825 19.707C37.1726 18.9596 38.4921 18.5225 39.9136 18.5225C43.4918 18.5226 46.4203 21.2934 46.6753 24.8066C46.8542 24.7925 47.0348 24.7832 47.2173 24.7832C50.9632 24.7832 54.0005 27.8195 54.0005 31.5654C54.0005 35.3114 50.9632 38.3477 47.2173 38.3477C45.8018 38.3476 44.4882 37.9135 43.4009 37.1719C42.3508 38.5219 40.7124 39.3916 38.8696 39.3916C36.9407 39.3915 35.2353 38.4389 34.1948 36.9795C32.5308 38.4781 30.3293 39.3915 27.9136 39.3916C22.7269 39.3916 18.522 35.1867 18.522 30C18.5221 25.9113 21.1355 22.4339 24.7827 21.1445C24.7827 21.14 24.7827 21.1354 24.7827 21.1309C24.7827 17.9612 27.3524 15.3916 30.522 15.3916Z" fill="url(#paint0_linear_1_570)"/>
<path d="M29.478 20.6086C26.7999 20.6086 24.5507 22.4432 23.9174 24.9241C22.8274 24.1767 21.5079 23.7395 20.0864 23.7395C16.5082 23.7397 13.5797 26.5105 13.3247 30.0237C13.1458 30.0095 12.9652 30.0003 12.7827 30.0002C9.03678 30.0002 5.99953 33.0366 5.99948 36.7825C5.99948 40.5284 9.03675 43.5647 12.7827 43.5647C14.1982 43.5646 15.5118 43.1306 16.5991 42.3889C17.6492 43.7389 19.2876 44.6086 21.1303 44.6086C23.0593 44.6086 24.7646 43.656 25.8051 42.1965C27.4692 43.6952 29.6707 44.6086 32.0864 44.6086C37.2731 44.6086 41.478 40.4037 41.478 35.217C41.4779 31.1283 38.8645 27.6509 35.2173 26.3616C35.2173 26.357 35.2173 26.3525 35.2173 26.3479C35.2173 23.1783 32.6476 20.6086 29.478 20.6086Z" fill="url(#paint1_linear_1_570)"/>
<path d="M29.4783 20.6084C32.6479 20.6084 35.2176 23.178 35.2176 26.3477C35.2176 26.3522 35.2176 26.3568 35.2176 26.3613C38.8648 27.6507 41.4782 31.1281 41.4783 35.2168C41.4783 36.6074 41.173 37.926 40.6306 39.1133C40.0757 39.2924 39.4845 39.3916 38.8699 39.3916C36.941 39.3915 35.2356 38.4389 34.1951 36.9795C32.5311 38.4781 30.3295 39.3915 27.9138 39.3916C22.7272 39.3916 18.5224 35.1866 18.5222 30C18.5223 27.6158 19.4117 25.44 20.8758 23.7842C21.9956 23.9139 23.0324 24.3167 23.9178 24.9238C24.5511 22.443 26.8002 20.6084 29.4783 20.6084Z" fill="#5386EF"/>
<defs>
<linearGradient id="paint0_linear_1_570" x1="18.7884" y1="39.2114" x2="32.045" y2="17.7027" gradientUnits="userSpaceOnUse">
<stop stop-color="#5386EF"/>
<stop offset="1" stop-color="#C24FF1"/>
</linearGradient>
<linearGradient id="paint1_linear_1_570" x1="36.6833" y1="41.3652" x2="17.6168" y2="13.1798" gradientUnits="userSpaceOnUse">
<stop stop-color="#00D4FE"/>
<stop offset="1" stop-color="#04C58F"/>
</linearGradient>
</defs>
</svg>
