<svg width="145" height="65" viewBox="0 0 145 65" fill="none" xmlns="http://www.w3.org/2000/svg">
<path fill-rule="evenodd" clip-rule="evenodd" d="M31.2934 19.1211L39.0686 32.4596L45.9219 44.0056L46.0371 44.177L37.2665 44.1868L26.8389 44.1899H16.7441L23.1486 33.0922L29.4745 22.1524L31.2409 19.1211H31.2934ZM29.6295 38.5458H26.7332L26.4139 38.5556L26.4237 44.177C26.8719 43.4125 27.1387 42.9407 27.4451 42.4239L29.6295 38.5458ZM29.6291 32.9602L29.6398 38.5486L32.8881 32.9666C32.0179 32.9666 30.5586 32.9736 29.6291 32.9602ZM32.8881 27.4246V32.9635L32.8978 32.9699L35.985 27.662L36.1262 27.4307C35.0036 27.4344 34.021 27.4246 32.8881 27.4246Z" fill="#B9B9B9"/>
<path fill-rule="evenodd" clip-rule="evenodd" d="M109.817 40.1605L109.811 42.559C109.916 43.0864 110.285 43.5081 110.786 43.693C111.445 43.8773 112.262 43.693 112.79 43.2447C113.264 42.823 113.502 42.3219 113.659 41.7685C113.848 41.7489 113.949 41.7425 114.055 41.7425C113.976 42.5067 113.449 43.3764 112.658 43.825C111.656 44.3256 110.575 44.2467 109.626 43.6664C108.361 42.8493 107.702 41.4525 108.018 39.9234C108.308 38.7112 109.125 37.5771 110.338 37.1558C111.673 36.8095 113.158 37.2612 113.87 38.5C114.081 38.9746 114.196 39.5778 114.222 40.052C113.623 40.0591 113.026 40.0291 112.367 40.0554L109.428 40.0823V39.649C110.259 39.6471 111.546 39.6343 112.476 39.6404C112.487 39.1759 112.476 38.9446 112.414 38.5101C112.377 38.1382 112.183 37.894 111.919 37.6566C111.55 37.4195 110.918 37.3929 110.549 37.5512C109.713 37.9307 109.832 38.7338 109.827 39.535L109.82 40.049L109.817 40.1605Z" fill="#B9B9B9"/>
<path fill-rule="evenodd" clip-rule="evenodd" d="M91.8935 40.1292L91.8877 42.5283C91.9931 43.0557 92.3616 43.4774 92.8622 43.662C93.521 43.8459 94.3387 43.662 94.8662 43.214C95.3401 42.7917 95.5775 42.2914 95.7355 41.7374C95.9238 41.7182 96.0255 41.7111 96.1309 41.7111C96.0521 42.4757 95.5253 43.3463 94.7341 43.794C93.7322 44.2945 92.6516 44.2154 91.7025 43.6357C90.4374 42.8186 89.7783 41.4211 90.0939 39.892C90.3845 38.6795 91.202 37.5464 92.4145 37.1241C93.749 36.7788 95.2347 37.2298 95.9467 38.469C96.1572 38.9432 96.2721 39.5467 96.2987 40.021C95.6992 40.0274 95.1024 39.9978 94.4435 40.024L91.5039 40.0509V39.6182C92.3344 39.6161 93.6228 39.602 94.552 39.6091C94.5624 39.1443 94.552 38.9139 94.4897 38.479C94.4533 38.1059 94.259 37.8624 93.9956 37.6252C93.6264 37.3881 92.9936 37.3618 92.625 37.5198C91.7893 37.8997 91.9088 38.7018 91.9045 39.5036L91.8965 40.0173L91.8935 40.1292Z" fill="#B9B9B9"/>
<path fill-rule="evenodd" clip-rule="evenodd" d="M56.8295 19.1979C56.843 19.369 56.8069 19.5435 56.8332 19.6752C56.2923 19.6886 55.9599 19.656 55.5938 19.6752V29.2676C55.5152 30.1905 55.1198 31.1656 54.2233 31.6927C53.5904 32.1673 52.7473 32.3784 51.9565 32.1407C51.561 32.0093 51.1659 31.7193 50.9811 31.3239C50.7968 30.9547 50.849 30.4273 51.1659 30.1107C51.3765 29.8739 51.6931 29.847 51.9827 29.8739C52.299 29.9527 52.5102 30.2424 52.5893 30.533C52.7999 31.0333 51.8773 31.5873 52.6419 31.8241C53.0636 31.851 53.3536 31.5873 53.5644 31.2707L53.7487 30.6378V28.0548L53.756 19.6691L53.5384 19.6721H52.0824C52.0781 19.5334 52.0885 19.3192 52.0885 19.1875L55.4098 19.1979H56.8295Z" fill="#B9B9B9"/>
<path fill-rule="evenodd" clip-rule="evenodd" d="M88.6482 24.3325C88.7307 24.6366 88.6745 25.1234 88.3848 25.4134C88.1471 25.6111 87.8311 25.6771 87.5677 25.5451C87.0308 25.3474 87.2218 24.834 86.9452 24.515C86.3894 24.7224 85.8351 26.0908 85.8543 26.4059L85.7749 27.4433V30.2901L87.1197 30.3005V30.6592H83.0338V30.31L84.1932 30.3167V24.3325C83.8017 24.3295 83.4192 24.3399 83.0234 24.3399V23.9634H85.7785L85.7749 25.3611C86.0915 24.7023 86.6971 23.7797 87.5411 23.7266C87.9964 23.7302 88.4643 23.8583 88.6482 24.3325Z" fill="#B9B9B9"/>
<path fill-rule="evenodd" clip-rule="evenodd" d="M71.3288 24.9726L71.411 25.6584L71.4049 30.3273C71.8101 30.3273 72.0805 30.3273 72.5184 30.3239V30.6903L69.0091 30.6992C69.1408 30.6964 68.9064 30.6903 68.8802 30.6903C68.8802 30.5583 68.8875 30.5186 68.8802 30.3404C69.1867 30.3533 69.4834 30.3637 69.7504 30.3404V25.1575C69.7242 24.9726 69.6187 24.6826 69.4867 24.5247C68.9859 24.1292 68.3793 24.2347 67.8522 24.5247C67.22 25.0255 67.0879 25.8426 67.0614 26.6335V30.3533C67.4076 30.3533 67.5362 30.3239 67.8259 30.3505C67.9313 30.3242 68.0603 30.3606 68.3038 30.3438C68.3038 30.3964 68.2944 30.5317 68.2904 30.6995H64.452V30.3533C64.9596 30.3209 64.9862 30.3505 65.4503 30.3438L65.4534 27.6883L65.4503 24.3239L64.3203 24.3138V23.9184H67.0222C67.0516 24.1619 67.0351 24.327 67.0351 24.5775C68.0108 23.6284 69.4073 23.4704 70.541 23.9978C70.8573 24.1818 71.2233 24.6301 71.3288 24.9726Z" fill="#B9B9B9"/>
<path fill-rule="evenodd" clip-rule="evenodd" d="M75.5718 24.1051L75.5751 30.3129L76.7583 30.3233C76.788 30.4947 76.7675 30.5503 76.762 30.6882L75.2323 30.7016L72.7546 30.6924L72.758 30.3264L73.9904 30.3398L73.9937 30.1152L73.9968 24.2927C73.6319 24.2927 73.1048 24.2896 72.6758 24.2799V23.8875C73.6674 23.8844 74.6556 23.8912 75.5754 23.8942L75.5718 24.1051Z" fill="#B9B9B9"/>
<path fill-rule="evenodd" clip-rule="evenodd" d="M58.6265 29.4823C58.6399 29.7885 58.8116 30.1145 59.1272 30.2462C59.6283 30.4314 60.2348 30.352 60.6562 30.062C61.526 29.4032 61.4469 28.2963 61.4995 27.2681L61.4964 24.3422L59.991 24.3318C60.0038 24.2364 59.9974 24.1044 59.9974 24.0256L60.0005 23.9467H63.084L63.0883 26.5298L63.091 30.1607C63.091 29.9932 63.0843 29.9966 63.0978 30.3523H64.1882V30.6948H61.4762C61.4762 30.4051 61.4964 30.1381 61.4735 29.8511C60.867 30.6948 59.8392 30.9585 58.785 30.8006C58.2048 30.6689 57.3847 30.2997 57.1577 29.6504L57.0719 29.166L57.0749 24.355L56.8607 24.3583L55.8359 24.3519C55.8399 24.197 55.8427 24.0818 55.8491 23.9434C56.7623 23.9394 57.7114 23.9336 58.6338 23.9336L58.6265 29.4823Z" fill="#B9B9B9"/>
<path fill-rule="evenodd" clip-rule="evenodd" d="M80.0526 30.2545C80.3245 30.241 80.5754 30.1927 80.7288 30.1102C81.1869 29.8465 81.3149 29.6714 81.3488 29.1877L81.3424 25.1507L81.3381 25.1476C81.3751 24.5713 80.5238 23.8893 79.9542 23.9553C79.3983 23.8893 78.403 24.4197 78.4061 25.184L78.4128 29.1577C78.4425 29.5996 78.5901 29.7805 78.9072 30.0442C79.0915 30.1759 79.6779 30.2789 80.0379 30.2896L80.0516 30.8118C78.8712 30.8018 77.8695 30.3153 77.2623 29.4545C76.5772 28.5848 76.3492 27.1412 76.7444 26.0341C77.167 24.6107 78.5647 23.6292 79.8753 23.6289C81.1218 23.6283 82.1131 24.2877 82.8245 25.316C83.4041 26.2914 83.4836 27.8465 82.8773 28.8485C82.3267 29.9425 81.1013 30.8054 79.9945 30.8152L80.0526 30.2545Z" fill="#B9B9B9"/>
<path fill-rule="evenodd" clip-rule="evenodd" d="M68.1555 38.2534L68.1659 38.2469C68.9564 37.3241 70.2484 36.9809 71.3289 37.1924C71.8032 37.3504 72.4128 37.7033 72.6502 38.2039L72.733 38.5629L72.7257 43.5781L72.733 43.7165L73.9254 43.7235C73.9224 43.8687 73.9193 43.9671 73.9285 44.1055L73.0426 44.0985H69.8792V43.7593C70.2551 43.7562 70.7718 43.7495 71.1413 43.7495L71.144 43.5454L71.1514 38.5366C71.1254 38.2207 70.9338 37.9304 70.6438 37.7984C70.1952 37.6141 69.6155 37.7195 69.2201 37.9573C68.5613 38.3787 68.1949 39.1163 68.1689 39.8286L68.1555 42.405L68.1659 43.7562C68.5741 43.763 68.9564 43.7495 69.4047 43.7593C69.412 43.8287 69.3918 43.9833 69.3986 44.1055L68.8846 44.1089L65.7344 44.1018C65.7478 44.023 65.7405 43.8745 65.7405 43.7691C66.0271 43.7721 66.3409 43.7721 66.568 43.7691L66.5707 33.0533C66.2548 33.0405 66.0537 33.0533 65.7674 33.0472C65.7674 32.9418 65.7701 32.7869 65.7802 32.6484H68.1689L68.1555 38.2534Z" fill="#B9B9B9"/>
<path fill-rule="evenodd" clip-rule="evenodd" d="M124.39 34.6758V37.3484L126.101 37.3578C126.097 37.5192 126.111 37.6347 126.104 37.7569C125.55 37.7704 124.983 37.7468 124.391 37.7704L124.384 42.946C124.436 43.2885 124.76 43.5693 125.076 43.6219C125.366 43.6219 125.682 43.5693 125.893 43.3056C126.13 43.1208 125.979 42.5869 126.473 42.7253C126.473 43.0945 126.219 43.4835 125.972 43.7634C125.26 44.1851 124.522 44.3339 123.784 44.017C123.415 43.8328 122.881 43.4111 122.854 42.9102L122.862 37.7566C122.486 37.7664 122.291 37.7664 121.817 37.7664C121.79 37.2915 122.387 37.1369 122.677 36.8209C123.362 36.1881 123.889 35.4761 124.127 34.6856C124.255 34.6788 124.259 34.6856 124.39 34.6758Z" fill="#B9B9B9"/>
<path fill-rule="evenodd" clip-rule="evenodd" d="M52.7532 40.1304C53.6965 40.1377 54.8572 40.1261 55.9709 40.1325L54.54 36.0958L54.379 35.6209L54.3451 35.7325L51.8834 43.6885L51.8488 43.7961L53.1963 43.7927V44.142L50.5078 44.1359H50.2643C50.2771 44.0402 50.2805 43.9018 50.2539 43.7961C50.5866 43.79 51.0217 43.7866 51.3481 43.793L51.4831 43.3976L54.8306 32.7216V32.6953C55.0414 32.6953 55.1731 32.6984 55.3873 32.6984L58.3361 41.2625L59.2555 43.7667H60.5308C60.5571 43.9247 60.5443 43.9779 60.5403 44.1359L56.9395 44.1331H55.7995C55.786 44.0335 55.7894 44.0439 55.7894 43.7863C56.1979 43.7927 56.7348 43.79 57.2291 43.7832L56.1487 40.6034L56.0858 40.498L52.6387 40.4919L52.7532 40.1304Z" fill="#B9B9B9"/>
<path fill-rule="evenodd" clip-rule="evenodd" d="M120.752 37.876C121.042 38.3237 121.118 38.8606 121.144 39.4146L121.147 43.7505C121.678 43.7505 121.839 43.7505 122.228 43.737V44.0768L118.616 44.0707C118.63 43.9741 118.616 43.8855 118.623 43.7639C118.988 43.7676 119.236 43.7605 119.533 43.7569L119.536 38.7882C119.483 38.4459 119.354 38.06 119.011 37.8757C118.511 37.6908 117.931 37.744 117.457 38.0866C116.718 38.7454 116.943 39.7996 116.837 40.6962L116.841 43.7606L117.937 43.7541C117.924 43.899 117.931 43.9714 117.931 44.0768L116.666 44.0799H114.191C114.19 43.9812 114.197 43.8492 114.188 43.7471L115.255 43.737L115.269 43.5958L115.255 37.6679C114.89 37.6649 114.504 37.6679 114.059 37.671C114.056 37.5099 114.066 37.4106 114.066 37.2786L114.294 37.2921L116.775 37.2859L116.771 38.06C117.536 37.2954 118.669 37.032 119.644 37.2169C120.039 37.3489 120.461 37.5332 120.752 37.876Z" fill="#B9B9B9"/>
<path fill-rule="evenodd" clip-rule="evenodd" d="M107.058 38.2222L107.177 38.7689L107.18 43.7416C107.536 43.7443 107.895 43.7339 108.185 43.7339C108.171 43.9127 108.179 43.9787 108.179 44.0838L107.694 44.0805H104.663V43.7645L105.622 43.751V39.6389C105.543 39.0057 105.753 38.0572 104.963 37.8201C104.278 37.6884 103.619 37.9255 103.25 38.5321C103.013 39.0592 102.975 39.7339 102.95 40.3145L102.96 43.751C103.378 43.7474 103.662 43.7675 103.961 43.7645V44.0939H100.351V43.7575C100.743 43.7608 101.039 43.7737 101.369 43.7608L101.379 43.2765L101.382 38.7686C101.329 38.4523 101.116 38.1094 100.825 37.9777C100.404 37.7409 99.8497 37.846 99.4284 38.0835C98.5057 38.6366 98.7104 39.8069 98.6606 40.6668L98.6639 43.7773C99.1216 43.7672 99.425 43.7672 99.7248 43.7807C99.7379 43.9023 99.7284 43.9484 99.7248 44.0805H96.1337L96.1408 43.7575C96.4729 43.7645 96.7561 43.7538 97.0791 43.751L97.0828 37.6447C96.7137 37.6447 96.4338 37.652 95.9688 37.6416C95.9788 37.513 95.9758 37.3489 95.9758 37.2431L96.0546 37.2566L98.6147 37.2492C98.6083 37.5264 98.6114 37.846 98.6114 38.1629C99.4287 37.4509 100.562 37.1081 101.643 37.3721C102.091 37.5035 102.539 37.7938 102.75 38.2155C103.567 37.3721 104.726 37.0555 105.807 37.2663C106.281 37.3721 106.818 37.744 107.058 38.2222Z" fill="#B9B9B9"/>
<path fill-rule="evenodd" clip-rule="evenodd" d="M65.0829 37.8635C65.4261 38.2586 65.6104 38.8652 65.3998 39.3395C65.2418 39.6032 65.0701 39.7581 64.7407 39.8143C64.4241 39.788 64.0818 39.656 63.9498 39.3395C63.7653 38.8652 63.9498 38.3906 64.2661 38.0215C64.1344 37.653 63.6867 37.5735 63.3964 37.521C62.6582 37.4152 62.0785 37.7315 61.7356 38.3118L61.5773 38.7335L61.4719 41.0269C61.5245 42.0285 61.3139 43.3728 62.4473 43.7945C63.133 44.0319 63.897 43.7945 64.4241 43.3728C64.9249 42.9511 65.1624 42.424 65.3207 41.8706C65.5019 41.8571 65.6104 41.844 65.7424 41.8174C65.5581 42.8194 64.8727 43.7157 63.897 44.1111C62.8427 44.4011 61.8676 44.3219 60.9448 43.5311C59.9165 42.6611 59.4688 41.3694 59.7322 39.9986C59.9697 38.8652 60.8922 37.7055 61.9993 37.3101C62.9741 36.941 64.2924 37.0724 65.0829 37.8635Z" fill="#B9B9B9"/>
<path fill-rule="evenodd" clip-rule="evenodd" d="M90.5882 37.2305C90.6077 37.3689 90.5814 37.5009 90.5814 37.6057L89.7906 37.5996L89.0425 39.4218L87.2372 44.1142C87.0728 44.1008 86.9799 44.1008 86.7192 44.1142L84.219 37.5797C83.9785 37.5797 83.8395 37.5767 83.6387 37.5828C83.6353 37.471 83.646 37.3396 83.6289 37.2338H86.9866V37.6063L85.9027 37.5999L85.8034 37.5929L87.573 41.9819L87.5929 41.952L88.3837 40.0015L89.2635 37.705C89.2898 37.6522 89.2699 37.6919 89.2995 37.5898L88.0079 37.5828C88.0115 37.4114 88.0344 37.3655 88.0079 37.2338L88.1823 37.2305H90.5882Z" fill="#B9B9B9"/>
<path fill-rule="evenodd" clip-rule="evenodd" d="M76.9339 43.5217L76.9303 43.7426H78.0774V44.1081L74.1495 44.101C74.1455 44.006 74.1391 43.8407 74.1391 43.7349C74.5079 43.7395 74.8835 43.7453 75.2856 43.7453L75.2826 37.7514C74.9489 37.745 74.5342 37.7484 74.0859 37.7484L74.096 37.3789H76.93L76.9339 43.5217Z" fill="#B9B9B9"/>
<path fill-rule="evenodd" clip-rule="evenodd" d="M79.6662 40.1332L79.6607 42.5326C79.7658 43.0597 80.135 43.4811 80.6352 43.6657C81.2943 43.8503 82.1121 43.6657 82.6392 43.2177C83.1134 42.796 83.3506 42.2949 83.5086 41.7415C83.6968 41.7213 83.7985 41.7149 83.9043 41.7149C83.8251 42.4794 83.298 43.3497 82.5072 43.7974C81.5058 44.2982 80.4244 44.2191 79.4758 43.6394C78.2107 42.8223 77.5519 41.4249 77.8673 39.8964C78.1576 38.6832 78.9747 37.5501 80.1878 37.1284C81.5217 36.7822 83.0077 37.2336 83.7194 38.473C83.9303 38.9466 84.0458 39.5505 84.0717 40.0247C83.4725 40.0311 82.8757 40.0015 82.2166 40.0281L79.2766 40.055V39.6217C80.1072 39.6198 81.3958 39.6067 82.3254 39.6128C82.3357 39.1483 82.3254 38.9176 82.2636 38.4828C82.2263 38.11 82.0323 37.8664 81.7686 37.629C81.4001 37.3922 80.7669 37.3656 80.3984 37.5239C79.5626 37.9034 79.6815 38.7055 79.6775 39.5071L79.6696 40.0211L79.6662 40.1332Z" fill="#B9B9B9"/>
<path fill-rule="evenodd" clip-rule="evenodd" d="M76.0198 34.8909C76.5567 34.8909 76.9919 34.4555 76.9919 33.9183C76.9919 33.3808 76.5567 32.9453 76.0198 32.9453C75.4823 32.9453 75.0469 33.3808 75.0469 33.9183C75.0469 34.4555 75.482 34.8909 76.0198 34.8909Z" fill="#B9B9B9"/>
<path fill-rule="evenodd" clip-rule="evenodd" d="M73.5918 20.387C73.5918 19.8495 74.0273 19.4141 74.5648 19.4141C75.1014 19.4141 75.5368 19.8495 75.5368 20.387C75.5368 20.9242 75.1014 21.3597 74.5648 21.3597C74.0273 21.3597 73.5918 20.9242 73.5918 20.387Z" fill="#B9B9B9"/>
<path fill-rule="evenodd" clip-rule="evenodd" d="M127.215 36.4448C127.661 36.4186 128.016 36.0488 128.016 35.5956C128.016 35.126 127.634 34.7452 127.165 34.7452C126.696 34.7452 126.315 35.126 126.315 35.5956C126.315 36.065 126.712 36.4959 127.247 36.4619L127.265 36.6807C126.588 36.7009 126.078 36.2386 126.078 35.5874C126.078 34.9823 126.569 34.4922 127.173 34.4922C127.778 34.4922 128.269 34.9823 128.269 35.5874C128.269 36.1781 127.801 36.66 127.215 36.6814L127.215 36.4448Z" fill="#B9B9B9"/>
<path fill-rule="evenodd" clip-rule="evenodd" d="M126.993 35.236L127.243 35.2286C127.517 35.2784 127.447 35.555 126.904 35.4893L126.933 35.7096C127.329 35.6045 127.227 36.2242 127.622 36.1744C127.671 36.039 127.464 35.8019 127.382 35.6442C127.569 35.588 127.665 35.3444 127.556 35.1596L127.342 35.0508C127.396 35.0615 126.699 35.0664 126.762 35.0508L126.765 36.1585H127.019L126.993 35.236Z" fill="#B9B9B9"/>
</svg>
