<svg xmlns="http://www.w3.org/2000/svg" xml:space="preserve" width="180" height="35" version="1.1" style="shape-rendering:geometricPrecision; text-rendering:geometricPrecision; image-rendering:optimizeQuality; fill-rule:evenodd; clip-rule:evenodd"
viewBox="0 0 4627.45 1047.83"
 xmlns:xlink="http://www.w3.org/1999/xlink">
 <defs>
  <style type="text/css">
   <![CDATA[
    .fil2 {fill:#B3A86F}
    .fil0 {fill:black;fill-rule:nonzero}
    .fil1 {fill:#BDB487;fill-rule:nonzero}
   ]]>
  </style>
 </defs>
 <g id="Layer_x0020_1">
  <metadata id="CorelCorpID_0Corel-Layer"/>
  <g id="_2681113668432">
   <path class="fil0" d="M1622.31 1047.83l-72.42 -111.65c-2.3,-3.45 -4.53,-6.69 -6.68,-9.7 -2.16,-3.01 -4.24,-5.68 -6.25,-7.98 11.78,-5.75 21.7,-13.36 29.75,-22.84 13.22,-15.53 19.83,-33.34 19.83,-53.46 0,-25.58 -10.06,-46.7 -30.18,-63.37 -18.97,-15.81 -40.67,-23.71 -65.1,-23.71l-125.87 0 0 292.71 54.74 0 0 -118.98 30.18 0c19.54,0 33.48,6.32 41.82,18.97l64.23 100.02 65.96 0zm-90.96 -205.63c0,8.91 -4.02,16.38 -12.06,22.41 -8.34,6.04 -17.68,9.05 -28.03,9.05l-71.13 0 0 -63.8 71.13 0c10.35,0 19.69,3.17 28.03,9.49 8.04,6.04 12.06,13.65 12.06,22.85zm666.29 205.63l0 -55.18 -156.49 0 0 -63.8 122.43 0 0 -55.18 -122.43 0 0 -63.8 156.49 0 0 -54.74 -211.23 0 0 292.71 211.23 0zm640 0l-106.47 -292.71 -51.3 0 -106.05 292.71 57.77 0 22.41 -61.22 102.17 0 22.85 61.22 58.62 0zm-132.35 -202.19l31.47 85.79 -62.51 0 31.03 -85.79zm686.13 202.19l0 -55.18 -122.43 0 0 -237.53 -54.75 0 0 292.71 177.18 0zm603.79 -237.97l0 -54.74 -231.49 0 0 54.74 88.37 0 0 237.97 55.18 0 0 -237.97 87.94 0zm632.24 -54.74l-68.54 0 -68.97 98.29 -68.97 -98.29 -68.11 0 109.5 155.19 0 137.52 55.18 0 0 -137.52 109.93 -155.19z"/>
   <path class="fil1" d="M1491.16 254.35l128.57 -164.9c24.22,-34.79 52.18,-56.22 83.85,-64.3 31.68,-8.07 69.56,-7.14 113.66,2.8l-120.19 153.73 -108.07 137.89 250.62 361.49 -147.21 0 -201.24 -290.68 0 290.68 -125.78 0 0 -653.11 125.78 0 0 226.4zm448.61 -57.76l104.34 0 0 61.49c10.56,-21.74 24.07,-38.98 40.53,-51.7 16.46,-12.74 34.63,-19.73 54.5,-20.96 26.09,-1.87 47.2,2.94 63.36,14.43 16.15,11.49 27.48,25.47 34,41.93 6.53,16.47 8.24,33.23 5.12,50.31 -3.1,17.08 -11.49,30.6 -25.15,40.53 -5.59,-15.53 -16.3,-25.62 -32.14,-30.28 -15.84,-4.66 -32.46,-4.03 -49.85,1.87 -17.39,5.9 -33.07,16.92 -47.05,33.07 -13.97,16.15 -22.2,37.27 -24.68,63.36 -1.24,14.91 -1.86,29.66 -1.86,44.25 0,14.6 0,28.11 0,40.53l0 195.65 -121.12 0 0 -484.47zm406.68 99.68c1.24,-18.63 5.12,-34.16 11.64,-46.59 6.52,-12.41 15.06,-22.36 25.62,-29.81 10.56,-7.45 22.82,-12.89 36.8,-16.3 13.97,-3.42 29.34,-5.12 46.11,-5.12l0 482.61 -120.18 0 0 -384.79zm60.56 -296.27c21.12,0 39.14,7.76 54.04,23.29 15.53,14.91 23.3,33.23 23.3,54.97 0,21.74 -7.46,40.38 -22.36,55.91 -8.7,8.69 -18.79,14.75 -30.28,18.16 -11.49,3.42 -22.98,6.83 -34.47,10.25 -11.49,3.42 -22.05,7.46 -31.68,12.11 -9.63,4.66 -16.3,12.27 -20.03,22.83 -3.1,-9.95 -6.37,-22.67 -9.78,-38.2 -3.42,-15.53 -5.59,-31.68 -6.52,-48.45 -0.93,-16.78 0,-33.08 2.79,-48.92 2.8,-15.84 9.47,-29.03 20.03,-39.59 14.91,-14.91 33.23,-22.36 54.97,-22.36zm444.89 346.59c-4.97,-11.81 -11.81,-21.28 -20.5,-28.42 -8.69,-7.14 -18.17,-12.57 -28.42,-16.3 -10.24,-3.72 -20.19,-5.74 -29.81,-6.05 -9.63,-0.31 -17.55,0.78 -23.76,3.26 -11.18,3.72 -18.48,10.09 -21.89,19.09 -3.42,9.01 -1.71,17.55 5.12,25.62 5.59,6.22 14.44,12.27 26.55,18.17 12.11,5.89 25.62,12.42 40.53,19.56 14.91,7.15 30.27,15.22 46.11,24.23 15.84,9.01 30.28,19.72 43.32,32.14 13.05,12.42 23.76,27.02 32.14,43.79 8.39,16.77 12.58,36.64 12.58,59.63 0,26.71 -5.9,50.16 -17.7,70.34 -11.81,20.19 -27.49,36.49 -47.05,48.91 -19.57,12.42 -41.61,20.96 -66.16,25.62 -24.53,4.66 -49.38,5.12 -74.53,1.4 -25.16,-3.72 -49.54,-12.26 -73.14,-25.61 -23.6,-13.36 -44.1,-31.53 -61.5,-54.51l74.54 -80.12c15.53,18.63 31.83,31.98 48.91,40.06 17.08,8.08 32.92,12.57 47.52,13.5 14.6,0.94 26.87,-1.23 36.8,-6.52 9.94,-5.28 15.99,-12.42 18.17,-21.43 2.17,-9.01 -0.47,-18.94 -7.92,-29.81 -7.45,-10.88 -21.74,-21.59 -42.86,-32.14 -19.87,-9.95 -39.29,-20.19 -58.23,-30.75 -18.94,-10.56 -35.71,-22.36 -50.31,-35.41 -14.6,-13.04 -26.4,-27.64 -35.41,-43.79 -9.01,-16.15 -13.5,-35.09 -13.5,-56.84 0,-22.36 4.65,-42.23 13.97,-59.63 9.32,-17.39 21.74,-31.98 37.27,-43.79 15.53,-11.8 33.23,-20.5 53.11,-26.09 19.87,-5.59 40.37,-8.08 61.5,-7.45 36.02,1.86 63.51,9.78 82.45,23.75 18.94,13.98 30.75,29.82 35.41,47.52 4.66,17.7 3.1,34.94 -4.66,51.71 -7.76,16.77 -20.65,28.88 -38.66,36.34zm308.85 -317.71l0 235.72c4.97,-10.55 12.42,-19.87 22.36,-27.95 9.95,-8.08 20.96,-14.75 33.08,-20.03 12.11,-5.28 24.53,-9.47 37.27,-12.57 12.73,-3.1 24.68,-4.97 35.86,-5.59 22.98,-1.24 45.66,1.86 68.02,9.32 22.36,7.45 42.86,20.8 61.5,40.06 27.32,28.57 40.99,69.56 40.99,122.98l0 310.25 -116.46 0c0,-9.94 0.16,-23.75 0.47,-41.46 0.3,-17.7 0.47,-36.95 0.47,-57.76 0,-20.81 0,-42.55 0,-65.23 0,-22.66 -0.31,-44.09 -0.94,-64.29 -0.62,-20.19 -1.55,-38.04 -2.79,-53.57 -1.24,-15.53 -2.8,-27.02 -4.66,-34.47 -4.97,-18.63 -13.98,-32.92 -27.02,-42.86 -13.04,-9.94 -27.64,-14.91 -43.79,-14.91 -21.12,0 -37.42,5.59 -48.91,16.77 -11.49,11.18 -17.23,25.78 -17.23,43.79 -6.83,-1.86 -14.14,-6.52 -21.9,-13.97 -7.76,-7.45 -13.2,-15.53 -16.3,-24.23l0 352.18 -117.39 0 0 -557.15c0,-29.82 10.56,-53.26 31.68,-70.34 21.12,-17.08 49.69,-25.31 85.71,-24.69zm547.37 225.47c4.96,-11.18 12.57,-20.8 22.82,-28.88 10.25,-8.08 21.58,-14.91 34,-20.5 12.42,-5.59 25.16,-9.94 38.2,-13.04 13.05,-3.11 25.16,-4.97 36.34,-5.59 23.6,-1.24 46.9,2.01 69.88,9.78 22.98,7.76 44.1,21.27 63.36,40.52 27.95,29.19 41.93,71.12 41.93,125.78l0 318.63 -119.25 0c0,-10.56 0.15,-24.85 0.47,-42.86 0.3,-18.01 0.47,-37.73 0.47,-59.16 0,-21.43 0,-43.64 0,-66.61 0,-22.98 -0.31,-44.73 -0.93,-65.23 -0.63,-20.49 -1.56,-38.81 -2.8,-54.97 -1.24,-16.15 -2.79,-27.95 -4.66,-35.4 -4.96,-19.88 -14.43,-34.79 -28.41,-44.73 -13.98,-9.94 -29.04,-14.9 -45.19,-14.9 -21.12,0 -37.57,5.74 -49.38,17.23 -11.8,11.49 -17.7,26.55 -17.7,45.18 -7.45,-2.49 -14.91,-7.61 -22.36,-15.37 -7.46,-7.76 -13.05,-15.99 -16.77,-24.68l0 25.15 0 336.34 -120.19 0 0 -482.61 120.19 0 0 55.9zm794.26 373.61c-23.6,22.98 -49.23,39.75 -76.86,50.32 -27.64,10.55 -55.44,15.37 -83.39,14.43 -27.95,-0.93 -55.13,-7.3 -81.52,-19.09 -26.4,-11.81 -49.69,-28.73 -69.88,-50.78 -20.19,-22.05 -36.34,-48.45 -48.45,-79.19 -12.12,-30.75 -18.17,-65.69 -18.17,-104.82 0,-37.27 6.52,-71.75 19.57,-103.41 13.04,-31.68 30.59,-58.7 52.64,-81.06 22.05,-22.36 47.2,-39.59 75.47,-51.7 28.26,-12.12 57.61,-17.55 88.04,-16.3 29.82,1.23 53.73,7.92 71.75,20.03 18.01,12.11 31.21,26.24 39.59,42.38 8.39,16.15 12.74,32.46 13.05,48.91 0.3,16.47 -2.33,29.67 -7.92,39.6 -10.55,-15.84 -25.46,-26.55 -44.72,-31.99 -19.26,-5.43 -37.89,-8.07 -55.91,-8.07 -28.57,0 -52.48,6.98 -71.74,20.95 -19.26,14.13 -33.85,31.68 -43.79,52.95 -9.94,21.12 -15.06,43.94 -15.37,68.63 -0.31,24.53 4.35,47.52 13.98,68.63 9.62,21.28 24.22,38.82 43.79,52.95 19.56,13.97 43.94,20.96 73.13,20.96 24.85,0 45.34,-5.59 61.5,-16.77 16.15,-11.19 29.04,-25.62 38.66,-43.33 9.63,-17.7 16.47,-37.57 20.5,-59.63 4.03,-22.05 6.05,-43.94 6.05,-65.68l0 -147.21 0 -51.24 121.12 0 0 482.61 -121.12 0 0 -53.11z"/>
   <rect class="fil2" transform="matrix(0.0329092 -0 -0.00298534 0.0329092 88.4089 36.5936)" width="8077.01" height="8077.01"/>
   <rect class="fil1" transform="matrix(0.0329092 -0 0.00298534 -0.0329092 32.1462 656.812)" width="8077.01" height="8077.01"/>
   <rect class="fil1" transform="matrix(0.0329092 -0 -0.00298534 0.0329092 24.1086 745.415)" width="8077.01" height="8077.01"/>
   <rect class="fil2" transform="matrix(-0.0329092 -0 -0.00298534 0.0329092 708.627 36.5936)" width="8077.01" height="8077.01"/>
   <rect class="fil1" transform="matrix(-0.0329092 -0 0.00298534 -0.0329092 652.365 656.812)" width="8077.01" height="8077.01"/>
   <rect class="fil1" transform="matrix(-0.0329092 -0 -0.00298534 0.0329092 644.327 745.415)" width="8077.01" height="8077.01"/>
   <rect class="fil2" transform="matrix(0.0329092 -0 -0.00298534 0.0329092 797.23 36.5936)" width="8077.01" height="8077.01"/>
   <rect class="fil1" transform="matrix(0.0329092 -0 0.00298534 -0.0329092 740.967 656.812)" width="8077.01" height="8077.01"/>
   <rect class="fil1" transform="matrix(0.0329092 -0 -0.00298534 0.0329092 732.93 745.415)" width="8077.01" height="8077.01"/>
  </g>
 </g>
</svg>
