<svg xmlns="http://www.w3.org/2000/svg" xml:space="preserve" width="54.6532mm" height="13.4334mm" version="1.1" style="shape-rendering:geometricPrecision; text-rendering:geometricPrecision; image-rendering:optimizeQuality; fill-rule:evenodd; clip-rule:evenodd"
viewBox="0 0 1448.5 356.03"
 xmlns:xlink="http://www.w3.org/1999/xlink">
 <defs>
  <style type="text/css">
   <![CDATA[
    .fil0 {fill:black;fill-rule:nonzero}
   ]]>
  </style>
 </defs>
 <g id="Layer_x0020_1">
  <metadata id="CorelCorpID_0Corel-Layer"/>
  <g id="_2680847184800">
   <path class="fil0" d="M282.19 337.88c55.1,-8.33 78.6,-35.46 78.6,-57.88 0,-18.58 -16.45,-26.91 -29.47,-33.96 -11.96,-6.41 -22,-11.32 -22,-18.58 0,-12.39 20.72,-19.22 41.86,-20.08l-5.13 -27.98c-44,5.55 -75.82,29.47 -75.82,52.97 0,17.09 14.52,26.91 29.9,35.67 16.66,9.4 21.14,13.03 21.14,19.86 0,12.6 -24.13,20.29 -44.85,21.57l5.77 28.41z"/>
   <path class="fil0" d="M553.43 327.2c-15.59,-0.64 -31.82,-1.92 -48.48,-3.2l0 -1.28c27.55,-14.52 42.5,-41.22 42.5,-69.42 0,-44.42 -31.82,-73.47 -77.74,-73.47 -54.89,0 -88.42,40.37 -88.42,83.51 0,20.08 7.26,40.37 24.35,55.1 20.93,18.37 50.62,18.8 53.61,18.8 2.35,0 7.69,0.85 16.23,2.56 23.92,4.7 50.83,11.1 73.47,16.23l4.48 -28.83zm-132.2 -65.57c0,-27.98 14.74,-54.25 45.49,-54.25 20.93,0 40.58,15.8 40.58,48.27 0,36.31 -21.79,54.68 -44.43,54.68 -21.57,0 -41.65,-16.02 -41.65,-48.7z"/>
   <path class="fil0" d="M719.6 218.06c0,-16.87 -0.21,-32.25 -0.21,-36.95l-37.59 0c0.21,7.9 1.07,21.79 1.07,36.52l0 7.9c0,40.37 -0.21,56.39 -7.9,68.13 -5.77,8.76 -14.52,14.1 -26.06,14.1 -10.04,0 -19.22,-3.63 -25.63,-13.03 -8.12,-11.53 -9.82,-27.12 -9.82,-59.59l0 -14.52c0,-19.44 0.43,-30.76 1.28,-36.31l-38.02 0c0,4.91 -0.21,21.79 -0.21,31.61l0 11.53c0,51.9 3.63,68.13 13.88,83.72 15.8,23.71 40.79,26.27 55.74,26.27 23.28,0 42.07,-7.69 54.89,-23.49 16.23,-19.44 18.58,-45.07 18.58,-86.07l0 -9.82z"/>
   <path class="fil0" d="M764.02 339.8c4.7,-8.97 16.02,-34.6 17.94,-38.87l68.35 -3.2c2.35,3.2 17.94,32.25 23.28,41.86l32.46 -19.65c-11.11,-16.45 -65.78,-109.14 -88.63,-144.38l-1.49 0c-14.31,22.64 -74.54,131.35 -83.08,146.3l31.18 17.94zm29.05 -63.65c4.06,-8.33 18.58,-38.44 22.85,-46.77 3.2,6.62 18.79,35.67 23.28,44.64l-46.13 2.14z"/>
   <path class="fil0" d="M971.19 334.03c-0.43,-3.2 -1.07,-57.24 -1.07,-65.36l0 -61.94c30.12,0.21 37.16,11.53 37.16,21.57 0,16.87 -17.73,29.26 -27.77,34.81 6.19,9.19 50.19,70.48 54.04,76.46l30.12 -23.07c-5.55,-6.19 -40.58,-45.28 -46.56,-52.54 16.87,-11.53 28.41,-25.2 28.41,-42.93 0,-19.22 -16.66,-31.18 -47.41,-35.03 -17.94,-2.35 -42.93,-2.78 -64.5,-2.78 0.64,4.06 1.07,49.55 1.07,55.96l0 17.51c0,4.48 0.43,72.19 -0.43,77.32l36.95 0z"/>
   <path class="fil0" d="M1177.51 306.91c-13.03,1.07 -43.36,0.64 -48.69,0.64l0 -36.52c4.48,0 34.6,0.85 39.73,0.85l-0.64 -26.91c-9.82,0.85 -35.03,1.92 -39.08,1.92l0 -38.87c3.63,0 38.87,-1.07 46.13,-1.07l-0.85 -27.55c-7.26,0.64 -72.62,3.84 -81.8,3.84 0.21,5.34 0.64,56.81 0.64,60.23l0 28.62c0,4.91 0,50.62 -0.64,61.94 8.33,0 80.31,2.14 86.08,2.14l-0.86 -29.26z"/>
   <path class="fil0" d="M32.04 161.04c3.42,-9.4 25.84,-79.67 29.26,-89.7l0.43 0c4.27,8.76 28.19,51.9 43.14,76.03l1.28 0c13.03,-18.79 44.64,-70.48 49.34,-77.32 2.56,5.56 27.76,74.33 34.38,90.99l33.11 -14.52c-7.26,-16.23 -48.27,-115.97 -60.01,-141.82l-1.5 0c-8.33,13.46 -44.21,74.75 -52.33,87.14 -6.41,-10.89 -41.65,-73.9 -51.9,-91.84l-1.5 0c-7.69,17.94 -51.9,140.32 -55.74,149.08l32.04 11.96z"/>
   <path class="fil0" d="M338.74 127.72c-13.03,1.07 -43.36,0.64 -48.69,0.64l0 -36.52c4.48,0 34.6,0.85 39.73,0.85l-0.64 -26.91c-9.82,0.85 -35.03,1.92 -39.08,1.92l0 -38.87c3.63,0 38.87,-1.07 46.13,-1.07l-0.85 -27.55c-7.26,0.64 -72.62,3.84 -81.8,3.84 0.21,5.34 0.64,56.81 0.64,60.23l0 28.62c0,4.91 0,50.62 -0.64,61.94 8.33,0 80.31,2.14 86.08,2.14l-0.86 -29.26z"/>
   <path class="fil0" d="M419.47 154.85c-0.43,-3.2 -1.07,-57.24 -1.07,-65.36l0 -61.94c30.12,0.21 37.16,11.53 37.16,21.57 0,16.87 -17.73,29.26 -27.77,34.81 6.19,9.19 50.19,70.48 54.04,76.46l30.12 -23.07c-5.55,-6.19 -40.58,-45.28 -46.56,-52.54 16.87,-11.53 28.41,-25.2 28.41,-42.93 0,-19.22 -16.66,-31.18 -47.41,-35.03 -17.94,-2.35 -42.93,-2.78 -64.5,-2.78 0.64,4.06 1.07,49.55 1.07,55.96l0 17.51c0,4.48 0.43,72.19 -0.43,77.32l36.95 0z"/>
   <path class="fil0" d="M577.95 154.85c-0.43,-3.2 -1.07,-57.24 -1.07,-65.36l0 -61.94c30.12,0.21 37.16,11.53 37.16,21.57 0,16.87 -17.73,29.26 -27.77,34.81 6.19,9.19 50.19,70.48 54.04,76.46l30.12 -23.07c-5.55,-6.19 -40.58,-45.28 -46.56,-52.54 16.87,-11.53 28.41,-25.2 28.41,-42.93 0,-19.22 -16.66,-31.18 -47.41,-35.03 -17.94,-2.35 -42.93,-2.78 -64.5,-2.78 0.64,4.06 1.07,49.55 1.07,55.96l0 17.51c0,4.48 0.43,72.19 -0.43,77.32l36.95 0z"/>
   <path class="fil0" d="M766.97 154.85c-0.43,-4.27 -1.07,-23.28 -1.07,-26.27l0 -16.45c0,-24.78 10.89,-45.07 24.35,-58.1 10.68,-10.46 24.56,-17.94 35.88,-20.72l-11.75 -32.68c-14.1,4.48 -29.47,14.74 -39.3,24.78 -10.89,11.1 -19.22,22.85 -24.56,38.02l-1.28 0c-4.91,-16.45 -14.74,-29.9 -23.49,-39.3 -8.76,-8.97 -23.28,-17.73 -36.31,-23.49l-14.31 32.68c8.76,2.99 18.58,8.76 27.12,16.23 14.95,13.03 27.55,35.03 27.55,62.79l0 12.18c0,2.77 -0.86,25.42 -1.07,30.33l38.23 0z"/>
   <path class="fil0" d="M957.48 106.15c0,-6.41 0,-11.32 0.21,-18.37l-36.1 0c0.21,4.06 0.43,10.47 0.43,16.66l0 24.56c-3.84,0.64 -9.61,0.64 -15.59,0.64 -25.41,0 -41.86,-17.51 -41.86,-35.67 0,-31.18 40.58,-55.32 77.53,-61.51l-7.69 -32.25c-84.58,20.29 -108.28,69.84 -108.28,95.04 0,34.39 27.98,62.58 84.58,63 20.08,0.21 40.15,-3.2 47.2,-5.55 0,-3.84 -0.43,-22.85 -0.43,-30.97l0 -15.59z"/>
   <path class="fil0" d="M985.03 84.58c0,41.44 29.26,73.47 77.32,73.69 66.43,0 88.85,-51.05 88.85,-81.59 0,-48.7 -32.25,-76.04 -78.38,-76.04 -56.17,0 -87.78,42.29 -87.78,83.94zm39.94 -2.14c0,-33.1 19.86,-54.25 44.85,-54.25 22.64,0 41.43,16.87 41.22,49.55 -0.21,37.38 -24.56,52.97 -44.64,52.97 -24.13,0 -41.43,-18.15 -41.43,-48.27z"/>
   <path class="fil0" d="M1272.08 126.01c-18.37,0.85 -43.57,0.85 -48.69,0.85l0 -47.84c0,-26.91 0.85,-70.05 1.28,-74.97l-38.44 0c0.43,4.06 0.85,56.81 0.85,60.23l0 28.4c0,5.13 0,50.83 -1.07,62.15 12.39,0 82.01,2.14 86.28,2.14l-0.21 -30.97z"/>
   <path class="fil0" d="M1307.54 87.36c0,5.77 -0.43,58.73 -1.28,68.56 60.66,0 142.24,-27.55 142.24,-94.4 0,-16.23 -9.61,-46.13 -71.34,-54.25 -19.22,-2.56 -42.5,-3.2 -70.7,-3.2 0.86,5.98 1.07,52.33 1.07,56.81l0 26.48zm35.88 -56.39c36.1,-0.21 65.57,9.18 65.57,37.16 0,29.69 -30.12,52.33 -65.57,56.6l0 -93.76z"/>
  </g>
 </g>
</svg>
