<svg xmlns="http://www.w3.org/2000/svg" xml:space="preserve" width="50.8mm" height="32.9912mm" version="1.1" style="shape-rendering:geometricPrecision; text-rendering:geometricPrecision; image-rendering:optimizeQuality; fill-rule:evenodd; clip-rule:evenodd"
viewBox="0 0 1125.12 730.69"
 xmlns:xlink="http://www.w3.org/1999/xlink">
 <defs>
  <style type="text/css">
   <![CDATA[
    .fil0 {fill:black;fill-rule:nonzero}
   ]]>
  </style>
 </defs>
 <g id="Layer_x0020_1">
  <metadata id="CorelCorpID_0Corel-Layer"/>
  <g id="_2422345400416">
   <path class="fil0" d="M636.34 197.43l0 369.07 -14.55 0 0 -299.1c-3.59,8.83 -7.87,17.3 -12.75,25.39l0 273.71 -14.55 0 0 -253.01c-4.01,4.98 -8.28,9.72 -12.79,14.23l0 238.77 -14.54 0 0 -225.69c-4.15,3.37 -8.45,6.56 -12.91,9.55l0 216.14 -14.6 0 0 -207.27c-15.72,8.59 -32.83,14.93 -50.91,18.58l0 -12.75c76.47,-16.67 134.04,-85.04 134.04,-166.37 0,-0.42 0,-0.83 -0.02,-1.25l13.58 0z"/>
   <path class="fil0" d="M553.54 198.68c0,42.91 -26.97,79.69 -64.8,94.32l0 -15.49c29.78,-13.77 50.52,-43.97 50.52,-78.83 0,-0.42 0,-0.83 -0.02,-1.25l14.28 0c0.02,0.42 0.02,0.83 0.02,1.25z"/>
   <path class="fil0" d="M581.32 198.68c0,58.4 -39.16,107.9 -92.58,123.62l0 -15.12c45.34,-15.22 78.15,-58.15 78.15,-108.5 0,-0.42 0,-0.83 -0.02,-1.25l14.43 0c0.02,0.42 0.02,0.83 0.02,1.25z"/>
   <path class="fil0" d="M608.12 198.68c0,73.23 -51.06,134.95 -119.38,151.34l0 -13.81c60.91,-16.07 105.99,-71.69 105.99,-137.53 0,-0.42 0,-0.83 -0.02,-1.25l13.39 0c0.02,0.42 0.02,0.83 0.02,1.25z"/>
   <polygon class="fil0" points="636.34,183.39 539.24,183.39 539.24,169.57 636.34,169.57 "/>
   <path class="fil0" d="M82.2 266.8c0,0 254.17,-171.57 314.21,-208.49 58.15,-35.76 103.07,-58.31 157.09,-58.31 54.03,0 122.4,32.6 122.4,32.6l388.68 227.27c0,0 -176.56,-96.23 -196.48,-106.97 -20.67,-11.15 -168.8,-100.21 -196.47,-113.19 -14.72,-6.91 -52.55,-32.75 -118.1,-32.75 -61.54,0 -127.17,39.16 -157.07,59.09 -29.9,19.93 -314.26,200.75 -314.26,200.75z"/>
   <path class="fil0" d="M300.99 565.61l96.9 -19.87 0 -250.89c0,-35.08 -33.9,-57.18 -64.67,-56.85 -35.48,0.37 -72.22,31.46 -85.6,72.03 13.72,-45.73 52.24,-77.28 90.96,-77.38 25.72,-0.06 45.82,12.29 59.3,32.72 3.24,4.9 8.56,16.46 8.56,24.84l0 262.37 -105.47 13.02z"/>
   <path class="fil0" d="M150.32 596.38l72.35 -14.84 0 -234.53c0,-26.2 -25.3,-42.69 -48.28,-42.45 -26.49,0.27 -53.92,23.49 -63.91,53.78 10.25,-34.14 39,-57.7 67.91,-57.77 19.2,-0.04 34.21,9.18 44.28,24.43 2.42,3.66 6.4,12.29 6.4,18.55l0 243.1 -78.75 9.72z"/>
   <path class="fil0" d="M31.11 619.26l56.5 -11.59 0 -220.25c0,-20.45 -19.76,-33.33 -37.7,-33.14 -20.69,0.21 -42.11,18.34 -49.91,41.99 8,-26.66 30.46,-45.06 53.03,-45.11 14.99,-0.03 26.71,7.16 34.58,19.07 1.89,2.86 4.99,9.6 4.99,14.48l0 226.94 -61.49 7.59z"/>
   <path class="fil0" d="M824.13 565.61l-96.9 -19.87 0 -250.89c0,-35.08 33.89,-57.18 64.67,-56.85 35.48,0.37 72.22,31.46 85.6,72.03 -13.72,-45.73 -52.24,-77.28 -90.96,-77.38 -25.72,-0.06 -45.82,12.29 -59.3,32.72 -3.24,4.9 -8.56,16.46 -8.56,24.84l0 262.37 105.47 13.02z"/>
   <path class="fil0" d="M974.8 596.38l-72.35 -14.84 0 -234.53c0,-26.2 25.31,-42.69 48.28,-42.45 26.48,0.27 53.92,23.49 63.91,53.78 -10.25,-34.14 -39,-57.7 -67.91,-57.77 -19.2,-0.04 -34.21,9.18 -44.28,24.43 -2.42,3.66 -6.4,12.29 -6.4,18.55l0 243.1 78.75 9.72z"/>
   <path class="fil0" d="M1094.01 619.26l-56.5 -11.59 0 -220.25c0,-20.45 19.76,-33.33 37.7,-33.14 20.68,0.21 42.11,18.34 49.9,41.99 -8,-26.66 -30.46,-45.06 -53.03,-45.11 -14.99,-0.03 -26.71,7.16 -34.58,19.07 -1.89,2.86 -4.99,9.6 -4.99,14.48l0 226.94 61.49 7.59z"/>
   <path class="fil0" d="M285.06 690.13c0,5.5 -4.46,9.95 -9.95,9.95 -5.5,0 -9.95,-4.45 -9.95,-9.95 0,-5.5 4.46,-9.95 9.95,-9.95 5.5,0 9.95,4.45 9.95,9.95z"/>
   <path class="fil0" d="M859.91 690.13c0,5.5 -4.46,9.95 -9.95,9.95 -5.5,0 -9.95,-4.45 -9.95,-9.95 0,-5.5 4.46,-9.95 9.95,-9.95 5.49,0 9.95,4.45 9.95,9.95z"/>
   <path class="fil0" d="M476.55 705.48l13.97 -33.95 13.97 33.95 -27.93 0zm45.14 11.23l-4.63 -11.23 -20.26 -49.24 -3.74 -9.12 -4.51 0 -4.03 9.8 -19.99 48.56 -4.63 11.23 -5.75 13.98 12.04 0 5.75 -13.98 37.17 0 5.75 13.98 12.58 0 -5.75 -13.98z"/>
   <polygon class="fil0" points="336.01,730.69 336.01,647.12 339.79,647.12 349.38,659.7 374.92,693.23 400.59,659.48 410.03,647.12 413.96,647.12 413.96,730.69 400.59,730.69 400.59,678.59 382.17,702.76 377.1,709.43 372.72,709.43 367.65,702.76 349.38,678.79 349.38,730.69 "/>
   <polygon class="fil0" points="624.09,649.3 594.11,722.18 590.61,730.69 585.52,730.69 581.98,722.03 552.05,649.3 564.11,649.3 588.01,707.35 611.9,649.3 "/>
   <polygon class="fil0" points="789.34,730.69 775.97,730.69 775.97,649.3 789.34,649.3 "/>
   <path class="fil0" d="M696.49 718.65l-19.08 0 0 -57.32 19.08 0c14,0 25.35,12.83 25.35,28.65 0,15.82 -11.35,28.67 -25.35,28.67zm-1.52 -69.35l-30.27 0 0 81.39 30.27 0c22.2,0 40.21,-18.23 40.21,-40.7 0,-22.48 -18,-40.69 -40.21,-40.69z"/>
  </g>
 </g>
</svg>
