<svg xmlns="http://www.w3.org/2000/svg" xml:space="preserve" width="59.1132mm" height="25.7171mm" version="1.1" style="shape-rendering:geometricPrecision; text-rendering:geometricPrecision; image-rendering:optimizeQuality; fill-rule:evenodd; clip-rule:evenodd"
viewBox="0 0 1124.3 489.12"
 xmlns:xlink="http://www.w3.org/1999/xlink">
 <defs>
  <style type="text/css">
   <![CDATA[
    .str0 {stroke:#045C8C;stroke-width:12.14;stroke-linecap:round;stroke-linejoin:round;stroke-miterlimit:2.613}
    .fil2 {fill:none}
    .fil0 {fill:none;fill-rule:nonzero}
    .fil1 {fill:#FEFEFE}
    .fil5 {fill:#D2D208}
    .fil3 {fill:#045C8C}
    .fil4 {fill:#027CAC;fill-rule:nonzero}
   ]]>
  </style>
 </defs>
 <g id="Layer_x0020_1">
  <metadata id="CorelCorpID_0Corel-Layer"/>
  <g id="_2476717317568">
   <path class="fil0 str0" d="M249.68 463.24l0 0.01c11.38,1.23 22.11,-1.79 32.04,-10.12 56.52,-58.68 113.04,-117.36 169.56,-176.05 33.2,-33.34 23.21,-62.18 -11.28,-88.47 -41.01,-26.09 -82.28,-56.22 -123.28,-82.3 -25.75,-11.67 -61.56,-12.43 -87.96,-2.3 56.79,39.2 109.2,87.76 142.2,134.89 7.51,41.98 -11.46,97.77 -70.02,174.22 -16.89,28.58 -33.96,44.91 -51.26,50.12z"/>
   <path class="fil1" d="M249.67 463.25l0.01 0c11.37,1.23 22.1,-1.78 32.04,-10.11 56.52,-58.68 113.05,-117.36 169.57,-176.04 33.2,-33.34 23.2,-62.18 -11.28,-88.48 -41,-26.08 -82.28,-56.21 -123.29,-82.3 -25.75,-11.68 -61.55,-12.43 -87.96,-2.3 56.79,39.2 109.2,87.76 142.19,134.89 7.52,41.98 -11.46,97.77 -70.01,174.22 -16.89,28.58 -33.97,44.9 -51.26,50.12z"/>
   <path class="fil2 str0" d="M203.62 125.58l-96.88 106.65c-7.52,-41.98 11.46,-97.78 70.01,-174.22 42.89,-72.57 87,-66.19 132.71,0.82 50.23,56.42 122.77,105.34 160.38,161.19 -47.21,-34.73 -94.44,-69.47 -141.66,-104.2 -47.13,-23.79 -89.41,-24.25 -124.56,9.77z"/>
   <path class="fil1" d="M203.61 125.59l-96.88 106.65c-7.51,-41.97 11.46,-97.77 70.02,-174.22 42.89,-72.56 86.99,-66.18 132.7,0.82 50.23,56.43 122.78,105.35 160.38,161.2 -47.22,-34.73 -94.44,-69.47 -141.66,-104.2 -47.13,-23.79 -89.41,-24.25 -124.56,9.77z"/>
   <path class="fil2 str0" d="M228.02 7.89l0 -0.01c-11.38,-1.23 -22.11,1.78 -32.04,10.12 -56.53,58.68 -113.05,117.36 -169.57,176.04 -33.2,33.34 -23.2,62.18 11.28,88.47 41,26.09 78.4,53.77 119.41,79.85 25.74,11.68 59.54,16.91 86.15,3.77 -56.78,-39.2 -103.5,-86.79 -136.51,-133.91 -7.51,-41.98 11.46,-97.78 70.02,-174.22 16.89,-28.58 33.96,-44.9 51.26,-50.12z"/>
   <path class="fil1" d="M228.01 7.9l0 -0.01c-11.37,-1.23 -22.1,1.78 -32.04,10.11 -56.52,58.69 -113.04,117.37 -169.57,176.05 -33.2,33.34 -23.2,62.18 11.28,88.47 41.01,26.09 78.41,53.77 119.41,79.85 25.75,11.68 59.54,16.9 86.15,3.77 -56.79,-39.19 -103.5,-86.79 -136.51,-133.91 -7.51,-41.97 11.46,-97.77 70.02,-174.22 16.89,-28.58 33.97,-44.9 51.26,-50.11z"/>
   <path class="fil2 str0" d="M274.07 345.55l96.88 -106.65c7.52,41.98 -11.46,97.77 -70.02,174.22 -42.89,72.57 -87,66.19 -132.7,-0.81 -50.24,-56.42 -122.79,-105.35 -160.39,-161.19 47.23,34.73 94.44,69.47 141.66,104.2 47.13,23.79 89.41,24.25 124.55,-9.77z"/>
   <path class="fil1" d="M274.07 345.56l96.88 -106.65c7.52,41.98 -11.46,97.77 -70.01,174.22 -42.89,72.57 -87,66.19 -132.7,-0.81 -50.22,-56.43 -122.78,-105.35 -160.38,-161.2 47.22,34.74 94.44,69.47 141.66,104.21 47.13,23.79 89.41,24.25 124.56,-9.77z"/>
   <polygon class="fil3" points="425.38,489.12 425.38,389.99 446.16,389.99 446.16,430.13 484.38,430.13 484.38,389.99 505.07,389.99 505.07,489.12 484.38,489.12 484.38,447.62 446.16,447.62 446.16,489.12 "/>
   <path class="fil3" d="M614.83 389.99l0 17.22 -34.24 0c-7.46,0 -13.24,1.95 -17.3,5.86 -4.06,3.94 -6.09,9.72 -6.09,17.34l57.63 0 0 17.22 -57.63 0c0,8.78 1.91,15.07 5.7,18.86 3.67,3.63 9.57,5.43 17.69,5.43l34.24 0 0 17.22 -35.02 0c-15.5,0 -27.21,-4.18 -35.06,-12.57 -7.54,-8.08 -11.28,-19.76 -11.28,-35.1 0,-16.36 3.28,-28.74 9.88,-37.05 7.57,-9.6 19.91,-14.41 36.98,-14.41l34.51 0z"/>
   <polygon class="fil3" points="647.56,389.99 669.35,389.99 669.35,489.12 647.56,489.12 "/>
   <path class="fil3" d="M768.42 471.04l0 -23.15 -27.72 0 0 -17.49 48.96 0 0 58.72 -44.75 0c-14.8,0 -26,-3.4 -33.69,-10.23 -8.79,-7.85 -13.16,-20.3 -13.16,-37.44 0,-18.39 4.18,-31.78 12.5,-40.1 7.57,-7.58 19.01,-11.36 34.36,-11.36l44.75 0 0 17.22 -44.75 0c-7.46,0 -13.04,2.19 -16.75,6.6 -4.41,5.27 -6.64,14.1 -6.64,26.47 0,10.23 1.6,17.73 4.84,22.53 3.67,5.5 9.84,8.24 18.55,8.24l23.5 0z"/>
   <polygon class="fil3" points="821.25,489.12 821.25,389.99 842.02,389.99 842.02,430.13 880.25,430.13 880.25,389.99 900.94,389.99 900.94,489.12 880.25,489.12 880.25,447.62 842.02,447.62 842.02,489.12 "/>
   <polygon class="fil3" points="978.96,489.12 957.37,489.12 957.37,407.48 925.62,407.48 925.62,390.26 1010.97,390.26 1010.97,407.48 978.96,407.48 "/>
   <path class="fil3" d="M1064.63 389.99l54.74 0 0 17.77 -51.46 0c-10.82,0 -16.2,4.33 -16.2,12.96 0,3.08 0.94,5.58 2.77,7.42 2.23,2.23 5.7,3.36 10.42,3.36l27.45 0c11.83,0 20.19,2.38 25.15,7.11 4.49,4.33 6.72,11.28 6.72,20.85 0,9.84 -2.5,17.1 -7.46,21.79 -5.58,5.27 -14.68,7.89 -27.29,7.89l-55.44 0 0 -17.77 52.12 0c6.33,0 10.66,-1.13 13.04,-3.44 1.99,-1.91 2.97,-5.11 2.97,-9.52 0,-2.97 -0.74,-5.15 -2.23,-6.52 -2.23,-2.11 -6.36,-3.16 -12.38,-3.16l-24.52 0c-11.4,0 -19.76,-2.34 -25.11,-7.07 -5.35,-4.73 -8.01,-11.95 -8.01,-21.75 0,-9.8 2.5,-17.1 7.54,-21.9 5.58,-5.35 14.64,-8 27.17,-8z"/>
   <path class="fil4" d="M498.38 235.17c0,28.41 -7.87,52.44 -23.66,72.05 -20.45,25.52 -51.35,38.25 -92.81,38.25 -40.84,0 -71.53,-12.83 -92.03,-38.56 -15.89,-19.93 -23.81,-43.59 -23.81,-70.97 0,-29.86 9.06,-54.71 27.12,-74.54 20.86,-22.83 50.52,-34.27 89.03,-34.27 37.11,0 66.15,10.72 87.22,32.14 19.31,19.83 28.94,45.14 28.94,75.89z"/>
   <path class="fil5" d="M498.08 234.9c0,28.42 -7.86,52.44 -23.66,72.05 -20.44,25.52 -51.35,38.25 -92.81,38.25 -40.84,0 -71.54,-12.84 -92.03,-38.56 -15.89,-19.93 -23.81,-43.59 -23.81,-70.97 0,-29.87 9.06,-54.71 27.12,-74.54 20.86,-22.83 50.52,-34.27 89.03,-34.27 37.11,0 66.15,10.72 87.22,32.14 19.31,19.83 28.94,45.14 28.94,75.88zm-71.74 2.59c0,-64.45 -14.81,-96.64 -44.41,-96.64 -14.13,0 -25.1,8.18 -32.82,24.59 -7.71,16.35 -11.6,39.81 -11.6,70.24 0,26.4 3,47.78 8.95,64.13 7.56,20.96 19.41,31.42 35.46,31.42 29.61,0 44.41,-31.27 44.41,-93.74zm181.11 7.71l0 64.6c0,10.41 1.56,17.18 4.71,20.29 4.14,4.04 13.2,5.8 27.28,5.18l0 6.83 -123.61 0 0 -6.83c11.23,0.62 18.95,-0.99 23.09,-4.71 3.67,-3.21 5.49,-9.32 5.49,-18.32l0 -153.89c0,-8.39 -1.86,-14.18 -5.64,-17.29 -4.14,-3.47 -11.8,-4.97 -22.93,-4.56l0 -6.83 126.04 0c21.95,0 39.34,5.69 52.18,17.13 11.85,10.61 17.75,24.07 17.75,40.32 0,16.3 -5.64,29.6 -16.98,40.01 -13.15,12.06 -32.3,18.07 -57.51,18.07l-29.87 0zm0 -102.8l0 90.06c13.56,0.21 23.09,-2.75 28.62,-8.8 6.16,-6.58 9.27,-18.53 9.27,-35.93 0,-18.63 -3.52,-31.31 -10.61,-38.04 -5.54,-5.38 -14.65,-7.82 -27.28,-7.3zm303.48 199.7l-185 0 0 -6.83c12.22,0.62 20.14,-1.19 23.76,-5.33 2.95,-3.11 4.4,-9.83 4.4,-20.14l0 -147.52c0,-10.82 -1.76,-17.86 -5.28,-21.07 -3.83,-3.57 -12.11,-5.12 -24.85,-4.71l0 -6.83 184.48 0 0 59.58 -7.14 0c-3.41,-31.21 -19.15,-46.85 -47.15,-46.85l-37.01 0 0 86.03 6.52 0c20.45,0 31.73,-15.42 33.85,-46.33l7.14 0 0 104.66 -7.14 0c-2.12,-30.38 -12.68,-45.6 -31.73,-45.6l-8.64 0 0 68.32c0,6 0.26,9.94 0.77,11.85 1.09,4.25 3.72,6.78 7.87,7.56 1.91,0.31 4.61,0.47 8.08,0.47l21.53 0c31.88,0 51.66,-17.6 59.37,-52.8l6.78 0 -10.61 65.53zm213.36 -60.2l0 21.12c-21.43,28.1 -48.86,42.18 -82.25,42.18 -27.49,0 -50.93,-8.85 -70.39,-26.55 -21.43,-19.61 -32.15,-45.75 -32.15,-78.42 0,-33.07 9.94,-60.25 29.77,-81.47 19.82,-21.28 45.5,-31.89 77.07,-31.89 13.04,0 25.1,2.23 36.23,6.68 11.13,4.45 18.02,6.73 20.65,6.73 5.64,0 10.61,-4.81 14.85,-14.33l6.21 0 0 68.58 -6.21 0c-5.85,-16.35 -13.92,-29.25 -24.12,-38.67 -10.25,-9.37 -21.38,-14.08 -33.39,-14.08 -15.06,0 -27.07,8.69 -35.97,26.14 -8.9,17.44 -13.35,40.84 -13.35,70.13 0,60.67 15.53,91 46.59,91 24.27,0 46.42,-15.74 66.46,-47.16z"/>
  </g>
 </g>
</svg>
