<svg xmlns="http://www.w3.org/2000/svg" xml:space="preserve" width="30.0353mm" height="30.1mm" version="1.1" style="shape-rendering:geometricPrecision; text-rendering:geometricPrecision; image-rendering:optimizeQuality; fill-rule:evenodd; clip-rule:evenodd"
viewBox="0 0 610.67 774.64"
 xmlns:xlink="http://www.w3.org/1999/xlink">
 <defs>
  <style type="text/css">
   <![CDATA[
    .fil0 {fill:#C08A3D;fill-rule:nonzero}
    .fil1 {fill:#585A2E;fill-rule:nonzero}
   ]]>
  </style>
 </defs>
 <g id="Layer_x0020_1">
  <metadata id="CorelCorpID_0Corel-Layer"/>
  <g id="_2479528966512">
   <path class="fil0" d="M21.5 766.32c-8.94,-5.24 -16.1,-11.94 -21.5,-20.11l13.64 -12.71c4.63,6.93 10.29,12.44 16.99,16.53 6.7,4.08 13.67,6.12 20.92,6.12 8.63,0 15.68,-2.38 21.15,-7.17 5.47,-4.77 8.21,-10.78 8.21,-18.03 0,-6.16 -1.54,-11.36 -4.63,-15.6 -3.08,-4.24 -6.93,-7.75 -11.55,-10.52 -4.62,-2.77 -10.86,-5.93 -18.72,-9.48 -8.94,-4.16 -16.18,-7.97 -21.73,-11.44 -5.54,-3.47 -10.25,-8.09 -14.09,-13.87 -3.85,-5.78 -5.78,-12.9 -5.78,-21.38 0,-7.55 1.96,-14.45 5.89,-20.69 3.93,-6.24 9.36,-11.17 16.29,-14.79 6.94,-3.62 14.71,-5.43 23.35,-5.43 9.25,0 17.76,2.16 25.54,6.47 7.78,4.32 14.44,9.71 19.99,16.18l-12.02 12.48c-4.32,-4.93 -9.36,-9.05 -15.14,-12.36 -5.78,-3.32 -11.83,-4.98 -18.14,-4.98 -7.86,0.16 -14.33,2.43 -19.41,6.82 -5.08,4.39 -7.63,9.9 -7.63,16.53 0,5.24 1.42,9.75 4.28,13.52 2.85,3.78 6.43,6.94 10.75,9.48 4.31,2.54 10.24,5.51 17.79,8.9 9.55,4.47 17.18,8.52 22.89,12.13 5.7,3.62 10.59,8.52 14.67,14.68 4.08,6.17 6.13,13.8 6.13,22.89 0,8.01 -2,15.33 -6.01,21.96 -4.01,6.63 -9.71,11.9 -17.11,15.84 -7.39,3.93 -16.1,5.89 -26.12,5.89 -10.32,0 -19.96,-2.62 -28.89,-7.86z"/>
   <polygon class="fil0" points="282.92,610.07 282.92,774.64 280.37,774.64 171.04,652.83 171.04,771.87 152.78,771.87 152.78,607.3 155.56,607.3 264.66,730.73 264.66,610.07 "/>
   <polygon class="fil0" points="364.74,627.87 364.74,680.34 418.37,680.34 418.37,698.14 364.74,698.14 364.74,754.08 433.39,754.08 433.39,771.87 346.25,771.87 346.25,610.07 433.39,610.07 433.39,627.87 "/>
   <polygon class="fil0" points="610.67,610.07 610.67,771.87 592.18,771.87 592.18,699.06 507.13,699.06 507.13,771.87 488.63,771.87 488.63,610.07 507.13,610.07 507.13,681.26 592.18,681.26 592.18,610.07 "/>
   <path class="fil1" d="M92.64 467.87c10.62,0 18.85,2.51 24.69,7.52 5.84,5.02 8.77,11.91 8.77,20.68 0,8.77 -2.93,15.66 -8.77,20.68 -5.85,5.02 -14.08,7.52 -24.69,7.52l-22.65 0 0 31.27 -11.25 0 0 -87.67 33.9 0zm-2.05 50.71c7.69,0 13.59,-1.97 17.68,-5.92 4.09,-3.94 6.14,-9.47 6.14,-16.58 0,-7.11 -2.05,-12.64 -6.14,-16.59 -4.08,-3.94 -9.99,-5.92 -17.68,-5.92l-20.6 0 0 45.01 20.6 0z"/>
   <path class="fil1" d="M205.32 550.58l1.03 4.82c-2.44,0.78 -4.68,1.19 -6.72,1.24 -2.05,0.05 -3.87,-0.32 -5.48,-1.09 -1.61,-0.78 -3.02,-1.73 -4.24,-2.85 -1.22,-1.12 -2.36,-2.68 -3.43,-4.67 -1.07,-1.99 -1.99,-3.92 -2.78,-5.77 -0.78,-1.85 -1.66,-4.19 -2.63,-7.01 -2.34,-6.53 -4.94,-11.28 -7.82,-14.25 -2.87,-2.97 -7.23,-4.46 -13.07,-4.46l-10.23 0 0 39.02 -11.25 0 0 -87.68 29.52 0c9.35,0 16.66,2.22 21.91,6.65 5.26,4.44 7.89,10.3 7.89,17.61 0,5.65 -1.73,10.47 -5.19,14.47 -3.46,4 -8.3,6.82 -14.54,8.48 6.33,3.21 10.86,8.87 13.59,16.95 0.39,1.07 0.8,2.29 1.24,3.65 0.44,1.37 0.8,2.49 1.1,3.36 0.29,0.87 0.61,1.85 0.95,2.92 0.34,1.07 0.65,1.95 0.95,2.63 0.29,0.68 0.64,1.41 1.03,2.19 0.39,0.78 0.77,1.36 1.17,1.75 0.39,0.39 0.83,0.81 1.32,1.24 0.48,0.44 1.02,0.73 1.61,0.88 0.59,0.15 1.22,0.22 1.9,0.22 0.68,0 1.41,-0.09 2.19,-0.29zm-55.38 -39.74l16.08 0c6.43,0 11.39,-1.66 14.9,-4.97 3.51,-3.31 5.26,-7.89 5.26,-13.73 0,-5.74 -1.75,-10.28 -5.26,-13.59 -3.51,-3.31 -8.47,-4.97 -14.9,-4.97l-16.08 0 0 37.27z"/>
   <path class="fil1" d="M297.12 555.55l-12.72 0 -11.4 -25.42c-14.9,3.12 -29.66,2.82 -44.27,-0.88l-11.83 26.31 -6.43 0 40.62 -88.26 5.41 0 40.62 88.26zm-65.9 -31.56c12.96,3.31 26.1,3.61 39.45,0.87l-19.87 -44.27 -19.58 43.4z"/>
   <path class="fil1" d="M352.86 509.66c5.36,1.75 9.57,4.55 12.64,8.4 3.07,3.85 4.6,8.6 4.6,14.25 0,7.6 -2.95,13.61 -8.84,18.04 -5.89,4.43 -14.83,6.65 -26.82,6.65 -10.03,0 -19.92,-1.27 -29.66,-3.8l0 -85.33 32.58 0c9.06,0 16.05,2.02 20.97,6.06 4.92,4.04 7.38,9.47 7.38,16.29 0,8.77 -4.29,15.25 -12.86,19.44zm-18.41 -36.09l-18.41 0 0 34.05 19.58 0c6.13,0 10.76,-1.46 13.88,-4.39 3.11,-2.92 4.67,-7.11 4.67,-12.57 0,-5.55 -1.68,-9.79 -5.04,-12.71 -3.37,-2.92 -8.25,-4.38 -14.69,-4.38zm-0.87 77.74c16.66,0 24.98,-6.38 24.98,-19.14 0,-5.94 -1.66,-10.57 -4.97,-13.88 -3.31,-3.31 -8.14,-4.97 -14.47,-4.97l-23.09 0 0 36.24c7.01,1.17 12.86,1.75 17.54,1.75z"/>
   <polygon class="fil1" points="447.92,467.87 459.17,467.87 459.17,555.55 447.92,555.55 447.92,514.49 395.9,514.49 395.9,555.55 384.65,555.55 384.65,467.87 395.9,467.87 395.9,508.93 447.92,508.93 "/>
   <path class="fil1" d="M545.95 522.96l0 -55.09 5.99 0 0 54.94c0,10.81 -3.24,19.22 -9.71,25.21 -6.48,5.99 -15.42,8.99 -26.82,8.99 -10.91,0 -19.7,-2.92 -26.38,-8.77 -6.67,-5.84 -10.01,-14.32 -10.01,-25.43l0 -54.94 11.25 0 0 55.53c0,8.76 2.48,15.59 7.45,20.46 4.97,4.87 11.54,7.31 19.72,7.31 8.48,0 15.34,-2.41 20.6,-7.23 5.26,-4.82 7.89,-11.81 7.89,-20.96z"/>
   <path class="fil1" d="M312.92 11.83c-123.04,-63.48 -153.37,147.19 -251.69,192.7 160.12,57.31 192.04,-22.35 208.43,-119.67 8.99,-53.37 43.26,-73.03 43.26,-73.03z"/>
   <path class="fil1" d="M319.66 64.07c0,0 19.66,-44.38 57.31,-44.38 62.36,0 111.8,138.2 172.48,115.17 0,0 -21.35,58.43 -87.64,58.43 -74.72,0 -77.53,-141.58 -142.14,-129.22z"/>
   <path class="fil1" d="M305.08 98.72c18.14,15.73 -32.28,69.2 -6.96,108.62 29.59,46.07 100.37,6.37 100.37,6.37 -62.55,-22.1 -28.78,-113.86 -93.42,-114.98z"/>
   <polygon class="fil1" points="197.21,260.52 184.8,260.52 184.8,214.83 197.21,214.83 "/>
   <polygon class="fil1" points="332.07,260.52 319.67,260.52 319.67,214.83 332.07,214.83 "/>
   <polygon class="fil1" points="361,260.52 348.6,260.52 348.6,214.83 361,214.83 "/>
   <polygon class="fil1" points="474,228.03 461.59,228.03 461.59,182.33 474,182.33 "/>
   <polygon class="fil1" points="505.82,222.64 493.42,222.64 493.42,182.33 505.82,182.33 "/>
   <polygon class="fil1" points="167.62,260.52 155.22,260.52 155.22,214.83 167.62,214.83 "/>
   <path class="fil1" d="M496.07 227.85c2.52,-0.45 5.04,-0.87 7.57,-1.23 12.99,-2.03 25.81,-3.23 38.08,-3.58l1.4 -0.04 -0.27 -10.42 -1.41 0.04c-12.36,0.36 -25.22,1.55 -38.22,3.53 -2.45,0.36 -4.9,0.76 -7.34,1.17l-0.31 0.05c-8,1.39 -16.19,3.09 -24.31,5.05 -2.55,0.6 -5.1,1.24 -7.63,1.92 -27.6,7.14 -56.86,17.65 -86.98,31.24 -0.39,0.17 -0.77,0.36 -1.15,0.53l-0.79 0.37c-161.62,-13.87 -285.39,6.64 -290.58,7.52l-1.4 0.24 1.79 10.26 1.38 -0.24c1.15,-0.21 115.82,-19.86 269.89,-8.83 -22.53,11.05 -45.67,23.86 -68.89,38.12 -92.42,-4.61 -172.27,0.78 -173.05,0.84l-1.4 0.1 0.72 10.39 1.4 -0.1c0.72,-0.05 71.97,-4.82 156.78,-1.52 -52.55,33.7 -87.39,63.28 -87.69,63.55l-1.03 0.92 6.71 7.86 1.39 -1.13c7.11,-5.94 45.26,-37.22 98.85,-70.36 55.81,2.91 103.93,8.92 143.1,17.88 -81.66,61.57 -185.58,69.34 -186.63,69.41l-1.4 0.1 0.71 10.4 1.4 -0.09c1.12,-0.08 113.32,-8.21 198.81,-76.69 8.57,2.22 16.74,4.62 24.29,7.14l1.33 0.45 3.3 -9.89 -1.34 -0.45c-5.6,-1.86 -11.59,-3.68 -17.83,-5.41 14.97,-13.19 28.15,-27.81 39.19,-43.51 6.53,1.25 13.03,2.57 19.36,3.91l1.38 0.29 2.16 -10.19 -1.38 -0.29c-38.48,-8.14 -78.87,-14.41 -120.12,-18.66 35.24,-14.82 68.9,-25.12 100.12,-30.63l0 0zm-190.79 76.74c24.09,-14.25 48,-26.86 71.15,-37.51 36.39,3.2 72.3,7.99 106.82,14.25 -11.28,15.33 -24.77,29.58 -40.15,42.41 -37.65,-9.28 -83.99,-15.71 -137.82,-19.16z"/>
  </g>
 </g>
</svg>
