<svg xmlns="http://www.w3.org/2000/svg" xml:space="preserve" width="50.8mm" height="31.7646mm" version="1.1" style="shape-rendering:geometricPrecision; text-rendering:geometricPrecision; image-rendering:optimizeQuality; fill-rule:evenodd; clip-rule:evenodd"
viewBox="0 0 2847.93 1780.77"
 xmlns:xlink="http://www.w3.org/1999/xlink">
 <defs>
  <style type="text/css">
   <![CDATA[
    .fil0 {fill:#D5B36A;fill-rule:nonzero}
   ]]>
  </style>
 </defs>
 <g id="Layer_x0020_1">
  <metadata id="CorelCorpID_0Corel-Layer"/>
  <g id="_2477192287904">
   <path class="fil0" d="M450.57 987.07l0 26.06c0,9.92 4.57,19.29 12.41,25.4l75.69 59.05c8.24,6.42 20.26,0.56 20.26,-9.9l0 -494.16 36.6 0c10.45,0 16.32,-12.03 9.89,-20.27l-59.05 -75.7c-6.11,-7.82 -15.47,-12.4 -25.4,-12.4l-14.86 0 -35.29 -27.53c-8.24,-6.42 -20.27,-0.55 -20.27,9.9l0 17.63 -222.28 0 -62.75 -48.95c-8.24,-6.42 -20.27,-0.56 -20.27,9.89l0 39.05 -132.69 0c-10.44,0 -16.32,12.03 -9.89,20.27l59.04 75.7c6.11,7.83 15.48,12.4 25.4,12.4l58.14 0 0 130.14c0,54.58 1.94,116.17 86.19,180.22 30.17,22.94 56.3,41.31 81.68,52.99 -72.02,56.87 -162.14,102.27 -266.86,127.52 -12.86,3.22 -11.16,17.4 3.49,23.77 44.64,19.25 90.88,34.78 138.24,46.43 14.7,3.63 30.2,2.25 41.54,-3.53 88.7,-43.31 162.89,-100.13 221.01,-164zm736.97 57.64l0 -276.27c11.61,-1.88 18.87,-8.13 7.55,-28.2l-7.55 -13.82 0 -132.89 56.94 0c10.45,0 16.32,-12.03 9.89,-20.27l-59.04 -75.7c-6.11,-7.82 -15.48,-12.4 -25.41,-12.4l-35.2 0 -35.29 -27.53c-8.24,-6.42 -20.27,-0.55 -20.27,9.9l0 17.63 -101.9 0c-10.45,0 -16.32,12.03 -9.89,20.27l59.05 75.7c6.11,7.83 15.47,12.4 25.4,12.4l27.35 0 0 74.6 -146.18 0 0 -167.77c0,-108.8 -133.54,-150.2 -217.92,-123.57 -77.01,24.31 -127.76,88.75 -94.27,177.27 19.3,50.99 71.36,78.7 203.8,79.87l0 34.34c-132.23,1.47 -179.44,36.22 -203.82,79.84 -24.91,44.58 -22.3,136.36 79.98,237.33 102.27,100.96 176.1,84.61 203.68,71.37 28.41,-13.63 28.52,-68.75 28.52,-93.67l0 -194 146.2 0 0 244c0,2.71 0.41,5.35 1.07,7.92 -5.96,-0.32 -11.96,-0.5 -18,-0.5 -64.3,0 -80.48,56.27 -84.34,78.11 -0.91,5.15 0.92,10.35 4.84,13.81l81.8 72.51c5.85,5.18 14.98,3.24 18.18,-3.9 10.19,-22.82 35.44,-63.64 85.53,-63.64 69.53,0 124.24,26.21 124.24,118.53 0,92.33 -82.07,180.09 -247.34,180.09 -209.72,0 -467.31,-175.53 -629.17,-175.53 -122.45,0 -140.52,95.25 -142.05,141.62 -0.5,14.95 6.18,29.21 17.82,38.61l60.69 49.08c10.66,8.62 26.77,1.83 27.72,-11.84 2.28,-32.72 16.05,-78.92 72.3,-97.79 180.08,-60.42 406.91,158.43 688.44,158.43 165.26,0 265.57,-86.63 265.57,-210.86 0,-95.25 -91.15,-213.19 -218.93,-263.09zm-486.49 -560.24l0 0c0,-32.77 27.46,-47.17 65.69,-43.27 38.13,3.89 57.78,36.33 57.87,78.41l0 15c-77.84,3.71 -123.56,8.65 -123.56,-50.14zm65.66 482.81l0 0c-38.22,3.9 -49.92,-36.66 -49.92,-69.43 0,-58.45 34.69,-107.05 107.82,-123.08l0 113.81c0,42.22 -19.67,74.8 -57.89,78.7zm-513.08 -145.59l0 0 0 -228.17 196.94 0 0 129.72c-27.03,50.53 -66.42,105.69 -106.38,133.67 -58.71,41.1 -90.56,4.7 -90.56,-35.23z"/>
   <path class="fil0" d="M1360.8 687.14l0 -37.45c0,-7.37 2.89,-13.71 8.45,-18.55 5.56,-4.84 12.26,-6.81 19.55,-5.79 464.58,65.26 926.59,65.54 1385.48,0.07 7.3,-1.05 14,0.93 19.58,5.76 5.57,4.84 8.47,11.18 8.47,18.57l0 37.38c0,13.53 -11.04,24.58 -24.58,24.58l-53.57 0 0 476.68c0,9.52 -5.03,17.68 -13.54,21.96 -8.5,4.28 -18.05,3.45 -25.69,-2.23l-48.52 -36.04c-6.45,-4.79 -9.93,-11.69 -9.93,-19.73l0 -284.35 -117.22 39.07 0 112.34c0,25.4 -8.47,47.22 -25.4,65.45 -17.58,18.24 -38.42,27.35 -62.51,27.35 -31.91,0 -67.73,-18.56 -107.45,-55.68 -39.07,-37.12 -58.61,-70.65 -58.61,-100.61 0,-15.63 6.84,-30.6 20.51,-44.93 13.02,-14.33 30.61,-25.4 52.75,-33.22l83.03 -29.3 0 -136.76 -97.55 0 -78.14 0 0 476.68c0,9.52 -5.03,17.68 -13.54,21.96 -8.5,4.28 -18.05,3.45 -25.69,-2.23l-48.52 -36.04c-6.45,-4.79 -9.93,-11.69 -9.93,-19.73l0 -113.41c-16.94,14.33 -33.87,25.08 -50.8,32.24 -16.93,7.82 -32.56,11.72 -46.89,11.72 -39.73,0 -79.77,-19.53 -120.15,-58.61 -40.38,-39.73 -60.56,-78.8 -60.56,-117.22 0,-29.31 24.75,-61.86 74.24,-97.68 50.14,-35.82 95.4,-53.73 135.78,-53.73 7.81,0 16.61,7.16 26.37,21.49 9.12,11.72 19.86,30.6 32.24,56.65 -42.98,0 -86.28,13.03 -129.92,39.07 -43.63,26.05 -65.45,52.1 -65.45,78.15 0,14.98 5.21,27.67 15.62,38.1 10.43,10.42 23.12,15.62 38.1,15.62 22.14,0 46.23,-8.47 72.29,-25.4 26.7,-16.92 53.07,-41.02 79.13,-72.28l0 -195.37 -222.58 0 -78.15 0 0 476.68c0,9.52 -5.02,17.68 -13.53,21.96 -8.51,4.28 -18.06,3.45 -25.7,-2.23l-48.53 -36.04c-6.44,-4.79 -9.93,-11.69 -9.93,-19.73l0 -333.19 -107.45 34.19c15.62,13.02 27.68,29.63 36.14,49.82 8.47,20.84 12.7,43.3 12.7,67.4 0,33.86 -13.35,62.51 -40.05,85.96 -26.7,24.1 -58.93,36.14 -96.71,36.14 -40.37,0 -74.89,-15.3 -103.54,-45.91 -28.65,-30.61 -42.98,-67.41 -42.98,-110.39 0,-31.26 11.39,-59.58 34.19,-84.98 22.79,-25.4 52.1,-42.65 87.91,-51.77l219.78 -63.49 0 -24.43 -354.43 0c-13.53,0 -24.58,-11.04 -24.58,-24.58zm977.54 302.97c0,11.07 6.83,23.78 20.51,38.1 14.32,13.68 27.03,20.51 38.1,20.51 3.91,0 7.49,-3.9 10.75,-11.72 2.6,-7.16 3.9,-16.28 3.9,-27.35l0 -73.27c-22.14,7.81 -39.73,16.61 -52.75,26.37 -13.68,10.42 -20.51,19.54 -20.51,27.35zm170.94 -278.4l0 117.22 117.22 -39.07 0 -78.15 -117.22 0zm-1033.22 283.28c0,6.52 3.91,12.38 11.72,17.59 7.16,4.56 16.29,6.84 27.35,6.84 26.7,0 49.82,-9.45 69.35,-28.33 18.88,-19.53 28.33,-42.65 28.33,-69.35 0,-5.86 -2.61,-13.67 -7.81,-23.44 -4.56,-9.11 -11.72,-19.21 -21.49,-30.28 -32.55,11.72 -58.61,29.31 -78.14,52.75 -19.54,22.79 -29.31,47.54 -29.31,74.24z"/>
   <path class="fil0" d="M1954.37 472.69l43.03 45.15c55.71,-55.61 111.39,-111.23 167.09,-166.85 30.04,-30 49.45,-47.65 49.45,-94.9 0,-63.91 -51.82,-115.74 -115.74,-115.74 -63.93,0 -115.74,51.83 -115.74,115.74 0,51.04 33.03,94.36 78.87,109.75l-106.96 106.84zm-49.73 -216.59c0,-106.9 86.65,-193.56 193.56,-193.56 106.9,0 193.56,86.67 193.56,193.56 0,50.99 -19.71,97.38 -51.93,131.95 -58.4,62.67 -125.24,125.07 -186.29,186.03l43.92 43.96 192.91 -192.66c39.79,-45.13 63.92,-104.39 63.92,-169.28 0,-141.43 -114.67,-256.1 -256.1,-256.1 -141.44,0 -256.11,114.66 -256.11,256.1 0,63.34 24.96,112.47 59.43,156.78l43.65 -43.65c-24.27,-34.67 -40.53,-77.08 -40.53,-113.13zm245.45 0c0,28.66 -23.23,51.89 -51.89,51.89 -28.66,0 -51.89,-23.23 -51.89,-51.89 0,-28.65 23.23,-51.88 51.89,-51.88 28.65,0 51.89,23.23 51.89,51.88z"/>
   <path class="fil0" d="M72.01 1777.82l0 -103.02 -26.41 0 0 -20.34 75.79 0 0 20.34 -26.41 0 0 103.02 -22.97 0zm110.74 0l0 -123.37 22.8 0 0 48.4 31.5 0 0 -48.4 22.8 0 0 123.37 -22.8 0 0 -55.94 -31.5 0 0 55.94 -22.8 0zm147.34 0l0 -123.37 63.35 0 0 20.51 -40.55 0 0 28.55 37.73 0 0 19.52 -37.73 0 0 33.96 41.5 0 0 20.83 -64.3 0zm220.68 0l0 -123.37 22.47 0 0 51.52 28.05 -51.52 25.6 0 -31.2 51.19 33.17 72.18 -25.21 0 -22.23 -51.02 -8.18 13.62 0 37.4 -22.47 0zm138.76 0l0 -123.37 63.35 0 0 20.51 -40.55 0 0 28.55 37.73 0 0 19.52 -37.73 0 0 33.96 41.5 0 0 20.83 -64.3 0zm153.74 0l0 -52.31 -32.32 -71.06 25.43 0 18.65 46.37 18.43 -46.37 24.77 0 -31.83 71.06 0 52.31 -23.13 0zm223.9 0l0 -103.02 -26.41 0 0 -20.34 75.79 0 0 20.34 -26.41 0 0 103.02 -22.97 0zm131.73 -61.66c0,20.32 1.18,33.08 3.55,38.33 2.38,5.27 6.78,7.9 13.18,7.9 6.29,0 10.61,-2.57 12.93,-7.74 2.32,-5.14 3.47,-17.99 3.47,-38.5 0,-20.51 -1.17,-33.36 -3.53,-38.6 -2.35,-5.22 -6.7,-7.85 -13.05,-7.85 -6.34,0 -10.69,2.62 -13.04,7.85 -2.35,5.25 -3.53,18.1 -3.53,38.6zm-23.46 -0.03c0,-13.07 0.61,-23.54 1.84,-31.36 1.23,-7.81 3.17,-13.7 5.77,-17.66 3.58,-5.61 7.84,-9.6 12.82,-12 4.94,-2.41 11.48,-3.61 19.6,-3.61 8.12,0 14.66,1.2 19.6,3.61 4.98,2.41 9.27,6.4 12.91,12 2.6,4.07 4.51,9.98 5.71,17.79 1.21,7.79 1.81,18.19 1.81,31.23 0,12.99 -0.6,23.38 -1.83,31.2 -1.23,7.81 -3.15,13.75 -5.68,17.83 -3.64,5.61 -7.93,9.6 -12.91,12 -4.94,2.41 -11.48,3.62 -19.6,3.62 -8.12,0 -14.65,-1.21 -19.6,-3.62 -4.98,-2.4 -9.24,-6.39 -12.82,-12 -2.6,-3.97 -4.54,-9.84 -5.77,-17.67 -1.23,-7.82 -1.84,-18.29 -1.84,-31.36zm259.18 0.03c0,20.32 1.18,33.08 3.55,38.33 2.38,5.27 6.78,7.9 13.18,7.9 6.29,0 10.61,-2.57 12.93,-7.74 2.32,-5.14 3.47,-17.99 3.47,-38.5 0,-20.51 -1.17,-33.36 -3.53,-38.6 -2.35,-5.22 -6.7,-7.85 -13.05,-7.85 -6.34,0 -10.69,2.62 -13.04,7.85 -2.35,5.25 -3.53,18.1 -3.53,38.6zm-23.46 -0.03c0,-13.07 0.61,-23.54 1.84,-31.36 1.23,-7.81 3.17,-13.7 5.77,-17.66 3.58,-5.61 7.84,-9.6 12.82,-12 4.94,-2.41 11.48,-3.61 19.6,-3.61 8.12,0 14.66,1.2 19.6,3.61 4.98,2.41 9.27,6.4 12.91,12 2.6,4.07 4.51,9.98 5.71,17.79 1.21,7.79 1.81,18.19 1.81,31.23 0,12.99 -0.61,23.38 -1.83,31.2 -1.23,7.81 -3.15,13.75 -5.68,17.83 -3.64,5.61 -7.93,9.6 -12.91,12 -4.94,2.41 -11.48,3.62 -19.6,3.62 -8.12,0 -14.65,-1.21 -19.6,-3.62 -4.98,-2.4 -9.24,-6.39 -12.82,-12 -2.6,-3.97 -4.54,-9.84 -5.77,-17.67 -1.23,-7.82 -1.84,-18.29 -1.84,-31.36zm170.12 -7.71l9.6 0c7.16,0 12.19,-1.4 15.09,-4.21 2.87,-2.79 4.32,-7.57 4.32,-14.36 0,-6.83 -1.31,-11.56 -3.97,-14.21 -2.65,-2.65 -7.68,-3.97 -15.11,-3.97l-9.93 0 0 36.75zm-22.17 69.39l0 -123.37 39.89 0c12.17,0 20.92,2.74 26.25,8.18 5.33,5.44 8.01,14.36 8.01,26.74 0,12.17 -2.84,21.24 -8.53,27.18 -5.69,5.95 -14.39,8.94 -26.06,8.94l-16.76 0 0 52.33 -22.81 0zm160.8 -69.39l9.6 0c7.16,0 12.19,-1.4 15.09,-4.21 2.87,-2.79 4.32,-7.57 4.32,-14.36 0,-6.83 -1.31,-11.56 -3.97,-14.21 -2.65,-2.65 -7.68,-3.97 -15.12,-3.97l-9.92 0 0 36.75zm-22.17 69.39l0 -123.37 39.89 0c12.17,0 20.92,2.74 26.25,8.18 5.33,5.44 8.01,14.36 8.01,26.74 0,12.17 -2.84,21.24 -8.53,27.18 -5.68,5.95 -14.38,8.94 -26.05,8.94l-16.76 0 0 52.33 -22.8 0zm159.62 -61.66c0,20.32 1.18,33.08 3.55,38.33 2.38,5.27 6.78,7.9 13.17,7.9 6.3,0 10.61,-2.57 12.94,-7.74 2.32,-5.14 3.46,-17.99 3.46,-38.5 0,-20.51 -1.17,-33.36 -3.52,-38.6 -2.35,-5.22 -6.7,-7.85 -13.05,-7.85 -6.34,0 -10.69,2.62 -13.04,7.85 -2.35,5.25 -3.53,18.1 -3.53,38.6zm-23.46 -0.03c0,-13.07 0.61,-23.54 1.83,-31.36 1.23,-7.81 3.17,-13.7 5.77,-17.66 3.58,-5.61 7.84,-9.6 12.82,-12 4.95,-2.41 11.49,-3.61 19.6,-3.61 8.12,0 14.65,1.2 19.6,3.61 4.98,2.41 9.27,6.4 12.91,12 2.6,4.07 4.51,9.98 5.71,17.79 1.21,7.79 1.81,18.19 1.81,31.23 0,12.99 -0.6,23.38 -1.83,31.2 -1.23,7.81 -3.15,13.75 -5.69,17.83 -3.63,5.61 -7.93,9.6 -12.91,12 -4.95,2.41 -11.48,3.62 -19.6,3.62 -8.12,0 -14.65,-1.21 -19.6,-3.62 -4.97,-2.4 -9.24,-6.39 -12.82,-12 -2.6,-3.97 -4.54,-9.84 -5.77,-17.67 -1.23,-7.82 -1.83,-18.29 -1.83,-31.36zm170.1 -9.51l13.2 0c6.7,0 11.32,-1.34 13.92,-4.02 2.6,-2.65 3.89,-7.43 3.89,-14.33 0,-6.15 -1.42,-10.44 -4.24,-12.9 -2.84,-2.47 -7.98,-3.69 -15.47,-3.69l-11.29 0 0 34.94zm-22.14 71.2l0 -123.37 41.15 0c12.44,0 21.43,2.52 26.9,7.57 5.49,5.06 8.23,13.29 8.23,24.72 0,8.01 -1.48,14.32 -4.43,18.94 -2.93,4.62 -7.28,7.33 -12.99,8.15 10.91,2.88 16.62,12.09 17.09,27.62 0,0.71 0,1.23 0,1.61l0.66 16.33c0.22,4.64 0.79,8.36 1.75,11.18 0.96,2.78 2.46,5.22 4.48,7.24l-27.29 0c-0.62,-2.08 -1.12,-4.51 -1.45,-7.33 -0.3,-2.82 -0.52,-6.78 -0.63,-11.9l-0.33 -12.91 0 -3.28c0,-7.14 -1.53,-12.06 -4.57,-14.74 -3.04,-2.65 -9.24,-3.99 -18.59,-3.99l-7.85 0 0 54.14 -22.14 0zm161.45 0l0 -103.02 -26.41 0 0 -20.34 75.78 0 0 20.34 -26.41 0 0 103.02 -22.97 0zm110.74 -123.37l22.97 0 0 83.17c0,9.52 1.18,15.97 3.49,19.36 2.33,3.39 6.43,5.08 12.36,5.08 5.88,0 9.95,-1.73 12.22,-5.15 2.27,-3.41 3.42,-9.95 3.42,-19.63l0 -82.85 22.64 0 0 85.17c0,8.28 -0.47,14.32 -1.4,18.12 -0.93,3.83 -2.49,7.16 -4.7,10.06 -3.3,4.32 -7.68,7.55 -13.12,9.7 -5.44,2.16 -11.89,3.26 -19.36,3.26 -14.11,0 -24.03,-3.07 -29.82,-9.16 -5.8,-6.13 -8.7,-16.76 -8.7,-31.99l0 -85.17zm147.18 123.37l0 -123.37 23.65 0 32.1 86.26 -0.63 -86.26 21.66 0 0 123.37 -23.41 0 -32.34 -86.43 0.63 86.43 -21.65 0zm147.02 0l0 -123.37 22.97 0 0 123.37 -22.97 0zm110.73 0l0 -103.02 -26.41 0 0 -20.34 75.79 0 0 20.34 -26.41 0 0 103.02 -22.97 0zm134.03 0l0 -52.31 -32.32 -71.06 25.43 0 18.65 46.37 18.43 -46.37 24.77 0 -31.83 71.06 0 52.31 -23.13 0z"/>
   <path class="fil0" d="M1286.12 446.32l-22.56 0 0 61.3 -15.17 0 0 -61.3 -22.25 0 0 -12.32 59.97 0 0 12.32zm28.46 -12.32l18.92 53.4 18.81 -53.4 19.91 0 0 73.62 -15.22 0 0 -20.12 1.52 -34.74 -19.87 54.86 -10.42 0 -19.81 -54.81 1.52 34.69 0 20.12 -15.17 0 0 -73.62 19.81 0z"/>
  </g>
 </g>
</svg>
