<svg xmlns="http://www.w3.org/2000/svg" xml:space="preserve" width="50.8mm" height="31.7647mm" version="1.1" style="shape-rendering:geometricPrecision; text-rendering:geometricPrecision; image-rendering:optimizeQuality; fill-rule:evenodd; clip-rule:evenodd"
viewBox="0 0 6773.94 4235.67"
 xmlns:xlink="http://www.w3.org/1999/xlink">
 <defs>
  <style type="text/css">
   <![CDATA[
    .fil0 {fill:#78191B;fill-rule:nonzero}
   ]]>
  </style>
 </defs>
 <g id="Layer_x0020_1">
  <metadata id="CorelCorpID_0Corel-Layer"/>
  <g id="_2478431259472">
   <path class="fil0" d="M1071.7 2347.8l0 61.99c0,23.6 10.88,45.88 29.51,60.41l180.04 140.45c19.6,15.28 48.19,1.32 48.19,-23.55l0 -1175.37 87.06 0c24.86,0 38.82,-28.62 23.54,-48.2l-140.45 -180.06c-14.52,-18.61 -36.8,-29.5 -60.41,-29.5l-35.35 0 -83.93 -65.47c-19.6,-15.28 -48.2,-1.31 -48.2,23.54l0 41.94 -528.71 0 -149.25 -116.42c-19.6,-15.28 -48.2,-1.32 -48.2,23.54l0 92.89 -315.6 0c-24.84,0 -38.82,28.6 -23.54,48.2l140.44 180.06c14.52,18.61 36.82,29.5 60.42,29.5l138.28 0 0 309.53c0,129.82 4.61,276.3 205.02,428.66 71.75,54.56 133.92,98.25 194.27,126.04 -171.31,135.28 -385.65,243.26 -634.74,303.32 -30.59,7.65 -26.54,41.39 8.31,56.54 106.18,45.78 216.15,82.73 328.82,110.45 34.98,8.63 71.83,5.35 98.81,-8.4 210.98,-103.01 387.45,-238.14 525.69,-390.07zm1752.92 137.09l0 -657.11c27.62,-4.47 44.88,-19.34 17.95,-67.09l-17.95 -32.87 0 -316.09 135.43 0c24.86,0 38.82,-28.62 23.52,-48.2l-140.43 -180.06c-14.53,-18.61 -36.82,-29.5 -60.43,-29.5l-83.71 0 -83.93 -65.47c-19.59,-15.28 -48.2,-1.31 -48.2,23.54l0 41.94 -242.37 0c-24.86,0 -38.82,28.6 -23.54,48.2l140.45 180.06c14.52,18.61 36.8,29.5 60.41,29.5l65.05 0 0 177.44 -347.7 0 0 -399.05c0,-258.78 -317.64,-357.27 -518.33,-293.92 -183.18,57.83 -303.89,211.1 -224.22,421.65 45.9,121.29 169.72,187.2 484.75,189.98l0 81.67c-314.52,3.51 -426.81,86.14 -484.79,189.9 -59.26,106.04 -53.03,324.34 190.23,564.49 243.26,240.13 418.85,201.26 484.47,169.76 67.57,-32.43 67.83,-163.53 67.83,-222.79l0 -461.43 347.75 0 0 580.36c0,6.44 0.97,12.73 2.53,18.84 -14.19,-0.76 -28.44,-1.19 -42.8,-1.19 -152.95,0 -191.43,133.85 -200.6,185.79 -2.17,12.24 2.19,24.62 11.51,32.86l194.56 172.47c13.91,12.33 35.63,7.71 43.23,-9.28 24.24,-54.27 84.29,-151.37 203.43,-151.37 165.39,0 295.52,62.35 295.52,281.93 0,219.61 -195.2,428.36 -588.31,428.36 -498.83,0 -1111.53,-417.5 -1496.51,-417.5 -291.25,0 -334.23,226.55 -337.88,336.86 -1.19,35.56 14.71,69.47 42.39,91.85l144.36 116.72c25.36,20.51 63.67,4.37 65.94,-28.16 5.43,-77.81 38.18,-187.72 171.96,-232.59 428.33,-143.69 967.85,376.83 1637.48,376.83 393.09,0 631.67,-206.05 631.67,-501.54 0,-226.55 -216.81,-507.09 -520.73,-625.76zm-1157.14 -1332.57l0 0c0,-77.93 65.33,-112.18 156.24,-102.92 90.7,9.25 137.43,86.42 137.65,186.51l0 35.67c-185.15,8.83 -293.89,20.59 -293.89,-119.26zm156.19 1148.41l0 0c-90.9,9.27 -118.74,-87.21 -118.74,-165.15 0,-139.03 82.51,-254.62 256.45,-292.76l0 270.72c0,100.42 -46.78,177.91 -137.71,187.19zm-1220.39 -346.3l0 0 0 -542.7 468.43 0 0 308.55c-64.29,120.18 -157.97,251.4 -253.04,317.94 -139.64,97.77 -215.39,11.19 -215.39,-83.78z"/>
   <path class="fil0" d="M3236.73 1634.39l0 -89.07c0,-17.52 6.87,-32.6 20.1,-44.11 13.23,-11.51 29.15,-16.2 46.5,-13.76 1105.02,155.23 2203.94,155.89 3295.43,0.16 17.36,-2.48 33.31,2.21 46.56,13.71 13.25,11.51 20.15,26.6 20.15,44.16l0 88.91c0,32.19 -26.27,58.46 -58.46,58.46l-127.41 0 0 1133.79c0,22.66 -11.97,42.06 -32.22,52.23 -20.22,10.17 -42.92,8.21 -61.11,-5.29l-115.4 -85.71c-15.33,-11.37 -23.62,-27.82 -23.62,-46.91l0 -676.35 -278.81 92.94 0 267.2c0,60.41 -20.15,112.3 -60.42,155.67 -41.82,43.38 -91.38,65.06 -148.69,65.06 -75.9,0 -161.09,-44.15 -255.58,-132.44 -92.94,-88.29 -139.41,-168.05 -139.41,-239.31 0,-37.18 16.27,-72.79 48.79,-106.88 30.98,-34.08 72.81,-60.41 125.46,-79.01l197.5 -69.69 0 -325.3 -232.02 0 -185.87 0 0 1133.79c0,22.66 -11.97,42.06 -32.22,52.23 -20.22,10.17 -42.92,8.21 -61.11,-5.29l-115.4 -85.71c-15.33,-11.37 -23.62,-27.82 -23.62,-46.91l0 -269.76c-40.28,34.08 -80.55,59.65 -120.82,76.67 -40.27,18.6 -77.45,27.88 -111.53,27.88 -94.49,0 -189.74,-46.46 -285.79,-139.4 -96.04,-94.49 -144.04,-187.43 -144.04,-278.81 0,-69.71 58.86,-147.15 176.58,-232.34 119.26,-85.21 226.91,-127.8 322.96,-127.8 18.57,0 39.5,17.04 62.73,51.12 21.7,27.88 47.24,72.79 76.67,134.75 -102.22,0 -205.23,30.99 -309.01,92.94 -103.78,61.97 -155.67,123.92 -155.67,185.88 0,35.63 12.39,65.82 37.16,90.62 24.8,24.78 54.99,37.16 90.62,37.16 52.66,0 109.97,-20.14 171.94,-60.42 63.5,-40.26 126.24,-97.57 188.2,-171.92l0 -464.69 -529.41 0 -185.88 0 0 1133.79c0,22.66 -11.95,42.04 -32.18,52.23 -20.24,10.17 -42.95,8.21 -61.13,-5.29l-115.44 -85.71c-15.32,-11.37 -23.62,-27.82 -23.62,-46.91l0 -792.52 -255.57 81.33c37.16,30.98 65.83,70.47 85.97,118.49 20.14,49.56 30.2,103 30.2,160.32 0,80.54 -31.76,148.71 -95.26,204.46 -63.5,57.31 -140.17,85.97 -230.02,85.97 -96.02,0 -178.14,-36.4 -246.28,-109.2 -68.15,-72.81 -102.24,-160.33 -102.24,-262.56 0,-74.35 27.1,-141.72 81.33,-202.14 54.2,-60.41 123.92,-101.45 209.1,-123.14l522.77 -151.01 0 -58.1 -843.02 0c-32.19,0 -58.46,-26.27 -58.46,-58.46zm2325.11 720.64c0,26.34 16.24,56.55 48.78,90.62 34.07,32.54 64.29,48.79 90.62,48.79 9.29,0 17.81,-9.29 25.56,-27.88 6.17,-17.04 9.28,-38.71 9.28,-65.05l0 -174.27c-52.66,18.59 -94.49,39.5 -125.46,62.74 -32.54,24.78 -48.78,46.47 -48.78,65.05zm406.6 -662.18l0 278.81 278.81 -92.93 0 -185.88 -278.81 0zm-2457.55 673.81c0,15.49 9.29,29.43 27.88,41.82 17.04,10.84 38.74,16.27 65.06,16.27 63.51,0 118.49,-22.47 164.96,-67.39 44.91,-46.46 67.38,-101.45 67.38,-164.96 0,-13.93 -6.2,-32.52 -18.59,-55.76 -10.84,-21.67 -27.87,-45.68 -51.12,-72.02 -77.43,27.88 -139.4,69.71 -185.86,125.46 -46.47,54.22 -69.71,113.08 -69.71,176.59z"/>
   <path class="fil0" d="M4648.57 1124.31l102.36 107.4c132.51,-132.28 264.96,-264.57 397.42,-396.88 71.45,-71.34 117.62,-113.32 117.62,-225.7 0,-152.03 -123.26,-275.29 -275.29,-275.29 -152.05,0 -275.3,123.26 -275.3,275.29 0,121.4 78.55,224.43 187.6,261.05l-254.41 254.13zm-118.29 -515.18c0,-254.26 206.11,-460.4 460.4,-460.4 254.28,0 460.4,206.14 460.4,460.4 0,121.29 -46.88,231.61 -123.52,313.84 -138.92,149.07 -297.89,297.49 -443.09,442.47l104.46 104.58 458.85 -458.25c94.64,-107.34 152.04,-248.28 152.04,-402.64 0,-336.4 -272.74,-609.13 -609.15,-609.13 -336.43,0 -609.16,272.73 -609.16,609.13 0,150.67 59.37,267.52 141.35,372.9l103.82 -103.82c-57.73,-82.46 -96.41,-183.34 -96.41,-269.08zm583.81 0c0,68.17 -55.26,123.41 -123.41,123.41 -68.17,0 -123.41,-55.24 -123.41,-123.41 0,-68.15 55.24,-123.4 123.41,-123.4 68.15,0 123.41,55.24 123.41,123.4z"/>
   <path class="fil0" d="M171.27 4228.63l0 -245.05 -62.82 0 0 -48.38 180.27 0 0 48.38 -62.82 0 0 245.05 -54.63 0zm263.4 0l0 -293.43 54.23 0 0 115.1 74.93 0 0 -115.1 54.23 0 0 293.43 -54.23 0 0 -133.05 -74.93 0 0 133.05 -54.23 0zm350.46 0l0 -293.43 150.68 0 0 48.78 -96.45 0 0 67.9 89.74 0 0 46.43 -89.74 0 0 80.77 98.72 0 0 49.55 -152.95 0zm524.89 0l0 -293.43 53.44 0 0 122.52 66.73 -122.52 60.89 0 -74.22 121.74 78.9 171.68 -59.97 0 -52.87 -121.34 -19.46 32.39 0 88.95 -53.44 0zm330.06 0l0 -293.43 150.68 0 0 48.78 -96.45 0 0 67.9 89.74 0 0 46.43 -89.74 0 0 80.77 98.72 0 0 49.55 -152.95 0zm365.67 0l0 -124.4 -76.87 -169.03 60.49 0 44.35 110.3 43.83 -110.3 58.93 0 -75.7 169.03 0 124.4 -55.02 0zm532.55 0l0 -245.05 -62.82 0 0 -48.38 180.27 0 0 48.38 -62.82 0 0 245.05 -54.63 0zm313.33 -146.64c0,48.31 2.8,78.69 8.45,91.17 5.65,12.55 16.13,18.8 31.35,18.8 14.96,0 25.23,-6.12 30.76,-18.41 5.52,-12.23 8.25,-42.79 8.25,-91.55 0,-48.78 -2.79,-79.34 -8.39,-91.83 -5.59,-12.41 -15.93,-18.67 -31.03,-18.67 -15.08,0 -25.42,6.25 -31.02,18.67 -5.59,12.49 -8.39,43.06 -8.39,91.83zm-55.8 -0.08c0,-31.07 1.44,-55.98 4.37,-74.58 2.92,-18.6 7.53,-32.59 13.72,-42.02 8.51,-13.33 18.65,-22.83 30.5,-28.55 11.76,-5.72 27.31,-8.57 46.62,-8.57 19.32,0 34.87,2.85 46.63,8.57 11.84,5.72 22.06,15.21 30.71,28.55 6.17,9.69 10.72,23.74 13.57,42.34 2.87,18.53 4.29,43.24 4.29,74.26 0,30.9 -1.43,55.62 -4.35,74.22 -2.92,18.59 -7.48,32.71 -13.52,42.39 -8.65,13.33 -18.87,22.83 -30.71,28.55 -11.76,5.72 -27.31,8.59 -46.63,8.59 -19.31,0 -34.86,-2.87 -46.62,-8.59 -11.84,-5.72 -21.99,-15.21 -30.5,-28.55 -6.19,-9.43 -10.8,-23.4 -13.72,-42 -2.93,-18.6 -4.37,-43.51 -4.37,-74.61zm616.47 0.08c0,48.31 2.8,78.69 8.45,91.17 5.65,12.55 16.13,18.8 31.35,18.8 14.96,0 25.23,-6.12 30.76,-18.41 5.52,-12.23 8.25,-42.79 8.25,-91.55 0,-48.78 -2.79,-79.34 -8.39,-91.83 -5.59,-12.41 -15.93,-18.67 -31.03,-18.67 -15.08,0 -25.42,6.25 -31.02,18.67 -5.59,12.49 -8.39,43.06 -8.39,91.83zm-55.8 -0.08c0,-31.07 1.44,-55.98 4.37,-74.58 2.92,-18.6 7.53,-32.59 13.72,-42.02 8.51,-13.33 18.65,-22.83 30.5,-28.55 11.76,-5.72 27.31,-8.57 46.62,-8.57 19.32,0 34.87,2.85 46.63,8.57 11.84,5.72 22.06,15.21 30.71,28.55 6.17,9.69 10.72,23.74 13.57,42.34 2.87,18.53 4.31,43.24 4.31,74.26 0,30.9 -1.44,55.62 -4.36,74.22 -2.92,18.59 -7.48,32.71 -13.52,42.39 -8.65,13.33 -18.87,22.83 -30.71,28.55 -11.76,5.72 -27.31,8.59 -46.63,8.59 -19.31,0 -34.86,-2.87 -46.62,-8.59 -11.84,-5.72 -21.99,-15.21 -30.5,-28.55 -6.19,-9.43 -10.8,-23.4 -13.72,-42 -2.93,-18.6 -4.37,-43.51 -4.37,-74.61zm404.64 -18.33l22.83 0c17.04,0 29,-3.31 35.9,-10 6.83,-6.64 10.28,-18.03 10.28,-34.16 0,-16.25 -3.12,-27.5 -9.44,-33.8 -6.31,-6.31 -18.27,-9.44 -35.95,-9.44l-23.62 0 0 87.41zm-52.74 165.05l0 -293.43 94.88 0c28.95,0 49.75,6.51 62.43,19.44 12.68,12.95 19.06,34.15 19.06,63.61 0,28.94 -6.76,50.52 -20.28,64.65 -13.53,14.17 -34.22,21.27 -61.98,21.27l-39.86 0 0 124.46 -54.24 0zm382.46 -165.05l22.83 0c17.04,0 29,-3.31 35.9,-10 6.83,-6.64 10.28,-18.03 10.28,-34.16 0,-16.25 -3.12,-27.5 -9.44,-33.8 -6.31,-6.31 -18.27,-9.44 -35.96,-9.44l-23.6 0 0 87.41zm-52.74 165.05l0 -293.43 94.88 0c28.95,0 49.75,6.51 62.43,19.44 12.68,12.95 19.06,34.15 19.06,63.61 0,28.94 -6.76,50.52 -20.3,64.65 -13.52,14.17 -34.2,21.27 -61.97,21.27l-39.87 0 0 124.46 -54.23 0zm379.66 -146.64c0,48.31 2.8,78.69 8.45,91.17 5.65,12.55 16.13,18.8 31.34,18.8 14.97,0 25.24,-6.12 30.78,-18.41 5.52,-12.23 8.24,-42.79 8.24,-91.55 0,-48.78 -2.79,-79.34 -8.37,-91.83 -5.59,-12.41 -15.93,-18.67 -31.03,-18.67 -15.08,0 -25.42,6.25 -31.02,18.67 -5.59,12.49 -8.39,43.06 -8.39,91.83zm-55.8 -0.08c0,-31.07 1.44,-55.98 4.36,-74.58 2.93,-18.6 7.55,-32.59 13.73,-42.02 8.51,-13.33 18.65,-22.83 30.48,-28.55 11.77,-5.72 27.32,-8.57 46.63,-8.57 19.32,0 34.86,2.85 46.63,8.57 11.84,5.72 22.06,15.21 30.7,28.55 6.19,9.69 10.73,23.74 13.59,42.34 2.87,18.53 4.29,43.24 4.29,74.26 0,30.9 -1.43,55.62 -4.35,74.22 -2.93,18.59 -7.48,32.71 -13.53,42.39 -8.64,13.33 -18.86,22.83 -30.7,28.55 -11.77,5.72 -27.31,8.59 -46.63,8.59 -19.31,0 -34.86,-2.87 -46.63,-8.59 -11.83,-5.72 -21.98,-15.21 -30.48,-28.55 -6.19,-9.43 -10.8,-23.4 -13.73,-42 -2.92,-18.6 -4.36,-43.51 -4.36,-74.61zm404.58 -22.63l31.4 0c15.95,0 26.94,-3.17 33.11,-9.55 6.17,-6.31 9.24,-17.69 9.24,-34.08 0,-14.63 -3.39,-24.84 -10.09,-30.7 -6.76,-5.85 -18.99,-8.79 -36.8,-8.79l-26.86 0 0 83.11zm-52.67 169.35l0 -293.43 97.88 0c29.59,0 50.98,5.99 63.99,18.01 13.07,12.03 19.58,31.6 19.58,58.79 0,19.06 -3.52,34.07 -10.53,45.07 -6.96,10.99 -17.31,17.41 -30.9,19.38 25.95,6.83 39.54,28.75 40.64,65.69 0,1.69 0,2.92 0,3.84l1.56 38.82c0.52,11.05 1.88,19.9 4.16,26.6 2.28,6.63 5.85,12.41 10.67,17.23l-64.91 0c-1.48,-4.95 -2.65,-10.72 -3.44,-17.43 -0.72,-6.71 -1.23,-16.12 -1.49,-28.28l-0.77 -30.7 0 -7.81c0,-16.96 -3.64,-28.67 -10.87,-35.04 -7.23,-6.31 -21.99,-9.51 -44.22,-9.51l-18.67 0 0 128.77 -52.67 0zm384.01 0l0 -245.05 -62.81 0 0 -48.38 180.26 0 0 48.38 -62.82 0 0 245.05 -54.63 0zm263.4 -293.43l54.63 0 0 197.83c0,22.63 2.8,37.98 8.31,46.04 5.53,8.07 15.29,12.09 29.4,12.09 13.99,0 23.67,-4.09 29.07,-12.23 5.4,-8.13 8.13,-23.67 8.13,-46.68l0 -197.06 53.84 0 0 202.58c0,19.71 -1.11,34.07 -3.32,43.11 -2.2,9.11 -5.92,17.04 -11.19,23.94 -7.85,10.28 -18.27,17.95 -31.22,23.08 -12.93,5.15 -28.28,7.75 -46.04,7.75 -33.55,0 -57.17,-7.29 -70.94,-21.79 -13.79,-14.56 -20.68,-39.86 -20.68,-76.09l0 -202.58zm350.08 293.43l0 -293.43 56.25 0 76.34 205.18 -1.49 -205.18 51.51 0 0 293.43 -55.67 0 -76.93 -205.57 1.49 205.57 -51.5 0zm349.68 0l0 -293.43 54.63 0 0 293.43 -54.63 0zm263.38 0l0 -245.05 -62.82 0 0 -48.38 180.27 0 0 48.38 -62.82 0 0 245.05 -54.63 0zm318.79 0l0 -124.4 -76.87 -169.03 60.49 0 44.35 110.3 43.83 -110.3 58.93 0 -75.7 169.03 0 124.4 -55.02 0z"/>
   <path class="fil0" d="M3059.1 1061.57l-53.66 0 0 145.81 -36.08 0 0 -145.81 -52.91 0 0 -29.3 142.65 0 0 29.3zm67.69 -29.3l44.99 127 44.75 -127 47.36 0 0 175.11 -36.2 0 0 -47.86 3.61 -82.63 -47.26 130.49 -24.79 0 -47.12 -130.37 3.61 82.51 0 47.86 -36.08 0 0 -175.11 47.12 0z"/>
  </g>
 </g>
</svg>
