<svg xmlns="http://www.w3.org/2000/svg" xml:space="preserve" width="54.2046mm" height="50.8mm" version="1.1" style="shape-rendering:geometricPrecision; text-rendering:geometricPrecision; image-rendering:optimizeQuality; fill-rule:evenodd; clip-rule:evenodd"
viewBox="0 0 647.13 606.49"
 xmlns:xlink="http://www.w3.org/1999/xlink">
 <defs>
  <style type="text/css">
   <![CDATA[
    .fil0 {fill:#4D1413}
    .fil1 {fill:#4D1413;fill-rule:nonzero}
   ]]>
  </style>
 </defs>
 <g id="Layer_x0020_1">
  <metadata id="CorelCorpID_0Corel-Layer"/>
  <g id="_2481385452848">
   <path class="fil0" d="M58.13 446.76l0 0 0 -52.29 45.13 0 0 29.73c-6.19,11.58 -15.22,24.23 -24.38,30.64 -13.45,9.41 -20.75,1.07 -20.75,-8.08zm45.13 37.9l0 5.97c0,2.28 1.05,4.42 2.85,5.82l17.35 13.53c1.89,1.48 4.64,0.13 4.64,-2.27l0 -113.25 8.39 0c2.39,0 3.75,-2.76 2.26,-4.65l-13.53 -17.35c-1.4,-1.79 -3.54,-2.83 -5.82,-2.83l-3.4 0 -8.08 -6.31c-1.89,-1.47 -4.65,-0.13 -4.65,2.26l0 4.05 -50.94 0 -14.39 -11.22c-1.89,-1.47 -4.64,-0.13 -4.64,2.27l0 8.95 -30.41 0c-2.39,0 -3.75,2.75 -2.27,4.64l13.53 17.35c1.4,1.79 3.54,2.85 5.82,2.85l13.32 0 0 29.82c0,12.51 0.44,26.63 19.76,41.3 6.9,5.26 12.89,9.47 18.71,12.14 -16.5,13.04 -37.16,23.45 -61.16,29.23 -2.94,0.74 -2.54,3.99 0.81,5.45 10.22,4.41 20.82,7.97 31.68,10.64 3.37,0.83 6.92,0.52 9.52,-0.81 20.33,-9.92 37.32,-22.95 50.65,-37.58z"/>
   <path class="fil0" d="M175.71 480.12l0 0c-8.75,0.89 -11.44,-8.4 -11.44,-15.91 0,-13.4 7.95,-24.53 24.71,-28.2l0 26.08c0,9.67 -4.5,17.14 -13.27,18.03zm-15.05 -110.64l0 0c0,-7.52 6.29,-10.81 15.05,-9.92 8.74,0.89 13.25,8.33 13.27,17.97l0 3.44c-17.84,0.86 -28.31,1.99 -28.31,-11.49zm111.49 128.39l0 -63.31c2.66,-0.43 4.32,-1.86 1.73,-6.45l-1.73 -3.17 0 -30.47 13.05 0c2.39,0 3.75,-2.75 2.27,-4.64l-13.53 -17.35c-1.4,-1.79 -3.54,-2.85 -5.82,-2.85l-8.06 0 -8.08 -6.3c-1.9,-1.47 -4.65,-0.12 -4.65,2.27l0 4.04 -23.35 0c-2.39,0 -3.73,2.76 -2.26,4.65l13.53 17.35c1.4,1.79 3.55,2.83 5.82,2.83l6.27 0 0 17.11 -33.5 0 0 -38.46c0,-24.92 -30.6,-34.42 -49.94,-28.31 -17.65,5.57 -29.28,20.34 -21.61,40.62 4.42,11.69 16.36,18.05 46.71,18.31l0 7.87c-30.3,0.35 -41.12,8.3 -46.71,18.3 -5.71,10.22 -5.11,31.25 18.32,54.4 23.45,23.13 40.36,19.38 46.69,16.35 6.51,-3.12 6.53,-15.75 6.53,-21.46l0 -44.46 33.51 0 0 55.92c0,0.61 0.09,1.23 0.24,1.81 -1.36,-0.08 -2.74,-0.11 -4.12,-0.11 -14.75,0 -18.45,12.9 -19.34,17.9 -0.21,1.17 0.22,2.36 1.11,3.16l18.75 16.62c1.34,1.19 3.43,0.74 4.16,-0.89 2.33,-5.24 8.12,-14.6 19.6,-14.6 15.94,0 28.48,6.01 28.48,27.17 0,21.17 -18.82,41.27 -56.69,41.27 -48.07,0 -107.1,-40.23 -144.18,-40.23 -28.07,0 -32.21,21.84 -32.56,32.47 -0.11,3.42 1.41,6.69 4.08,8.85l13.91 11.24c2.44,1.98 6.13,0.43 6.35,-2.7 0.52,-7.51 3.68,-18.09 16.56,-22.42 41.28,-13.85 93.26,36.31 157.77,36.31 37.88,0 60.86,-19.85 60.86,-48.32 0,-21.83 -20.89,-48.86 -50.17,-60.3z"/>
   <path class="fil0" d="M626.96 444.52l0 0 -2.34 0 -2.36 0 0 -27.91 4 0 4.01 0 4.47 21.36 -0.04 0 4.44 -21.36 3.98 0 4 0 0 27.91 -2.34 0 -2.36 0 0 -23.43 0.01 0 -4.89 23.43 -2.85 0 -2.85 0 -4.89 -23.52 -0.01 0 0 23.52zm-20.05 0l0 -23.73 -5.99 0 0 -2.08 0 -2.09 17.69 0 0 2.09 0 2.08 -6 0 0 23.73 -2.83 0 -2.87 0z"/>
   <path class="fil1" d="M354.33 442.21l0 22.79c-2.49,2.59 -5.61,4.64 -9.37,6.12 -3.76,1.48 -7.87,2.22 -12.31,2.22 -5.61,0 -10.59,-1.3 -14.93,-3.93 -4.34,-2.62 -7.69,-6.12 -10.04,-10.51 -2.36,-4.4 -3.54,-9.2 -3.54,-14.38 0,-5.18 1.18,-9.98 3.54,-14.38 2.35,-4.38 5.7,-7.9 10.04,-10.51 4.34,-2.63 9.32,-3.93 14.93,-3.93 4.18,0 8.02,0.73 11.51,2.19 3.5,1.46 6.51,3.5 9.06,6.15l-6.27 6.66c-1.75,-1.85 -3.84,-3.3 -6.28,-4.32 -2.43,-1.03 -5.08,-1.55 -7.93,-1.55 -3.76,0 -7.1,0.9 -10.01,2.71 -2.91,1.79 -5.18,4.21 -6.79,7.22 -1.62,3.02 -2.43,6.28 -2.43,9.77 0,3.49 0.81,6.75 2.43,9.76 1.61,3.02 3.87,5.44 6.79,7.23 2.91,1.81 6.25,2.71 10.01,2.71 2.28,0 4.49,-0.28 6.63,-0.83 2.15,-0.57 4.06,-1.36 5.76,-2.43l0 -9.84 -13.11 0 0 -8.9 22.31 0z"/>
   <path class="fil1" d="M382.52 442.69l6.51 0c2.75,0 4.97,-0.8 6.66,-2.38 1.7,-1.59 2.54,-3.63 2.54,-6.12 0,-2.49 -0.84,-4.52 -2.54,-6.11 -1.69,-1.6 -3.91,-2.38 -6.66,-2.38l-6.51 0 0 16.99zm5.72 8.98l-5.72 0 0 20.65 -9.21 0 0 -55.59 16.27 0c3.65,0 6.83,0.83 9.56,2.5 2.73,1.67 4.82,3.84 6.28,6.51 1.45,2.67 2.17,5.49 2.17,8.45 0,3.66 -0.9,6.93 -2.73,9.81 -1.83,2.89 -4.41,5 -7.75,6.32l12.94 22 -10.48 0 -11.36 -20.65z"/>
   <path class="fil1" d="M462.68 461.59c2.94,-1.79 5.22,-4.22 6.84,-7.27 1.61,-3.04 2.42,-6.31 2.42,-9.81 0,-3.49 -0.81,-6.76 -2.42,-9.77 -1.62,-3.02 -3.9,-5.43 -6.84,-7.22 -2.94,-1.8 -6.26,-2.7 -9.97,-2.7 -3.75,0 -7.09,0.9 -10.01,2.7 -2.9,1.79 -5.17,4.2 -6.79,7.22 -1.61,3.02 -2.42,6.28 -2.42,9.77 0,3.49 0.81,6.76 2.42,9.81 1.62,3.04 3.89,5.47 6.79,7.27 2.92,1.8 6.26,2.69 10.01,2.69 3.71,0 7.03,-0.89 9.97,-2.69zm-24.97 7.9c-4.35,-2.61 -7.69,-6.14 -10.05,-10.56 -2.35,-4.42 -3.52,-9.23 -3.52,-14.41 0,-5.19 1.18,-9.98 3.52,-14.38 2.36,-4.4 5.71,-7.9 10.05,-10.51 4.34,-2.63 9.35,-3.93 15,-3.93 5.61,0 10.58,1.31 14.89,3.93 4.31,2.61 7.66,6.13 10.04,10.55 2.38,4.43 3.57,9.21 3.57,14.34 0,5.18 -1.19,9.99 -3.57,14.41 -2.38,4.42 -5.73,7.95 -10.04,10.56 -4.31,2.63 -9.28,3.93 -14.89,3.93 -5.66,0 -10.67,-1.31 -15,-3.93z"/>
   <path class="fil1" d="M503.59 467.74c-3.47,-3.68 -5.2,-8.62 -5.2,-14.8l0 -36.22 9.14 0 0 35.26c0,3.97 0.93,7.02 2.81,9.14 1.89,2.12 4.5,3.17 7.83,3.17 3.33,0 5.93,-1.05 7.82,-3.17 1.88,-2.12 2.82,-5.17 2.82,-9.14l0 -35.26 9.12 0 0 36.22c0,6.19 -1.73,11.13 -5.19,14.8 -3.47,3.68 -8.33,5.52 -14.57,5.52 -6.25,0 -11.1,-1.84 -14.57,-5.52z"/>
   <path class="fil1" d="M578.47 441.02c1.77,-1.64 2.66,-3.78 2.66,-6.43 0,-2.54 -0.9,-4.66 -2.69,-6.36 -1.8,-1.69 -4.06,-2.53 -6.75,-2.53l-5.55 0 0 17.79 5.55 0c2.75,0 5.02,-0.82 6.79,-2.46zm3.41 -21.72c2.83,1.72 5,3.96 6.48,6.71 1.48,2.75 2.22,5.62 2.22,8.58 0,3.33 -0.73,6.35 -2.19,9.06 -1.46,2.69 -3.6,4.84 -6.43,6.43 -2.83,1.58 -6.21,2.38 -10.12,2.38l-5.72 0 0 19.85 -9.22 0 0 -55.59 14.93 0c3.86,0 7.22,0.86 10.04,2.58z"/>
   <path class="fil0" d="M339.69 186.47l0 0 14.76 -3.96c4.09,-1.1 8.23,-0.43 11.61,1.52 3.38,1.95 6.02,5.2 7.1,9.28l3.96 14.77 -14.76 3.97c-4.09,1.08 -8.22,0.43 -11.61,-1.52 -3.38,-1.97 -6.02,-5.21 -7.1,-9.3l-3.95 -14.76zm29.23 49.91l0 0c-10.8,2.91 -21.76,1.15 -30.72,-4.04 -8.96,-5.18 -15.96,-13.77 -18.87,-24.58l-3.95 -14.77 15.05 -4.05 0 0 3.19 -0.85 3.97 14.76c1.55,5.75 5.28,10.34 10.06,13.1 4.79,2.75 10.62,3.69 16.37,2.16l20.85 -5.58 -5.58 -20.84c-1.55,-5.75 -5.28,-10.34 -10.07,-13.1 -4.79,-2.75 -10.62,-3.69 -16.36,-2.16l-54.08 14.49 -3.03 -3.03 0 0 -7.28 -7.24 0.02 -0.01 -5.13 -5.15 64.59 -17.3c10.8,-2.88 21.77,-1.14 30.73,4.04 8.95,5.18 15.95,13.77 18.85,24.58l10.48 39.09 -39.09 10.48zm-65.02 -40.33l0 0 5.39 -1.45 2.5 9.33 -7.89 -7.89zm-21.21 23.32l0 0 10.82 10.81c2.98,2.99 4.48,6.9 4.48,10.8 0,3.92 -1.49,7.83 -4.48,10.82l-10.82 10.8 -10.79 -10.8c-3,-2.98 -4.49,-6.89 -4.49,-10.82 0,-3.89 1.49,-7.81 4.49,-10.8l10.79 -10.81zm28.6 50.25l0 0 -28.61 28.62 -28.62 -28.62c-7.9,-7.9 -11.86,-18.26 -11.86,-28.62 0,-10.36 3.95,-20.71 11.86,-28.63l10.81 -10.81 0.02 0.03c0.01,-0.01 0.04,-0.05 0.04,-0.05l11.02 11.01c0,0 -0.04,0.03 -0.05,0.05l2.32 2.32 -10.8 10.8c-4.22,4.22 -6.33,9.74 -6.33,15.26 0,5.52 2.1,11.05 6.33,15.26l15.26 15.28 15.27 -15.28c4.22,-4.21 6.33,-9.74 6.33,-15.26 0,-5.53 -2.1,-11.05 -6.33,-15.26l-39.58 -39.59 1.89 -7.02 0.03 0.05 1.88 -7.02 -0.04 -0.05 1.89 -7 47.27 47.27c7.91,7.91 11.86,18.27 11.86,28.63 0,10.35 -3.94,20.72 -11.86,28.62zm-54.79 -76.46l0 0 3.94 3.94 -6.82 6.84 2.88 -10.78zm-30.8 -6.7l0 0 0 0.01 -3.94 14.77c-1.1,4.08 -3.74,7.34 -7.11,9.29 -3.38,1.94 -7.52,2.6 -11.61,1.52l-14.76 -3.96 3.95 -14.77c1.09,-4.09 3.72,-7.35 7.1,-9.3 3.39,-1.95 7.52,-2.61 11.61,-1.53l14.76 3.97zm1.52 45.91l0 0c-8.96,5.17 -19.91,6.93 -30.72,4.03l-39.09 -10.47 10.48 -39.11c2.88,-10.8 9.89,-19.4 18.85,-24.58 8.96,-5.17 19.92,-6.93 30.72,-4.04l14.63 3.92c0.07,0.01 0.18,0.02 0.18,0.02l-4.05 15.04 -0.01 0 -0.87 3.24 -14.78 -3.96c-5.75,-1.54 -11.58,-0.6 -16.37,2.16 -4.79,2.76 -8.54,7.34 -10.08,13.11l-5.57 20.84 20.84 5.58c5.75,1.54 11.58,0.6 16.35,-2.16 4.79,-2.76 8.54,-7.34 10.08,-13.1l14.48 -54.06 7.03 -1.9 0.03 0 -0.01 0.05 6.99 -1.88 0.01 -0.05 7.03 -1.89 0.01 0 -17.31 64.62c-2.88,10.79 -9.88,19.38 -18.85,24.58zm8.06 -81.67l0 0 -1.43 5.38 -9.35 -2.5 10.78 -2.88zm-9.59 -30.04l0 0 -14.76 3.97c-4.09,1.09 -8.22,0.43 -11.61,-1.53 -3.38,-1.96 -6.01,-5.22 -7.1,-9.3l-3.95 -14.77 14.76 -3.97c4.09,-1.09 8.23,-0.43 11.61,1.53 3.38,1.96 6.02,5.2 7.11,9.3l3.94 14.77zm-38.97 24.25l0 0c-8.95,-5.18 -15.96,-13.78 -18.86,-24.58l-10.48 -39.09 39.09 -10.48c10.8,-2.9 21.76,-1.14 30.72,4.04 8.95,5.18 15.96,13.78 18.85,24.58l3.96 14.77 -6.09 1.62 0 0 -6.06 1.62 0.01 0.02 -6.09 1.63 -3.96 -14.77c-1.55,-5.75 -5.27,-10.34 -10.06,-13.09 -4.79,-2.77 -10.62,-3.7 -16.38,-2.16l-20.84 5.57 5.57 20.84c1.55,5.75 5.29,10.34 10.08,13.11 4.76,2.76 10.59,3.7 16.35,2.16l54.07 -14.48 0.01 -0.02 5.16 5.16 -0.01 0 5.13 5.11 -0.11 0.05 0.1 -0.02 5.15 5.16 -64.61 17.31c-10.8,2.9 -21.75,1.14 -30.72,-4.04zm74.75 -33.84l0 0 -5.39 1.45 -2.5 -9.33 7.89 7.89zm16.71 59.32l0 0 -12.3 -12.3 4.5 -16.81 16.79 -4.49 12.31 12.29 -4.49 16.81 -16.81 4.5zm4.48 -82.67l0 0 -10.8 -10.8c-3,-2.98 -4.48,-6.9 -4.48,-10.82 0,-3.89 1.48,-7.81 4.48,-10.8l10.8 -10.8 10.8 10.8c3,2.97 4.48,6.89 4.48,10.8 0,3.91 -1.48,7.83 -4.48,10.82l-10.8 10.8zm-28.59 -50.19l0 0 28.6 -28.62 28.63 28.62c7.9,7.9 11.86,18.26 11.86,28.61 0,10.35 -3.95,20.72 -11.86,28.62l-10.79 10.8 -8.93 -8.93 -2.08 -2.1 -2.37 -2.36 10.82 -10.82c4.22,-4.22 6.33,-9.74 6.33,-15.27 0,-5.53 -2.1,-11.05 -6.33,-15.26l-15.27 -15.27 -15.26 15.27c-4.22,4.22 -6.33,9.74 -6.33,15.26 0,5.53 2.1,11.05 6.33,15.27l39.58 39.58 0.02 0 -1.12 4.16 -2.65 9.92 -1.89 7.03 -47.29 -47.31c-7.91,-7.9 -11.87,-18.26 -11.87,-28.62 0,-10.35 3.96,-20.71 11.87,-28.61zm54.82 76.4l0 0 -3.96 -3.94 6.84 -6.83 -2.88 10.77zm30.78 6.71l0 0 0 -0.02 3.95 -14.77c1.09,-4.08 3.72,-7.33 7.1,-9.29 3.38,-1.94 7.52,-2.6 11.61,-1.51l14.76 3.95 -3.96 14.78c-1.09,4.09 -3.72,7.34 -7.1,9.3 -3.39,1.94 -7.52,2.6 -11.61,1.51l-14.76 -3.95zm1.19 32.93l0 0 -10.78 2.88 1.44 -5.39 9.34 2.51zm-2.7 -78.8l0 0c8.96,-5.17 19.93,-6.93 30.72,-4.03l39.09 10.48 -10.48 39.1c-2.88,10.8 -9.87,19.4 -18.85,24.58 -8.96,5.17 -19.92,6.94 -30.72,4.04l-14.76 -3.96 1.63 -6.09 0.01 0 1.64 -6.07 -0.04 -0.01 1.63 -6.09 14.77 3.95c5.76,1.54 11.59,0.6 16.38,-2.16 4.79,-2.75 8.52,-7.34 10.06,-13.11l5.59 -20.83 -20.86 -5.59c-5.76,-1.52 -11.58,-0.6 -16.36,2.16 -4.79,2.76 -8.54,7.34 -10.07,13.11l-14.49 54.06 -7.02 1.89 -0.02 -0.02 0.01 -0.03 -6.99 1.87 -0.02 0.06 -7.02 1.89 17.31 -64.62c2.89,-10.79 9.87,-19.38 18.85,-24.58zm43.63 82.03l-0.01 0c-2.17,-1.24 -4.44,-2.32 -6.79,-3.22 2.35,-0.89 4.62,-1.97 6.79,-3.23l0.01 0c10.35,-5.98 18.44,-15.93 21.79,-28.4l12.1 -45.18 -45.17 -12.1c-12.46,-3.35 -25.11,-1.3 -35.48,4.68l-0.01 0c-2.16,1.24 -4.22,2.67 -6.18,4.25 0.4,-2.47 0.6,-4.97 0.6,-7.47 0,-11.97 -4.57,-23.94 -13.7,-33.07l-33.07 -33.07 -33.06 33.07c-9.13,9.12 -13.71,21.1 -13.71,33.07 0,2.5 0.2,5 0.6,7.47 -1.94,-1.58 -4,-3.02 -6.17,-4.25l-0.02 0c-10.36,-5.98 -23.02,-8.03 -35.47,-4.68l-45.17 12.1 12.1 45.18c3.35,12.47 11.44,22.42 21.79,28.4l0.01 0c2.17,1.26 4.44,2.33 6.79,3.23 -2.35,0.89 -4.61,1.97 -6.79,3.22l-0.01 0c-10.35,5.98 -18.44,15.93 -21.79,28.41l-12.1 45.17 45.17 12.11c12.46,3.34 25.11,1.31 35.47,-4.68l0.02 0c2.16,-1.24 4.22,-2.66 6.17,-4.25 -0.41,2.47 -0.6,4.96 -0.6,7.47 0,11.97 4.58,23.93 13.71,33.07l33.06 33.05 33.07 -33.05c9.14,-9.14 13.7,-21.1 13.7,-33.07 0,-2.51 -0.2,-5 -0.6,-7.47 1.95,1.58 4.01,3.01 6.18,4.25l0.01 0c10.36,5.99 23.02,8.03 35.48,4.68l45.17 -12.11 -12.1 -45.17c-3.35,-12.48 -11.44,-22.43 -21.79,-28.41z"/>
  </g>
 </g>
</svg>
