<svg xmlns="http://www.w3.org/2000/svg" xml:space="preserve" width="50.8mm" height="32.6972mm" version="1.1" style="shape-rendering:geometricPrecision; text-rendering:geometricPrecision; image-rendering:optimizeQuality; fill-rule:evenodd; clip-rule:evenodd"
viewBox="0 0 910.3 585.91"
 xmlns:xlink="http://www.w3.org/1999/xlink">
 <defs>
  <style type="text/css">
   <![CDATA[
    .fil0 {fill:#4D1413}
   ]]>
  </style>
 </defs>
 <g id="Layer_x0020_1">
  <metadata id="CorelCorpID_0Corel-Layer"/>
  <g id="_2477192303680">
   <path class="fil0" d="M132.83 429.19l0 7.68c0,2.93 1.35,5.69 3.66,7.49l22.32 17.41c2.43,1.89 5.97,0.16 5.97,-2.92l0 -145.69 10.79 0c3.08,0 4.81,-3.55 2.92,-5.98l-17.41 -22.32c-1.8,-2.31 -4.56,-3.66 -7.49,-3.66l-4.38 0 -10.4 -8.11c-2.43,-1.89 -5.98,-0.16 -5.98,2.92l0 5.2 -65.53 0 -18.5 -14.43c-2.43,-1.9 -5.97,-0.16 -5.97,2.92l0 11.51 -39.12 0c-3.08,0 -4.81,3.55 -2.92,5.98l17.41 22.32c1.8,2.31 4.56,3.66 7.49,3.66l17.14 0 0 38.37c0,16.1 0.57,34.25 25.41,53.14 8.89,6.76 16.6,12.18 24.08,15.62 -21.23,16.77 -47.8,30.15 -78.68,37.59 -3.79,0.95 -3.29,5.13 1.03,7.01 13.16,5.68 26.79,10.26 40.76,13.69 4.33,1.07 8.9,0.66 12.25,-1.04 26.15,-12.77 48.03,-29.52 65.16,-48.35zm-58.06 -48.76l0 0 0 -67.27 58.06 0 0 38.25c-7.97,14.9 -19.58,31.16 -31.36,39.41 -17.31,12.12 -26.7,1.39 -26.7,-10.38z"/>
   <path class="fil0" d="M350.11 446.18l0 -81.45c3.42,-0.55 5.56,-2.4 2.22,-8.32l-2.22 -4.07 0 -39.18 16.78 0c3.08,0 4.81,-3.55 2.92,-5.98l-17.41 -22.32c-1.8,-2.31 -4.56,-3.66 -7.49,-3.66l-10.38 0 -10.4 -8.11c-2.43,-1.89 -5.98,-0.16 -5.98,2.92l0 5.2 -30.04 0c-3.08,0 -4.81,3.55 -2.92,5.98l17.41 22.32c1.8,2.31 4.56,3.66 7.49,3.66l8.06 0 0 21.99 -43.1 0 0 -49.46c0,-32.08 -39.37,-44.28 -64.25,-36.43 -22.71,7.17 -37.67,26.16 -27.79,52.26 5.69,15.03 21.04,23.2 60.08,23.55l0 10.12c-38.98,0.44 -52.9,10.68 -60.09,23.54 -7.35,13.14 -6.57,40.2 23.58,69.97 30.15,29.77 51.92,24.95 60.05,21.04 8.37,-4.02 8.41,-20.27 8.41,-27.61l0 -57.19 43.1 0 0 71.94c0,0.8 0.12,1.58 0.31,2.34 -1.76,-0.09 -3.52,-0.15 -5.3,-0.15 -18.96,0 -23.73,16.59 -24.87,23.03 -0.27,1.52 0.27,3.05 1.43,4.07l24.12 21.38c1.73,1.53 4.42,0.96 5.36,-1.15 3.01,-6.73 10.45,-18.77 25.22,-18.77 20.5,0 36.63,7.73 36.63,34.95 0,27.22 -24.2,53.09 -72.92,53.09 -61.83,0 -137.77,-51.75 -185.49,-51.75 -36.1,0 -41.43,28.08 -41.88,41.76 -0.15,4.41 1.82,8.61 5.25,11.38l17.89 14.47c3.14,2.54 7.89,0.54 8.17,-3.49 0.67,-9.65 4.73,-23.27 21.31,-28.83 53.09,-17.81 119.97,46.71 202.97,46.71 48.72,0 78.3,-25.54 78.3,-62.17 0,-28.08 -26.87,-62.85 -64.54,-77.56zm-143.43 -165.17l0 0c0,-9.66 8.1,-13.91 19.37,-12.76 11.24,1.15 17.03,10.71 17.06,23.12l0 4.42c-22.95,1.09 -36.43,2.55 -36.43,-14.78zm19.36 142.35l0 0c-11.27,1.15 -14.72,-10.81 -14.72,-20.47 0,-17.23 10.23,-31.56 31.79,-36.29l0 33.55c0,12.45 -5.8,22.05 -17.07,23.2z"/>
   <polygon class="fil0" points="395.62,334.03 417.08,334.03 417.08,374.71 442.12,374.71 442.12,334.03 463.57,334.03 463.57,440.42 442.12,440.42 442.12,393.19 417.08,393.19 417.08,440.42 395.62,440.42 "/>
   <polygon class="fil0" points="540.91,334.03 540.91,351.61 502.91,351.61 502.91,376.65 538.68,376.65 538.68,394.23 502.91,394.23 502.91,422.84 542.4,422.84 542.4,440.42 481.45,440.42 481.45,334.03 "/>
   <polygon class="fil0" points="557.15,440.42 557.15,334.03 578.6,334.03 578.6,440.42 "/>
   <path class="fil0" d="M644.77 365.62c0,-1.89 -0.22,-3.9 -0.67,-6.04 -0.45,-2.13 -1.17,-4.07 -2.16,-5.81 -0.99,-1.73 -2.26,-3.18 -3.8,-4.32 -1.54,-1.14 -3.4,-1.71 -5.59,-1.71 -5.16,0 -8.89,2.88 -11.18,8.64 -2.28,5.76 -3.43,15.3 -3.43,28.61 0,6.46 0.2,12.25 0.6,17.36 0.39,5.12 1.12,9.49 2.16,13.12 1.04,3.63 2.53,6.41 4.47,8.35 1.94,1.94 4.44,2.91 7.53,2.91 1.29,0 2.71,-0.35 4.25,-1.04 1.54,-0.7 2.98,-1.74 4.32,-3.13 1.34,-1.39 2.46,-3.15 3.35,-5.29 0.9,-2.14 1.34,-4.64 1.34,-7.52l0 -10.88 -14.15 0 0 -15.8 34.72 0 0 57.37 -15.8 0 0 -9.84 -0.3 0c-2.59,4.17 -5.69,7.2 -9.31,9.09 -3.63,1.89 -7.97,2.83 -13.04,2.83 -6.55,0 -11.9,-1.22 -16.02,-3.65 -4.12,-2.43 -7.35,-6.03 -9.69,-10.8 -2.33,-4.77 -3.9,-10.65 -4.7,-17.66 -0.79,-7 -1.19,-15.12 -1.19,-24.36 0,-8.94 0.57,-16.79 1.71,-23.54 1.14,-6.76 3.1,-12.39 5.89,-16.91 2.78,-4.52 6.46,-7.92 11.03,-10.21 4.57,-2.28 10.28,-3.43 17.14,-3.43 11.72,0 20.16,2.91 25.33,8.72 5.17,5.81 7.75,14.13 7.75,24.96l-20.57 0z"/>
   <polygon class="fil0" points="683.36,334.03 704.82,334.03 704.82,374.71 729.85,374.71 729.85,334.03 751.31,334.03 751.31,440.42 729.85,440.42 729.85,393.19 704.82,393.19 704.82,440.42 683.36,440.42 "/>
   <polygon class="fil0" points="831.48,334.03 831.48,351.61 808.23,351.61 808.23,440.42 786.77,440.42 786.77,351.61 763.53,351.61 763.53,334.03 "/>
   <path class="fil0" d="M860.98 407.19l0 3.13c0,2.48 0.2,4.74 0.59,6.78 0.39,2.04 1.14,3.75 2.24,5.14 1.09,1.39 2.53,2.48 4.32,3.28 1.79,0.8 4.12,1.19 7,1.19 3.28,0 6.24,-1.07 8.87,-3.2 2.63,-2.13 3.95,-5.44 3.95,-9.91 0,-2.38 -0.32,-4.44 -0.97,-6.18 -0.65,-1.74 -1.72,-3.3 -3.2,-4.69 -1.49,-1.39 -3.45,-2.66 -5.89,-3.8 -2.43,-1.14 -5.44,-2.31 -9.01,-3.5 -4.77,-1.59 -8.89,-3.33 -12.37,-5.21 -3.48,-1.89 -6.38,-4.1 -8.72,-6.63 -2.33,-2.53 -4.05,-5.46 -5.14,-8.79 -1.1,-3.33 -1.64,-7.18 -1.64,-11.55 0,-10.53 2.93,-18.38 8.79,-23.54 5.86,-5.16 13.91,-7.75 24.14,-7.75 4.77,0 9.17,0.52 13.19,1.57 4.02,1.04 7.5,2.73 10.43,5.07 2.93,2.33 5.22,5.32 6.85,8.94 1.64,3.63 2.46,7.97 2.46,13.04l0 2.98 -20.57 0c0,-5.07 -0.89,-8.96 -2.68,-11.7 -1.78,-2.73 -4.77,-4.1 -8.94,-4.1 -2.38,0 -4.37,0.35 -5.96,1.04 -1.59,0.7 -2.86,1.62 -3.8,2.76 -0.95,1.14 -1.59,2.46 -1.94,3.95 -0.35,1.49 -0.52,3.03 -0.52,4.62 0,3.28 0.7,6.03 2.09,8.27 1.39,2.23 4.37,4.3 8.94,6.18l16.54 7.15c3.97,1.79 7.28,3.65 9.91,5.59 2.63,1.94 4.72,4.02 6.26,6.26 1.54,2.23 2.61,4.69 3.21,7.38 0.59,2.68 0.89,5.66 0.89,8.94 0,11.23 -3.25,19.47 -9.76,24.74 -6.51,5.27 -15.57,7.9 -27.19,7.9 -12.12,0 -20.79,-2.71 -26.01,-8.12 -5.21,-5.41 -7.82,-13.04 -7.82,-22.87l0 -4.32 21.46 0z"/>
   <path class="fil0" d="M534.18 125.05l-0.01 0c-1.73,-0.99 -3.54,-1.86 -5.41,-2.57 1.87,-0.71 3.68,-1.57 5.41,-2.57l0.01 0c8.26,-4.77 14.71,-12.7 17.38,-22.65l9.65 -36.03 -36.02 -9.65c-9.94,-2.67 -20.02,-1.04 -28.29,3.73l-0.01 0c-1.73,0.99 -3.37,2.13 -4.92,3.39 0.32,-1.97 0.48,-3.97 0.48,-5.96 0,-9.54 -3.65,-19.09 -10.93,-26.37l-26.37 -26.37 -26.37 26.37c-7.28,7.28 -10.93,16.83 -10.93,26.37 0,1.99 0.16,3.99 0.48,5.96 -1.55,-1.26 -3.2,-2.4 -4.92,-3.39l-0.01 0c-8.27,-4.77 -18.36,-6.4 -28.29,-3.73l-36.02 9.65 9.65 36.03c2.67,9.95 9.12,17.88 17.38,22.65l0.01 0c1.73,1.01 3.54,1.86 5.41,2.57 -1.87,0.71 -3.68,1.57 -5.41,2.57l-0.01 0c-8.26,4.77 -14.71,12.7 -17.38,22.65l-9.65 36.02 36.02 9.66c9.94,2.67 20.02,1.04 28.29,-3.73l0.01 0c1.72,-0.99 3.37,-2.13 4.92,-3.39 -0.32,1.97 -0.48,3.97 -0.48,5.96 0,9.55 3.65,19.09 10.93,26.37l26.37 26.37 26.37 -26.37c7.28,-7.28 10.93,-16.82 10.93,-26.37 0,-1.99 -0.16,-3.99 -0.48,-5.96 1.55,1.26 3.19,2.4 4.92,3.39l0.01 0c8.27,4.77 18.35,6.4 28.29,3.73l36.02 -9.66 -9.65 -36.02c-2.67,-9.95 -9.12,-17.88 -17.38,-22.65zm-34.79 -65.42l0 0c7.15,-4.12 15.88,-5.53 24.5,-3.21l31.18 8.36 -8.36 31.18c-2.3,8.61 -7.88,15.47 -15.04,19.6 -7.15,4.12 -15.88,5.53 -24.5,3.22l-11.77 -3.16 1.3 -4.86 0.01 0 1.31 -4.85 -0.02 -0.01 1.3 -4.86 11.78 3.16c4.59,1.23 9.24,0.48 13.06,-1.72 3.82,-2.2 6.81,-5.86 8.03,-10.45l4.46 -16.62 -16.63 -4.45c-4.59,-1.22 -9.24,-0.47 -13.06,1.73 -3.82,2.2 -6.81,5.86 -8.03,10.45l-11.55 43.12 -5.6 1.51 -0.01 -0.01 0.01 -0.03 -5.57 1.49 -0.01 0.04 -5.61 1.51 13.8 -51.53c2.3,-8.61 7.88,-15.46 15.04,-19.6zm2.15 62.84l0 0 -8.6 2.3 1.15 -4.29 7.45 2zm-0.95 -26.26l0 0 0 -0.01 3.16 -11.78c0.87,-3.26 2.97,-5.85 5.67,-7.4 2.69,-1.55 5.99,-2.08 9.26,-1.21l11.77 3.16 -3.16 11.78c-0.87,3.27 -2.97,5.86 -5.67,7.42 -2.7,1.55 -5.99,2.08 -9.26,1.21l-11.77 -3.16zm-24.54 -5.35l0 0 -3.15 -3.14 5.45 -5.45 -2.3 8.59zm-43.72 -60.93l0 0 22.82 -22.82 22.82 22.82c6.3,6.3 9.46,14.56 9.46,22.82 0,8.26 -3.16,16.52 -9.46,22.82l-8.6 8.62 -7.12 -7.12 -1.66 -1.67 -1.88 -1.88 8.63 -8.63c3.37,-3.37 5.04,-7.77 5.04,-12.18 0,-4.4 -1.68,-8.81 -5.04,-12.17l-12.18 -12.18 -12.17 12.18c-3.36,3.36 -5.04,7.77 -5.04,12.17 0,4.41 1.68,8.81 5.04,12.18l31.57 31.57 0.01 0 -0.89 3.32 -2.11 7.91 -1.5 5.6 -37.73 -37.73c-6.31,-6.3 -9.46,-14.56 -9.46,-22.82 0,-8.26 3.15,-16.52 9.46,-22.82zm22.81 40.03l0 0 -8.61 -8.61c-2.39,-2.39 -3.57,-5.51 -3.57,-8.63 0,-3.11 1.18,-6.23 3.57,-8.61l8.61 -8.61 8.61 8.61c2.39,2.37 3.57,5.5 3.57,8.61 0,3.12 -1.19,6.24 -3.57,8.63l-8.61 8.61zm-3.57 65.93l0 0 -9.81 -9.81 3.58 -13.4 13.4 -3.59 9.81 9.81 -3.59 13.4 -13.4 3.59zm-13.33 -47.31l0 0 -4.3 1.15 -1.99 -7.44 6.29 6.29zm-59.62 26.99l0 0c-7.14,-4.13 -12.73,-10.99 -15.04,-19.6l-8.36 -31.18 31.18 -8.36c8.61,-2.31 17.35,-0.91 24.5,3.22 7.15,4.14 12.73,10.99 15.04,19.6l3.15 11.77 -4.85 1.3 -0 -0.01 -4.83 1.3 0 0.01 -4.86 1.3 -3.16 -11.77c-1.23,-4.59 -4.21,-8.25 -8.03,-10.45 -3.82,-2.2 -8.47,-2.95 -13.06,-1.72l-16.63 4.45 4.45 16.62c1.24,4.59 4.21,8.25 8.03,10.45 3.8,2.2 8.45,2.95 13.05,1.73l43.12 -11.55 0.01 -0.01 4.11 4.11 -0.01 0 4.09 4.08 -0.08 0.04 0.07 -0.02 4.11 4.11 -51.53 13.81c-8.61,2.31 -17.35,0.9 -24.5,-3.22zm31.08 -19.35l0 0 -11.77 3.16c-3.27,0.87 -6.56,0.34 -9.26,-1.21 -2.69,-1.57 -4.8,-4.16 -5.67,-7.41l-3.16 -11.78 11.77 -3.16c3.27,-0.87 6.56,-0.34 9.26,1.21 2.7,1.57 4.8,4.15 5.67,7.42l3.15 11.78zm7.65 23.95l0 0 -1.15 4.29 -7.45 -2 8.6 -2.3zm-6.43 65.13l0 0c-7.15,4.13 -15.89,5.53 -24.5,3.22l-31.18 -8.36 8.36 -31.18c2.3,-8.62 7.88,-15.47 15.04,-19.6 7.15,-4.12 15.88,-5.53 24.5,-3.22l11.67 3.13c0.05,0 0.15,0.01 0.15,0.01l-3.24 12c0,0 -0.01,-0 -0.01,-0l-0.69 2.58 -11.78 -3.16c-4.59,-1.22 -9.24,-0.48 -13.06,1.73 -3.82,2.2 -6.8,5.86 -8.03,10.45l-4.45 16.62 16.63 4.45c4.58,1.22 9.23,0.47 13.04,-1.73 3.82,-2.2 6.81,-5.86 8.03,-10.45l11.55 -43.12 5.6 -1.51 0.03 0 -0.01 0.03 5.57 -1.49 0.01 -0.04 5.6 -1.5 0.01 0 -13.81 51.53c-2.3,8.61 -7.88,15.47 -15.03,19.6zm-1.21 -36.61l0 0 0 0.01 -3.15 11.78c-0.87,3.25 -2.97,5.85 -5.67,7.4 -2.69,1.55 -5.99,2.08 -9.26,1.21l-11.77 -3.16 3.16 -11.79c0.87,-3.27 2.97,-5.86 5.67,-7.42 2.7,-1.55 5.99,-2.08 9.26,-1.21l11.77 3.16zm24.56 5.35l0 0 3.14 3.14 -5.44 5.45 2.3 -8.59zm43.7 60.98l0 0 -22.82 22.82 -22.82 -22.82c-6.3,-6.3 -9.46,-14.56 -9.46,-22.82 0,-8.26 3.16,-16.52 9.46,-22.82l8.63 -8.63 0.02 0.02c0,-0 0.03,-0.04 0.03,-0.04l8.79 8.79c0,0 -0.03,0.02 -0.04,0.03l1.85 1.85 -8.62 8.61c-3.36,3.37 -5.04,7.77 -5.04,12.18 0,4.41 1.68,8.81 5.04,12.17l12.17 12.18 12.18 -12.18c3.37,-3.36 5.04,-7.77 5.04,-12.17 0,-4.4 -1.68,-8.81 -5.04,-12.18l-31.57 -31.57 1.5 -5.6 0.03 0.03 1.49 -5.6 -0.03 -0.03 1.5 -5.59 37.71 37.71c6.3,6.3 9.46,14.56 9.46,22.82 0,8.26 -3.15,16.52 -9.46,22.82zm-22.81 -40.08l0 0 8.62 8.63c2.39,2.37 3.57,5.5 3.57,8.61 0,3.12 -1.19,6.24 -3.57,8.63l-8.62 8.61 -8.61 -8.61c-2.39,-2.39 -3.57,-5.51 -3.57,-8.63 0,-3.11 1.19,-6.23 3.57,-8.61l8.61 -8.63zm16.91 -18.6l0 0 4.3 -1.15 1.99 7.44 -6.29 -6.29zm51.85 32.17l0 0c-8.62,2.31 -17.35,0.9 -24.5,-3.22 -7.15,-4.14 -12.73,-10.99 -15.04,-19.61l-3.16 -11.78 12 -3.23 0 0 2.55 -0.68 3.16 11.77c1.24,4.59 4.21,8.25 8.03,10.45 3.82,2.2 8.47,2.95 13.06,1.73l16.63 -4.45 -4.45 -16.62c-1.23,-4.59 -4.21,-8.25 -8.03,-10.45 -3.82,-2.2 -8.47,-2.95 -13.06,-1.73l-43.12 11.55 -2.41 -2.41 -0 0 -5.8 -5.78 0.02 -0.01 -4.1 -4.1 51.52 -13.8c8.61,-2.3 17.35,-0.91 24.5,3.22 7.15,4.13 12.73,10.99 15.04,19.61l8.36 31.18 -31.18 8.36zm-23.31 -39.81l0 0 11.77 -3.16c3.27,-0.87 6.56,-0.34 9.26,1.21 2.69,1.55 4.8,4.15 5.67,7.4l3.16 11.79 -11.77 3.16c-3.27,0.87 -6.56,0.34 -9.26,-1.21 -2.69,-1.57 -4.8,-4.15 -5.67,-7.41l-3.15 -11.77z"/>
  </g>
 </g>
</svg>
