<svg xmlns="http://www.w3.org/2000/svg" xml:space="preserve" width="44.7542mm" height="25.4mm" version="1.1" style="shape-rendering:geometricPrecision; text-rendering:geometricPrecision; image-rendering:optimizeQuality; fill-rule:evenodd; clip-rule:evenodd"
viewBox="0 0 2609.16 1480.82"
 xmlns:xlink="http://www.w3.org/1999/xlink">
 <defs>
  <style type="text/css">
   <![CDATA[
    .fil1 {fill:#9E0A0F}
    .fil0 {fill:#9E0A0F;fill-rule:nonzero}
   ]]>
  </style>
 </defs>
 <g id="Layer_x0020_1">
  <metadata id="CorelCorpID_0Corel-Layer"/>
  <g id="Pride-Aura-Logo-Final.cdr">
   <path class="fil0" d="M62.09 1468.72l264.23 -603.09 264.23 603.09 5.04 12.1 44.37 0 -13.11 -28.23 -282.39 -645.45 -5.04 -12.1 -26.22 0 -5.04 12.1 -282.39 645.45 -13.11 28.23 44.37 0 5.04 -12.1zm667.63 -653.52l0 443.74c0,64.54 25.89,119.01 77.66,163.38 47.07,39 101.86,58.49 164.39,58.49 73.29,0 134.14,-25.21 182.54,-75.64 39.67,-42.35 59.5,-91.1 59.5,-146.23l1.01 -442.73 1.01 -20.17 -42.35 0 0 19.16 0 443.74c0,56.48 -23.87,102.87 -71.6,139.17 -38.33,28.24 -81.69,42.36 -130.1,42.36 -63.87,0 -115.98,-22.19 -156.32,-66.56 -30.25,-33.62 -45.38,-71.94 -45.38,-114.97l1.01 -442.73 1.01 -20.17 -42.36 0 0 19.16zm1018.6 336.84c57.82,-13.45 100.85,-44.04 129.09,-91.78 14.79,-26.22 22.18,-53.79 22.18,-82.7 0,-55.8 -23.53,-102.19 -70.6,-139.17 -38.32,-28.91 -82.36,-43.37 -132.11,-43.37l-280.37 1.01 -20.17 0 0 20.17 -1.01 321.72 0 20.17 0 302.55 0 20.17 40.34 0 0 -20.17 0 -302.55 256.16 0c36.31,26.22 65.22,58.5 86.73,96.82 24.88,45.72 52.1,116.32 81.69,211.79l4.03 14.11 42.35 0 -8.07 -26.22c-41.68,-138.5 -83.37,-231.29 -125.05,-278.35 -8.07,-8.74 -16.47,-16.81 -25.21,-24.2zm-115.98 -34.29l-1.01 0 -1.01 0 -1.01 0 -1.01 0 -1.01 0 -1.01 0 -1.01 0 -1.01 0 -1.01 0 -1.01 0 -1.01 0 -1.01 0 -1.01 0 -1.01 0 -1.01 0 -1.01 0 -1.01 0 -1.01 0 -1.01 0 -1.01 0 -1.01 0 -1.01 0 -1.01 0 -1.01 0 -1.01 0 -1.01 0 -1.01 0 -1.01 0 -1.01 0 -1.01 0 -1.01 0 -1.01 0 -1.01 0 -1.01 0 -1.01 0 -1.01 0 -1.01 0 -1.01 0 -1.01 0 -1.01 0 -1.01 0 -1.01 0 -1.01 0 -1.01 0 -1.01 0 -1.01 0 -1.01 0 -1.01 0 -1.01 0 -1 0 -1.01 0 -1 0 -1.01 0 -1.01 0 -1.01 0 -1.01 0 -1 0 -1.01 0 -1 0 -1.01 0 -1 0 -1.01 0 -1 0 -1.01 0 -1.01 0 -1.01 0 -1.01 0 -1.01 0 -1.01 0 -1.01 0 -1.01 0 -1.01 0 -1.01 0 -1.01 0 -1.01 1.01 -1.01 0 -1.01 0 -1.01 0 -1.01 0 -1.01 0 -1.01 0 -1.01 0 -1.01 0 -1.01 0 -1.01 0 -1.01 0 -1.01 0 -1.01 0 -1.01 0 -1.01 0 -1.01 0 -1.01 0 -1.01 0 -1.01 0 -1.01 0 -1.01 0 -1.01 0 -1.01 0 -1.01 0 -1.01 0 -1.01 0 -1.01 0 -1.01 0 -1.01 0 -1.01 0 -1.01 0 -1.01 0 -1.01 0 -1.01 0 -1.01 0 -1.01 0 -1.01 0 -1.01 0 -1.01 0 -1.01 0 -1.01 0 -1.01 0 -1.01 0 -1.01 0 -1.01 0 -1.01 0 -1.01 0 -1.01 0 -1.01 0 -1.01 0 -1.01 0 -1.01 0 -1.01 0 -1 0 -1.01 0 -1 0 -1.01 0 -1.01 0 -1.01 0 -1.01 0 -1 0 -1.01 0 -1 0 -1.01 0 -1 0 -1.01 0 -1 0 -1.01 0 -1.01 0 -1.01 0 -1.01 0 -1.01 0 -1.01 0 -1.01 0 -1.01 0 -1.01 0 -1.01 0 -1.01 0 -1.01 0 -1.01 0 -1.01 0 -1.01 0 -1.01 0 -1.01 0 -1.01 0 -1.01 0 -1.01 0 -1.01 0 -1.01 0 -1.01 0 -1.01 0 -1.01 0 -1.01 0 -1.01 0 -1.01 0 -1.01 0 -1.01 0 -1.01 0 -1.01 0 -1.01 0 -1.01 0 -1.01 0 -1.01 0 -1.01 0 -1.01 0 -1.01 0 -1.01 0 -1.01 0 -1.01 0 -1.01 0 -1.01 0 -1.01 0 -1.01 0 -1.01 0 -1.01 0 -1.01 0 -1.01 0 -1.01 0 -2.02 0 0 -283.39 261.21 0c54.46,0 97.83,19.16 130.1,57.48 21.52,25.55 32.27,53.79 32.27,84.72 0,45.72 -20.84,82.7 -62.53,110.93 -29.59,19.5 -62.53,29.25 -98.84,29.25l-65.55 0zm386.26 350.96l264.23 -603.09 264.23 603.09 5.04 12.1 44.37 0 -13.11 -28.23 -282.39 -645.45 -5.04 -12.1 -26.22 0 -5.04 12.1 -282.39 645.45 -13.11 28.23 44.37 0 5.04 -12.1z"/>
   <path class="fil0" d="M121.61 116.51l182.42 0c154.78,0 155.7,228.48 0,228.48l-182.42 0 0 -228.48zm182.42 -116.09c-101.35,-0.93 -202.69,0 -304.03,0l0 645.84 121.61 0 0 -189.79 182.42 0c316.01,0 315.09,-456.05 0,-456.05zm890.91 637.55l-195.32 -220.2c122.53,-24.87 163.07,-114.24 163.07,-203.15 0,-111.94 -80.15,-213.29 -232.17,-214.21 -102.26,0.92 -204.53,0 -306.8,0l0 645.84 121.61 0 0 -215.59 117.01 0 187.95 215.59 144.65 0 0 -8.29zm-264.42 -524.23c76.47,0 110.56,51.75 110.56,103.65 0,51.9 -33.17,103.65 -110.56,103.65l-185.18 0 0 -207.3 185.18 0zm435.79 532.52l0 -645.84 -120.69 0 0 645.84 120.69 0zm359.31 -645.84c-79.24,0 -174.13,0 -253.37,0l0 645.84c79.24,0 174.13,0 253.37,0 225.72,0 325.22,-164.91 322.46,-328.45 -2.77,-159.85 -101.35,-317.39 -322.46,-317.39zm-132.67 115.16l132.67 0c140.04,0 199,100.58 201.77,201.31 2.76,105.34 -55.28,212.36 -201.77,212.36l-132.67 0 0 -413.67zm1016.21 410.91l-362.08 0 0 -145.57 349.18 0 0 -113.32 -349.18 0 0 -149.25 362.08 0 0 -117.93 -482.77 0c0,215.28 0,431.17 0,645.84l482.77 0 0 -119.77z"/>
   <path class="fil1" d="M326.33 1249.49c19.4,0 35.13,15.72 35.13,35.13 0,19.4 -15.73,35.13 -35.13,35.13 -19.41,0 -35.14,-15.73 -35.14,-35.13 0,-19.41 15.73,-35.13 35.14,-35.13z"/>
   <path class="fil1" d="M2282.89 1249.49c19.4,0 35.13,15.72 35.13,35.13 0,19.4 -15.73,35.13 -35.13,35.13 -19.41,0 -35.14,-15.73 -35.14,-35.13 0,-19.41 15.73,-35.13 35.14,-35.13z"/>
  </g>
 </g>
</svg>
