<svg xmlns="http://www.w3.org/2000/svg" xml:space="preserve" width="54.6532mm" height="27.2045mm" version="1.1" style="shape-rendering:geometricPrecision; text-rendering:geometricPrecision; image-rendering:optimizeQuality; fill-rule:evenodd; clip-rule:evenodd"
viewBox="0 0 8380.58 4171.57"
 xmlns:xlink="http://www.w3.org/1999/xlink">
 <defs>
  <style type="text/css">
   <![CDATA[
    .fil0 {fill:#6B0000;fill-rule:nonzero}
   ]]>
  </style>
 </defs>
 <g id="Layer_x0020_1">
  <metadata id="CorelCorpID_0Corel-Layer"/>
  <g id="_2682198805120">
   <path class="fil0" d="M1147.34 2924.47c0,-133.02 -59.86,-243.6 -179.58,-331.74 -104.76,-78.14 -227.82,-117.23 -369.15,-117.23 -177.92,0 -321.76,57.36 -431.5,172.11 -78.14,81.45 -117.23,173.77 -117.23,276.86 0,129.68 95.62,241.1 286.82,334.22 39.93,19.95 165.47,70.66 376.64,152.14 189.56,74.82 306.79,145.49 351.69,211.99 21.61,31.6 32.43,64.86 32.43,99.78 0,106.4 -59.86,195.39 -179.58,266.87 -94.8,54.88 -201.21,82.31 -319.27,82.31 -162.96,0 -295.15,-45.71 -396.57,-137.18 -66.52,-63.19 -100.61,-133.85 -102.28,-212.01l-99.76 0c0,126.37 61.54,234.44 184.58,324.24 116.39,83.14 254.41,124.71 414.04,124.71 187.9,0 342.55,-56.54 463.92,-169.6 88.13,-84.81 133.04,-177.92 134.69,-279.36 0,-131.35 -95.61,-244.44 -286.84,-339.21 -41.57,-19.95 -167.94,-71.5 -379.12,-154.64 -189.56,-73.16 -306.79,-143.01 -351.69,-209.51 -19.95,-29.93 -29.93,-61.54 -29.93,-94.78 0,-111.42 55.72,-202.04 167.11,-271.87 84.81,-51.54 178.76,-77.33 281.86,-77.33 147.99,0 267.7,46.59 359.17,139.69 59.86,63.18 89.8,133.02 89.8,209.51l99.76 0zm414.02 -399.09l0 1596.3 0 49.88 99.76 0 0 -49.88 0 -1596.3 0 -49.88 -99.76 0 0 49.88zm1237.12 848.04l643.5 0c0,184.58 -63.99,346.69 -192.04,486.37 -129.68,139.66 -281.01,210.34 -453.94,212.01 -182.92,0 -338.38,-75.67 -466.43,-226.96 -123.04,-146.35 -184.56,-320.11 -184.56,-521.3 0,-214.49 68.18,-395.76 204.53,-543.75 126.37,-134.66 275.2,-202.85 446.47,-204.53 159.63,-1.66 302.62,51.55 428.99,159.64 54.88,46.55 95.62,96.44 122.23,149.65l89.8 -44.9c-59.86,-116.4 -161.3,-210.35 -304.31,-281.83 -111.4,-54.9 -223.63,-82.33 -336.71,-82.33 -202.87,0 -376.64,79.81 -521.28,239.46 -153,166.27 -229.49,369.12 -229.49,608.58 0,241.11 76.49,443.97 229.49,608.6 144.65,159.61 318.41,239.43 521.28,239.43 199.53,0 371.64,-78.16 516.28,-234.46 151.33,-169.6 227.82,-374.12 229.49,-613.56l0 -49.88 -743.29 0 0 99.76zm1242.12 748.26l0 -1441.65 1055.05 1471.58 14.97 19.95 74.82 0 0 -49.88 2.5 -1596.3 0 -49.88 -99.78 0 0 49.88 -2.48 1441.65 -1055.03 -1471.58 -14.98 -19.95 -74.83 0 0 49.88 0 1596.3 0 49.88 99.78 0 0 -49.88zm2793.51 -1646.18l-1097.46 0 -49.88 0 0 49.88 0 748.27 0 99.76 0 748.26 0 49.88 49.88 0 1097.46 0 49.88 0 0 -99.76 -49.88 0 -1047.55 0 0 -698.38 753.23 0 49.88 0 0 -99.76 -49.88 0 -753.23 0 0 -698.39 1047.55 0 49.88 0 0 -99.76 -49.88 0zm950.3 0l-99.78 0 -551.22 0 -49.88 0 0 99.76 49.88 0 551.22 0 0 1546.41 0 49.88 99.78 0 0 -49.88 0 -1546.41 546.23 0 49.88 0 0 -99.76 -49.88 0 -546.23 0z"/>
   <path class="fil0" d="M390.68 374.18l585.92 0c497.16,0 500.12,733.87 0,733.87l-585.92 0 0 -733.87zm585.92 -372.86c-325.51,-2.96 -651.02,0 -976.51,0l0 2074.38 390.59 0 0 -609.58 585.92 0c1015.03,0 1012.07,-1464.81 0,-1464.81zm2861.57 2047.76l-627.33 -707.25c393.55,-79.89 523.75,-366.93 523.75,-652.5 0,-359.52 -257.44,-685.04 -745.71,-688.01 -328.44,2.97 -656.94,0 -985.42,0l0 2074.38 390.62 0 0 -692.44 375.82 0 603.67 692.44 464.59 0 0 -26.62zm-849.29 -1683.76c245.62,0 355.11,166.21 355.11,332.89 0,166.7 -106.53,332.9 -355.11,332.9l-594.79 0 0 -665.79 594.79 0zm1399.71 1710.38l0 -2074.38 -387.65 0 0 2074.38 387.65 0zm1154.11 -2074.38c-254.5,0 -559.3,0 -813.8,0l0 2074.38c254.5,0 559.3,0 813.8,0 725,0 1044.59,-529.69 1035.73,-1054.94 -8.89,-513.42 -325.51,-1019.44 -1035.73,-1019.44zm-426.13 369.9l426.13 0c449.8,0 639.2,323.04 648.07,646.56 8.86,338.35 -177.54,682.11 -648.07,682.11l-426.13 0 0 -1328.67zm3264.02 1319.79l-1162.97 0 0 -467.54 1121.52 0 0 -364 -1121.52 0 0 -479.36 1162.97 0 0 -378.8 -1550.63 0c0,691.48 0,1384.9 0,2074.38l1550.63 0 0 -384.69z"/>
  </g>
 </g>
</svg>
