<svg width="144" height="59" viewBox="0 0 144 59" fill="none" xmlns="http://www.w3.org/2000/svg">
<path d="M37.1299 9.79688C44.1865 9.79688 49.9171 15.5633 49.9171 22.6821C49.9171 23.7944 49.7747 24.8709 49.5167 25.9031C49.223 27.0421 48.7781 28.1281 48.2086 29.1247C47.648 30.1036 46.9628 31.0019 46.1708 31.7938C43.8572 34.1253 40.6626 35.5673 37.1388 35.5673V35.3978C37.0142 31.7227 35.4392 28.4218 32.9832 26.0548C30.7229 23.8746 27.6974 22.486 24.3694 22.3259C24.4584 18.9088 25.8732 15.83 28.1067 13.5698C30.4026 11.2384 33.5972 9.79688 37.1299 9.79688ZM24.3516 48.452C31.4081 48.452 37.1388 42.6862 37.1388 35.5673H24.3516V48.452ZM82.2723 48.4787H84.141V36.3411L82.1833 36.6973V40.7462C81.507 40.1411 80.6349 39.7851 79.6917 39.7851C77.4136 39.7851 75.4827 41.7782 75.4827 44.2431C75.4827 46.708 77.387 48.7012 79.6561 48.7012C80.6705 48.7012 81.5782 48.2921 82.2723 47.6158V48.4787ZM93.6624 46.8415L92.0784 45.7204C91.6157 46.4323 90.8327 46.8236 89.9784 46.8236C88.7504 46.8236 87.7893 46.0228 87.5224 44.9372H93.9027C93.9383 44.6524 93.9561 44.4036 93.9561 44.101C93.9561 41.645 92.2653 39.7851 89.8182 39.7851C87.2199 39.7851 85.449 41.7782 85.449 44.2431C85.449 46.708 87.3711 48.7012 89.9606 48.7012C91.5001 48.6923 92.8437 47.9805 93.6624 46.8415ZM100.345 41.8315V39.9986C100.043 39.9452 99.8113 39.9094 99.5087 39.9094C98.3697 39.9094 97.4621 40.479 97.1773 41.3867V39.9094L95.2552 40.2656V48.4787H97.2129V41.8315H100.345ZM70.2948 41.6537C71.505 41.6537 72.2169 42.401 72.2169 43.9315V48.4787H74.1746V43.6645C74.1746 41.5466 73.0356 39.7762 70.7308 39.7762C69.663 39.7762 68.7375 40.1853 68.0434 40.8616V39.9005L66.1748 40.2567V48.4698H68.1324V42.7837C68.5863 42.0985 69.3516 41.6537 70.2948 41.6537ZM80.0298 46.8236C78.6061 46.8236 77.4848 45.6669 77.4848 44.2431C77.4848 42.8194 78.6061 41.6626 80.0298 41.6626C80.9375 41.6626 81.7384 42.1432 82.1833 42.8729V45.6134C81.7384 46.3431 80.9375 46.8236 80.0298 46.8236ZM89.8093 41.5645C90.9305 41.5645 91.7136 42.2767 91.9094 43.3445H87.5046C87.7626 42.3123 88.5813 41.5645 89.8093 41.5645ZM62.6153 48.4787H64.573V39.9986H62.6153V48.4787ZM54.1439 36.4303V48.4787H56.1906V43.6645H60.5598V41.6894H56.1906V38.4059H61.1471V36.4303H54.1439ZM63.5764 36.2703C62.8645 36.2703 62.2594 36.8573 62.2594 37.587C62.2594 38.3167 62.8645 38.9216 63.5764 38.9216C64.3061 38.9216 64.929 38.3167 64.929 37.587C64.929 36.8573 64.3061 36.2703 63.5764 36.2703ZM83.874 31.073C86.152 31.073 88.083 29.0799 88.083 26.615C88.083 24.159 86.1787 22.157 83.9096 22.157C82.9129 22.157 82.0053 22.5666 81.3112 23.2251V22.2813L79.4425 22.6375V34.0811H81.4002V30.1209C82.0765 30.7171 82.9308 31.073 83.874 31.073ZM97.4176 29.2133L95.8337 28.0923C95.3709 28.8042 94.5879 29.1955 93.7336 29.1955C92.5234 29.1955 91.5801 28.4125 91.2776 27.3447H97.6579C97.6935 27.0422 97.7112 26.7932 97.7112 26.4729C97.7112 24.0169 96.0205 22.157 93.5734 22.157C90.975 22.157 89.2042 24.1501 89.2042 26.615C89.2042 29.071 91.1263 31.073 93.7158 31.073C95.2641 31.073 96.5989 30.3613 97.4176 29.2133ZM68.8888 24.2123V22.3705C68.5863 22.3171 68.3549 22.2813 68.0524 22.2813C66.9311 22.2813 66.0235 22.8509 65.7388 23.7586V22.2813L63.8166 22.6375V30.8506H65.7565V24.2034H68.8888V24.2123ZM104.109 24.2123V22.3705C103.807 22.3171 103.575 22.2813 103.273 22.2813C102.152 22.2813 101.244 22.8509 100.959 23.7586V22.2813L99.0193 22.6375V30.8506H100.977V24.2034H104.109V24.2123ZM110.863 30.5039L110.098 28.8131C109.724 28.9911 109.208 29.2044 108.603 29.2044C107.553 29.2044 107.019 28.5459 107.019 27.5136V24.2123H110.249V22.3705H107.019V19.9143L105.079 20.2705V27.5047C105.079 29.676 106.272 31.073 108.541 31.073C109.502 31.073 110.312 30.753 110.863 30.5039ZM73.7207 29.1955C72.3681 29.1955 71.2825 28.0744 71.2825 26.615C71.2825 25.1556 72.3681 24.0345 73.7207 24.0345C75.0555 24.0345 76.1589 25.1556 76.1589 26.615C76.1589 28.0744 75.0555 29.1955 73.7207 29.1955ZM83.5358 29.1955C82.646 29.1955 81.8451 28.7328 81.4002 28.0209V25.2091C81.8451 24.4972 82.646 24.0345 83.5358 24.0345C84.9596 24.0345 86.0808 25.1912 86.0808 26.615C86.0808 28.0388 84.9596 29.1955 83.5358 29.1955ZM93.5734 23.9542C94.7124 23.9542 95.4777 24.6663 95.6735 25.7164H91.2687C91.5267 24.7108 92.3454 23.9542 93.5734 23.9542ZM115.206 34.0811L120.198 22.3705H118.027L115.642 28.1458L113.204 22.3705H111.015L114.601 30.495L113.088 34.0811H115.206ZM73.7207 31.073C76.1411 31.073 78.1433 29.1155 78.1433 26.615C78.1433 24.1234 76.15 22.157 73.7207 22.157C71.2825 22.157 69.2804 24.1145 69.2804 26.615C69.2804 29.1066 71.2736 31.073 73.7207 31.073ZM58.5131 20.7867C59.6343 20.7867 60.453 21.5695 60.453 22.584C60.453 23.6162 59.6166 24.4526 58.4775 24.4526H56.2173V20.7778H58.5131V20.7867ZM58.5843 18.8111H54.1439V30.8595H56.2084V26.4372H58.5042C60.7467 26.4372 62.5709 24.7463 62.5709 22.584C62.5798 20.4483 60.7911 18.8111 58.5843 18.8111Z" fill="#B9B9B9"/>
</svg>
