<svg xmlns="http://www.w3.org/2000/svg" xml:space="preserve" width="50.8mm" height="30.3146mm" version="1.1" style="shape-rendering:geometricPrecision; text-rendering:geometricPrecision; image-rendering:optimizeQuality; fill-rule:evenodd; clip-rule:evenodd"
viewBox="0 0 1618.48 965.82"
 xmlns:xlink="http://www.w3.org/1999/xlink">
 <defs>
  <style type="text/css">
   <![CDATA[
    .fil1 {fill:#ECC18B}
    .fil0 {fill:#FFC57F}
   ]]>
  </style>
 </defs>
 <g id="Layer_x0020_1">
  <metadata id="CorelCorpID_0Corel-Layer"/>
  <g id="_2478385928336">
   <path class="fil0" d="M153.34 755.82l0 21.91 -153.34 0 0 -263.31 145.61 0 0 21.9 -101.8 0 0 95.78 92.78 0 0 22.77 -92.78 0 0 100.94 109.53 0zm51.74 -438.82l-51.55 0 0 170.8 59.62 0c19.7,0 33.63,-4.32 41.8,-12.95 8.17,-8.64 12.26,-19.55 12.26,-32.73 0,-9.86 -2.6,-18.68 -7.81,-26.48 -5.19,-7.81 -13.47,-13.29 -24.8,-16.44 8.92,-3.53 15.28,-8.68 19.09,-15.47 3.81,-6.78 5.71,-14.44 5.71,-22.98 0,-13.19 -4.22,-23.78 -12.68,-31.76 -8.44,-7.99 -22.33,-11.98 -41.65,-11.98zm-147.96 0l-57.12 0 0 170.8 28.42 0 0 -72.72 13.09 0c6.69,0 11.65,0.88 14.91,2.64 8.72,4.72 18.25,35.28 41.59,65.5 1.21,1.56 2.41,3.08 3.64,4.57l33.75 0c-6.67,-6.28 -13.2,-13.43 -19.53,-21.56 -19.51,-25.07 -27.17,-50.23 -36.73,-53.67 12.07,-3.16 20.57,-8.78 25.5,-16.87 4.92,-8.08 7.38,-17.32 7.38,-27.72 0,-14.12 -4.1,-26.14 -12.27,-36.09 -8.17,-9.94 -22.38,-14.9 -42.63,-14.9zm-3.06 87.77c10.03,0 17.46,-3.58 22.28,-10.73 4.83,-7.16 7.24,-15.83 7.24,-26.05 0,-11.34 -2.42,-20.9 -7.24,-28.7 -4.83,-7.8 -12.25,-11.7 -22.28,-11.7l-25.64 0 0 77.18 25.64 0zm190.28 406.92c98.09,29.01 224.57,174.29 466.17,113.06 -233.73,102.81 -355.78,-12.11 -469.34,-76.45 -2.69,55.66 -21.78,88.18 -45.66,103.53 -15.16,9.74 -32.01,12.65 -48.13,10.2 -15.67,-2.39 -30.62,-9.91 -42.49,-21.17 -21.49,-20.37 -33.01,-52.97 -20.36,-89.23 5.94,-17 15.69,-30.16 28.41,-39.54 13.12,-9.71 29.05,-15.19 46.88,-16.61 14.94,-1.19 28.87,-0.26 42.06,2.29l0 -283.36 43.33 0 -0.87 297.27zm99.29 -134.48l0 0.86c0,30.36 3.64,51.83 10.95,64.43 7.31,12.6 19.83,18.91 37.59,18.91 29.2,0 44.52,-15.03 45.97,-45.1l35.64 1.72c-2,20.04 -9.3,35.87 -21.91,47.46 -12.6,11.6 -32.92,17.4 -60.98,17.4 -32.36,0 -55.56,-8.95 -69.59,-26.85 -14.02,-17.9 -21.04,-45.03 -21.04,-81.4 0,-32.64 6.66,-58.84 19.98,-78.6 13.3,-19.76 36.72,-29.63 70.22,-29.63 32.36,0 54.84,9.81 67.43,29.42 12.6,19.62 18.9,45.31 18.9,77.1l0 4.29 -133.15 0zm414.07 -110.81c22.04,0 38.44,5.72 49.18,17.18 10.74,11.45 16.1,27.63 16.1,48.53l0 145.62 -42.95 0 0 -146.9c0,-13.17 -3,-23.2 -9.02,-30.07 -6.02,-6.87 -14.76,-10.3 -26.2,-10.3 -17.18,0 -33.08,6.3 -47.68,18.9 2,8.02 3,15.61 3,22.76l0 145.62 -43.81 0 0 -146.9c0,-26.92 -12.02,-40.38 -36.07,-40.38 -16.33,0 -31.51,6.01 -45.54,18.04l0 169.24 -43.38 0 0 -206.18 0 -5.15 43.38 0 0 20.21c7.12,-5.06 14.86,-9.36 23.19,-12.92 11.46,-4.87 23.34,-7.29 35.65,-7.29 27.5,0 46.53,8.87 57.12,26.63 8.89,-7.73 19.13,-14.1 30.71,-19.12 11.59,-5.01 23.7,-7.51 36.3,-7.51zm160.64 110.81l0 0.86c0,30.36 3.64,51.83 10.96,64.43 7.3,12.6 19.83,18.91 37.58,18.91 29.21,0 44.53,-15.03 45.96,-45.1l35.65 1.72c-2,20.04 -9.31,35.87 -21.9,47.46 -12.6,11.6 -32.93,17.4 -61,17.4 -32.36,0 -55.55,-8.95 -69.58,-26.85 -14.03,-17.9 -21.04,-45.03 -21.04,-81.4 0,-32.64 6.66,-58.84 19.97,-78.6 13.31,-19.76 36.73,-29.63 70.22,-29.63 32.36,0 54.84,9.81 67.45,29.42 12.59,19.62 18.89,45.31 18.89,77.1l0 4.29 -133.16 0zm293.8 -110.81c44.09,0 66.14,21.9 66.14,65.71l0 145.62 -43.38 0 0 -142.18c0,-15.46 -2.72,-26.85 -8.16,-34.15 -5.44,-7.29 -14.04,-10.95 -25.77,-10.95 -17.47,0 -34.65,6.59 -51.55,19.76l0 167.52 -43.38 0 0 -206.18 0 -5.15 43.38 0 0 21.33c8.31,-5.61 17.26,-10.29 26.84,-14.04 12.46,-4.87 24.4,-7.29 35.87,-7.29zm228.94 204.02c-15.18,8.3 -29.79,12.46 -43.81,12.46 -14.32,0 -24.99,-2.64 -32.01,-7.94 -7.01,-5.3 -11.37,-11.67 -13.09,-19.12 -1.71,-7.44 -2.58,-16.61 -2.58,-27.5 0,-63.53 0,-124.66 0,-187.49 -96.48,-28.97 -146.15,-175.18 -319.45,-130.35 160.75,-80.37 208.95,29.37 322.52,93.72 0,0 17.01,10.64 32.72,14.48 14.47,4.5 29.69,6.6 46.03,5.3 11.74,-0.93 21.88,-4.28 29.79,-10.13 7.43,-5.49 13.22,-13.42 16.86,-23.86 7.8,-22.33 0.97,-42.16 -11.93,-54.38 -6.96,-6.59 -15.62,-10.99 -24.61,-12.36 -8.55,-1.29 -17.44,0.2 -25.33,5.28 -14.9,9.51 -27,31.23 -30.07,69.48 -0.25,-0.06 -0.51,-0.11 -0.74,-0.17 -12.68,-3.1 -26.23,-10.65 -30.96,-13.43 5.77,-43.73 23,-70.31 43.9,-83.73 15.15,-9.73 32.01,-12.65 48.12,-10.2 15.67,2.38 30.62,9.92 42.49,21.16 21.49,20.38 33.02,52.98 20.37,89.24 -5.94,17 -15.69,30.16 -28.41,39.54 -13.13,9.7 -29.07,15.19 -46.89,16.61 -14.38,1.14 -27.84,0.33 -40.59,-2.03l0 178.48c0,9.45 1.22,15.97 3.64,19.54 2.44,3.59 6.52,5.37 12.25,5.37 8.02,0 16.75,-2.58 26.21,-7.73l5.58 19.76zm116.83 -111.25c21.19,5.72 36.58,13.03 46.17,21.9 9.6,8.88 14.39,21.76 14.39,38.66 0,19.48 -6.8,34.86 -20.41,46.18 -13.6,11.31 -32.85,16.97 -57.77,16.97 -26.91,0 -46.96,-5.51 -60.13,-16.54 -13.17,-11.03 -21.2,-26.99 -24.07,-47.9l35.66 -4.29c1.43,14.89 6.15,26.48 14.17,34.79 8.02,8.3 19.48,12.45 34.36,12.45 12.03,0 21.92,-3.29 29.64,-9.88 7.73,-6.59 11.59,-14.18 11.59,-22.77 0,-8.59 -3.43,-15.46 -10.3,-20.62 -6.87,-5.15 -18.19,-9.73 -33.93,-13.74l-20.62 -6.02c-18.33,-4.87 -32.35,-12.02 -42.09,-21.47 -9.74,-9.45 -14.6,-22.77 -14.6,-39.95 0,-18.61 6.87,-33.36 20.62,-44.25 13.74,-10.88 32.78,-16.31 57.13,-16.31 25.48,0 44.38,5.37 56.69,16.1 12.32,10.75 19.76,26.42 22.34,47.03l-35.65 3.01c-1.44,-14.02 -5.81,-24.98 -13.1,-32.86 -7.3,-7.87 -17.4,-11.81 -30.28,-11.81 -13.46,0 -23.63,2.73 -30.5,8.16 -6.88,5.44 -10.31,12.6 -10.31,21.48 0,9.74 3.37,17.19 10.1,22.34 6.72,5.15 17.41,9.73 32.01,13.74l18.89 5.59zm-1375.96 -264.16l21.18 0c10.02,0 17.19,-3.11 21.45,-9.34 4.27,-6.23 6.41,-14.44 6.41,-24.66 0,-10.96 -2.32,-19.27 -6.97,-24.93 -4.65,-5.67 -11.61,-8.5 -20.89,-8.5l-21.18 0 0 67.43zm28.42 82.19c18.96,0 28.42,-11.69 28.42,-35.1 0,-10.23 -2.41,-18.86 -7.24,-25.92 -4.83,-7.06 -11.89,-10.6 -21.18,-10.6l-28.42 0 0 71.61 28.42 0zm753.92 110.66c-15.17,0 -26.2,5.59 -33.07,16.76 -6.87,11.17 -11.03,28.21 -12.45,51.11l90.63 0c-0.86,-22.34 -4.65,-39.23 -11.39,-50.68 -6.72,-11.46 -17.97,-17.19 -33.72,-17.19zm-574.7 0c-15.19,0 -26.21,5.59 -33.08,16.76 -6.87,11.17 -11.02,28.21 -12.45,51.11l90.63 0c-0.86,-22.34 -4.65,-39.23 -11.39,-50.68 -6.73,-11.46 -17.97,-17.19 -33.71,-17.19zm-211.96 336.12c17.41,-11.18 30.98,-38.85 30.81,-90.17 -14.46,-4.5 -29.7,-6.59 -46.03,-5.29 -11.73,0.92 -21.88,4.28 -29.78,10.13 -7.45,5.49 -13.23,13.42 -16.89,23.88 -7.79,22.32 -0.95,42.15 11.94,54.38 6.95,6.59 15.61,10.99 24.61,12.36 8.54,1.29 17.43,-0.2 25.32,-5.27l0 0z"/>
   <path class="fil1" d="M768.63 155.47c-19.43,-47.37 -29.65,-90.39 24.43,-151.39 -45.23,79.94 -6.74,132.83 15.87,183.38 22.24,-51.8 64.08,-105.36 17.62,-187.45 55.54,62.62 43.29,106.31 22.88,155.2 31.29,-40.51 63.45,-70.86 143.31,-54.52 -91.85,0.8 -118.4,60.58 -150.89,105.43 55.99,-6.63 123.3,2.82 171.16,-78.46 -26.47,79.4 -70.43,90.64 -122.96,97.39 50.73,6.86 93.08,19.54 118.86,96.87 -46.61,-79.15 -111.66,-72.26 -166.75,-77.97 33.74,45.17 59.2,108.19 153.52,109.01 -82.03,16.78 -113.72,-15.69 -145.85,-57.84 19.44,47.37 29.66,90.4 -24.42,151.42 45.24,-79.94 6.74,-132.83 -15.86,-183.39 -22.26,51.8 -64.09,105.36 -17.64,187.45 -55.54,-62.64 -43.28,-106.32 -22.85,-155.22 -31.31,40.52 -63.45,70.88 -143.33,54.54 91.85,-0.8 118.41,-60.58 150.89,-105.42 -55.99,6.63 -123.29,-2.83 -171.16,78.45 26.48,-79.42 70.44,-90.64 122.99,-97.4 -50.74,-6.85 -93.1,-19.52 -118.89,-96.86 46.63,79.14 111.66,72.24 166.75,77.95 -33.75,-45.17 -59.2,-108.18 -153.52,-109 82.02,-16.78 113.72,15.68 145.85,57.81l0 0z"/>
  </g>
 </g>
</svg>
