<svg xmlns="http://www.w3.org/2000/svg" xml:space="preserve" width="50.8mm" height="23.7173mm" version="1.1" style="shape-rendering:geometricPrecision; text-rendering:geometricPrecision; image-rendering:optimizeQuality; fill-rule:evenodd; clip-rule:evenodd"
viewBox="0 0 1205.35 562.75"
 xmlns:xlink="http://www.w3.org/1999/xlink">
 <defs>
  <style type="text/css">
   <![CDATA[
    .fil3 {fill:#F59D0E}
    .fil2 {fill:black}
    .fil4 {fill:#FFA000}
    .fil1 {fill:black}
    .fil5 {fill:black;fill-rule:nonzero}
    .fil0 {fill:#735537;fill-rule:nonzero}
   ]]>
  </style>
 </defs>
 <g id="Layer_x0020_1">
  <metadata id="CorelCorpID_0Corel-Layer"/>
  <g id="_3004899346384">
   <path class="fil0" d="M1185.55 358.93c-3.49,6.45 -8.32,11.41 -14.46,14.88 -6.16,3.49 -13.02,5.25 -20.52,5.25 -7.66,0 -14.55,-1.77 -20.62,-5.25 -6.1,-3.47 -10.88,-8.43 -14.37,-14.88 -3.51,-6.43 -5.23,-13.73 -5.23,-21.95 0,-8.2 1.72,-15.49 5.23,-21.84 3.49,-6.37 8.27,-11.33 14.37,-14.9 6.07,-3.54 12.96,-5.32 20.62,-5.32 7.5,0 14.36,1.78 20.52,5.32 6.14,3.57 10.97,8.53 14.46,14.9 3.49,6.35 5.24,13.65 5.24,21.84 0,8.21 -1.75,15.52 -5.24,21.95zm12.81 -50.47c-4.62,-8.36 -11.04,-14.81 -19.26,-19.39 -8.23,-4.61 -17.39,-6.87 -27.53,-6.87 -9,0 -17.13,1.88 -24.3,5.73 -7.19,3.82 -12.95,9.33 -17.32,16.43l0 -21.35 -13.98 0 0 147.76 14.58 0 0 -60.12c4.52,6.96 10.3,12.26 17.33,15.89 7.06,3.63 14.95,5.44 23.69,5.44 10.3,0 19.47,-2.3 27.62,-6.89 8.15,-4.57 14.55,-11.02 19.17,-19.38 4.67,-8.34 6.99,-17.94 6.99,-28.73 0,-10.68 -2.32,-20.19 -6.99,-28.52zm-157.78 -25.45l0 56.63c0,12.33 -3.28,21.95 -9.84,28.85 -6.6,6.91 -15.56,10.36 -26.9,10.36 -10.4,0 -18.41,-2.93 -24,-8.84 -5.62,-5.87 -8.41,-14.48 -8.41,-25.85l0 -61.15 -14.58 0 0 62.59c0,15.2 4.06,26.71 12.21,34.58 8.15,7.87 19.26,11.81 33.34,11.81 8.62,0 16.28,-1.81 22.99,-5.44 6.7,-3.63 11.97,-8.72 15.8,-15.3l0 19.7 13.96 0 0 -107.94 -14.56 0zm-132.36 75.93c-3.44,6.45 -8.18,11.41 -14.29,14.88 -6.07,3.49 -12.95,5.25 -20.6,5.25 -7.68,0 -14.55,-1.77 -20.62,-5.25 -6.11,-3.47 -10.88,-8.43 -14.38,-14.88 -3.49,-6.43 -5.23,-13.73 -5.23,-21.95 0,-8.2 1.74,-15.51 5.23,-21.97 3.49,-6.42 8.27,-11.37 14.38,-14.86 6.07,-3.51 12.95,-5.24 20.62,-5.24 7.65,0 14.53,1.72 20.6,5.24 6.11,3.49 10.85,8.44 14.29,14.86 3.4,6.46 5.13,13.77 5.13,21.97 0,8.21 -1.72,15.52 -5.13,21.95zm12.81 -50.28c-4.71,-8.34 -11.26,-14.83 -19.61,-19.49 -8.32,-4.64 -17.7,-6.96 -28.08,-6.96 -10.4,0 -19.79,2.32 -28.11,6.96 -8.35,4.66 -14.92,11.15 -19.73,19.49 -4.78,8.35 -7.17,17.79 -7.17,28.33 0,10.53 2.39,19.99 7.17,28.31 4.81,8.34 11.37,14.88 19.73,19.61 8.32,4.71 17.71,7.08 28.11,7.08 10.38,0 19.77,-2.37 28.08,-7.08 8.36,-4.73 14.9,-11.27 19.61,-19.61 4.73,-8.32 7.08,-17.78 7.08,-28.31 0,-10.54 -2.36,-19.98 -7.08,-28.33zm-142.2 -20.94c-6.77,3.72 -11.86,9.19 -15.3,16.42l0 -21.13 -13.96 0 0 107.94 14.56 0 0 -54.99c0,-12.58 3.23,-22.37 9.65,-29.35 6.46,-6.96 15.32,-10.45 26.69,-10.45l3.49 0.21 0 -14.17c-9.99,0 -18.36,1.83 -25.14,5.51zm-83.65 79.85c-10.24,7.38 -22.77,11.1 -37.54,11.1 -11.64,0 -22.09,-2.64 -31.38,-7.82 -9.3,-5.2 -16.64,-12.31 -21.97,-21.33 -5.34,-9.04 -8.01,-19.17 -8.01,-30.37 0,-11.23 2.67,-21.39 8.01,-30.5 5.32,-9.09 12.71,-16.21 22.05,-21.33 9.38,-5.13 19.87,-7.68 31.51,-7.68 17.53,0 31.96,5.6 43.3,16.8l9.44 -9.63c-6.29,-6.83 -14.03,-12.02 -23.17,-15.49 -9.19,-3.49 -19.24,-5.25 -30.18,-5.25 -14.51,0 -27.5,3.17 -38.99,9.46 -11.48,6.3 -20.54,15.02 -27.09,26.17 -6.56,11.14 -9.84,23.64 -9.84,37.45 0,13.82 3.28,26.29 9.84,37.44 6.56,11.17 15.61,19.89 27.09,26.17 11.49,6.3 24.42,9.44 38.78,9.44 10.12,0 19.77,-1.59 28.94,-4.71 9.16,-3.14 17.1,-7.66 23.82,-13.53l0 -54.8 -14.6 0 0 48.43z"/>
   <polygon class="fil1" points="284.21,284.18 127.06,284.18 127.06,127.05 "/>
   <path class="fil0" d="M391.3 154.44c0,60.29 -40.91,111.42 -96.34,127.18l-167.89 -170.6 0 -88.68 132.15 0c36.34,0 69.4,14.83 93.26,38.83 24.02,23.87 38.82,56.92 38.82,93.27z"/>
   <polygon class="fil2" points="294.96,281.62 127.06,281.62 127.06,111.01 "/>
   <polygon class="fil3" points="-0,127.06 127.06,254.11 -0,254.11 "/>
   <polygon class="fil4" points="391.3,264.25 518.36,391.3 391.3,391.3 391.31,391.31 127.06,391.31 127.06,127.06 -0,127.06 -0,0 127.06,127.06 391.3,391.3 "/>
   <path class="fil0" d="M842.62 22.33l-54.75 0 0 195.43 54.75 0 0 -195.43zm64.23 86.53l79.85 -86.53 -64.23 0 -79.85 86.53 84.02 108.9 64.27 0 -84.05 -108.9zm-187.65 47.49c12.26,-5.97 21.74,-14.2 28.33,-24.72 6.6,-10.54 9.91,-22.86 9.91,-36.98 0,-14.72 -3.54,-27.51 -10.59,-38.38 -7.08,-10.92 -17.13,-19.28 -30.15,-25.14 -13.05,-5.88 -28.4,-8.79 -46.07,-8.79l-89.34 0 0 195.43 55.28 0 0 -151.88 30.69 0c11.37,0 19.92,2.49 25.68,7.54 5.79,5.04 8.67,12.09 8.67,21.23 0,9.12 -2.88,16.16 -8.67,21.08 -5.76,4.91 -14.31,7.31 -25.68,7.39l-29.54 0.19 64.43 94.45 59.21 0 -42.17 -61.41zm308.07 -114.03l-4.19 0 0 -8.21 5.31 0c0.66,0 1.34,0.07 2.04,0.15 0.7,0.11 1.29,0.28 1.81,0.58 0.55,0.28 0.98,0.66 1.3,1.17 0.35,0.52 0.52,1.19 0.52,2.04 0,1.05 -0.21,1.85 -0.57,2.39 -0.37,0.58 -0.85,1.01 -1.5,1.28 -0.63,0.3 -1.35,0.45 -2.18,0.52 -0.81,0.05 -1.68,0.08 -2.53,0.08zm8.83 1.03c1.29,-1.1 1.95,-2.79 1.95,-5.09 0,-2.48 -0.73,-4.33 -2.22,-5.56 -1.46,-1.21 -3.73,-1.8 -6.78,-1.8l-9.96 0 0 25.73 3.99 0 0 -11.08 4.26 0 7.01 11.08 4.28 0 -7.33 -11.37c1.9,-0.19 3.51,-0.84 4.8,-1.9zm8.3 7.83c-0.92,2.27 -2.23,4.29 -3.84,5.97 -1.64,1.69 -3.54,3.02 -5.76,3.96 -2.18,0.99 -4.57,1.44 -7.12,1.44 -2.58,0 -5.01,-0.45 -7.22,-1.44 -2.22,-0.94 -4.15,-2.27 -5.76,-3.96 -1.64,-1.68 -2.91,-3.7 -3.84,-5.97 -0.91,-2.3 -1.38,-4.81 -1.38,-7.52 0,-2.65 0.47,-5.09 1.38,-7.36 0.92,-2.28 2.19,-4.26 3.84,-5.93 1.61,-1.64 3.54,-2.97 5.76,-3.95 2.22,-0.96 4.64,-1.44 7.22,-1.44 2.55,0 4.94,0.48 7.12,1.44 2.22,0.98 4.12,2.3 5.76,3.95 1.61,1.67 2.91,3.64 3.84,5.93 0.91,2.27 1.38,4.71 1.38,7.36 0,2.7 -0.47,5.22 -1.38,7.52zm3.59 -16.17c-1.15,-2.69 -2.77,-4.99 -4.75,-6.94 -2.02,-1.96 -4.36,-3.53 -7.06,-4.64 -2.67,-1.12 -5.53,-1.68 -8.49,-1.68 -3.02,0 -5.87,0.56 -8.58,1.68 -2.67,1.11 -5.03,2.68 -7.05,4.64 -2.04,1.95 -3.63,4.26 -4.82,6.94 -1.17,2.67 -1.75,5.55 -1.75,8.65 0,3.17 0.58,6.11 1.75,8.81 1.19,2.69 2.77,5.03 4.82,7 2.02,1.99 4.38,3.54 7.05,4.67 2.72,1.08 5.56,1.66 8.58,1.66 2.96,0 5.83,-0.58 8.49,-1.66 2.71,-1.13 5.04,-2.69 7.06,-4.67 1.97,-1.97 3.59,-4.31 4.75,-7 1.19,-2.7 1.78,-5.63 1.78,-8.81 0,-3.11 -0.59,-5.98 -1.78,-8.65zm-20.72 7.31l-4.19 0 0 -8.21 5.31 0c0.66,0 1.34,0.07 2.04,0.15 0.7,0.11 1.29,0.28 1.81,0.58 0.55,0.28 0.98,0.66 1.3,1.17 0.35,0.52 0.52,1.19 0.52,2.04 0,1.05 -0.21,1.85 -0.57,2.39 -0.37,0.58 -0.85,1.01 -1.5,1.28 -0.63,0.3 -1.35,0.45 -2.18,0.52 -0.81,0.05 -1.68,0.08 -2.53,0.08zm4.03 2.93c1.9,-0.19 3.51,-0.84 4.8,-1.9 1.29,-1.1 1.95,-2.79 1.95,-5.09 0,-2.48 -0.73,-4.33 -2.22,-5.56 -1.46,-1.21 -3.73,-1.8 -6.78,-1.8l-9.96 0 0 25.73 3.99 0 0 -11.08 4.26 0 7.01 11.08 4.28 0 -7.33 -11.37zm-4.03 -2.93l-4.19 0 0 -8.21 5.31 0c0.66,0 1.34,0.07 2.04,0.15 0.7,0.11 1.29,0.28 1.81,0.58 0.55,0.28 0.98,0.66 1.3,1.17 0.35,0.52 0.52,1.19 0.52,2.04 0,1.05 -0.21,1.85 -0.57,2.39 -0.37,0.58 -0.85,1.01 -1.5,1.28 -0.63,0.3 -1.35,0.45 -2.18,0.52 -0.81,0.05 -1.68,0.08 -2.53,0.08zm4.03 2.93c1.9,-0.19 3.51,-0.84 4.8,-1.9 1.29,-1.1 1.95,-2.79 1.95,-5.09 0,-2.48 -0.73,-4.33 -2.22,-5.56 -1.46,-1.21 -3.73,-1.8 -6.78,-1.8l-9.96 0 0 25.73 3.99 0 0 -11.08 4.26 0 7.01 11.08 4.28 0 -7.33 -11.37z"/>
   <path class="fil5" d="M1202.77 541.76c-0.63,-1.69 -1.55,-3.19 -2.75,-4.52 -1.77,-1.95 -5.25,-4.02 -10.49,-6.14 -0.56,-0.23 -0.92,-0.4 -1.22,-0.51 -4.62,-1.97 -7.62,-3.71 -9.04,-5.27 -1.38,-1.59 -2.09,-3.58 -2.09,-6.09 0,-3.02 1.08,-5.53 3.28,-7.54 2.18,-2.02 4.97,-3.02 8.41,-3.02 2.04,0 4.13,0.37 6.25,1.15 2.13,0.75 4.35,1.92 6.72,3.5l0 -5.06c-2.14,-1.27 -4.24,-2.23 -6.35,-2.82 -2.09,-0.61 -4.25,-0.89 -6.47,-0.89 -4.87,0 -8.81,1.38 -11.83,4.17 -3.03,2.79 -4.55,6.37 -4.55,10.77 0,3.52 1.01,6.42 3,8.7 1.97,2.27 5.67,4.53 11.08,6.75 5.22,2.2 8.55,4.1 10.02,5.71 1.48,1.64 2.22,3.72 2.22,6.28 0,3.49 -1.08,6.23 -3.21,8.23 -2.2,2.04 -5.11,3.02 -8.79,3.02 -2.22,0 -4.55,-0.48 -6.94,-1.48 -2.36,-1.01 -4.89,-2.56 -7.54,-4.64l0 5.49c2.44,1.68 4.87,2.93 7.29,3.77 2.41,0.84 4.83,1.28 7.27,1.28 4.87,0 8.88,-1.46 12,-4.35 3.14,-2.91 4.69,-6.59 4.69,-11.09 0,-1.92 -0.31,-3.72 -0.94,-5.41zm-62.25 -11.32c-1.68,0.21 -4.64,0.33 -8.93,0.33l-3.49 0 0 -21.67 9.46 0c4.26,0 7.57,0.91 9.88,2.72 2.34,1.78 3.51,4.31 3.51,7.59 0,2.42 -0.54,4.47 -1.59,6.11 -0.99,1.63 -2.55,2.91 -4.62,3.84 -1.13,0.5 -2.55,0.85 -4.2,1.08zm9.65 7.52c-0.66,-1.01 -1.45,-1.9 -2.25,-2.65 -0.88,-0.8 -1.78,-1.5 -2.79,-2.08 3.59,-1.15 6.3,-2.88 8.06,-5.18 1.82,-2.27 2.7,-5.14 2.7,-8.63 0,-4.56 -1.61,-8.03 -4.82,-10.49 -3.19,-2.41 -7.8,-3.61 -13.78,-3.61l-13.73 0 0 56.45 4.53 0 0 -27.13 4.64 0c3.18,0 5.58,0.21 7.22,0.64 1.62,0.41 2.95,1.12 3.94,2.1 0.75,0.78 1.8,2.02 3.06,3.77 1.31,1.79 2.82,4.01 4.6,6.75l8.99 13.87 5.16 0 -15.54 -23.82zm-48.59 5.25c-1.26,3.07 -3.02,5.78 -5.37,8.16 -2.33,2.39 -4.99,4.2 -7.97,5.48 -3,1.24 -6.18,1.86 -9.54,1.86 -3.24,0 -6.42,-0.66 -9.49,-1.96 -3.05,-1.27 -5.73,-3.08 -8.04,-5.39 -2.27,-2.39 -4.03,-5.13 -5.3,-8.23 -1.26,-3.11 -1.87,-6.3 -1.87,-9.65 0,-3.37 0.61,-6.59 1.85,-9.65 1.26,-3.05 3.02,-5.76 5.32,-8.06 2.42,-2.39 5.09,-4.22 8.13,-5.53 3.02,-1.26 6.16,-1.91 9.4,-1.91 3.28,0 6.46,0.65 9.46,1.94 3.03,1.29 5.73,3.14 8.06,5.5 2.39,2.39 4.17,5.09 5.41,8.13 1.2,3.02 1.82,6.21 1.82,9.58 0,3.44 -0.61,6.67 -1.85,9.72zm4.61 -20.88c-1.46,-3.49 -3.63,-6.63 -6.47,-9.42 -2.79,-2.75 -5.98,-4.89 -9.6,-6.33 -3.59,-1.47 -7.4,-2.18 -11.39,-2.18 -3.97,0 -7.74,0.71 -11.34,2.18 -3.61,1.44 -6.83,3.58 -9.68,6.33 -2.75,2.7 -4.9,5.84 -6.42,9.39 -1.5,3.54 -2.25,7.2 -2.25,11.01 0,3.98 0.72,7.76 2.22,11.34 1.48,3.58 3.63,6.77 6.45,9.61 2.7,2.7 5.9,4.82 9.56,6.28 3.67,1.5 7.45,2.21 11.46,2.21 5.01,0 9.67,-1.12 13.96,-3.37 4.33,-2.25 7.87,-5.41 10.66,-9.52 1.68,-2.39 2.93,-4.99 3.77,-7.74 0.87,-2.8 1.27,-5.65 1.27,-8.62 0,-3.94 -0.72,-7.67 -2.2,-11.17zm-113.27 -17.01l0 4.03 21.02 0 0 52.43 4.87 0 0 -52.43 20.98 0 0 -4.03 -46.88 0zm-32.55 32.95l10.89 -25.63 10.8 25.63 -21.69 0zm11.74 -33.48l-1.81 0 -24.65 56.98 4.82 0 8.36 -19.66 24.8 0 8.36 19.66 4.78 0 -24.65 -56.98zm-59.25 53.17l0 -22.98 25.21 0 0 -3.64 -25.21 0 0 -22.42 26.05 0 0 -3.61 -30.6 0 0 56.45 31.26 0 0 -3.81 -26.71 0zm-39.22 -27.53c-1.68,0.21 -4.64,0.33 -8.96,0.33l-3.46 0 0 -21.67 9.46 0c4.26,0 7.54,0.91 9.88,2.72 2.32,1.78 3.47,4.31 3.47,7.59 0,2.42 -0.51,4.47 -1.55,6.11 -1.03,1.63 -2.57,2.91 -4.62,3.84 -1.13,0.5 -2.55,0.85 -4.2,1.08zm9.65 7.52c-0.66,-1.01 -1.45,-1.9 -2.25,-2.65 -0.88,-0.8 -1.78,-1.5 -2.79,-2.08 3.59,-1.15 6.3,-2.88 8.06,-5.18 1.82,-2.27 2.7,-5.14 2.7,-8.63 0,-4.56 -1.61,-8.03 -4.82,-10.49 -3.19,-2.41 -7.8,-3.61 -13.78,-3.61l-13.73 0 0 56.45 4.53 0 0 -27.13 4.64 0c3.17,0 5.56,0.21 7.2,0.64 1.64,0.41 2.97,1.12 3.96,2.1 0.75,0.78 1.8,2.02 3.06,3.77 1.31,1.79 2.82,4.01 4.6,6.75l8.99 13.87 5.13 0 -15.51 -23.82zm-75.39 -25.4c2.13,-1.38 4.38,-2.41 6.79,-3.12 2.39,-0.73 4.9,-1.08 7.55,-1.08 2.97,0 6.07,0.51 9.32,1.49 3.26,0.94 6.81,2.44 10.57,4.48l0 -4.73c-3.49,-1.74 -6.87,-3.1 -10.17,-3.96 -3.28,-0.89 -6.47,-1.33 -9.55,-1.33 -4.27,0 -8.25,0.75 -11.95,2.18 -3.7,1.46 -7,3.61 -9.91,6.42 -2.77,2.65 -4.9,5.76 -6.42,9.34 -1.5,3.58 -2.28,7.25 -2.28,11.06 0,5.04 1.15,9.7 3.45,13.96 2.28,4.29 5.51,7.75 9.65,10.45 2.55,1.67 5.25,2.95 8.19,3.78 2.91,0.85 6.02,1.26 9.28,1.26 3.21,0 6.48,-0.43 9.75,-1.29 3.28,-0.87 6.63,-2.16 9.97,-3.89l0 -4.81c-3.82,2.02 -7.4,3.52 -10.63,4.5 -3.24,0.97 -6.33,1.46 -9.26,1.46 -3.61,0 -6.95,-0.63 -10.08,-1.9 -3.14,-1.26 -5.85,-3.07 -8.15,-5.44 -2.27,-2.39 -4.06,-5.13 -5.31,-8.23 -1.26,-3.11 -1.86,-6.3 -1.86,-9.65 0,-4.29 0.94,-8.25 2.91,-11.91 1.92,-3.66 4.62,-6.65 8.14,-9.02zm-72.97 20.43l26.85 -27.67 -5.91 0 -26.8 27.67 0 -27.67 -4.55 0 0 56.45 4.55 0 0 -28.34 29.31 28.34 6.33 0 -29.78 -28.79zm-45.4 -2.55c-1.67,0.21 -4.67,0.33 -8.97,0.33l-3.47 0 0 -21.67 9.43 0c4.29,0 7.58,0.91 9.91,2.72 2.32,1.78 3.49,4.31 3.49,7.59 0,2.42 -0.52,4.47 -1.57,6.11 -1.03,1.63 -2.58,2.91 -4.66,3.84 -1.11,0.5 -2.51,0.85 -4.17,1.08zm9.61 7.52c-0.66,-1.01 -1.41,-1.9 -2.25,-2.65 -0.84,-0.8 -1.75,-1.5 -2.79,-2.08 3.59,-1.15 6.32,-2.88 8.09,-5.18 1.78,-2.27 2.67,-5.14 2.67,-8.63 0,-4.56 -1.57,-8.03 -4.78,-10.49 -3.19,-2.41 -7.8,-3.61 -13.78,-3.61l-13.77 0 0 56.45 4.56 0 0 -27.13 4.62 0c3.21,0 5.6,0.21 7.24,0.64 1.64,0.41 2.97,1.12 3.94,2.1 0.77,0.78 1.78,2.02 3.07,3.77 1.31,1.79 2.83,4.01 4.59,6.75l9 13.87 5.13 0 -15.54 -23.82zm-72.78 0.32l10.87 -25.63 10.8 25.63 -21.67 0zm11.74 -33.48l-1.82 0 -24.65 56.98 4.81 0 8.32 -19.66 24.84 0 8.36 19.66 4.78 0 -24.65 -56.98zm-41.06 0.52l-20.99 26.03 -21.07 -26.03 -4.73 0 0 56.45 4.55 0 0 -49.88 21.25 26.29 21.16 -26.29 0 49.88 4.64 0 0 -56.45 -4.82 0zm-70.18 40.07c-1.8,3.63 -4.28,6.47 -7.43,8.58 -1.94,1.33 -4.24,2.27 -6.91,2.89 -2.68,0.65 -5.88,0.93 -9.59,0.93l-13.64 0 0 -48.44 13.64 0c3.71,0 6.91,0.31 9.59,0.91 2.67,0.61 4.97,1.59 6.91,2.88 3.16,2.11 5.63,4.95 7.43,8.58 1.78,3.63 2.67,7.57 2.67,11.86 0,4.29 -0.89,8.21 -2.67,11.81zm4.69 -24.93c-1.99,-4.06 -4.78,-7.4 -8.32,-10.03 -2.42,-1.78 -5.16,-3.07 -8.19,-3.91 -3.02,-0.8 -6.68,-1.2 -11.01,-1.2l-19.57 0 0 56.45 19.57 0c4.24,0 7.9,-0.41 10.96,-1.28 3.07,-0.8 5.81,-2.13 8.24,-3.94 3.54,-2.62 6.33,-5.98 8.32,-10.02 1.96,-4.06 2.93,-8.41 2.93,-13.05 0,-4.62 -0.97,-8.99 -2.93,-13.03zm-70.2 -15.14l0 49.28 -41.33 -49.28 -4.71 0 0 56.45 4.55 0 0 -49.93 41.83 49.93 4.21 0 0 -56.45 -4.56 0zm-92.23 32.95l10.86 -25.63 10.82 25.63 -21.68 0zm11.75 -33.48l-1.82 0 -24.65 56.98 4.81 0 8.32 -19.66 24.84 0 8.35 19.66 4.78 0 -24.65 -56.98zm-57.19 53.17l0 -52.65 -4.73 0 0 56.45 31.33 0 0 -3.81 -26.61 0zm-67.37 0l0 -22.98 25.23 0 0 -3.64 -25.23 0 0 -22.42 26.06 0 0 -3.61 -30.62 0 0 56.45 31.28 0 0 -3.81 -26.73 0zm-27.76 -52.65l0 26.1 -37.54 0 0 -26.1 -4.55 0 0 56.45 4.55 0 0 -26.38 37.54 0 0 26.38 4.55 0 0 -56.45 -4.55 0zm-101.5 0l0 4.03 20.99 0 0 52.43 4.9 0 0 -52.43 20.99 0 0 -4.03 -46.88 0z"/>
  </g>
 </g>
</svg>
