<svg xmlns="http://www.w3.org/2000/svg" xml:space="preserve" width="48.8744mm" height="28.2256mm" version="1.1" style="shape-rendering:geometricPrecision; text-rendering:geometricPrecision; image-rendering:optimizeQuality; fill-rule:evenodd; clip-rule:evenodd"
viewBox="0 0 668.63 386.14"
 xmlns:xlink="http://www.w3.org/1999/xlink">
 <defs>
  <style type="text/css">
   <![CDATA[
    .fil0 {fill:#471B18}
    .fil1 {fill:#FF6600}
    .fil2 {fill:#471B18;fill-rule:nonzero}
   ]]>
  </style>
 </defs>
 <g id="Layer_x0020_1">
  <metadata id="CorelCorpID_0Corel-Layer"/>
  <g id="_2422140444048">
   <g>
    <path class="fil0" d="M10.28 119.3c0,0 7.83,-34.25 66.06,-43.55 53.02,-8.47 72.36,27.28 75.4,33.75l483.14 0 -3.56 15.8 -476.65 0c-0.64,16.76 -12.13,44.91 -72.46,69.36 0,0 57.74,46.98 16.15,108.63 0,0 2.94,-91.5 -98.35,-111.07 0,0 127.41,-20.97 116.45,-78.29 0,0 -6.85,-46.48 -106.18,5.38zm272.53 80.11c0,0 12.74,-16.25 40.15,-18.48 0,0 11.47,-36.01 43.34,-29.96 0,0 15.3,1.91 20.72,17.53 0,0 -30.59,-12.43 -40.15,22.31 -8.35,30.34 10.53,41.23 32.64,23.33 1.11,-8.46 2.98,-17.8 5.86,-28.09 19.1,-68.12 20.65,-59.46 26.33,-58.44 5.68,1.03 10.71,21.42 9.13,25.78 -0.78,2.15 -6.55,17.23 -12.47,34.18 10.46,-8.05 23.31,-15.88 33.48,-15.57 20.71,0.64 28.04,24.22 22.63,39.52 -5.42,15.3 -19.44,39.84 -51.63,25.5 0,0 29,-5.73 29,-30.28 0,-19.59 -30.06,-10.14 -43.64,12.3 -1.68,5.97 -2.89,11.12 -3.33,14.75 -2.21,18.38 -3.55,47.35 -3.55,47.35 0,0 -14.61,-15.74 -13,-53.54 -6.36,6.44 -16.35,14.45 -26.35,13.87 -16.57,-0.95 -34.76,-18.03 -32.82,-39.2 0,0 -8.92,-2.87 -36.33,-2.87zm207.78 82.22c0,0 -32.51,-43.02 -14.66,-99.43 17.85,-56.41 18.8,-55.77 24.54,-55.13 5.74,0.64 10.84,15.61 9.56,20.08 -1.28,4.46 -18.16,68.52 -19.12,87 -0.96,18.48 -0.32,47.49 -0.32,47.49zm34.66 -125.68c0,0 9.86,-32.32 61.36,-29.86 0,0 35.06,2.47 35.61,34.79 0.55,32.33 -49.31,47.94 -49.31,47.94 0,0 39.72,33.42 12.33,73.14 0,0 -5.75,-70.95 -63.28,-74.78 0,0 73.69,-7.51 75.6,-42.73 0,0 2.25,-35.09 -72.32,-8.49zm-319.32 0c0,0 9.86,-32.32 61.36,-29.86 0,0 35.06,2.47 35.61,34.79 0.55,32.33 -49.31,47.94 -49.31,47.94 0,0 39.72,33.42 12.33,73.14 0,0 -5.75,-70.95 -63.28,-74.78 0,0 73.69,-7.51 75.6,-42.73 0,0 2.26,-35.09 -72.32,-8.49zm-80.19 44.24c0,0 7.82,-19.26 35.81,-18.36 0,0 5.12,-38.22 17.45,-53.26 0,0 6.02,-5.42 13.84,4.81 7.82,10.23 -0.9,31.29 -0.9,31.29 0,0 -19.43,74.54 -16.14,117.28 0,0 -20.82,-16.71 -16.44,-81.36 0,0 -9.86,-8.22 -33.63,-0.41z"/>
    <circle class="fil1" cx="189.81" cy="46.1" r="46.1"/>
   </g>
   <path class="fil2" d="M323.73 292.37l-5.84 23.6 -1.71 0c-0.38,-3.71 -1.05,-6.68 -1.99,-8.9 -1.43,-3.23 -3.34,-5.72 -5.72,-7.47 -2.38,-1.75 -4.95,-2.62 -7.71,-2.62 -2.67,0 -5,1.01 -7.01,3.06 -1.99,2.03 -2.99,4.34 -2.99,6.9 0,2.54 0.7,5.04 2.08,7.48 1.4,2.45 4.69,6.14 9.86,11.06 4.16,3.93 6.94,7.31 8.37,10.14 1.42,2.83 2.13,5.91 2.13,9.23 0,3.72 -1,7.15 -2.97,10.3 -1.98,3.15 -4.86,5.58 -8.64,7.31 -3.76,1.73 -8.04,2.59 -12.83,2.59 -2.94,0 -6.63,-0.44 -11.08,-1.31 -4.46,-0.87 -7.41,-1.31 -8.88,-1.31 -1.17,0 -2.2,0.18 -3.13,0.54 -0.93,0.35 -2.06,1.05 -3.43,2.08l-1.99 0 6.22 -26.43 1.96 0c0.44,4.61 1.38,8.57 2.82,11.8 1.43,3.25 3.48,5.79 6.15,7.61 2.66,1.82 5.7,2.73 9.12,2.73 3.37,0 6.21,-1.12 8.48,-3.34 2.27,-2.24 3.41,-4.84 3.41,-7.85 0,-2.55 -0.65,-5 -1.94,-7.36 -1.29,-2.34 -4.25,-5.77 -8.85,-10.3 -4.6,-4.51 -7.78,-8.55 -9.54,-12.11 -1.28,-2.62 -1.91,-5.44 -1.91,-8.41 0,-5.16 2.05,-9.61 6.12,-13.37 4.07,-3.76 9.41,-5.65 16,-5.65 2.97,0 6.91,0.66 11.77,1.98 2.85,0.79 4.86,1.17 6.01,1.17 1,0 1.89,-0.21 2.67,-0.63 0.79,-0.42 1.71,-1.26 2.78,-2.52l2.2 0z"/>
   <path id="1" class="fil2" d="M371.37 316.71l-10.07 34.04 -1.05 4.14c-0.1,0.51 -0.16,0.89 -0.16,1.14 0,0.4 0.14,0.75 0.44,1.07 0.28,0.3 0.58,0.45 0.87,0.45 0.7,0 1.68,-0.54 2.92,-1.63 0.51,-0.45 1.71,-2.01 3.64,-4.7l1.78 0.93c-2.43,4.42 -5,7.64 -7.73,9.67 -2.74,2.03 -5.7,3.04 -8.86,3.04 -1.94,0 -3.41,-0.49 -4.44,-1.49 -1.01,-1 -1.52,-2.26 -1.52,-3.78 0,-1.33 0.56,-3.79 1.68,-7.41l1.24 -4.16c-3.97,6.8 -7.78,11.61 -11.43,14.41 -2.12,1.63 -4.37,2.43 -6.77,2.43 -3.15,0 -5.42,-1.29 -6.83,-3.86 -1.4,-2.57 -2.1,-5.49 -2.1,-8.72 0,-4.81 1.47,-10.33 4.42,-16.55 2.96,-6.24 6.84,-11.24 11.64,-15.04 3.95,-3.13 7.66,-4.7 11.14,-4.7 1.92,0 3.46,0.56 4.63,1.66 1.17,1.12 2.03,3.13 2.57,6.07l1.89 -6.26 12.1 -0.73zm-16.43 9.77c0,-2.76 -0.44,-4.76 -1.29,-5.98 -0.63,-0.86 -1.47,-1.28 -2.54,-1.28 -1.08,0 -2.18,0.51 -3.32,1.54 -2.31,2.1 -4.81,6.38 -7.48,12.83 -2.67,6.45 -4,12.01 -4,16.71 0,1.8 0.3,3.11 0.91,3.9 0.6,0.8 1.26,1.21 1.98,1.21 1.56,0 3.11,-0.89 4.7,-2.66 2.25,-2.52 4.3,-5.59 6.12,-9.23 3.29,-6.4 4.93,-12.08 4.93,-17.04z"/>
   <path id="2" class="fil2" d="M401.97 315.97l-6.56 21.99c4.53,-6.43 7.92,-10.82 10.16,-13.18 3.3,-3.41 6.14,-5.73 8.53,-6.96 2.4,-1.24 4.63,-1.85 6.73,-1.85 1.89,0 3.5,0.72 4.84,2.17 1.35,1.43 2.01,3.32 2.01,5.65 0,1.87 -0.44,4.16 -1.31,6.85l-6.99 21.52c-0.6,1.87 -0.87,3.09 -0.87,3.67 0,0.35 0.12,0.65 0.38,0.93 0.24,0.26 0.51,0.4 0.79,0.4 0.35,0 0.7,-0.14 1.08,-0.4 1.19,-0.98 2.4,-2.38 3.64,-4.16 0.3,-0.47 0.8,-1.17 1.49,-2.12l1.99 1.15c-5.09,8.32 -10.42,12.48 -16.03,12.48 -2.13,0 -3.81,-0.54 -5.02,-1.64 -1.21,-1.1 -1.82,-2.47 -1.82,-4.11 0,-1.43 0.44,-3.58 1.33,-6.42l6.96 -21.92c0.49,-1.43 0.73,-2.5 0.73,-3.18 0,-0.37 -0.17,-0.7 -0.51,-1 -0.33,-0.3 -0.73,-0.44 -1.17,-0.44 -1.42,0 -3.13,0.89 -5.14,2.68 -5.14,4.51 -10.12,11.26 -14.91,20.19l-4.39 15.21 -13.22 0 9.84 -32.8c0.93,-3.25 1.45,-5.56 1.57,-6.94 0,-0.58 -0.16,-1.08 -0.45,-1.47 -0.3,-0.4 -0.79,-0.72 -1.47,-0.94 -0.68,-0.23 -1.96,-0.33 -3.83,-0.33l0.42 -1.99 17.94 -3.04 3.25 0z"/>
   <path id="3" class="fil2" d="M455.46 292.37c2.12,0 3.92,0.73 5.38,2.2 1.45,1.49 2.19,3.25 2.19,5.35 0,2.08 -0.73,3.86 -2.22,5.35 -1.47,1.47 -3.27,2.2 -5.35,2.2 -2.06,0 -3.85,-0.73 -5.31,-2.2 -1.49,-1.49 -2.22,-3.27 -2.22,-5.35 0,-2.1 0.73,-3.86 2.18,-5.35 1.47,-1.47 3.25,-2.2 5.35,-2.2zm4.16 23.6l-11.31 36.06c-0.63,2.06 -0.94,3.43 -0.94,4.06 0,0.4 0.16,0.77 0.45,1.1 0.3,0.33 0.61,0.51 0.96,0.51 0.56,0 1.14,-0.26 1.71,-0.8 1.5,-1.31 3.32,-3.71 5.44,-7.15l1.78 1.07c-5.21,9.35 -10.73,14.04 -16.59,14.04 -2.24,0 -4.02,-0.61 -5.35,-1.85 -1.33,-1.22 -1.99,-2.8 -1.99,-4.68 0,-1.26 0.31,-2.87 0.96,-4.81l7.83 -24.47c0.75,-2.34 1.14,-4.13 1.14,-5.31 0,-0.75 -0.35,-1.42 -1.05,-1.99 -0.68,-0.58 -1.64,-0.87 -2.83,-0.87 -0.56,0 -1.21,0.02 -1.98,0.05l0.63 -2.1 17.97 -2.83 3.16 0z"/>
   <path id="4" class="fil2" d="M518.92 292.37l-17.38 57.29c-1.12,3.58 -1.66,5.75 -1.66,6.5 0,0.37 0.12,0.7 0.4,0.96 0.26,0.28 0.56,0.42 0.86,0.42 0.58,0 1.24,-0.3 1.99,-0.87 1.26,-0.96 2.78,-2.78 4.56,-5.45l1.89 0.98c-4.83,8.44 -10.14,12.66 -15.94,12.66 -2.06,0 -3.64,-0.54 -4.76,-1.61 -1.12,-1.07 -1.68,-2.43 -1.68,-4.09 0,-1.61 0.45,-3.88 1.34,-6.83l1.61 -5.23c-4.28,7.53 -7.99,12.53 -11.14,15.02 -2.39,1.84 -4.72,2.75 -6.97,2.75 -2.57,0 -4.74,-1.05 -6.5,-3.13 -1.77,-2.08 -2.64,-5.1 -2.64,-9.11 0,-5.09 1.14,-10.09 3.41,-15.04 2.27,-4.95 4.91,-9.09 7.88,-12.39 2.99,-3.3 5.84,-5.68 8.53,-7.1 2.71,-1.42 5.38,-2.12 8.01,-2.12 1.33,0 2.54,0.28 3.58,0.84 1.05,0.58 2.26,1.63 3.6,3.18l3.97 -12.69c1.02,-3.25 1.54,-5.58 1.54,-6.99 0,-0.84 -0.35,-1.56 -1.03,-2.17 -0.7,-0.6 -1.61,-0.89 -2.76,-0.89 -0.54,0 -1.21,0.05 -2.01,0.16l0.42 -1.99 17.66 -3.04 3.22 0zm-23.13 32.52c0,-2.08 -0.4,-3.6 -1.24,-4.54 -0.84,-0.96 -1.82,-1.43 -2.92,-1.43 -1.12,0 -2.32,0.56 -3.6,1.68 -2.48,2.18 -5.05,6.57 -7.76,13.16 -2.69,6.61 -4.04,12.15 -4.04,16.64 0,1.64 0.3,2.85 0.89,3.64 0.6,0.79 1.24,1.17 1.97,1.17 1.22,0 2.45,-0.54 3.65,-1.64 2.96,-2.59 5.87,-7.05 8.74,-13.36 2.87,-6.33 4.3,-11.43 4.3,-15.31z"/>
   <path id="5" class="fil2" d="M548.04 292.37l-13.46 46.21c4.74,-6.8 8.16,-11.4 10.3,-13.79 3.2,-3.44 5.94,-5.79 8.23,-6.99 2.29,-1.21 4.49,-1.82 6.59,-1.82 1.78,0 3.32,0.68 4.6,2.06 1.28,1.36 1.92,3.2 1.92,5.47 0,1.83 -0.45,4.12 -1.35,6.89l-7.12 21.71c-0.63,1.91 -0.94,3.18 -0.94,3.83 0,0.3 0.12,0.58 0.37,0.84 0.23,0.24 0.51,0.37 0.8,0.37 0.42,0 0.82,-0.16 1.24,-0.51 1.08,-0.84 2.26,-2.18 3.48,-4.04 0.31,-0.47 0.8,-1.17 1.49,-2.12l1.99 1.12c-2.97,4.77 -5.79,8.06 -8.44,9.84 -2.66,1.78 -5.17,2.67 -7.55,2.67 -2.13,0 -3.81,-0.54 -5.02,-1.64 -1.21,-1.1 -1.82,-2.47 -1.82,-4.11 0,-1.5 0.45,-3.64 1.35,-6.4l7.01 -21.83c0.44,-1.5 0.66,-2.6 0.66,-3.29 0,-0.37 -0.14,-0.7 -0.44,-1 -0.31,-0.3 -0.65,-0.44 -1.05,-0.44 -1.26,0 -3.01,1.03 -5.24,3.08 -4.58,4.21 -9.18,10.8 -13.78,19.81l-4.53 15.19 -12.83 0 17.01 -57.83c0.7,-2.45 1.07,-4.21 1.08,-5.28 0,-0.87 -0.38,-1.56 -1.15,-2.03 -1.01,-0.66 -2.57,-0.94 -4.67,-0.84l0.42 -2.1 17.66 -3.04 3.18 0z"/>
   <path id="6" class="fil2" d="M574.42 320.69l15.63 -4.72c1.26,1.57 2.15,3.06 2.66,4.46 0.93,2.43 1.57,5.77 1.94,10.05 0.72,8.41 1.21,17.38 1.49,26.9 3.65,-4.83 7.83,-11.19 12.53,-19.12 1.42,-2.38 2.13,-4.63 2.13,-6.77 0,-1.33 -0.82,-2.59 -2.47,-3.79 -1.66,-1.19 -2.69,-2.12 -3.09,-2.78 -0.4,-0.66 -0.61,-1.54 -0.61,-2.59 0,-1.71 0.63,-3.2 1.87,-4.47 1.24,-1.26 2.74,-1.89 4.51,-1.89 1.87,0 3.5,0.72 4.88,2.15 1.38,1.43 2.06,3.13 2.06,5.07 0,2.29 -0.65,4.95 -1.92,7.97 -1.28,3.02 -4.27,8.22 -8.95,15.56 -6.03,9.41 -11.96,17.53 -17.76,24.4 -3.72,4.37 -6.73,7.52 -9.02,9.46 -2.29,1.92 -4.67,3.46 -7.13,4.58 -1.47,0.65 -2.92,0.98 -4.35,0.98 -1.96,0 -3.62,-0.68 -5,-2.05 -1.38,-1.36 -2.08,-2.99 -2.08,-4.88 0,-1.87 0.63,-3.46 1.87,-4.77 1.26,-1.29 2.71,-1.94 4.39,-1.94 2.1,0 4,1.08 5.75,3.27 1.15,1.45 2.12,2.19 2.87,2.19 0.79,0 1.56,-0.23 2.31,-0.66 1.03,-0.54 2.47,-1.8 4.32,-3.78 0.23,-4.27 0.33,-7.48 0.33,-9.67 0,-2.92 -0.14,-7.04 -0.4,-12.38l-0.87 -19.49c-0.3,-3.57 -1.07,-6.15 -2.27,-7.71 -0.94,-1.17 -2.17,-1.75 -3.67,-1.75 -0.58,0 -1.22,0.05 -1.92,0.16l0 -1.99z"/>
   <path id="7" class="fil2" d="M668.63 316.71l-10.07 34.04 -1.05 4.14c-0.1,0.51 -0.16,0.89 -0.16,1.14 0,0.4 0.14,0.75 0.44,1.07 0.28,0.3 0.58,0.45 0.87,0.45 0.7,0 1.68,-0.54 2.92,-1.63 0.51,-0.45 1.71,-2.01 3.64,-4.7l1.78 0.93c-2.43,4.42 -5,7.64 -7.73,9.67 -2.74,2.03 -5.7,3.04 -8.86,3.04 -1.94,0 -3.41,-0.49 -4.44,-1.49 -1.01,-1 -1.52,-2.26 -1.52,-3.78 0,-1.33 0.56,-3.79 1.68,-7.41l1.24 -4.16c-3.97,6.8 -7.78,11.61 -11.43,14.41 -2.12,1.63 -4.37,2.43 -6.77,2.43 -3.15,0 -5.42,-1.29 -6.83,-3.86 -1.4,-2.57 -2.1,-5.49 -2.1,-8.72 0,-4.81 1.47,-10.33 4.42,-16.55 2.96,-6.24 6.84,-11.24 11.64,-15.04 3.95,-3.13 7.66,-4.7 11.14,-4.7 1.92,0 3.46,0.56 4.63,1.66 1.17,1.12 2.03,3.13 2.57,6.07l1.89 -6.26 12.1 -0.73zm-16.43 9.77c0,-2.76 -0.44,-4.76 -1.29,-5.98 -0.63,-0.86 -1.47,-1.28 -2.54,-1.28 -1.08,0 -2.18,0.51 -3.32,1.54 -2.31,2.1 -4.81,6.38 -7.48,12.83 -2.67,6.45 -4,12.01 -4,16.71 0,1.8 0.3,3.11 0.91,3.9 0.6,0.8 1.26,1.21 1.98,1.21 1.56,0 3.11,-0.89 4.7,-2.66 2.25,-2.52 4.3,-5.59 6.12,-9.23 3.29,-6.4 4.93,-12.08 4.93,-17.04z"/>
  </g>
 </g>
</svg>
