<svg xmlns="http://www.w3.org/2000/svg" xml:space="preserve" width="48.546mm" height="28.2256mm" version="1.1" style="shape-rendering:geometricPrecision; text-rendering:geometricPrecision; image-rendering:optimizeQuality; fill-rule:evenodd; clip-rule:evenodd"
viewBox="0 0 511.1 297.16"
 xmlns:xlink="http://www.w3.org/1999/xlink">
 <defs>
  <style type="text/css">
   <![CDATA[
    .fil0 {fill:#471B18}
    .fil1 {fill:#FF6600}
    .fil2 {fill:#471B18;fill-rule:nonzero}
   ]]>
  </style>
 </defs>
 <g id="Layer_x0020_1">
  <metadata id="CorelCorpID_0Corel-Layer"/>
  <g id="_2420550797360">
   <g>
    <path class="fil0" d="M7.91 91.81c0,0 6.03,-26.36 50.83,-33.51 40.8,-6.52 55.69,20.99 58.02,25.97l371.81 0 -2.74 12.16 -366.81 0c-0.49,12.9 -9.33,34.56 -55.76,53.38 0,0 44.43,36.15 12.43,83.6 0,0 2.26,-70.42 -75.69,-85.48 0,0 98.05,-16.14 89.62,-60.25 0,0 -5.27,-35.77 -81.71,4.14zm209.73 61.65c0,0 9.81,-12.51 30.9,-14.22 0,0 8.83,-27.71 33.35,-23.05 0,0 11.77,1.47 15.94,13.49 0,0 -23.54,-9.57 -30.9,17.17 -6.43,23.35 8.1,31.73 25.12,17.95 0.85,-6.51 2.29,-13.7 4.51,-21.61 14.7,-52.43 15.89,-45.76 20.26,-44.97 4.37,0.79 8.24,16.48 7.03,19.84 -0.6,1.65 -5.04,13.26 -9.6,26.3 8.05,-6.2 17.94,-12.22 25.77,-11.98 15.94,0.49 21.58,18.64 17.41,30.41 -4.17,11.77 -14.96,30.66 -39.73,19.62 0,0 22.32,-4.41 22.32,-23.3 0,-15.07 -23.13,-7.8 -33.58,9.47 -1.29,4.59 -2.23,8.56 -2.56,11.35 -1.7,14.14 -2.73,36.44 -2.73,36.44 0,0 -11.24,-12.11 -10,-41.2 -4.89,4.96 -12.59,11.12 -20.28,10.67 -12.75,-0.73 -26.75,-13.87 -25.26,-30.17 0,0 -6.87,-2.21 -27.96,-2.21zm159.9 63.27c0,0 -25.02,-33.11 -11.28,-76.52 13.73,-43.41 14.47,-42.92 18.88,-42.43 4.41,0.49 8.34,12.02 7.36,15.45 -0.98,3.43 -13.98,52.73 -14.71,66.95 -0.74,14.22 -0.25,36.54 -0.25,36.54zm26.67 -96.72c0,0 7.59,-24.87 47.22,-22.98 0,0 26.98,1.9 27.41,26.77 0.42,24.88 -37.95,36.89 -37.95,36.89 0,0 30.57,25.72 9.49,56.29 0,0 -4.43,-54.6 -48.7,-57.55 0,0 56.71,-5.78 58.18,-32.89 0,0 1.74,-27.01 -55.65,-6.54zm-245.74 0c0,0 7.59,-24.87 47.22,-22.98 0,0 26.98,1.9 27.4,26.77 0.42,24.88 -37.95,36.89 -37.95,36.89 0,0 30.57,25.72 9.49,56.29 0,0 -4.43,-54.6 -48.7,-57.55 0,0 56.71,-5.78 58.18,-32.89 0,0 1.74,-27.01 -55.65,-6.54zm-61.71 34.05c0,0 6.02,-14.82 27.56,-14.13 0,0 3.94,-29.41 13.43,-40.99 0,0 4.63,-4.17 10.65,3.7 6.02,7.87 -0.69,24.08 -0.69,24.08 0,0 -14.95,57.37 -12.42,90.25 0,0 -16.02,-12.86 -12.65,-62.61 0,0 -7.59,-6.32 -25.88,-0.31z"/>
    <circle class="fil1" cx="146.07" cy="35.48" r="35.48"/>
   </g>
   <path class="fil2" d="M232.38 229.2l-5.89 20.74 1.83 0c4.82,0 8.32,-0.63 10.52,-1.88 2.22,-1.25 4.09,-3.48 5.61,-6.67l1.37 0 -5.92 20.75 -1.37 0c0.24,-1.39 0.35,-2.52 0.35,-3.38 0,-1.45 -0.42,-2.62 -1.28,-3.55 -0.85,-0.91 -1.95,-1.57 -3.32,-1.96 -0.89,-0.26 -2.73,-0.39 -5.54,-0.39l-3.07 0 -5.11 17.96c-0.46,1.59 -0.67,2.76 -0.67,3.52 0,0.61 0.28,1.09 0.86,1.45 0.85,0.52 2.44,0.79 4.76,0.79 4.49,0 8.72,-0.95 12.69,-2.87 3.96,-1.91 7.52,-4.8 10.67,-8.68l1.62 0 -5.57 14.69 -45.2 0 0.48 -1.37c2.54,0 4.4,-0.51 5.57,-1.53 1.17,-1.02 2.22,-3.27 3.18,-6.75l9.86 -34.53c0.55,-1.92 0.82,-3.44 0.82,-4.55 0,-1.01 -0.36,-1.78 -1.09,-2.31 -0.73,-0.54 -2.4,-0.9 -5.02,-1.09l0.32 -1.37 43.13 0 -3.5 13.4 -1.37 0c-0.11,-2.62 -0.51,-4.48 -1.24,-5.56 -1.12,-1.68 -2.6,-2.92 -4.44,-3.7 -1.84,-0.77 -4.83,-1.16 -8.97,-1.16l-5.06 0z"/>
   <path id="1" class="fil2" d="M282 225l-13.53 44.65c-0.78,2.65 -1.18,4.29 -1.18,4.95 0,0.34 0.12,0.61 0.34,0.83 0.23,0.23 0.47,0.34 0.74,0.34 0.47,0 0.93,-0.17 1.35,-0.52 1.28,-0.98 2.69,-2.64 4.26,-4.97l1.53 0.67c-2.52,3.82 -4.98,6.54 -7.4,8.17 -1.67,1.1 -3.43,1.66 -5.3,1.66 -1.75,0 -3.13,-0.46 -4.16,-1.39 -1.04,-0.91 -1.55,-2.03 -1.55,-3.32 0,-0.98 0.32,-2.54 0.98,-4.69l11.02 -36.35c0.61,-1.99 0.9,-3.32 0.9,-3.98 0,-0.63 -0.3,-1.13 -0.89,-1.49 -0.79,-0.52 -2,-0.75 -3.62,-0.67l0.32 -1.53 13.73 -2.34 2.45 0z"/>
   <path id="2" class="fil2" d="M290.85 264.87c-0.23,1.71 -0.35,3.12 -0.35,4.22 0,1.98 0.58,3.55 1.72,4.74 1.14,1.18 2.68,1.78 4.6,1.78 1.84,0 3.69,-0.39 5.54,-1.18 1.86,-0.79 4.01,-2.17 6.46,-4.14l1.21 1c-3.03,3.43 -5.96,5.87 -8.83,7.32 -2.87,1.45 -6.03,2.18 -9.5,2.18 -4.38,0 -7.43,-1.05 -9.11,-3.15 -1.68,-2.1 -2.52,-4.53 -2.52,-7.29 0,-4.31 1.25,-8.61 3.77,-12.92 2.5,-4.3 5.92,-7.76 10.25,-10.36 4.32,-2.6 8.66,-3.9 13.02,-3.9 2.21,0 3.87,0.52 5,1.57 1.13,1.05 1.7,2.37 1.7,3.97 0,1.92 -0.55,3.78 -1.66,5.58 -1.53,2.48 -3.46,4.45 -5.78,5.96 -2.31,1.52 -4.91,2.66 -7.78,3.44 -1.94,0.52 -4.52,0.91 -7.76,1.18zm0.36 -2.02c2.33,-0.34 4.13,-0.81 5.42,-1.4 1.28,-0.58 2.54,-1.52 3.77,-2.83 1.24,-1.29 2.3,-2.92 3.2,-4.9 0.9,-1.98 1.34,-3.83 1.34,-5.56 0,-0.73 -0.2,-1.3 -0.62,-1.72 -0.4,-0.42 -0.93,-0.63 -1.56,-0.63 -1.28,0 -2.7,0.87 -4.29,2.62 -2.91,3.2 -5.33,8 -7.26,14.41z"/>
   <path id="3" class="fil2" d="M345.34 245.5l10.53 0 -1.29 4.36 -5.46 0c0.85,1.56 1.26,3.04 1.26,4.45 0,2.41 -0.65,4.63 -1.95,6.67 -1.29,2.04 -3.2,3.67 -5.73,4.88 -2.53,1.22 -5.34,1.83 -8.44,1.83 -0.81,0 -1.71,-0.07 -2.69,-0.19 -0.98,-0.12 -2.06,-0.3 -3.2,-0.51 -1.74,0.89 -2.83,1.59 -3.27,2.11 -0.31,0.36 -0.47,0.75 -0.47,1.14 0,0.47 0.2,0.87 0.59,1.21 0.67,0.61 1.68,1.05 3.01,1.33 5.34,1.16 8.87,2.09 10.56,2.78 2.33,0.98 4.09,2.23 5.27,3.75 1.2,1.52 1.79,3.36 1.79,5.52 0,3.3 -1.51,6.16 -4.53,8.62 -3.01,2.46 -7.68,3.69 -14.02,3.69 -6.38,0 -11.09,-1.05 -14.1,-3.16 -2.18,-1.52 -3.27,-3.35 -3.27,-5.45 0,-1.62 0.73,-3.09 2.17,-4.47 1.44,-1.37 4.52,-2.58 9.23,-3.63 -1.6,-0.89 -2.68,-1.71 -3.23,-2.44 -0.77,-0.99 -1.14,-2.03 -1.14,-3.11 0,-1.76 0.7,-3.3 2.09,-4.64 1.4,-1.33 3.75,-2.66 7.06,-3.97 -2.57,-1.02 -4.44,-2.35 -5.58,-3.97 -1.14,-1.61 -1.71,-3.51 -1.71,-5.66 0,-2.29 0.69,-4.47 2.07,-6.54 1.37,-2.07 3.42,-3.74 6.11,-5.03 2.69,-1.29 5.79,-1.94 9.28,-1.94 2.23,0 4.21,0.24 5.95,0.73 0.89,0.26 1.94,0.79 3.11,1.61zm-8.21 -0.4c-1.28,0 -2.37,0.42 -3.26,1.26 -1.41,1.28 -2.64,3.44 -3.7,6.46 -1.06,3.03 -1.59,5.89 -1.59,8.6 0,1.29 0.38,2.31 1.12,3.05 0.74,0.75 1.67,1.13 2.76,1.13 1.08,0 2,-0.36 2.78,-1.1 1.49,-1.45 2.79,-3.75 3.89,-6.91 1.09,-3.18 1.64,-6.04 1.64,-8.62 0,-1.16 -0.35,-2.09 -1.06,-2.8 -0.7,-0.71 -1.56,-1.06 -2.58,-1.06zm-13.56 36.27c-2.52,0.97 -4.24,2.02 -5.15,3.15 -0.91,1.13 -1.37,2.35 -1.37,3.67 0,1.71 0.9,3.26 2.69,4.64 1.79,1.39 4.65,2.07 8.58,2.07 3.27,0 5.65,-0.59 7.12,-1.79 1.47,-1.2 2.19,-2.6 2.19,-4.2 0,-1.43 -0.66,-2.58 -1.99,-3.47 -1.32,-0.9 -3.9,-1.83 -7.72,-2.81 -1.78,-0.47 -3.23,-0.9 -4.34,-1.26z"/>
   <path id="4" class="fil2" d="M393.35 243.73l-7.75 26.19 -0.81 3.19c-0.08,0.39 -0.12,0.69 -0.12,0.87 0,0.31 0.11,0.58 0.34,0.82 0.21,0.23 0.44,0.35 0.67,0.35 0.54,0 1.29,-0.42 2.25,-1.25 0.39,-0.35 1.32,-1.55 2.8,-3.62l1.37 0.71c-1.87,3.4 -3.85,5.88 -5.95,7.44 -2.11,1.56 -4.39,2.34 -6.82,2.34 -1.49,0 -2.62,-0.38 -3.42,-1.14 -0.78,-0.77 -1.17,-1.74 -1.17,-2.91 0,-1.02 0.43,-2.92 1.29,-5.7l0.96 -3.2c-3.05,5.23 -5.99,8.93 -8.8,11.09 -1.63,1.25 -3.36,1.87 -5.21,1.87 -2.42,0 -4.17,-1 -5.26,-2.97 -1.08,-1.98 -1.62,-4.22 -1.62,-6.71 0,-3.7 1.13,-7.95 3.4,-12.74 2.27,-4.8 5.26,-8.65 8.96,-11.57 3.04,-2.41 5.89,-3.62 8.57,-3.62 1.48,0 2.66,0.43 3.56,1.28 0.9,0.86 1.56,2.41 1.98,4.67l1.45 -4.82 9.31 -0.56zm-12.65 7.52c0,-2.13 -0.34,-3.66 -1,-4.6 -0.48,-0.66 -1.13,-0.98 -1.95,-0.98 -0.83,0 -1.68,0.39 -2.56,1.18 -1.78,1.62 -3.7,4.91 -5.76,9.88 -2.06,4.96 -3.08,9.24 -3.08,12.86 0,1.39 0.23,2.4 0.7,3 0.46,0.62 0.97,0.93 1.52,0.93 1.2,0 2.4,-0.69 3.62,-2.04 1.74,-1.94 3.31,-4.3 4.71,-7.1 2.53,-4.92 3.79,-9.3 3.79,-13.12z"/>
   <path id="5" class="fil2" d="M416.9 243.16l-5.05 16.92c3.48,-4.95 6.09,-8.33 7.82,-10.14 2.54,-2.62 4.72,-4.41 6.56,-5.35 1.84,-0.96 3.57,-1.43 5.18,-1.43 1.45,0 2.69,0.55 3.73,1.67 1.04,1.1 1.55,2.56 1.55,4.34 0,1.44 -0.34,3.2 -1.01,5.27l-5.38 16.56c-0.46,1.44 -0.67,2.38 -0.67,2.82 0,0.27 0.09,0.5 0.3,0.71 0.19,0.2 0.39,0.31 0.61,0.31 0.27,0 0.54,-0.11 0.83,-0.31 0.91,-0.75 1.84,-1.83 2.8,-3.2 0.23,-0.36 0.62,-0.9 1.14,-1.63l1.53 0.89c-3.92,6.4 -8.02,9.61 -12.34,9.61 -1.64,0 -2.93,-0.42 -3.86,-1.26 -0.93,-0.85 -1.4,-1.9 -1.4,-3.16 0,-1.1 0.34,-2.76 1.02,-4.94l5.35 -16.87c0.38,-1.1 0.56,-1.92 0.56,-2.45 0,-0.28 -0.13,-0.54 -0.39,-0.77 -0.26,-0.23 -0.57,-0.34 -0.9,-0.34 -1.09,0 -2.41,0.69 -3.96,2.06 -3.96,3.47 -7.79,8.66 -11.48,15.54l-3.38 11.7 -10.17 0 7.57 -25.24c0.71,-2.5 1.12,-4.28 1.21,-5.34 0,-0.44 -0.12,-0.83 -0.35,-1.13 -0.23,-0.31 -0.61,-0.55 -1.13,-0.73 -0.52,-0.17 -1.51,-0.26 -2.95,-0.26l0.32 -1.53 13.8 -2.34 2.5 0z"/>
   <path id="6" class="fil2" d="M470.11 270.28l1.21 1.05c-2.56,3.03 -5.07,5.23 -7.55,6.63 -3.3,1.87 -6.71,2.81 -10.25,2.81 -2.37,0 -4.47,-0.51 -6.31,-1.52 -1.83,-1.01 -3.17,-2.42 -4.05,-4.25 -0.87,-1.83 -1.31,-3.7 -1.31,-5.61 0,-4.3 1.17,-8.54 3.51,-12.7 2.34,-4.17 5.43,-7.47 9.28,-9.89 3.85,-2.44 7.63,-3.65 11.34,-3.65 2.97,0 5.21,0.66 6.71,1.96 1.49,1.3 2.25,2.93 2.25,4.87 0,1.75 -0.57,3.24 -1.71,4.48 -1.13,1.22 -2.41,1.84 -3.81,1.84 -1.22,0 -2.23,-0.39 -3.04,-1.18 -0.81,-0.78 -1.21,-1.72 -1.21,-2.8 0,-1.41 0.71,-2.65 2.14,-3.7 0.98,-0.73 1.48,-1.37 1.48,-1.92 0,-0.47 -0.2,-0.86 -0.59,-1.14 -0.53,-0.42 -1.21,-0.63 -2.06,-0.63 -2.21,0 -4.29,0.89 -6.23,2.68 -2.58,2.38 -4.56,5.38 -5.92,9 -1.37,3.63 -2.06,7.09 -2.06,10.34 0,2.58 0.7,4.64 2.1,6.18 1.4,1.55 3.05,2.31 4.99,2.31 1.68,0 3.51,-0.43 5.47,-1.28 1.96,-0.86 3.83,-2.15 5.6,-3.89z"/>
   <path id="7" class="fil2" d="M488.12 264.87c-0.23,1.71 -0.35,3.12 -0.35,4.22 0,1.98 0.58,3.55 1.72,4.74 1.14,1.18 2.68,1.78 4.6,1.78 1.84,0 3.69,-0.39 5.54,-1.18 1.86,-0.79 4.01,-2.17 6.46,-4.14l1.21 1c-3.03,3.43 -5.96,5.87 -8.83,7.32 -2.87,1.45 -6.03,2.18 -9.5,2.18 -4.38,0 -7.43,-1.05 -9.11,-3.15 -1.68,-2.1 -2.52,-4.53 -2.52,-7.29 0,-4.31 1.25,-8.61 3.77,-12.92 2.5,-4.3 5.92,-7.76 10.25,-10.36 4.32,-2.6 8.66,-3.9 13.02,-3.9 2.21,0 3.87,0.52 5,1.57 1.13,1.05 1.7,2.37 1.7,3.97 0,1.92 -0.55,3.78 -1.66,5.58 -1.53,2.48 -3.46,4.45 -5.78,5.96 -2.31,1.52 -4.91,2.66 -7.78,3.44 -1.94,0.52 -4.52,0.91 -7.76,1.18zm0.36 -2.02c2.33,-0.34 4.13,-0.81 5.42,-1.4 1.28,-0.58 2.54,-1.52 3.77,-2.83 1.24,-1.29 2.3,-2.92 3.2,-4.9 0.9,-1.98 1.34,-3.83 1.34,-5.56 0,-0.73 -0.2,-1.3 -0.62,-1.72 -0.4,-0.42 -0.93,-0.63 -1.56,-0.63 -1.28,0 -2.7,0.87 -4.29,2.62 -2.91,3.2 -5.33,8 -7.26,14.41z"/>
  </g>
 </g>
</svg>
