<svg xmlns="http://www.w3.org/2000/svg" xml:space="preserve" width="50.7997mm" height="29.7047mm" version="1.1" style="shape-rendering:geometricPrecision; text-rendering:geometricPrecision; image-rendering:optimizeQuality; fill-rule:evenodd; clip-rule:evenodd"
viewBox="0 0 1511.47 883.82"
 xmlns:xlink="http://www.w3.org/1999/xlink">
 <defs>
  <style type="text/css">
   <![CDATA[
    .fil0 {fill:#471B18}
    .fil1 {fill:#FF6600}
    .fil2 {fill:#FF6600;fill-rule:nonzero}
   ]]>
  </style>
 </defs>
 <g id="Layer_x0020_1">
  <metadata id="CorelCorpID_0Corel-Layer"/>
  <g id="_2423789902368">
   <g>
    <path class="fil0" d="M24.35 282.7c0,0 18.55,-81.16 156.53,-103.19 125.64,-20.06 171.48,64.65 178.68,79.97l1144.9 0 -8.44 37.43 -1129.53 0c-1.51,39.71 -28.74,106.43 -171.7,164.36 0,0 136.82,111.32 38.26,257.42 0,0 6.96,-216.83 -233.06,-263.21 0,0 301.93,-49.69 275.96,-185.53 0,0 -16.23,-110.15 -251.61,12.76zm645.81 189.85c0,0 30.2,-38.51 95.15,-43.8 0,0 27.19,-85.34 102.71,-70.99 0,0 36.25,4.53 49.09,41.54 0,0 -72.5,-29.46 -95.15,52.86 -19.79,71.9 24.95,97.7 77.35,55.28 2.63,-20.04 7.06,-42.18 13.9,-66.55 45.25,-161.44 48.92,-140.91 62.38,-138.48 13.46,2.44 25.37,50.75 21.63,61.1 -1.84,5.09 -15.52,40.83 -29.55,80.99 24.78,-19.08 55.24,-37.63 79.34,-36.89 49.09,1.51 66.45,57.39 53.62,93.64 -12.84,36.25 -46.06,94.4 -122.34,60.42 0,0 68.72,-13.59 68.72,-71.74 0,-46.42 -71.22,-24.02 -103.41,29.16 -3.98,14.14 -6.86,26.36 -7.89,34.95 -5.25,43.54 -8.42,112.21 -8.42,112.21 0,0 -34.62,-37.3 -30.8,-126.87 -15.07,15.27 -38.75,34.24 -62.44,32.87 -39.27,-2.26 -82.36,-42.72 -77.78,-92.89 0,0 -21.15,-6.8 -86.09,-6.8zm492.38 194.84c0,0 -77.03,-101.95 -34.74,-235.62 42.29,-133.67 44.55,-132.16 58.15,-130.65 13.59,1.51 25.68,37 22.66,47.58 -3.02,10.58 -43.04,162.37 -45.31,206.17 -2.27,43.8 -0.76,112.52 -0.76,112.52zm82.13 -297.84c0,0 23.36,-76.59 145.4,-70.75 0,0 83.09,5.84 84.39,82.44 1.3,76.6 -116.85,113.6 -116.85,113.6 0,0 94.13,79.2 29.21,173.32 0,0 -13.63,-168.13 -149.95,-177.22 0,0 174.62,-17.8 179.16,-101.27 0,0 5.34,-83.16 -171.37,-20.13zm-756.7 0c0,0 23.37,-76.59 145.41,-70.75 0,0 83.09,5.84 84.39,82.44 1.3,76.6 -116.85,113.6 -116.85,113.6 0,0 94.13,79.2 29.21,173.32 0,0 -13.63,-168.13 -149.95,-177.22 0,0 174.62,-17.8 179.16,-101.27 0,0 5.35,-83.16 -171.37,-20.13zm-190.04 104.85c0,0 18.54,-45.64 84.85,-43.5 0,0 12.13,-90.56 41.36,-126.21 0,0 14.26,-12.83 32.8,11.41 18.54,24.25 -2.14,74.15 -2.14,74.15 0,0 -46.03,176.64 -38.24,277.91 0,0 -49.33,-39.6 -38.95,-192.8 0,0 -23.37,-19.48 -79.68,-0.97z"/>
    <circle class="fil1" cx="449.81" cy="109.25" r="109.25"/>
   </g>
   <path class="fil2" d="M1039.54 701.41l-26.18 89.88c9.21,-13.23 15.88,-22.17 20.03,-26.83 6.22,-6.7 11.56,-11.26 16.02,-13.6 4.46,-2.34 8.74,-3.53 12.82,-3.53 3.47,0 6.46,1.32 8.94,4.01 2.48,2.65 3.74,6.22 3.74,10.64 0,3.57 -0.88,8.03 -2.62,13.4l-13.84 42.24c-1.23,3.7 -1.84,6.19 -1.84,7.45 0,0.58 0.24,1.12 0.71,1.63 0.44,0.48 0.99,0.71 1.57,0.71 0.82,0 1.6,-0.31 2.42,-0.98 2.11,-1.63 4.39,-4.25 6.77,-7.85 0.61,-0.92 1.57,-2.28 2.89,-4.11l3.88 2.17c-5.78,9.28 -11.26,15.68 -16.43,19.15 -5.17,3.47 -10.07,5.2 -14.69,5.2 -4.15,0 -7.41,-1.05 -9.76,-3.2 -2.35,-2.14 -3.54,-4.79 -3.54,-7.99 0,-2.92 0.88,-7.07 2.62,-12.45l13.64 -42.47c0.85,-2.92 1.29,-5.07 1.29,-6.39 0,-0.71 -0.27,-1.36 -0.85,-1.94 -0.61,-0.58 -1.26,-0.85 -2.04,-0.85 -2.45,0 -5.85,2.01 -10.2,5.99 -8.91,8.19 -17.85,21.01 -26.8,38.53l-8.81 29.55 -24.96 0 33.09 -112.49c1.36,-4.76 2.08,-8.19 2.11,-10.27 0,-1.7 -0.75,-3.03 -2.24,-3.95 -1.97,-1.29 -5,-1.84 -9.08,-1.63l0.82 -4.08 34.35 -5.92 6.19 0z"/>
   <path id="1" class="fil2" d="M1117.04 802.21c-0.58,4.32 -0.88,7.89 -0.88,10.68 0,5 1.46,8.98 4.35,11.97 2.89,2.99 6.77,4.49 11.63,4.49 4.66,0 9.32,-0.99 14.01,-2.99 4.7,-2.01 10.13,-5.47 16.32,-10.47l3.06 2.51c-7.65,8.67 -15.06,14.83 -22.31,18.5 -7.24,3.67 -15.23,5.51 -24.01,5.51 -11.08,0 -18.77,-2.65 -23.02,-7.96 -4.25,-5.31 -6.36,-11.46 -6.36,-18.43 0,-10.88 3.16,-21.76 9.52,-32.65 6.33,-10.88 14.96,-19.62 25.91,-26.18 10.92,-6.56 21.9,-9.86 32.92,-9.86 5.58,0 9.79,1.32 12.65,3.98 2.86,2.65 4.28,5.98 4.28,10.03 0,4.86 -1.4,9.56 -4.18,14.11 -3.88,6.26 -8.74,11.26 -14.62,15.07 -5.85,3.84 -12.41,6.73 -19.66,8.7 -4.9,1.33 -11.43,2.31 -19.62,2.99zm0.92 -5.1c5.88,-0.85 10.44,-2.04 13.7,-3.54 3.23,-1.46 6.43,-3.84 9.52,-7.14 3.13,-3.26 5.81,-7.38 8.09,-12.38 2.28,-5 3.4,-9.69 3.4,-14.04 0,-1.84 -0.51,-3.3 -1.57,-4.35 -1.02,-1.06 -2.35,-1.6 -3.95,-1.6 -3.23,0 -6.83,2.21 -10.85,6.63 -7.34,8.09 -13.47,20.24 -18.36,36.42z"/>
   <path id="2" class="fil2" d="M1222.19 701.41c4.11,0 7.62,1.43 10.47,4.28 2.82,2.89 4.25,6.33 4.25,10.41 0,4.05 -1.43,7.51 -4.32,10.4 -2.86,2.86 -6.36,4.28 -10.4,4.28 -4.01,0 -7.48,-1.43 -10.34,-4.28 -2.89,-2.89 -4.32,-6.36 -4.32,-10.4 0,-4.08 1.43,-7.52 4.25,-10.41 2.86,-2.86 6.33,-4.28 10.4,-4.28zm8.09 45.91l-22 70.15c-1.23,4.01 -1.84,6.66 -1.84,7.89 0,0.78 0.31,1.5 0.89,2.15 0.58,0.65 1.19,0.98 1.87,0.98 1.09,0 2.21,-0.51 3.33,-1.57 2.92,-2.55 6.46,-7.21 10.58,-13.91l3.47 2.07c-10.13,18.19 -20.88,27.3 -32.27,27.3 -4.35,0 -7.82,-1.19 -10.4,-3.6 -2.59,-2.38 -3.88,-5.44 -3.88,-9.11 0,-2.45 0.61,-5.58 1.87,-9.35l15.23 -47.61c1.46,-4.56 2.21,-8.02 2.21,-10.34 0,-1.46 -0.68,-2.76 -2.04,-3.88 -1.33,-1.12 -3.2,-1.7 -5.51,-1.7 -1.09,0 -2.34,0.04 -3.84,0.1l1.22 -4.08 34.96 -5.51 6.15 0z"/>
   <path id="3" class="fil2" d="M1311.45 753.24l26.63 0 -3.26 11.02 -13.81 0c2.14,3.95 3.2,7.69 3.2,11.26 0,6.09 -1.63,11.7 -4.93,16.87 -3.26,5.17 -8.09,9.28 -14.49,12.34 -6.39,3.09 -13.5,4.62 -21.32,4.62 -2.04,0 -4.32,-0.17 -6.8,-0.48 -2.48,-0.31 -5.2,-0.75 -8.09,-1.29 -4.39,2.24 -7.14,4.01 -8.26,5.34 -0.78,0.92 -1.19,1.9 -1.19,2.89 0,1.19 0.51,2.21 1.5,3.06 1.7,1.53 4.25,2.65 7.62,3.37 13.5,2.92 22.41,5.27 26.69,7.04 5.88,2.48 10.34,5.64 13.33,9.49 3.03,3.84 4.52,8.5 4.52,13.94 0,8.33 -3.81,15.57 -11.46,21.8 -7.62,6.22 -19.42,9.32 -35.43,9.32 -16.12,0 -28.02,-2.65 -35.64,-7.99 -5.51,-3.84 -8.26,-8.47 -8.26,-13.77 0,-4.08 1.84,-7.82 5.47,-11.29 3.64,-3.47 11.43,-6.53 23.33,-9.18 -4.05,-2.24 -6.77,-4.32 -8.16,-6.16 -1.94,-2.51 -2.89,-5.13 -2.89,-7.85 0,-4.45 1.77,-8.33 5.27,-11.73 3.53,-3.37 9.49,-6.73 17.85,-10.03 -6.5,-2.59 -11.22,-5.95 -14.11,-10.03 -2.89,-4.08 -4.32,-8.88 -4.32,-14.32 0,-5.78 1.73,-11.29 5.24,-16.53 3.47,-5.24 8.64,-9.45 15.44,-12.72 6.8,-3.26 14.62,-4.89 23.46,-4.89 5.65,0 10.65,0.61 15.03,1.84 2.24,0.65 4.9,2.01 7.85,4.08zm-20.74 -1.02c-3.23,0 -5.98,1.06 -8.23,3.2 -3.57,3.23 -6.67,8.71 -9.35,16.32 -2.69,7.65 -4.01,14.89 -4.01,21.73 0,3.26 0.95,5.85 2.82,7.72 1.87,1.9 4.22,2.86 6.97,2.86 2.72,0 5.06,-0.92 7.04,-2.79 3.78,-3.67 7.04,-9.49 9.83,-17.48 2.76,-8.03 4.15,-15.27 4.15,-21.8 0,-2.92 -0.88,-5.27 -2.69,-7.07 -1.77,-1.8 -3.95,-2.69 -6.53,-2.69zm-34.28 91.68c-6.36,2.45 -10.71,5.1 -13.03,7.96 -2.31,2.86 -3.47,5.95 -3.47,9.28 0,4.32 2.28,8.23 6.8,11.73 4.52,3.5 11.76,5.24 21.69,5.24 8.27,0 14.28,-1.5 17.99,-4.52 3.71,-3.03 5.54,-6.56 5.54,-10.61 0,-3.6 -1.67,-6.53 -5.03,-8.77 -3.33,-2.28 -9.86,-4.62 -19.52,-7.11 -4.49,-1.19 -8.16,-2.28 -10.98,-3.2z"/>
   <path id="4" class="fil2" d="M1402.28 701.41l-26.18 89.88c9.21,-13.23 15.88,-22.17 20.03,-26.83 6.22,-6.7 11.56,-11.26 16.02,-13.6 4.46,-2.34 8.74,-3.53 12.82,-3.53 3.47,0 6.46,1.32 8.94,4.01 2.48,2.65 3.74,6.22 3.74,10.64 0,3.57 -0.88,8.03 -2.62,13.4l-13.84 42.24c-1.23,3.7 -1.84,6.19 -1.84,7.45 0,0.58 0.24,1.12 0.71,1.63 0.44,0.48 0.99,0.71 1.57,0.71 0.82,0 1.6,-0.31 2.42,-0.98 2.11,-1.63 4.39,-4.25 6.77,-7.85 0.61,-0.92 1.57,-2.28 2.89,-4.11l3.88 2.17c-5.78,9.28 -11.26,15.68 -16.43,19.15 -5.17,3.47 -10.07,5.2 -14.69,5.2 -4.15,0 -7.41,-1.05 -9.76,-3.2 -2.35,-2.14 -3.54,-4.79 -3.54,-7.99 0,-2.92 0.88,-7.07 2.62,-12.45l13.64 -42.47c0.85,-2.92 1.29,-5.07 1.29,-6.39 0,-0.71 -0.27,-1.36 -0.85,-1.94 -0.61,-0.58 -1.26,-0.85 -2.04,-0.85 -2.45,0 -5.85,2.01 -10.2,5.99 -8.91,8.19 -17.85,21.01 -26.8,38.53l-8.81 29.55 -24.96 0 33.09 -112.49c1.36,-4.76 2.08,-8.19 2.11,-10.27 0,-1.7 -0.75,-3.03 -2.24,-3.95 -1.97,-1.29 -5,-1.84 -9.08,-1.63l0.82 -4.08 34.35 -5.92 6.19 0z"/>
   <path id="5" class="fil2" d="M1508.48 723.04l-8.36 27.14 11.36 0 -3.47 11.43 -11.32 0 -18.12 58.52c-1.16,3.61 -1.73,6.39 -1.73,8.27 0,0.61 0.31,1.15 0.92,1.6 0.58,0.44 1.26,0.65 1.97,0.65 1.16,0 2.31,-0.44 3.54,-1.4 3.06,-2.31 6.63,-6.36 10.71,-12.14l3.47 2.18c-4.59,7.99 -9.66,13.84 -15.2,17.55 -5.54,3.71 -10.99,5.58 -16.29,5.58 -4.56,0 -8.05,-1.12 -10.57,-3.4 -2.48,-2.28 -3.74,-5.14 -3.74,-8.6 0,-3.88 0.92,-8.81 2.79,-14.86l16.9 -53.93 -12.82 0 1.9 -7.38c8.09,-3.13 15.13,-6.77 21.12,-10.95 5.95,-4.18 13.16,-10.95 21.59,-20.23l5.37 0z"/>
  </g>
 </g>
</svg>
