<svg xmlns="http://www.w3.org/2000/svg" xml:space="preserve" width="38.1mm" height="38.1mm" version="1.1" style="shape-rendering:geometricPrecision; text-rendering:geometricPrecision; image-rendering:optimizeQuality; fill-rule:evenodd; clip-rule:evenodd"
viewBox="0 0 467.52 467.52"
 xmlns:xlink="http://www.w3.org/1999/xlink">
 <defs>
  <style type="text/css">
   <![CDATA[
    .fil3 {fill:none}
    .fil2 {fill:#FEFEFE}
    .fil0 {fill:black}
    .fil4 {fill:#FEFEFE;fill-rule:nonzero}
    .fil1 {fill:#EF7F1A;fill-rule:nonzero}
   ]]>
  </style>
     <clipPath id="id0">
      <path d="M84.62 267.39l0 -197.19 297.44 0 0 194.58c-7.42,-0.31 -14.85,-0.49 -22.16,-0.87l-58.18 -1.7 -133.32 1.09 -58.12 2.64c-8.46,0.57 -17.07,0.88 -25.66,1.45z"/>
     </clipPath>
      <clipPath id="id1">
       <path d="M84.62 267.39l0 -197.19 297.44 0 0 194.58c-7.42,-0.31 -14.85,-0.49 -22.16,-0.87l-58.18 -1.7 -133.32 1.09 -58.12 2.64c-8.46,0.57 -17.07,0.88 -25.66,1.45z"/>
      </clipPath>
      <clipPath id="id2">
       <path d="M84.62 267.39l0 -197.19 297.44 0 0 194.58c-7.42,-0.31 -14.85,-0.49 -22.16,-0.87l-58.18 -1.7 -133.32 1.09 -58.12 2.64c-8.46,0.57 -17.07,0.88 -25.66,1.45z"/>
      </clipPath>
 </defs>
 <g id="Layer_x0020_1">
  <metadata id="CorelCorpID_0Corel-Layer"/>
  <g id="_2479707611200">
   <polygon class="fil0" points="-0,0 467.52,0 467.52,467.52 -0,467.52 "/>
   <g>
    <path class="fil1" d="M123.64 341.24c3.82,-2.19 7.66,-3.3 11.85,-4.53 6.28,-2.71 13.33,-5.27 18.96,-9.37 0.65,-19.25 3.85,-38.73 6.74,-49.67l-46.07 -1.34c25.39,13.02 21.6,48.89 1.62,63.92l-0.03 0.1c3.16,5.02 6.14,10.06 8.78,14.76 7.83,13.89 22.79,46.48 1.74,22.77 -5.35,-6.03 -17.26,-23.41 -22.19,-29.8l0 0c-6.04,3.57 -12.21,6.06 -19.5,6.76 -6.54,0.21 -11.15,1.12 -17.29,-2.29 -8.72,-4.84 -15.4,-12.75 -17.39,-22.53 -2.19,-10.78 3.73,-20.01 12.55,-24.9 9.17,-5.08 23.4,-1.03 30.89,5.96 4.47,4.18 9.27,10.06 13.96,16.63l0.22 0.09c0.08,-0.12 0.16,-0.24 0.24,-0.36 13.51,-21.08 8.1,-35.69 1.04,-51.29 -18.53,-0.9 -37.76,-0.66 -55.75,-4.62l0 0c18.23,-4.34 37.85,-4.33 56.67,-5.59l58.12 -2.64 133.32 -1.09 58.18 1.7c18.85,0.96 38.46,0.63 56.79,4.67l0 0c-12.63,3 -25.92,3.92 -39.16,4.62 0.83,0.94 1.53,1.91 1.84,3.04 6.4,22.8 15.45,81.88 -3.27,101.54 -17.39,-18.27 -9.32,-79.99 -3.27,-101.54 0.09,-0.33 0.22,-0.64 0.37,-0.95 -1.46,0.67 -3.39,1.47 -5.88,2.45 -16.22,6.33 -37.42,20.2 -46.4,31.57 -9.21,6.97 -15.34,24.58 -11.49,34.94 1.88,5.07 9.57,10.56 15.32,8.71 19.66,-6.3 19.46,-22.17 11.63,-36.9 -2.72,-5.12 -10.1,-18.9 3.86,-11.72 8.99,4.62 13.83,14.81 15.37,21.51 9.17,40.05 -30.1,63.48 -56.92,37.09 -5.35,-5.27 -8.21,-11.64 -9.27,-19.2 -2.35,-16.67 2.21,-27.9 12.79,-39.17 16.54,-17.6 35.48,-25.73 61.89,-30.48 0.47,-0.08 0.96,-0.17 1.47,-0.26 -1.87,0.11 -3.73,0.22 -5.58,0.34l-58.12 2.64 -32.29 0.26c0.05,0.56 0.08,1.13 0.11,1.7 0.5,0.67 0.9,1.38 1.12,2.15 6.4,22.8 15.45,81.88 -3.27,101.54 -7.21,-7.57 -10.04,-22.6 -10.46,-39.14 -10.82,18.47 -29.9,31.24 -54.11,27.87 -16.25,-2.26 -20.04,-8.71 -20.66,-23.77 -0.72,-17.77 20.56,-53.06 60.14,-59.07 13.7,-2.08 11.75,3.24 7.03,5.65 -14.71,7.51 -27.23,12.9 -36.56,26.75 -3.13,4.66 -5.95,8.54 -7.9,13.84 -11.08,30.04 19.55,19.91 36.02,7.3 10.16,-7.78 15.24,-22.88 18.65,-37.91 1.35,-9.38 3.04,-17.53 4.59,-23.05 0.01,-0.04 0.02,-0.08 0.03,-0.11 0.26,-1.28 0.52,-2.51 0.79,-3.7l-96.54 0.78 -0.43 -0.01c6.36,23.87 14.57,80.69 -3.72,99.89 -7.03,-7.39 -9.9,-21.88 -10.42,-37.94 -4.93,3.25 -11.91,4.21 -17.67,4.57 -1.45,0.09 -2.91,-0.11 -4.36,-0.22 -3.88,-0.32 -5.47,-0.63 -8.75,-2.94l0 0zm-27.19 -4.42c-1.16,-1.4 -2.38,-2.76 -3.68,-4.08 -4.9,-4.94 -15.7,-20.73 -23.42,-13.53 -9.29,8.65 2.07,19.82 12.82,20.05 4.46,0.09 9.56,-0.57 14.27,-2.34l0.02 -0.1z"/>
    <path class="fil2" d="M90.65 46.54l7.96 0 -3.91 -9.95 -4.06 9.95zm-5.84 9.53l10.04 -23.77 9.62 23.77 -2.27 0 -2.92 -7.75 -9.34 0 -3.03 7.75 -2.11 0zm21.94 0l0 -13.85 1.82 0 0 2.14c0.56,-0.88 1.25,-1.55 2.07,-1.99 0.81,-0.44 1.75,-0.66 2.81,-0.66 1.57,0 2.8,0.44 3.67,1.31 0.87,0.87 1.31,2.09 1.31,3.65l0 9.4 -1.95 0 0 -8.54c0,-1.39 -0.29,-2.41 -0.87,-3.09 -0.58,-0.67 -1.47,-1.01 -2.68,-1.01 -1.47,0 -2.55,0.44 -3.24,1.31 -0.69,0.87 -1.04,2.23 -1.04,4.1l0 7.23 -1.92 0zm26.77 -6.78c0,1.79 0.4,3.17 1.21,4.14 0.81,0.96 1.96,1.45 3.47,1.45 1.46,0 2.61,-0.53 3.44,-1.58 0.84,-1.06 1.26,-2.51 1.26,-4.37 0,-1.69 -0.42,-3.03 -1.25,-4 -0.83,-0.98 -1.97,-1.46 -3.42,-1.46 -1.44,0 -2.59,0.52 -3.44,1.55 -0.84,1.04 -1.26,2.46 -1.26,4.27zm9.34 6.78l0 -2.53c-0.46,1.02 -1.1,1.8 -1.93,2.34 -0.83,0.54 -1.8,0.8 -2.93,0.8 -1.99,0 -3.59,-0.68 -4.81,-2.05 -1.21,-1.36 -1.82,-3.16 -1.82,-5.4 0,-2.22 0.6,-4.02 1.8,-5.43 1.2,-1.4 2.74,-2.1 4.64,-2.1 1.18,0 2.2,0.26 3.05,0.77 0.86,0.52 1.52,1.27 1.99,2.27l0 -2.53 1.92 0 0 13.85 -1.92 0zm8.99 -13.85l0 6.92c0,2.1 0.3,3.59 0.9,4.45 0.6,0.86 1.61,1.3 3.04,1.3 1.41,0 2.43,-0.44 3.04,-1.31 0.61,-0.87 0.92,-2.36 0.92,-4.43l0 -6.92 1.9 0 0 7.9c0,2.16 -0.5,3.79 -1.48,4.9 -0.99,1.11 -2.44,1.66 -4.36,1.66 -1.92,0 -3.39,-0.55 -4.39,-1.66 -1,-1.11 -1.5,-2.74 -1.5,-4.9l0 -7.9 1.92 0zm13.36 11.38l1.83 -1.04c0.3,0.77 0.74,1.35 1.31,1.74 0.58,0.39 1.27,0.59 2.11,0.59 0.81,0 1.46,-0.21 1.94,-0.62 0.48,-0.41 0.72,-0.96 0.72,-1.65 0,-1.06 -0.94,-1.96 -2.82,-2.7 -0.2,-0.07 -0.36,-0.13 -0.47,-0.19 -1.46,-0.57 -2.48,-1.16 -3.07,-1.77 -0.58,-0.61 -0.87,-1.36 -0.87,-2.25 0,-1.18 0.42,-2.14 1.25,-2.9 0.83,-0.75 1.91,-1.13 3.23,-1.13 1.13,0 2.08,0.25 2.88,0.74 0.79,0.49 1.37,1.18 1.73,2.09l-1.76 0.99c-0.22,-0.66 -0.59,-1.16 -1.1,-1.5 -0.51,-0.35 -1.13,-0.52 -1.87,-0.52 -0.67,0 -1.22,0.2 -1.65,0.59 -0.43,0.39 -0.65,0.87 -0.65,1.46 0,0.57 0.21,1.05 0.64,1.42 0.43,0.37 1.31,0.79 2.66,1.23 1.52,0.53 2.54,1.11 3.07,1.74 0.53,0.62 0.79,1.49 0.79,2.59 0,1.27 -0.45,2.29 -1.36,3.04 -0.91,0.76 -2.12,1.14 -3.66,1.14 -1.17,0 -2.19,-0.27 -3.04,-0.8 -0.85,-0.54 -1.46,-1.3 -1.83,-2.28zm25.01 -4.37c0,-1.79 -0.41,-3.2 -1.23,-4.23 -0.81,-1.02 -1.94,-1.54 -3.38,-1.54 -1.48,0 -2.63,0.5 -3.47,1.49 -0.84,0.99 -1.26,2.36 -1.26,4.1 0,1.76 0.45,3.18 1.35,4.24 0.9,1.06 2.09,1.58 3.57,1.58 1.4,0 2.48,-0.5 3.26,-1.49 0.77,-0.99 1.16,-2.38 1.16,-4.16zm-11.23 13.81l0 -20.82 1.86 0 0 2.6c0.53,-1 1.22,-1.77 2.08,-2.3 0.85,-0.54 1.81,-0.8 2.87,-0.8 1.95,0 3.51,0.68 4.71,2.05 1.19,1.37 1.79,3.18 1.79,5.44 0,2.27 -0.58,4.08 -1.75,5.44 -1.17,1.36 -2.72,2.04 -4.65,2.04 -1.11,0 -2.09,-0.27 -2.95,-0.8 -0.85,-0.53 -1.55,-1.32 -2.09,-2.37l0 9.53 -1.86 0zm16.95 -26.23c0,-0.4 0.14,-0.75 0.44,-1.03 0.29,-0.29 0.64,-0.43 1.05,-0.43 0.4,0 0.76,0.14 1.05,0.43 0.3,0.28 0.45,0.63 0.45,1.03 0,0.42 -0.14,0.77 -0.43,1.05 -0.28,0.28 -0.64,0.42 -1.07,0.42 -0.42,0 -0.77,-0.14 -1.06,-0.42 -0.29,-0.28 -0.43,-0.63 -0.43,-1.05zm0.48 19.26l0 -13.85 1.98 0 0 13.85 -1.98 0zm18.01 -11.32c-0.64,-0.45 -1.33,-0.78 -2.06,-1.01 -0.72,-0.22 -1.48,-0.34 -2.25,-0.34 -1.72,0 -3.09,0.55 -4.11,1.65 -1.02,1.1 -1.53,2.56 -1.53,4.4 0,1.63 0.53,2.96 1.58,4.01 1.06,1.05 2.41,1.58 4.05,1.58 0.75,0 1.51,-0.13 2.28,-0.39 0.76,-0.26 1.51,-0.65 2.26,-1.17l0 2.11c-0.68,0.39 -1.43,0.68 -2.25,0.87 -0.82,0.19 -1.7,0.29 -2.64,0.29 -2.11,0 -3.84,-0.69 -5.2,-2.08 -1.35,-1.39 -2.03,-3.17 -2.03,-5.33 0,-2.26 0.7,-4.09 2.12,-5.51 1.41,-1.41 3.25,-2.12 5.5,-2.12 0.84,0 1.62,0.08 2.35,0.24 0.74,0.17 1.39,0.4 1.96,0.7l-0.03 2.11zm3.45 -7.94c0,-0.4 0.14,-0.75 0.44,-1.03 0.29,-0.29 0.64,-0.43 1.05,-0.43 0.4,0 0.76,0.14 1.05,0.43 0.3,0.28 0.45,0.63 0.45,1.03 0,0.42 -0.14,0.77 -0.43,1.05 -0.28,0.28 -0.64,0.42 -1.07,0.42 -0.42,0 -0.77,-0.14 -1.06,-0.42 -0.29,-0.28 -0.43,-0.63 -0.43,-1.05zm0.48 19.26l0 -13.85 1.98 0 0 13.85 -1.98 0zm13.59 -1.19c1.52,0 2.81,-0.55 3.86,-1.65 1.06,-1.1 1.58,-2.44 1.58,-4.04 0,-1.61 -0.53,-2.96 -1.58,-4.06 -1.05,-1.09 -2.34,-1.64 -3.87,-1.64 -1.52,0 -2.8,0.55 -3.85,1.64 -1.05,1.09 -1.58,2.44 -1.58,4.06 0,1.59 0.53,2.94 1.58,4.04 1.05,1.1 2.34,1.65 3.85,1.65zm-0.07 1.8c-0.99,0 -1.93,-0.2 -2.84,-0.59 -0.91,-0.39 -1.73,-0.95 -2.47,-1.68 -0.7,-0.69 -1.23,-1.48 -1.59,-2.37 -0.37,-0.89 -0.55,-1.85 -0.55,-2.87 0,-1.01 0.19,-1.97 0.56,-2.87 0.38,-0.91 0.91,-1.71 1.61,-2.4 0.71,-0.71 1.51,-1.25 2.42,-1.63 0.91,-0.37 1.86,-0.56 2.86,-0.56 1.02,0 1.99,0.19 2.92,0.56 0.92,0.38 1.74,0.92 2.46,1.63 0.72,0.71 1.27,1.51 1.65,2.42 0.38,0.91 0.57,1.86 0.57,2.86 0,1 -0.19,1.95 -0.56,2.85 -0.38,0.9 -0.92,1.7 -1.63,2.39 -0.73,0.73 -1.56,1.29 -2.49,1.68 -0.93,0.39 -1.9,0.59 -2.92,0.59zm13.48 -14.46l0 6.92c0,2.1 0.3,3.59 0.9,4.45 0.6,0.86 1.61,1.3 3.04,1.3 1.41,0 2.43,-0.44 3.04,-1.31 0.61,-0.87 0.92,-2.36 0.92,-4.43l0 -6.92 1.9 0 0 7.9c0,2.16 -0.5,3.79 -1.48,4.9 -0.99,1.11 -2.44,1.66 -4.36,1.66 -1.92,0 -3.38,-0.55 -4.39,-1.66 -1,-1.11 -1.5,-2.74 -1.5,-4.9l0 -7.9 1.92 0zm13.36 11.38l1.83 -1.04c0.3,0.77 0.74,1.35 1.31,1.74 0.58,0.39 1.27,0.59 2.11,0.59 0.81,0 1.46,-0.21 1.94,-0.62 0.48,-0.41 0.72,-0.96 0.72,-1.65 0,-1.06 -0.94,-1.96 -2.82,-2.7 -0.2,-0.07 -0.36,-0.13 -0.47,-0.19 -1.46,-0.57 -2.48,-1.16 -3.07,-1.77 -0.58,-0.61 -0.87,-1.36 -0.87,-2.25 0,-1.18 0.41,-2.14 1.25,-2.9 0.83,-0.75 1.91,-1.13 3.23,-1.13 1.13,0 2.08,0.25 2.88,0.74 0.79,0.49 1.37,1.18 1.73,2.09l-1.77 0.99c-0.22,-0.66 -0.59,-1.16 -1.1,-1.5 -0.51,-0.35 -1.13,-0.52 -1.87,-0.52 -0.67,0 -1.22,0.2 -1.65,0.59 -0.43,0.39 -0.65,0.87 -0.65,1.46 0,0.57 0.21,1.05 0.64,1.42 0.43,0.37 1.31,0.79 2.65,1.23 1.52,0.53 2.54,1.11 3.07,1.74 0.53,0.62 0.79,1.49 0.79,2.59 0,1.27 -0.45,2.29 -1.36,3.04 -0.91,0.76 -2.12,1.14 -3.66,1.14 -1.17,0 -2.19,-0.27 -3.04,-0.8 -0.85,-0.54 -1.46,-1.3 -1.83,-2.28zm25.11 2.47l-1.98 0 0 -24.21 1.98 0 0 24.21zm4.89 -19.26c0,-0.4 0.14,-0.75 0.44,-1.03 0.29,-0.29 0.64,-0.43 1.05,-0.43 0.4,0 0.76,0.14 1.05,0.43 0.3,0.28 0.45,0.63 0.45,1.03 0,0.42 -0.14,0.77 -0.43,1.05 -0.28,0.28 -0.64,0.42 -1.07,0.42 -0.42,0 -0.77,-0.14 -1.06,-0.42 -0.29,-0.28 -0.43,-0.63 -0.43,-1.05zm0.48 19.26l0 -13.85 1.98 0 0 13.85 -1.98 0zm5.15 -13.85l2.11 0 4.25 10.5 4.23 -10.5 2.14 0 -6.37 14.74 -6.36 -14.74zm15.37 -5.41c0,-0.4 0.14,-0.75 0.44,-1.03 0.29,-0.29 0.64,-0.43 1.05,-0.43 0.4,0 0.76,0.14 1.05,0.43 0.3,0.28 0.45,0.63 0.45,1.03 0,0.42 -0.14,0.77 -0.43,1.05 -0.28,0.28 -0.64,0.42 -1.07,0.42 -0.42,0 -0.77,-0.14 -1.06,-0.42 -0.29,-0.28 -0.43,-0.63 -0.43,-1.05zm0.48 19.26l0 -13.85 1.98 0 0 13.85 -1.98 0zm7.23 0l0 -13.85 1.82 0 0 2.14c0.56,-0.88 1.25,-1.55 2.07,-1.99 0.81,-0.44 1.75,-0.66 2.81,-0.66 1.57,0 2.8,0.44 3.67,1.31 0.87,0.87 1.31,2.09 1.31,3.65l0 9.4 -1.95 0 0 -8.54c0,-1.39 -0.29,-2.41 -0.87,-3.09 -0.58,-0.67 -1.47,-1.01 -2.68,-1.01 -1.47,0 -2.55,0.44 -3.24,1.31 -0.69,0.87 -1.04,2.23 -1.04,4.1l0 7.23 -1.92 0zm28.85 -13.85l0 11.45c0,1.82 -0.05,3.21 -0.15,4.17 -0.1,0.96 -0.26,1.67 -0.49,2.14 -0.48,1.03 -1.21,1.8 -2.2,2.3 -0.99,0.51 -2.24,0.76 -3.75,0.76 -1.84,0 -3.27,-0.36 -4.3,-1.07 -1.02,-0.71 -1.65,-1.79 -1.87,-3.24l2.4 0c0.15,0.85 0.57,1.5 1.23,1.94 0.66,0.44 1.56,0.66 2.7,0.66 0.85,0 1.62,-0.15 2.3,-0.45 0.68,-0.3 1.2,-0.72 1.54,-1.25 0.23,-0.34 0.39,-0.74 0.49,-1.2 0.1,-0.45 0.15,-1.16 0.15,-2.1l0 -0.74 0 -2.08c-0.43,0.99 -1.08,1.76 -1.96,2.33 -0.88,0.56 -1.89,0.84 -3.02,0.84 -1.95,0 -3.5,-0.68 -4.66,-2.03 -1.16,-1.35 -1.74,-3.17 -1.74,-5.45 0,-2.26 0.59,-4.07 1.78,-5.44 1.19,-1.37 2.76,-2.05 4.72,-2.05 1.09,0 2.08,0.28 2.97,0.85 0.89,0.57 1.53,1.32 1.91,2.26l0 -2.6 1.95 0zm-6.62 1.25c-1.43,0 -2.57,0.51 -3.39,1.54 -0.83,1.03 -1.24,2.44 -1.24,4.23 0,1.78 0.4,3.17 1.18,4.16 0.79,1 1.88,1.49 3.27,1.49 1.48,0 2.66,-0.53 3.55,-1.58 0.89,-1.05 1.34,-2.47 1.34,-4.24 0,-1.75 -0.42,-3.12 -1.25,-4.11 -0.84,-0.99 -1.99,-1.48 -3.45,-1.48zm11.63 11.29c0,-0.45 0.15,-0.83 0.46,-1.14 0.31,-0.3 0.69,-0.46 1.14,-0.46 0.45,0 0.83,0.15 1.14,0.46 0.3,0.31 0.46,0.69 0.46,1.14 0,0.45 -0.15,0.83 -0.46,1.14 -0.31,0.3 -0.69,0.46 -1.14,0.46 -0.45,0 -0.83,-0.15 -1.14,-0.46 -0.3,-0.31 -0.46,-0.69 -0.46,-1.14zm9.22 0c0,-0.45 0.15,-0.83 0.46,-1.14 0.31,-0.3 0.69,-0.46 1.14,-0.46 0.45,0 0.83,0.15 1.14,0.46 0.3,0.31 0.46,0.69 0.46,1.14 0,0.45 -0.15,0.83 -0.46,1.14 -0.31,0.3 -0.69,0.46 -1.14,0.46 -0.45,0 -0.83,-0.15 -1.14,-0.46 -0.3,-0.31 -0.46,-0.69 -0.46,-1.14zm9.22 0c0,-0.45 0.16,-0.83 0.46,-1.14 0.31,-0.3 0.69,-0.46 1.14,-0.46 0.45,0 0.83,0.15 1.14,0.46 0.3,0.31 0.46,0.69 0.46,1.14 0,0.45 -0.16,0.83 -0.46,1.14 -0.31,0.3 -0.69,0.46 -1.14,0.46 -0.45,0 -0.83,-0.15 -1.14,-0.46 -0.3,-0.31 -0.46,-0.69 -0.46,-1.14zm9.22 0c0,-0.45 0.15,-0.83 0.46,-1.14 0.31,-0.3 0.69,-0.46 1.14,-0.46 0.45,0 0.83,0.15 1.14,0.46 0.3,0.31 0.46,0.69 0.46,1.14 0,0.45 -0.15,0.83 -0.46,1.14 -0.31,0.3 -0.69,0.46 -1.14,0.46 -0.45,0 -0.83,-0.15 -1.14,-0.46 -0.3,-0.31 -0.46,-0.69 -0.46,-1.14z"/>
    <g>
    </g>
    <g style="clip-path:url(#id0)">
     <g>
     </g>
     <g style="clip-path:url(#id1)">
      <image id="savan-istock.tif" x="81.22" y="17.23" width="304.24" height="304.24" xlink:href="Saven Serena_Images\Saven Serena_ImgID1.png"/>
     </g>
     <g style="clip-path:url(#id2)">
     </g>
    </g>
    <path class="fil3" d="M84.62 267.39l0 -197.19 297.44 0 0 194.58c-7.42,-0.31 -14.85,-0.49 -22.16,-0.87l-58.18 -1.7 -133.32 1.09 -58.12 2.64c-8.46,0.57 -17.07,0.88 -25.66,1.45z"/>
    <path class="fil4" d="M110.02 405.74l0 0c-0.14,-1.96 -1,-3.5 -2.56,-4.63 -1.56,-1.14 -3.6,-1.72 -6.1,-1.72 -2.17,0 -3.88,0.48 -5.1,1.44 -1.23,0.95 -1.84,2.3 -1.84,4 0,1.23 0.64,2.18 1.93,2.85 1.27,0.67 3.96,1.46 8.08,2.37 5.97,1.34 9.96,2.89 11.98,4.64 2.01,1.74 3.02,4.53 3.02,8.37 0,3.85 -1.52,6.92 -4.56,9.18 -3.03,2.27 -7.14,3.41 -12.32,3.41 -5.2,0 -9.25,-1.2 -12.18,-3.6 -2.93,-2.39 -4.49,-5.82 -4.69,-10.24l0 0 8.29 0 0 0c0.09,2.16 0.88,3.83 2.37,5 1.49,1.17 3.56,1.75 6.22,1.75 2.73,0 4.85,-0.44 6.39,-1.32 1.54,-0.89 2.3,-2.11 2.3,-3.67 0,-1.55 -0.55,-2.69 -1.66,-3.41 -1.08,-0.72 -3.39,-1.48 -6.91,-2.26 -6.5,-1.46 -10.85,-3.03 -13.05,-4.73 -2.18,-1.68 -3.27,-4.3 -3.27,-7.87 0,-3.98 1.44,-7.15 4.33,-9.5 2.88,-2.34 6.78,-3.51 11.69,-3.51 4.59,0 8.32,1.21 11.21,3.63 2.88,2.42 4.48,5.69 4.8,9.81l0 0 -8.35 0zm28.14 28.78l0 0 0 -41.08 0 0 30.21 0 0 0 0 3.61 0 3.65 0 0 -21.63 0 0 0 0 8.7 0 0 20.08 0 0 3.53 0 3.57 0 0 -20.08 0 0 0 0 10.76 0 0 22.6 0 0 0 0 3.61 0 3.65 0 0 -31.18 0zm50.39 0l0 -41.08 0 0 4.27 0 0 0 16.43 0c3.92,0 7.07,1.05 9.46,3.15 2.39,2.1 3.59,4.86 3.59,8.31 0,3.95 -1.33,6.85 -3.99,8.67 -0.71,0.49 -1.51,0.9 -2.4,1.24l0 0c0.51,0.2 0.96,0.43 1.37,0.67 2.35,1.39 3.57,3.75 3.65,7.04l0.2 6.73c0.04,1.34 0.18,2.3 0.42,2.85 0.24,0.56 0.7,1.01 1.39,1.34l0 1.09 -9.47 0c-0.23,-0.43 -0.42,-1.34 -0.59,-2.75 -0.16,-1.41 -0.26,-2.92 -0.28,-4.54l-0.06 -3.79c-0.04,-1.84 -0.58,-3.16 -1.63,-3.94 -1.05,-0.78 -2.79,-1.17 -5.23,-1.17l-8.55 0 0 0 0 16.19 0 0 -4.27 0 -4.31 0zm8.58 -23.11l0 0 9.95 0c2.21,0 3.88,-0.45 4.99,-1.35 1.11,-0.9 1.66,-2.27 1.66,-4.1 0,-1.8 -0.52,-3.16 -1.58,-4.06 -1.05,-0.9 -2.62,-1.35 -4.73,-1.35l-10.28 0 0 0 0 10.87zm44.96 23.11l0 0 0 -41.08 0 0 30.21 0 0 0 0 3.61 0 3.65 0 0 -21.63 0 0 0 0 8.7 0 0 20.08 0 0 3.53 0 3.57 0 0 -20.08 0 0 0 0 10.76 0 0 22.6 0 0 0 0 3.61 0 3.65 0 0 -31.18 0zm58 0l0 0 -3.99 0 -4.02 0 0 0 0 -41.08 0 0 4.49 0 4.5 0 0 0 16.47 28.84 0 0 0 0 0 -28.84 0 0 4 0 4.01 0 0 0 0 41.08 -4.27 0 -4.27 0 -16.91 -29.62 0 0 0 0 0 29.62zm42.73 0l14.52 -41.08 4.98 0 4.98 0 14.53 41.08 0 0 -4.55 0 -4.55 0 0 0 -2.77 -8.35 0 0 -15.59 0 0 0 -2.69 8.35 0 0 -4.42 0 -4.44 0zm19.39 -31.94l-5.45 16.5 0 0 10.9 0 0 0 -5.44 -16.5 0 0z"/>
    <path class="fil4" d="M401.01 231.84c3.98,0 7.35,1.37 10.1,4.12 2.75,2.75 4.13,6.11 4.13,10.1 0,3.97 -1.38,7.33 -4.13,10.08 -2.75,2.75 -6.11,4.12 -10.1,4.12 -3.96,0 -7.32,-1.37 -10.07,-4.12 -2.75,-2.75 -4.12,-6.1 -4.12,-10.08 0,-3.98 1.37,-7.35 4.12,-10.1 2.75,-2.75 6.1,-4.12 10.07,-4.12zm12.28 14.21c0,-3.43 -1.2,-6.33 -3.57,-8.7 -2.38,-2.38 -5.28,-3.57 -8.71,-3.57 -3.43,0 -6.33,1.19 -8.69,3.57 -2.37,2.37 -3.55,5.27 -3.55,8.7 0,3.43 1.18,6.33 3.55,8.7 2.36,2.36 5.26,3.55 8.69,3.55 3.43,0 6.33,-1.19 8.71,-3.55 2.37,-2.37 3.57,-5.27 3.57,-8.7zm-17.19 7.5l0 -15.02 5.59 0c1.24,0 2.27,0.43 3.12,1.27 0.84,0.84 1.27,1.89 1.27,3.11 0,1.23 -0.43,2.27 -1.28,3.13 -0.4,0.4 -0.85,0.7 -1.37,0.92l2.65 6.59 -2.68 0 -2.52 -6.27 0 0 -2.52 0 0 6.27 -2.25 0zm7.72 -10.64c0,-0.59 -0.21,-1.09 -0.63,-1.51 -0.42,-0.42 -0.92,-0.62 -1.51,-0.62l-3.34 0 0 0 0 2.13 0 2.13 3.34 0c0.59,0 1.09,-0.2 1.51,-0.62 0.42,-0.42 0.63,-0.92 0.63,-1.51z"/>
   </g>
  </g>
 </g>
</svg>
