<svg xmlns="http://www.w3.org/2000/svg" xml:space="preserve" width="38.1mm" height="38.1mm" version="1.1" style="shape-rendering:geometricPrecision; text-rendering:geometricPrecision; image-rendering:optimizeQuality; fill-rule:evenodd; clip-rule:evenodd"
viewBox="0 0 663.72 663.72"
 xmlns:xlink="http://www.w3.org/1999/xlink">
 <defs>
  <style type="text/css">
   <![CDATA[
    .fil3 {fill:none}
    .fil0 {fill:black}
    .fil2 {fill:white}
    .fil5 {fill:#FEFEFE;fill-rule:nonzero}
    .fil1 {fill:#EF7F1A;fill-rule:nonzero}
    .fil4 {fill:white;fill-rule:nonzero}
   ]]>
  </style>
      <clipPath id="id0">
       <path d="M121.06 379.22l0 -278.73 420.42 0 0 275.03c-10.49,-0.44 -20.99,-0.7 -31.32,-1.22l-82.24 -2.4 -188.44 1.54 -82.16 3.73c-11.95,0.81 -24.13,1.25 -36.26,2.05z"/>
      </clipPath>
       <clipPath id="id1">
        <path d="M121.06 379.22l0 -278.73 420.42 0 0 275.03c-10.49,-0.44 -20.99,-0.7 -31.32,-1.22l-82.24 -2.4 -188.44 1.54 -82.16 3.73c-11.95,0.81 -24.13,1.25 -36.26,2.05z"/>
       </clipPath>
       <clipPath id="id2">
        <path d="M121.06 379.22l0 -278.73 420.42 0 0 275.03c-10.49,-0.44 -20.99,-0.7 -31.32,-1.22l-82.24 -2.4 -188.44 1.54 -82.16 3.73c-11.95,0.81 -24.13,1.25 -36.26,2.05z"/>
       </clipPath>
 </defs>
 <g id="Layer_x0020_1">
  <metadata id="CorelCorpID_0Corel-Layer"/>
  <g id="_2478686744528">
   <polygon class="fil0" points="-0,0 663.72,0 663.72,663.72 -0,663.72 "/>
   <g>
    <g>
     <path class="fil1" d="M176.2 483.6c5.41,-3.1 10.82,-4.67 16.75,-6.4 8.87,-3.83 18.84,-7.45 26.8,-13.24 0.92,-27.21 5.44,-54.74 9.53,-70.21l-65.12 -1.89c35.88,18.41 30.53,69.11 2.29,90.36l-0.04 0.13c4.46,7.09 8.67,14.22 12.41,20.87 11.06,19.64 32.21,65.69 2.46,32.18 -7.56,-8.52 -24.4,-33.09 -31.36,-42.12l0 0c-8.54,5.05 -17.26,8.57 -27.57,9.56 -9.25,0.29 -15.76,1.59 -24.44,-3.23 -12.32,-6.84 -21.76,-18.02 -24.58,-31.84 -3.1,-15.24 5.28,-28.29 17.74,-35.2 12.97,-7.19 33.08,-1.46 43.67,8.42 6.32,5.91 13.1,14.22 19.73,23.5l0.31 0.12c0.11,-0.17 0.23,-0.34 0.34,-0.52 19.09,-29.79 11.45,-50.45 1.48,-72.5 -26.18,-1.27 -53.37,-0.93 -78.8,-6.53l0 0c25.77,-6.13 53.51,-6.11 80.11,-7.91l82.16 -3.73 188.44 -1.54 82.24 2.4c26.64,1.36 54.36,0.89 80.27,6.6l0 0c-17.85,4.24 -36.65,5.54 -55.35,6.53 1.17,1.33 2.17,2.71 2.61,4.29 9.05,32.23 21.83,115.74 -4.62,143.52 -24.58,-25.82 -13.17,-113.06 -4.61,-143.52 0.13,-0.46 0.3,-0.91 0.52,-1.34 -2.06,0.94 -4.79,2.08 -8.31,3.46 -22.93,8.95 -52.9,28.55 -65.58,44.62 -13.01,9.85 -21.68,34.75 -16.24,49.39 2.66,7.17 13.53,14.92 21.66,12.31 27.79,-8.91 27.5,-31.34 16.44,-52.16 -3.85,-7.24 -14.28,-26.72 5.46,-16.57 12.7,6.52 19.55,20.94 21.72,30.4 12.96,56.61 -42.54,89.73 -80.45,52.43 -7.57,-7.45 -11.6,-16.46 -13.1,-27.13 -3.32,-23.56 3.13,-39.44 18.08,-55.36 23.37,-24.89 50.16,-36.38 87.48,-43.08 0.67,-0.12 1.36,-0.24 2.07,-0.37 -2.64,0.15 -5.27,0.31 -7.89,0.48l-82.16 3.74 -45.65 0.37c0.06,0.8 0.12,1.59 0.16,2.4 0.71,0.95 1.28,1.95 1.58,3.04 9.05,32.23 21.83,115.74 -4.62,143.52 -10.19,-10.7 -14.19,-31.95 -14.78,-55.33 -15.3,26.11 -42.27,44.16 -76.48,39.39 -22.97,-3.2 -28.33,-12.32 -29.2,-33.6 -1.02,-25.12 29.06,-75 85,-83.5 19.36,-2.94 16.6,4.58 9.93,7.98 -20.79,10.62 -38.49,18.24 -51.68,37.81 -4.42,6.59 -8.41,12.06 -11.17,19.56 -15.65,42.46 27.64,28.15 50.91,10.32 14.36,-10.99 21.54,-32.34 26.36,-53.59 1.91,-13.26 4.29,-24.78 6.48,-32.58 0.01,-0.05 0.03,-0.11 0.05,-0.16 0.37,-1.8 0.74,-3.55 1.11,-5.23l-136.46 1.11 -0.61 -0.02c8.99,33.74 20.59,114.05 -5.25,141.19 -9.94,-10.44 -14,-30.92 -14.73,-53.63 -6.97,4.6 -16.84,5.95 -24.98,6.46 -2.05,0.13 -4.11,-0.16 -6.17,-0.32 -5.48,-0.45 -7.73,-0.9 -12.37,-4.16l0 0zm-38.43 -6.25c-1.64,-1.98 -3.36,-3.91 -5.21,-5.76 -6.93,-6.99 -22.19,-29.3 -33.11,-19.13 -13.13,12.23 2.93,28.02 18.12,28.34 6.31,0.13 13.51,-0.8 20.17,-3.31l0.02 -0.14z"/>
     <path class="fil2" d="M129.57 67.04l11.26 0 -5.52 -14.06 -5.73 14.06zm-8.26 13.46l14.2 -33.6 13.59 33.6 -3.2 0 -4.12 -10.95 -13.2 0 -4.28 10.95 -2.98 0zm31.01 0l0 -19.58 2.58 0 0 3.03c0.8,-1.25 1.77,-2.19 2.93,-2.82 1.15,-0.63 2.48,-0.94 3.98,-0.94 2.22,0 3.95,0.62 5.19,1.85 1.24,1.24 1.85,2.96 1.85,5.16l0 13.29 -2.76 0 0 -12.07c0,-1.96 -0.41,-3.41 -1.23,-4.36 -0.81,-0.95 -2.08,-1.42 -3.78,-1.42 -2.08,0 -3.6,0.62 -4.58,1.85 -0.98,1.23 -1.47,3.16 -1.47,5.79l0 10.22 -2.71 0zm37.84 -9.58c0,2.53 0.57,4.48 1.71,5.86 1.14,1.36 2.77,2.05 4.9,2.05 2.06,0 3.68,-0.75 4.87,-2.24 1.18,-1.49 1.78,-3.55 1.78,-6.17 0,-2.4 -0.59,-4.29 -1.77,-5.66 -1.18,-1.38 -2.79,-2.06 -4.84,-2.06 -2.04,0 -3.66,0.73 -4.86,2.19 -1.19,1.47 -1.79,3.48 -1.79,6.03zm13.21 9.58l0 -3.58c-0.65,1.45 -1.56,2.55 -2.73,3.3 -1.17,0.76 -2.55,1.14 -4.14,1.14 -2.82,0 -5.08,-0.97 -6.8,-2.89 -1.71,-1.93 -2.57,-4.47 -2.57,-7.63 0,-3.14 0.84,-5.69 2.54,-7.67 1.7,-1.98 3.88,-2.97 6.56,-2.97 1.67,0 3.1,0.36 4.32,1.09 1.22,0.73 2.15,1.8 2.82,3.21l0 -3.58 2.71 0 0 19.58 -2.71 0zm12.7 -19.58l0 9.78c0,2.97 0.42,5.07 1.27,6.29 0.84,1.22 2.28,1.83 4.3,1.83 1.99,0 3.44,-0.62 4.3,-1.85 0.87,-1.24 1.3,-3.33 1.3,-6.27l0 -9.78 2.69 0 0 11.17c0,3.05 -0.7,5.36 -2.09,6.93 -1.4,1.57 -3.45,2.35 -6.16,2.35 -2.72,0 -4.79,-0.78 -6.2,-2.35 -1.41,-1.57 -2.12,-3.87 -2.12,-6.93l0 -11.17 2.71 0zm18.88 16.09l2.58 -1.48c0.43,1.09 1.05,1.91 1.85,2.46 0.81,0.55 1.8,0.83 2.98,0.83 1.15,0 2.06,-0.29 2.74,-0.87 0.68,-0.58 1.02,-1.36 1.02,-2.33 0,-1.5 -1.33,-2.77 -3.99,-3.82 -0.29,-0.1 -0.51,-0.19 -0.66,-0.26 -2.06,-0.81 -3.5,-1.64 -4.33,-2.5 -0.82,-0.86 -1.24,-1.93 -1.24,-3.19 0,-1.66 0.59,-3.03 1.77,-4.1 1.18,-1.06 2.7,-1.6 4.57,-1.6 1.59,0 2.95,0.35 4.07,1.04 1.11,0.69 1.94,1.67 2.45,2.95l-2.49 1.39c-0.31,-0.93 -0.83,-1.64 -1.55,-2.12 -0.72,-0.49 -1.6,-0.73 -2.64,-0.73 -0.94,0 -1.72,0.28 -2.33,0.83 -0.61,0.55 -0.92,1.24 -0.92,2.06 0,0.8 0.3,1.48 0.9,2 0.6,0.53 1.85,1.12 3.75,1.74 2.15,0.75 3.59,1.57 4.34,2.46 0.75,0.88 1.11,2.1 1.11,3.66 0,1.79 -0.64,3.23 -1.92,4.3 -1.28,1.08 -3,1.61 -5.17,1.61 -1.66,0 -3.09,-0.38 -4.3,-1.14 -1.2,-0.76 -2.06,-1.83 -2.59,-3.22zm35.35 -6.17c0,-2.53 -0.58,-4.52 -1.73,-5.98 -1.15,-1.45 -2.74,-2.17 -4.78,-2.17 -2.09,0 -3.72,0.7 -4.91,2.11 -1.19,1.4 -1.78,3.33 -1.78,5.79 0,2.49 0.63,4.5 1.91,5.99 1.27,1.49 2.95,2.24 5.04,2.24 1.97,0 3.5,-0.7 4.6,-2.11 1.09,-1.4 1.64,-3.36 1.64,-5.88zm-15.87 19.51l0 -29.43 2.63 0 0 3.67c0.75,-1.42 1.73,-2.5 2.94,-3.25 1.2,-0.76 2.55,-1.14 4.06,-1.14 2.75,0 4.97,0.97 6.65,2.9 1.68,1.94 2.52,4.5 2.52,7.69 0,3.21 -0.82,5.77 -2.47,7.69 -1.65,1.92 -3.84,2.88 -6.58,2.88 -1.57,0 -2.96,-0.38 -4.17,-1.14 -1.21,-0.75 -2.19,-1.87 -2.95,-3.34l0 13.47 -2.63 0zm23.95 -37.07c0,-0.57 0.2,-1.06 0.62,-1.46 0.41,-0.41 0.9,-0.61 1.48,-0.61 0.57,0 1.07,0.2 1.48,0.61 0.42,0.4 0.63,0.89 0.63,1.46 0,0.59 -0.2,1.09 -0.61,1.48 -0.4,0.4 -0.9,0.59 -1.51,0.59 -0.6,0 -1.09,-0.2 -1.49,-0.59 -0.41,-0.4 -0.61,-0.89 -0.61,-1.48zm0.69 27.22l0 -19.58 2.8 0 0 19.58 -2.8 0zm25.45 -16c-0.91,-0.63 -1.88,-1.11 -2.92,-1.42 -1.02,-0.32 -2.09,-0.48 -3.18,-0.48 -2.43,0 -4.36,0.78 -5.8,2.33 -1.44,1.55 -2.16,3.62 -2.16,6.22 0,2.3 0.75,4.19 2.24,5.67 1.5,1.48 3.41,2.23 5.73,2.23 1.06,0 2.13,-0.18 3.22,-0.55 1.08,-0.37 2.14,-0.92 3.19,-1.66l0 2.98c-0.96,0.55 -2.02,0.96 -3.18,1.23 -1.16,0.27 -2.4,0.41 -3.73,0.41 -2.98,0 -5.43,-0.98 -7.35,-2.95 -1.91,-1.97 -2.87,-4.48 -2.87,-7.54 0,-3.19 0.99,-5.79 2.99,-7.78 1.99,-2 4.59,-2.99 7.78,-2.99 1.18,0 2.29,0.11 3.32,0.34 1.04,0.23 1.96,0.56 2.77,0.99l-0.05 2.98zm4.88 -11.22c0,-0.57 0.2,-1.06 0.62,-1.46 0.41,-0.41 0.9,-0.61 1.48,-0.61 0.57,0 1.07,0.2 1.48,0.61 0.42,0.4 0.63,0.89 0.63,1.46 0,0.59 -0.2,1.09 -0.61,1.48 -0.4,0.4 -0.9,0.59 -1.51,0.59 -0.6,0 -1.09,-0.2 -1.49,-0.59 -0.41,-0.4 -0.61,-0.89 -0.61,-1.48zm0.68 27.22l0 -19.58 2.8 0 0 19.58 -2.8 0zm19.21 -1.68c2.15,0 3.97,-0.78 5.46,-2.33 1.49,-1.55 2.24,-3.45 2.24,-5.7 0,-2.28 -0.75,-4.19 -2.23,-5.73 -1.48,-1.54 -3.31,-2.32 -5.47,-2.32 -2.15,0 -3.96,0.78 -5.45,2.32 -1.49,1.55 -2.23,3.45 -2.23,5.73 0,2.25 0.75,4.15 2.23,5.7 1.48,1.55 3.3,2.33 5.45,2.33zm-0.09 2.54c-1.39,0 -2.74,-0.28 -4.02,-0.83 -1.28,-0.55 -2.44,-1.34 -3.49,-2.37 -0.99,-0.97 -1.73,-2.09 -2.25,-3.35 -0.52,-1.27 -0.78,-2.62 -0.78,-4.06 0,-1.42 0.26,-2.78 0.79,-4.06 0.53,-1.28 1.29,-2.41 2.28,-3.4 1,-1 2.14,-1.76 3.42,-2.3 1.28,-0.53 2.63,-0.79 4.04,-0.79 1.45,0 2.82,0.26 4.12,0.79 1.3,0.54 2.46,1.3 3.47,2.3 1.02,1 1.79,2.14 2.33,3.42 0.53,1.28 0.81,2.63 0.81,4.04 0,1.42 -0.26,2.76 -0.79,4.03 -0.53,1.27 -1.3,2.4 -2.3,3.38 -1.03,1.03 -2.21,1.82 -3.52,2.37 -1.32,0.55 -2.69,0.83 -4.12,0.83zm19.05 -20.44l0 9.78c0,2.97 0.42,5.07 1.27,6.29 0.84,1.22 2.28,1.83 4.3,1.83 2,0 3.44,-0.62 4.3,-1.85 0.87,-1.24 1.3,-3.33 1.3,-6.27l0 -9.78 2.69 0 0 11.17c0,3.05 -0.7,5.36 -2.1,6.93 -1.4,1.57 -3.45,2.35 -6.16,2.35 -2.72,0 -4.79,-0.78 -6.2,-2.35 -1.41,-1.57 -2.12,-3.87 -2.12,-6.93l0 -11.17 2.71 0zm18.88 16.09l2.59 -1.48c0.43,1.09 1.05,1.91 1.85,2.46 0.81,0.55 1.8,0.83 2.98,0.83 1.15,0 2.06,-0.29 2.74,-0.87 0.68,-0.58 1.02,-1.36 1.02,-2.33 0,-1.5 -1.33,-2.77 -3.99,-3.82 -0.29,-0.1 -0.51,-0.19 -0.66,-0.26 -2.06,-0.81 -3.5,-1.64 -4.33,-2.5 -0.82,-0.86 -1.24,-1.93 -1.24,-3.19 0,-1.66 0.59,-3.03 1.77,-4.1 1.18,-1.06 2.7,-1.6 4.57,-1.6 1.59,0 2.95,0.35 4.07,1.04 1.12,0.69 1.94,1.67 2.45,2.95l-2.49 1.39c-0.31,-0.93 -0.83,-1.64 -1.55,-2.12 -0.72,-0.49 -1.6,-0.73 -2.65,-0.73 -0.94,0 -1.72,0.28 -2.33,0.83 -0.61,0.55 -0.92,1.24 -0.92,2.06 0,0.8 0.3,1.48 0.9,2 0.6,0.53 1.85,1.12 3.75,1.74 2.15,0.75 3.59,1.57 4.34,2.46 0.75,0.88 1.11,2.1 1.11,3.66 0,1.79 -0.64,3.23 -1.92,4.3 -1.28,1.08 -3,1.61 -5.17,1.61 -1.66,0 -3.09,-0.38 -4.3,-1.14 -1.2,-0.76 -2.06,-1.83 -2.59,-3.22zm35.5 3.5l-2.8 0 0 -34.22 2.8 0 0 34.22zm6.91 -27.22c0,-0.57 0.2,-1.06 0.62,-1.46 0.41,-0.41 0.9,-0.61 1.49,-0.61 0.57,0 1.07,0.2 1.48,0.61 0.42,0.4 0.63,0.89 0.63,1.46 0,0.59 -0.2,1.09 -0.61,1.48 -0.4,0.4 -0.9,0.59 -1.51,0.59 -0.6,0 -1.09,-0.2 -1.49,-0.59 -0.41,-0.4 -0.61,-0.89 -0.61,-1.48zm0.68 27.22l0 -19.58 2.8 0 0 19.58 -2.8 0zm7.29 -19.58l2.98 0 6 14.84 5.98 -14.84 3.02 0 -9 20.84 -8.99 -20.84zm21.72 -7.64c0,-0.57 0.2,-1.06 0.62,-1.46 0.41,-0.41 0.9,-0.61 1.48,-0.61 0.57,0 1.07,0.2 1.48,0.61 0.42,0.4 0.63,0.89 0.63,1.46 0,0.59 -0.2,1.09 -0.61,1.48 -0.4,0.4 -0.9,0.59 -1.51,0.59 -0.6,0 -1.09,-0.2 -1.49,-0.59 -0.41,-0.4 -0.61,-0.89 -0.61,-1.48zm0.69 27.22l0 -19.58 2.8 0 0 19.58 -2.8 0zm10.22 0l0 -19.58 2.58 0 0 3.03c0.8,-1.25 1.77,-2.19 2.93,-2.82 1.15,-0.63 2.48,-0.94 3.98,-0.94 2.22,0 3.96,0.62 5.19,1.85 1.24,1.24 1.85,2.96 1.85,5.16l0 13.29 -2.76 0 0 -12.07c0,-1.96 -0.41,-3.41 -1.23,-4.36 -0.81,-0.95 -2.08,-1.42 -3.78,-1.42 -2.08,0 -3.6,0.62 -4.58,1.85 -0.98,1.23 -1.47,3.16 -1.47,5.79l0 10.22 -2.71 0zm40.78 -19.58l0 16.19c0,2.57 -0.07,4.54 -0.21,5.89 -0.14,1.36 -0.37,2.37 -0.69,3.03 -0.68,1.45 -1.72,2.54 -3.11,3.26 -1.4,0.72 -3.17,1.07 -5.3,1.07 -2.6,0 -4.63,-0.5 -6.08,-1.51 -1.45,-1.01 -2.33,-2.53 -2.64,-4.58l3.4 0c0.22,1.21 0.8,2.12 1.73,2.74 0.94,0.62 2.21,0.93 3.81,0.93 1.2,0 2.29,-0.21 3.25,-0.64 0.97,-0.43 1.69,-1.02 2.18,-1.77 0.32,-0.48 0.56,-1.05 0.69,-1.69 0.14,-0.64 0.21,-1.63 0.21,-2.97l0 -1.04 0 -2.94c-0.6,1.4 -1.53,2.49 -2.77,3.29 -1.24,0.79 -2.67,1.19 -4.27,1.19 -2.75,0 -4.94,-0.96 -6.58,-2.87 -1.64,-1.91 -2.46,-4.48 -2.46,-7.7 0,-3.19 0.84,-5.76 2.52,-7.69 1.68,-1.94 3.9,-2.9 6.67,-2.9 1.55,0 2.95,0.4 4.21,1.21 1.26,0.8 2.16,1.86 2.7,3.19l0 -3.67 2.76 0zm-9.36 1.77c-2.03,0 -3.63,0.72 -4.8,2.17 -1.17,1.45 -1.76,3.44 -1.76,5.98 0,2.52 0.56,4.48 1.67,5.88 1.11,1.41 2.65,2.11 4.63,2.11 2.09,0 3.76,-0.75 5.02,-2.23 1.26,-1.48 1.89,-3.49 1.89,-6 0,-2.48 -0.59,-4.41 -1.76,-5.81 -1.18,-1.39 -2.81,-2.09 -4.88,-2.09zm16.44 15.96c0,-0.63 0.22,-1.17 0.65,-1.6 0.44,-0.43 0.97,-0.65 1.6,-0.65 0.63,0 1.17,0.22 1.61,0.65 0.43,0.44 0.65,0.97 0.65,1.6 0,0.63 -0.22,1.17 -0.65,1.6 -0.44,0.43 -0.97,0.65 -1.61,0.65 -0.63,0 -1.17,-0.22 -1.6,-0.65 -0.43,-0.44 -0.65,-0.97 -0.65,-1.6zm13.03 0c0,-0.63 0.22,-1.17 0.65,-1.6 0.44,-0.43 0.97,-0.65 1.6,-0.65 0.63,0 1.17,0.22 1.6,0.65 0.43,0.44 0.65,0.97 0.65,1.6 0,0.63 -0.22,1.17 -0.65,1.6 -0.44,0.43 -0.97,0.65 -1.6,0.65 -0.63,0 -1.17,-0.22 -1.6,-0.65 -0.43,-0.44 -0.65,-0.97 -0.65,-1.6zm13.03 0c0,-0.63 0.22,-1.17 0.65,-1.6 0.44,-0.43 0.97,-0.65 1.61,-0.65 0.63,0 1.17,0.22 1.6,0.65 0.43,0.44 0.65,0.97 0.65,1.6 0,0.63 -0.22,1.17 -0.65,1.6 -0.44,0.43 -0.97,0.65 -1.6,0.65 -0.63,0 -1.17,-0.22 -1.61,-0.65 -0.43,-0.44 -0.65,-0.97 -0.65,-1.6zm13.03 0c0,-0.63 0.22,-1.17 0.65,-1.6 0.44,-0.43 0.97,-0.65 1.6,-0.65 0.63,0 1.17,0.22 1.6,0.65 0.43,0.44 0.65,0.97 0.65,1.6 0,0.63 -0.22,1.17 -0.65,1.6 -0.44,0.43 -0.97,0.65 -1.6,0.65 -0.63,0 -1.17,-0.22 -1.6,-0.65 -0.43,-0.44 -0.65,-0.97 -0.65,-1.6z"/>
     <g>
     </g>
     <g style="clip-path:url(#id0)">
      <g>
      </g>
      <g style="clip-path:url(#id1)">
       <image id="savan-istock.tif" x="116.72" y="26.09" width="429.09" height="429.09" xlink:href="Saven Sarface_Images\Saven Sarface_ImgID1.png"/>
      </g>
      <g style="clip-path:url(#id2)">
      </g>
     </g>
     <path class="fil3" d="M121.06 379.22l0 -278.73 420.42 0 0 275.03c-10.49,-0.44 -20.99,-0.7 -31.32,-1.22l-82.24 -2.4 -188.44 1.54 -82.16 3.73c-11.95,0.81 -24.13,1.25 -36.26,2.05z"/>
     <path class="fil4" d="M157.38 574.62l0 0c-0.21,-2.8 -1.43,-5.01 -3.67,-6.63 -2.24,-1.64 -5.14,-2.45 -8.73,-2.45 -3.11,0 -5.55,0.68 -7.3,2.06 -1.76,1.36 -2.63,3.29 -2.63,5.73 0,1.76 0.91,3.12 2.76,4.08 1.81,0.95 5.66,2.09 11.54,3.4 8.55,1.92 14.27,4.13 17.15,6.64 2.88,2.48 4.32,6.48 4.32,11.98 0,5.51 -2.17,9.9 -6.52,13.14 -4.34,3.25 -10.22,4.87 -17.62,4.87 -7.44,0 -13.25,-1.72 -17.42,-5.16 -4.19,-3.42 -6.42,-8.32 -6.71,-14.65l0 0 11.87 0 0 0c0.12,3.1 1.25,5.48 3.38,7.15 2.13,1.68 5.09,2.51 8.89,2.51 3.9,0 6.94,-0.63 9.14,-1.9 2.2,-1.27 3.29,-3.01 3.29,-5.25 0,-2.22 -0.79,-3.85 -2.37,-4.88 -1.54,-1.04 -4.84,-2.11 -9.89,-3.23 -9.3,-2.09 -15.52,-4.34 -18.66,-6.77 -3.12,-2.4 -4.68,-6.15 -4.68,-11.25 0,-5.7 2.06,-10.23 6.19,-13.59 4.12,-3.34 9.7,-5.02 16.73,-5.02 6.56,0 11.91,1.73 16.04,5.2 4.12,3.46 6.41,8.14 6.86,14.04l0 0 -11.95 0z"/>
     <path id="1" class="fil4" d="M232.29 593.67c0.03,8.4 -1.82,14.46 -5.54,18.18 -3.72,3.72 -9.78,5.58 -18.17,5.58 -8.06,0 -14.02,-1.94 -17.91,-5.83 -3.87,-3.87 -5.82,-9.86 -5.85,-17.94l0 -36.64 0 0 6.13 0 6.15 0 0 0 0 37.04c0,4.21 0.96,7.38 2.87,9.48 1.9,2.11 4.77,3.17 8.62,3.17 4.11,0 7.04,-0.97 8.8,-2.91 1.76,-1.92 2.63,-5.17 2.63,-9.74l0 -37.04 0 0 6.13 0 6.15 0 0 0 0 36.64z"/>
     <path id="2" class="fil4" d="M249.24 615.79l0 -58.77 0 0 6.11 0 0 0 23.5 0c5.61,0 10.11,1.5 13.53,4.5 3.42,3 5.14,6.96 5.14,11.88 0,5.65 -1.91,9.8 -5.72,12.4 -1.01,0.7 -2.15,1.28 -3.44,1.77l0 0c0.72,0.29 1.38,0.61 1.97,0.95 3.36,1.99 5.1,5.36 5.22,10.07l0.29 9.63c0.05,1.92 0.26,3.29 0.6,4.08 0.34,0.8 1.01,1.45 1.99,1.92l0 1.56 -13.55 0c-0.33,-0.61 -0.6,-1.92 -0.84,-3.93 -0.23,-2.02 -0.37,-4.17 -0.4,-6.49l-0.08 -5.43c-0.06,-2.63 -0.83,-4.52 -2.33,-5.63 -1.5,-1.12 -4,-1.68 -7.49,-1.68l-12.24 0 0 0 0 23.16 0 0 -6.11 0 -6.17 0zm12.28 -33.07l0 0 14.23 0c3.16,0 5.55,-0.64 7.13,-1.94 1.58,-1.3 2.37,-3.25 2.37,-5.87 0,-2.58 -0.75,-4.52 -2.26,-5.81 -1.5,-1.29 -3.75,-1.94 -6.77,-1.94l-14.71 0 0 0 0 15.55z"/>
     <polygon id="3" class="fil4" points="313.34,615.79 313.34,557.02 313.34,557.02 355.16,557.02 355.16,557.02 355.16,562.19 355.16,567.42 355.16,567.42 325.62,567.42 325.62,567.42 325.62,580.76 325.62,580.76 351.4,580.76 351.4,585.81 351.4,590.91 351.4,590.91 325.62,590.91 325.62,590.91 325.62,615.79 319.5,615.79 "/>
     <path id="4" class="fil4" d="M363.74 615.79l20.78 -58.77 7.12 0 7.12 0 20.79 58.77 0 0 -6.51 0 -6.51 0 0 0 -3.97 -11.95 0 0 -22.3 0 0 0 -3.85 11.95 0 0 -6.31 0 -6.36 0zm27.73 -45.7l-7.8 23.6 0 0 15.59 0 0 0 -7.79 -23.6 0 0z"/>
     <path id="5" class="fil4" d="M482.19 595.25l0 0c-0.75,6.79 -3.4,12.2 -7.97,16.19 -4.57,4 -10.38,5.99 -17.45,5.99 -8.25,0 -14.82,-2.76 -19.67,-8.28 -4.87,-5.52 -7.3,-13 -7.3,-22.43 0,-9.6 2.43,-17.23 7.3,-22.86 4.86,-5.65 11.42,-8.47 19.67,-8.47 6.98,0 12.75,1.88 17.34,5.65 4.58,3.76 7.27,8.87 8.08,15.31l0 0 -12.28 0 0 0c-0.4,-3.17 -1.76,-5.66 -4.09,-7.53 -2.33,-1.86 -5.31,-2.78 -8.89,-2.78 -4.57,0 -8.13,1.83 -10.72,5.47 -2.58,3.64 -3.87,8.69 -3.87,15.16 0,6.29 1.28,11.23 3.86,14.79 2.56,3.56 6.15,5.35 10.74,5.35 3.59,0 6.56,-1.04 8.89,-3.11 2.33,-2.09 3.7,-4.88 4.09,-8.43l0 0 12.28 0z"/>
     <polygon id="6" class="fil4" points="496.52,615.79 496.52,615.79 496.52,557.02 496.52,557.02 539.74,557.02 539.74,557.02 539.74,562.19 539.74,567.42 539.74,567.42 508.8,567.42 508.8,567.42 508.8,579.86 508.8,579.86 537.53,579.86 537.53,584.91 537.53,590.01 537.53,590.01 508.8,590.01 508.8,590.01 508.8,605.4 508.8,605.4 541.13,605.4 541.13,605.4 541.13,610.57 541.13,615.79 541.13,615.79 "/>
    </g>
    <path class="fil5" d="M568.39 338.13c4.47,0 8.24,1.53 11.33,4.62 3.08,3.08 4.63,6.85 4.63,11.32 0,4.46 -1.55,8.22 -4.63,11.3 -3.08,3.08 -6.86,4.62 -11.33,4.62 -4.44,0 -8.21,-1.53 -11.29,-4.62 -3.08,-3.08 -4.62,-6.84 -4.62,-11.3 0,-4.47 1.53,-8.24 4.62,-11.32 3.08,-3.08 6.84,-4.62 11.29,-4.62zm13.77 15.94c0,-3.84 -1.34,-7.09 -4,-9.75 -2.67,-2.67 -5.92,-4 -9.77,-4 -3.84,0 -7.09,1.33 -9.74,4 -2.66,2.66 -3.98,5.91 -3.98,9.75 0,3.84 1.32,7.1 3.98,9.76 2.65,2.65 5.9,3.98 9.74,3.98 3.84,0 7.1,-1.33 9.77,-3.98 2.66,-2.66 4,-5.91 4,-9.76zm-19.28 8.41l0 -16.85 6.26 0c1.39,0 2.55,0.48 3.5,1.42 0.94,0.94 1.42,2.11 1.42,3.49 0,1.38 -0.48,2.55 -1.43,3.51 -0.44,0.44 -0.96,0.78 -1.53,1.03l2.97 7.39 -3 0 -2.83 -7.03 0 0 -2.83 0 0 7.03 -2.52 0zm8.66 -11.94c0,-0.66 -0.24,-1.23 -0.71,-1.7 -0.47,-0.47 -1.03,-0.69 -1.69,-0.69l-3.74 0 0 0 0 2.39 0 2.39 3.74 0c0.66,0 1.23,-0.23 1.69,-0.7 0.47,-0.47 0.71,-1.03 0.71,-1.69z"/>
   </g>
  </g>
 </g>
</svg>
