<svg xmlns="http://www.w3.org/2000/svg" xml:space="preserve" width="50.8mm" height="18.3263mm" version="1.1" style="shape-rendering:geometricPrecision; text-rendering:geometricPrecision; image-rendering:optimizeQuality; fill-rule:evenodd; clip-rule:evenodd"
viewBox="0 0 1699.6 613.14"
 xmlns:xlink="http://www.w3.org/1999/xlink">
 <defs>
  <style type="text/css">
   <![CDATA[
    .fil0 {fill:#812723}
    .fil1 {fill:white}
   ]]>
  </style>
 </defs>
 <g id="Layer_x0020_1">
  <metadata id="CorelCorpID_0Corel-Layer"/>
  <g id="_1758757825984">
   <path class="fil0" d="M568.98 573.04l569.75 0c-41.26,-25.59 -78.37,-56.76 -114.42,-89.1l-455.34 0c-22.7,0 -41.28,18.61 -41.28,41.35l0 6.41c0,22.74 18.57,41.34 41.28,41.34z"/>
   <path class="fil1" d="M628.97 498.47l0 24.3 -27.19 0 0 -24.3 -12.38 0 0 60.03 12.38 0 0 -24.38 27.19 0 0 24.38 12.39 0 0 -60.03 -12.39 0zm45.12 11.08l25.55 0 0 -11.36 -39.13 0 0 60.62 39.13 0 0 -11.38 -25.55 0c-0.66,0 -1.21,-0.48 -1.21,-1.09l0 -10.93c0,-0.6 0.55,-1.09 1.21,-1.09l20.57 0 0 -11.37 -20.57 0c-0.66,0 -1.21,-0.49 -1.21,-1.09l0 -11.21c0,-0.61 0.55,-1.1 1.21,-1.1zm54.83 -11.08l-12.37 0 0 60.05 12.37 0 0 -60.05zm82.37 26.59l-28.77 0 0 11.37 14.79 0 -0.62 1.08c-0.82,1.38 -1.7,2.53 -2.66,3.5 -3.95,4.19 -9.68,6.6 -15.75,6.6 -1.43,0 -2.86,-0.14 -4.29,-0.4 -7.94,-1.47 -14.39,-7.33 -16.07,-14.6 -1.33,-5.75 0.19,-11.62 4.15,-16.12 3.99,-4.51 9.87,-7.1 16.21,-7.1 4.91,0 9.61,1.6 13.43,4.49l10.57 -6.42c-6.2,-6.01 -14.93,-9.43 -24,-9.43 -9.05,0 -17.51,3.29 -23.84,9.27 -6.31,5.98 -9.64,13.81 -9.36,22.12 0.5,15.01 13.6,27.91 29.85,29.39 1.16,0.1 2.25,0.16 3.34,0.16l0 0c14.72,0 27.81,-9.05 31.9,-22.02 0.89,-2.76 1.36,-5.61 1.36,-8.48 0,-1.09 -0.14,-2.21 -0.27,-3.42zm55.15 -26.59l0 24.3 -27.13 0 0 -24.3 -12.41 0 0 60.03 12.41 0 0 -24.38 27.13 0 0 24.38 12.41 0 0 -60.03 -12.41 0zm26.52 -0.27l0 11.36 18.27 0c0.61,0 1.16,0.5 1.16,1.1l0 48.12 12.41 0 0 -48.12c0,-0.61 0.55,-1.1 1.16,-1.1l18.2 0 0 -11.36 -51.2 0zm108.59 32.39c-3.48,-3.04 -7.71,-4.22 -11.11,-5.18 -5.93,-1.73 -10.64,-3.23 -14.79,-4.74 -4.36,-1.57 -7.02,-2.85 -7.5,-4.85 -0.48,-2.08 1.23,-4.18 3.13,-5.06 2.66,-1.27 6,-1.4 8.93,-1.45 3.34,0 6.89,0.09 9.82,1.22 1.23,0.47 2.46,1.24 3.27,2.11l12.06 -3.51c-1.98,-3.94 -5.79,-7.22 -10.5,-9.05 -5.11,-1.98 -10.29,-2.14 -14.72,-2.14 -4.64,0.03 -9.55,0.39 -14.38,2.67 -7.5,3.44 -11.46,10.75 -9.61,17.8 2.04,8.1 10.36,11.16 14.93,12.81 4.91,1.75 9.88,3.34 15.68,5.01 2.32,0.65 4.91,1.39 6.34,2.58 0.89,0.81 1.43,1.92 1.43,3.07 0,1.08 -0.48,2.05 -1.23,2.77 -1.36,1.25 -3.61,2.14 -6.34,2.5 -2.39,0.31 -4.77,0.47 -6.89,0.47 -2.59,0 -4.84,-0.23 -6.68,-0.68 -2.25,-0.55 -4.23,-2 -5.18,-3.76l-11.93 3.43c2.25,5.46 7.36,9.69 13.84,11.31 2.86,0.71 6.14,1.08 9.82,1.08 3.75,0 6.82,-0.34 8.79,-0.62 5.45,-0.71 10.09,-2.67 13.36,-5.69 3.13,-2.95 4.84,-6.87 4.77,-11.03 -0.07,-4.18 -1.98,-8.22 -5.32,-11.09z"/>
   <g>
    <path class="fil0" d="M62.24 336.08c4.28,-1.62 7.7,-5.03 9.3,-9.32 0.1,-0.26 0.34,-0.43 0.62,-0.43 0.28,0 0.53,0.17 0.63,0.43 1.6,4.29 5.03,7.71 9.3,9.32 0.26,0.1 0.42,0.34 0.42,0.62 0,0.29 -0.16,0.52 -0.42,0.63 -4.28,1.61 -7.7,5.03 -9.3,9.31 -0.1,0.26 -0.34,0.43 -0.63,0.43 -0.27,0 -0.52,-0.17 -0.62,-0.43 -1.61,-4.29 -5.03,-7.7 -9.3,-9.31 -0.26,-0.11 -0.42,-0.34 -0.42,-0.63 0,-0.28 0.16,-0.52 0.42,-0.62z"/>
    <path class="fil0" d="M31.14 336.71c-0.98,-1.06 -2.11,-2.13 -3.36,-3.14 -1.64,-1.34 -3.45,-2.57 -5.34,-3.53 -1.88,-0.97 -4.04,-1.56 -6.21,-1.73 -2.16,-0.18 -4.32,0.05 -6.24,0.69 -2.29,0.78 -3.95,2.07 -4.98,3.58 -0.85,1.25 -1.27,2.69 -1.27,4.13 0,1.43 0.42,2.86 1.27,4.13 1.03,1.52 2.68,2.8 4.98,3.58 1.91,0.65 4.08,0.88 6.24,0.7 2.17,-0.18 4.33,-0.76 6.21,-1.73 1.88,-0.96 3.7,-2.2 5.34,-3.54 1.25,-1.01 2.38,-2.08 3.36,-3.14zm372.8 -15.43c3.94,-3.94 9.39,-6.39 15.4,-6.39 6.01,0 11.45,2.45 15.4,6.4l0 -0.01c3.95,3.95 6.39,9.41 6.39,15.43 0,6.02 -2.44,11.47 -6.39,15.42l0 0 0 0c-3.95,3.95 -9.4,6.39 -15.4,6.39 -6.02,0 -11.47,-2.45 -15.4,-6.39l0.01 -0c-3.95,-3.95 -6.39,-9.4 -6.39,-15.42 0,-6.02 2.44,-11.49 6.39,-15.43zm15.4 -2.63c-4.98,0 -9.5,2.02 -12.75,5.29 -3.27,3.27 -5.28,7.79 -5.28,12.77 0,4.99 2.01,9.51 5.27,12.78l0.01 0c3.26,3.27 7.77,5.29 12.75,5.29 4.98,0 9.5,-2.02 12.76,-5.28l0 -0.01c3.26,-3.27 5.28,-7.79 5.28,-12.78 0,-4.99 -2.02,-9.51 -5.28,-12.77l0 -0.01c-3.26,-3.27 -7.78,-5.28 -12.76,-5.28zm-362.59 2.63c3.94,-3.94 9.39,-6.39 15.4,-6.39 6.01,0 11.45,2.45 15.41,6.4l0 -0.01c3.94,3.95 6.38,9.41 6.38,15.43 0,6.02 -2.44,11.47 -6.38,15.42l0 0 -0.01 0c-3.95,3.95 -9.39,6.39 -15.4,6.39 -6.01,0 -11.46,-2.45 -15.4,-6.39l0 -0c-3.94,-3.95 -6.38,-9.4 -6.38,-15.42 0,-6.02 2.44,-11.49 6.38,-15.43zm15.4 -2.63c-4.97,0 -9.48,2.02 -12.75,5.29 -3.27,3.27 -5.29,7.79 -5.29,12.77 0,4.99 2.02,9.51 5.28,12.78l0.01 0c3.26,3.27 7.78,5.29 12.75,5.29 4.99,0 9.5,-2.02 12.76,-5.28l0.01 -0.01c3.26,-3.27 5.27,-7.79 5.27,-12.78 0,-4.99 -2.01,-9.51 -5.28,-12.77l0 -0.01c-3.26,-3.27 -7.77,-5.28 -12.76,-5.28zm301.04 18.07c0,-70.53 -57.03,-127.66 -127.44,-127.66 -70.4,0 -127.43,57.13 -127.43,127.66 0,70.53 57.03,127.66 127.43,127.66 70.41,0 127.44,-57.13 127.44,-127.66zm-193.17 95.99l0 -55.18 10.98 0c4.82,16.02 11.9,28.12 21.33,36.33 9.49,8.19 21.05,12.29 34.77,12.29 12.32,0 22.48,-3.28 30.58,-9.88 8.09,-6.61 12.13,-15 12.13,-25.18 0,-5.45 -0.96,-9.94 -2.89,-13.51 -1.92,-3.52 -5.19,-6.8 -9.82,-9.79 -5.25,-3.47 -15.65,-7.04 -31.15,-10.61 -5.73,-1.3 -10.12,-2.37 -13.15,-3.09 -18.15,-4.63 -31.34,-11.43 -39.58,-20.35 -8.23,-8.97 -12.33,-20.98 -12.33,-36.04 0,-17.65 5.49,-31.88 16.42,-42.78 10.98,-10.86 25.28,-16.31 43.01,-16.31 7.22,0 13.96,1.01 20.21,3.04 6.27,1.97 12.14,5.01 17.73,9.02l10.3 -8.3 9.05 0 1.15 49.77 -9.54 0c-3.66,-14.61 -9.77,-25.75 -18.34,-33.38 -8.52,-7.67 -19.22,-11.48 -31.97,-11.48 -10.6,0 -19.31,2.6 -26.15,7.77 -6.79,5.21 -10.21,11.77 -10.21,19.68 0,11.86 12.56,20.59 37.66,26.19 3.37,0.72 5.92,1.3 7.7,1.69 23.46,5.44 39.92,13.21 49.36,23.25 9.49,10.03 14.21,24.26 14.21,42.69 0,19.05 -6.02,34.82 -18.1,47.41 -12.09,12.59 -27.3,18.86 -45.65,18.86 -9.34,0 -17.52,-1.06 -24.56,-3.18 -7.07,-2.08 -13.63,-5.45 -19.74,-10.03l-13 11.1 -10.4 0zm98.21 134.82c1.73,-1.74 1.73,-4.54 0,-6.27 -0.89,-0.89 -2.06,-1.32 -3.22,-1.3 0.35,-0.72 0.84,-1.34 1.47,-1.86 2.06,-1.73 4.77,-2.16 7.52,-2.6 0.56,-0.09 1.12,-0.18 1.89,-0.32 21.74,-3.99 43,-11.25 62.97,-21.77 19.31,-10.17 37.45,-23.38 53.67,-39.63 16.23,-16.25 29.42,-34.42 39.57,-53.76 10.5,-20.01 17.75,-41.31 21.73,-63.08 0.14,-0.77 0.23,-1.33 0.33,-1.89 0.44,-2.76 0.87,-5.47 2.59,-7.53 0.53,-0.63 1.15,-1.13 1.86,-1.48 -0.03,1.16 0.41,2.33 1.29,3.22 1.73,1.74 4.54,1.74 6.26,0 1.73,-1.73 1.73,-4.53 0,-6.26 -0.83,-0.83 -2.12,-1.27 -3.47,-1.39 -1.63,-0.13 -3.37,0.21 -4.62,0.63 -1.69,0.57 -3.06,1.54 -4.19,2.87 -2.39,2.88 -2.91,6.09 -3.43,9.35 -0.11,0.67 -0.22,1.36 -0.3,1.81 -3.92,21.4 -11.03,42.33 -21.37,62.02 -9.97,19.01 -22.94,36.85 -38.9,52.84 -15.97,16 -33.79,28.98 -52.76,38.97 -19.65,10.35 -40.55,17.48 -61.9,21.41 -0.46,0.08 -1.14,0.19 -1.81,0.3 -3.27,0.52 -6.46,1.03 -9.33,3.44 -1.33,1.12 -2.32,2.5 -2.87,4.19 -0.42,1.25 -0.76,2.99 -0.62,4.63 0.11,1.34 0.55,2.65 1.38,3.48 1.73,1.73 4.53,1.73 6.26,0zm178.13 -21.23c-0.4,-0.12 -0.81,-0.02 -1.11,0.27 -0.29,0.3 -0.39,0.72 -0.27,1.12 1.7,5.53 1.8,10.7 1.89,12.97 0.02,0.53 0.4,0.96 0.93,1.05 4.14,0.68 11.2,3.4 18.53,7.49 0.43,0.24 0.96,0.16 1.32,-0.19 0.35,-0.35 0.43,-0.89 0.18,-1.32 -4.08,-7.34 -6.8,-14.41 -7.47,-18.56 -0.09,-0.53 -0.53,-0.92 -1.06,-0.94 -2.26,-0.08 -7.42,-0.18 -12.95,-1.89zm-54.97 -32.59c4.29,-1.67 9.08,-2.22 14.15,-1.37 3.07,0.52 5.93,1.62 8.65,3.11 -1.5,-2.72 -2.59,-5.58 -3.12,-8.65 -0.85,-5.09 -0.3,-9.89 1.37,-14.18 -3.27,3.7 -6.66,7.33 -10.2,10.86 -3.53,3.54 -7.15,6.95 -10.85,10.22zm24.75 7.44c-3.5,-2.56 -7.16,-4.44 -11.21,-5.12 -5.75,-0.96 -11.06,0.16 -15.5,2.79 -4.71,2.8 -8.46,7.3 -10.71,12.83 -1.95,4.83 -1.68,10.12 0.3,14.69 2,4.63 5.72,8.54 10.6,10.53 3.78,1.54 7.84,1.4 11.33,-0.08 3.49,-1.48 6.42,-4.29 7.96,-8.08 1.18,-2.93 1.07,-6.07 -0.07,-8.78 -2.09,-4.96 -7.73,-8.34 -12.97,-6.13 -0.34,0.14 -0.67,0.31 -0.99,0.5 0.66,0.27 1.27,0.67 1.8,1.2 2.17,2.17 2.17,5.67 0,7.84 -2.15,2.17 -5.66,2.17 -7.82,0 -0.71,-0.71 -1.19,-1.57 -1.44,-2.47 -0.57,-2.13 0.3,-4.25 1.48,-5.99 1.38,-2.05 3.32,-3.61 5.51,-4.53 7.16,-3.02 14.99,1.25 17.89,8.12 1.51,3.59 1.65,7.75 0.07,11.65 -1.93,4.76 -5.59,8.27 -9.96,10.12 -4.36,1.86 -9.45,2.03 -14.2,0.1 -5.82,-2.38 -10.24,-7.02 -12.62,-12.51 -2.36,-5.46 -2.69,-11.79 -0.32,-17.59 0.84,-2.08 1.86,-4.02 3.06,-5.82l-1.35 1.06c-1.13,0.89 -2.26,1.81 -3.35,2.83 -5.74,5.34 -10.69,11.78 -13.86,17.91 -0.74,1.45 -2.19,2.28 -3.82,2.18 -9.23,-0.55 -18.55,1.31 -27,4.96 -2.5,1.08 -7.71,3.16 -7.7,3.15l-1.28 0.51c-0.96,0.36 -2.04,-0.12 -2.42,-1.09 -0.37,-0.96 0.12,-2.05 1.08,-2.42 14.95,-5.72 29.45,-13.05 43.19,-22.01 13.36,-8.69 26.04,-18.92 37.78,-30.68 11.74,-11.76 21.95,-24.46 30.64,-37.84 8.93,-13.77 16.26,-28.29 21.97,-43.27 0.37,-0.96 1.45,-1.45 2.4,-1.08 0.97,0.37 1.45,1.46 1.08,2.42l-0.5 1.29c0.01,-0.01 -2.08,5.21 -3.15,7.71 -3.64,8.47 -5.5,17.8 -4.96,27.04 0.1,1.63 -0.72,3.07 -2.17,3.82 -6.13,3.18 -12.55,8.14 -17.89,13.89 -1.01,1.09 -1.93,2.22 -2.82,3.36l-1.06 1.36c1.79,-1.2 3.74,-2.23 5.81,-3.07 5.8,-2.36 12.11,-2.03 17.56,0.33 5.48,2.38 10.12,6.81 12.49,12.64 1.93,4.75 1.76,9.84 -0.09,14.22 -1.85,4.37 -5.36,8.04 -10.1,9.98 -3.9,1.58 -8.06,1.44 -11.64,-0.07 -6.86,-2.9 -11.13,-10.75 -8.11,-17.92 0.93,-2.19 2.48,-4.13 4.53,-5.51 1.73,-1.18 3.84,-2.06 5.97,-1.48 0.91,0.24 1.76,0.72 2.47,1.43 2.16,2.16 2.16,5.68 0,7.84 -2.16,2.17 -5.66,2.17 -7.83,0 -0.53,-0.53 -0.93,-1.15 -1.2,-1.81 -0.19,0.33 -0.35,0.65 -0.5,1 -2.21,5.25 1.16,10.9 6.11,13 2.71,1.14 5.85,1.24 8.77,0.05 3.79,-1.54 6.58,-4.47 8.07,-7.97 1.47,-3.5 1.61,-7.56 0.08,-11.34 -1.99,-4.89 -5.88,-8.62 -10.51,-10.63 -4.57,-1.97 -9.85,-2.26 -14.67,-0.3 -5.51,2.24 -10.01,6 -12.81,10.72 -2.63,4.45 -3.75,9.77 -2.78,15.53 0.67,4.04 2.55,7.72 5.1,11.22 3.67,5.07 10.17,11.28 14.88,16 1.26,1.26 2.69,2.43 4.27,3.26 1.37,0.72 2.69,1.1 3.95,1.16 2.24,0.12 3.99,-0.65 5.18,-1.79 0.6,-0.58 1.08,-1.25 1.4,-1.97 -1.45,0.35 -3.04,-0.04 -4.17,-1.17 -1.73,-1.73 -1.73,-4.54 0,-6.27 0.8,-0.8 1.83,-1.23 2.87,-1.29 2.77,-0.16 4.88,2.21 5.42,4.8 0.29,1.44 0.17,3.03 -0.33,4.53 -0.51,1.47 -1.38,2.92 -2.61,4.08 -1.87,1.79 -4.55,2.98 -7.94,2.81 -1.03,-0.05 -2.06,-0.24 -3.1,-0.57 0.33,1.04 0.52,2.08 0.57,3.11 0.17,3.39 -1.02,6.08 -2.8,7.96 -1.16,1.22 -2.6,2.1 -4.08,2.61 -1.5,0.51 -3.09,0.63 -4.52,0.33 -2.58,-0.54 -4.95,-2.65 -4.79,-5.43 0.06,-1.04 0.48,-2.08 1.28,-2.87 1.74,-1.73 4.54,-1.73 6.27,0 1.13,1.14 1.52,2.73 1.17,4.19 0.72,-0.33 1.4,-0.8 1.97,-1.41 1.13,-1.2 1.9,-2.94 1.78,-5.19 -0.07,-1.27 -0.45,-2.59 -1.16,-3.96 -0.83,-1.6 -1.99,-3 -3.26,-4.27 -4.71,-4.71 -10.91,-11.23 -15.97,-14.91zm-410.82 -151.9c1.73,1.74 4.53,1.74 6.26,0 0.89,-0.88 1.32,-2.05 1.29,-3.22 0.72,0.35 1.34,0.84 1.87,1.48 1.72,2.06 2.15,4.77 2.59,7.53 0.09,0.56 0.18,1.12 0.32,1.89 3.98,21.77 11.22,43.07 21.73,63.08 10.15,19.34 23.34,37.51 39.57,53.76 16.23,16.25 34.35,29.46 53.66,39.63 19.98,10.53 41.24,17.78 62.98,21.77 0.77,0.13 1.33,0.22 1.89,0.32 2.75,0.44 5.46,0.87 7.52,2.6 0.62,0.53 1.13,1.15 1.47,1.86 -1.15,-0.03 -2.32,0.41 -3.22,1.3 -1.73,1.73 -1.73,4.53 0,6.27 1.74,1.73 4.54,1.73 6.27,0 0.83,-0.83 1.27,-2.13 1.38,-3.48 0.14,-1.64 -0.21,-3.38 -0.61,-4.63 -0.56,-1.69 -1.55,-3.07 -2.88,-4.19 -2.86,-2.4 -6.07,-2.92 -9.32,-3.44 -0.68,-0.11 -1.36,-0.22 -1.81,-0.3 -21.37,-3.92 -42.26,-11.06 -61.91,-21.41 -18.97,-9.99 -36.79,-22.98 -52.76,-38.97 -15.97,-16 -28.94,-33.83 -38.91,-52.84 -10.32,-19.69 -17.44,-40.62 -21.37,-62.02 -0.08,-0.45 -0.19,-1.14 -0.29,-1.81 -0.53,-3.26 -1.04,-6.47 -3.43,-9.35 -1.12,-1.33 -2.5,-2.31 -4.19,-2.87 -1.25,-0.41 -2.97,-0.75 -4.62,-0.63 -1.34,0.11 -2.64,0.56 -3.47,1.39 -1.73,1.73 -1.73,4.54 0,6.26zm21.19 178.44c-1.71,5.53 -1.81,10.7 -1.89,12.97 -0.02,0.53 -0.39,0.96 -0.93,1.05 -4.13,0.68 -11.2,3.4 -18.53,7.49 -0.44,0.24 -0.97,0.16 -1.32,-0.19 -0.35,-0.35 -0.42,-0.89 -0.18,-1.32 4.08,-7.34 6.8,-14.41 7.48,-18.56 0.08,-0.53 0.52,-0.92 1.05,-0.94 2.26,-0.08 7.42,-0.18 12.94,-1.89 0.4,-0.12 0.81,-0.02 1.1,0.27 0.3,0.3 0.4,0.72 0.28,1.12zm32.54 -55.06c3.27,3.7 6.66,7.33 10.2,10.86 3.53,3.54 7.15,6.95 10.84,10.22 -4.28,-1.67 -9.06,-2.22 -14.14,-1.37 -3.07,0.52 -5.94,1.62 -8.65,3.11 1.5,-2.72 2.59,-5.58 3.11,-8.65 0.85,-5.09 0.3,-9.89 -1.36,-14.18zm-39.75 -72.9c-0.38,-0.96 -1.45,-1.45 -2.42,-1.08 -0.96,0.37 -1.45,1.46 -1.07,2.42l0.49 1.29c0,-0.01 2.07,5.21 3.15,7.71 3.64,8.47 5.5,17.8 4.95,27.04 -0.09,1.63 0.73,3.07 2.17,3.82 6.14,3.18 12.55,8.14 17.89,13.89 1.01,1.09 1.93,2.22 2.83,3.36l1.06 1.36c-1.79,-1.2 -3.74,-2.23 -5.81,-3.07 -5.79,-2.36 -12.1,-2.03 -17.56,0.33 -5.49,2.38 -10.12,6.81 -12.49,12.64 -1.93,4.75 -1.75,9.84 0.09,14.22 1.84,4.37 5.36,8.04 10.1,9.98 3.89,1.58 8.06,1.44 11.64,-0.07 6.86,-2.9 11.13,-10.75 8.11,-17.92 -0.92,-2.19 -2.48,-4.13 -4.53,-5.51 -1.74,-1.18 -3.85,-2.06 -5.98,-1.48 -0.9,0.24 -1.76,0.72 -2.47,1.43 -2.16,2.16 -2.16,5.68 0,7.84 2.16,2.17 5.66,2.17 7.82,0 0.54,-0.53 0.94,-1.15 1.21,-1.81 0.18,0.33 0.35,0.65 0.5,1 2.21,5.25 -1.17,10.9 -6.13,13 -2.69,1.14 -5.84,1.24 -8.77,0.05 -3.77,-1.54 -6.58,-4.47 -8.06,-7.97 -1.48,-3.5 -1.62,-7.56 -0.08,-11.34 1.98,-4.89 5.88,-8.62 10.51,-10.63 4.57,-1.97 9.85,-2.26 14.68,-0.3 5.5,2.24 10,6 12.8,10.72 2.63,4.45 3.75,9.77 2.78,15.53 -0.68,4.04 -2.56,7.72 -5.1,11.22 -3.68,5.07 -10.18,11.28 -14.89,16 -1.27,1.26 -2.68,2.43 -4.27,3.26 -1.36,0.72 -2.69,1.1 -3.95,1.16 -2.24,0.12 -3.97,-0.65 -5.17,-1.79 -0.6,-0.58 -1.08,-1.25 -1.4,-1.97 1.44,0.35 3.03,-0.04 4.17,-1.17 1.72,-1.73 1.72,-4.54 0,-6.27 -0.8,-0.8 -1.83,-1.23 -2.87,-1.29 -2.77,-0.16 -4.88,2.21 -5.42,4.8 -0.3,1.44 -0.17,3.03 0.34,4.53 0.5,1.47 1.37,2.92 2.6,4.08 1.87,1.79 4.56,2.98 7.94,2.81 1.03,-0.05 2.07,-0.24 3.1,-0.57 -0.33,1.04 -0.52,2.08 -0.57,3.11 -0.17,3.39 1.02,6.08 2.81,7.96 1.17,1.22 2.6,2.1 4.08,2.61 1.51,0.51 3.09,0.63 4.52,0.33 2.58,-0.54 4.96,-2.65 4.8,-5.43 -0.07,-1.04 -0.5,-2.08 -1.29,-2.87 -1.73,-1.73 -4.54,-1.73 -6.26,0 -1.13,1.14 -1.53,2.73 -1.17,4.19 -0.72,-0.33 -1.39,-0.8 -1.96,-1.41 -1.14,-1.2 -1.9,-2.94 -1.78,-5.19 0.06,-1.27 0.44,-2.59 1.16,-3.96 0.83,-1.58 2.01,-3.01 3.26,-4.27 4.71,-4.71 10.91,-11.23 15.97,-14.91 3.5,-2.56 7.17,-4.44 11.22,-5.12 5.74,-0.96 11.06,0.16 15.49,2.79 4.73,2.8 8.48,7.3 10.72,12.83 1.95,4.83 1.67,10.12 -0.3,14.69 -1.99,4.63 -5.72,8.54 -10.6,10.53 -3.78,1.54 -7.83,1.4 -11.32,-0.08 -3.49,-1.48 -6.42,-4.29 -7.96,-8.08 -1.19,-2.93 -1.08,-6.07 0.06,-8.78 2.09,-4.96 7.73,-8.34 12.97,-6.13 0.34,0.14 0.67,0.31 0.99,0.5 -0.66,0.27 -1.28,0.67 -1.81,1.2 -2.16,2.17 -2.16,5.67 0,7.84 2.16,2.17 5.66,2.17 7.82,0 0.71,-0.71 1.19,-1.57 1.43,-2.47 0.58,-2.13 -0.3,-4.25 -1.48,-5.99 -1.38,-2.05 -3.32,-3.61 -5.5,-4.53 -7.16,-3.02 -14.99,1.25 -17.88,8.12 -1.52,3.59 -1.66,7.75 -0.07,11.65 1.92,4.76 5.59,8.27 9.96,10.12 4.36,1.86 9.44,2.03 14.19,0.1 5.82,-2.38 10.24,-7.02 12.62,-12.51 2.36,-5.46 2.69,-11.79 0.33,-17.59 -0.85,-2.08 -1.87,-4.02 -3.07,-5.82l1.35 1.06c1.13,0.89 2.26,1.81 3.35,2.83 5.74,5.34 10.69,11.78 13.86,17.91 0.75,1.45 2.19,2.28 3.82,2.18 9.22,-0.55 18.54,1.31 27,4.96 2.5,1.08 7.7,3.16 7.7,3.15l1.28 0.51c0.97,0.36 2.05,-0.12 2.42,-1.09 0.37,-0.96 -0.12,-2.05 -1.08,-2.42 -14.95,-5.72 -29.43,-13.05 -43.18,-22.01 -13.37,-8.69 -26.05,-18.92 -37.79,-30.68 -11.74,-11.76 -21.94,-24.46 -30.63,-37.84 -8.94,-13.77 -16.26,-28.29 -21.97,-43.27zm183.95 -313.83c-1.73,1.73 -1.73,4.53 0,6.27 0.9,0.89 2.06,1.32 3.22,1.3 -0.34,0.72 -0.84,1.34 -1.47,1.86 -2.05,1.73 -4.76,2.16 -7.52,2.6 -0.56,0.09 -1.12,0.18 -1.89,0.32 -21.74,3.99 -42.99,11.25 -62.98,21.77 -19.31,10.17 -37.44,23.38 -53.66,39.64 -16.23,16.26 -29.43,34.41 -39.57,53.76 -10.5,20.02 -17.75,41.31 -21.73,63.08 -0.14,0.78 -0.23,1.33 -0.32,1.89 -0.44,2.76 -0.87,5.47 -2.59,7.53 -0.53,0.63 -1.14,1.12 -1.87,1.47 0.03,-1.16 -0.4,-2.33 -1.29,-3.23 -1.73,-1.73 -4.53,-1.73 -6.26,0 -1.73,1.74 -1.73,4.54 0,6.27 0.83,0.84 2.12,1.28 3.47,1.39 1.65,0.13 3.37,-0.2 4.62,-0.62 1.69,-0.56 3.07,-1.55 4.19,-2.88 2.4,-2.87 2.91,-6.08 3.43,-9.35 0.1,-0.67 0.22,-1.35 0.29,-1.81 3.92,-21.4 11.04,-42.33 21.37,-62.01 9.98,-19 22.94,-36.86 38.91,-52.85 15.97,-15.99 33.79,-28.99 52.76,-38.98 19.65,-10.34 40.54,-17.48 61.91,-21.4 0.45,-0.08 1.13,-0.19 1.81,-0.3 3.26,-0.53 6.46,-1.04 9.32,-3.45 1.34,-1.12 2.32,-2.49 2.88,-4.19 0.4,-1.24 0.75,-2.99 0.61,-4.62 -0.1,-1.35 -0.55,-2.65 -1.38,-3.48 -1.73,-1.73 -4.53,-1.73 -6.27,0zm-178.12 21.23c-5.52,-1.71 -10.69,-1.81 -12.94,-1.89 -0.54,-0.02 -0.97,-0.4 -1.05,-0.93 -0.68,-4.15 -3.4,-11.22 -7.48,-18.57 -0.24,-0.44 -0.17,-0.96 0.18,-1.32 0.35,-0.35 0.88,-0.42 1.32,-0.18 7.32,4.09 14.39,6.81 18.53,7.49 0.53,0.08 0.91,0.52 0.93,1.05 0.09,2.27 0.18,7.44 1.89,12.97 0.13,0.4 0.02,0.81 -0.28,1.11 -0.3,0.29 -0.7,0.4 -1.1,0.27zm54.96 32.6c-3.69,3.27 -7.31,6.67 -10.84,10.21 -3.54,3.54 -6.93,7.16 -10.2,10.86 1.67,-4.29 2.21,-9.08 1.36,-14.17 -0.52,-3.08 -1.61,-5.94 -3.11,-8.66 2.71,1.51 5.58,2.6 8.65,3.12 5.08,0.86 9.86,0.3 14.14,-1.36zm72.78 -39.83c0.96,-0.37 1.45,-1.45 1.08,-2.42 -0.37,-0.96 -1.45,-1.46 -2.42,-1.08l-1.28 0.5c0,-0.01 -5.2,2.08 -7.7,3.15 -8.46,3.65 -17.78,5.51 -27,4.96 -1.63,-0.09 -3.07,0.73 -3.82,2.18 -3.18,6.15 -8.12,12.57 -13.86,17.92 -1.09,1.01 -2.22,1.93 -3.35,2.84l-1.35 1.05c1.2,-1.79 2.22,-3.75 3.07,-5.82 2.35,-5.8 2.02,-12.12 -0.33,-17.59 -2.38,-5.5 -6.8,-10.14 -12.62,-12.51 -4.75,-1.93 -9.82,-1.76 -14.19,0.09 -4.37,1.84 -8.04,5.37 -9.96,10.12 -1.58,3.89 -1.44,8.06 0.07,11.65 2.89,6.87 10.72,11.15 17.88,8.12 2.19,-0.92 4.12,-2.48 5.5,-4.53 1.18,-1.75 2.05,-3.86 1.48,-6 -0.24,-0.9 -0.72,-1.76 -1.43,-2.48 -2.16,-2.16 -5.66,-2.16 -7.82,0 -2.16,2.17 -2.16,5.68 0,7.85 0.53,0.53 1.15,0.94 1.81,1.2 -0.32,0.19 -0.65,0.35 -0.99,0.5 -5.24,2.22 -10.88,-1.17 -12.97,-6.13 -1.14,-2.71 -1.25,-5.85 -0.06,-8.79 1.54,-3.78 4.47,-6.6 7.96,-8.07 3.49,-1.47 7.54,-1.62 11.32,-0.08 4.88,1.98 8.61,5.89 10.6,10.52 1.98,4.58 2.26,9.87 0.3,14.7 -2.24,5.52 -5.99,10.03 -10.72,12.82 -4.43,2.64 -9.75,3.76 -15.49,2.79 -4.04,-0.68 -7.72,-2.56 -11.22,-5.11 -5.06,-3.69 -11.26,-10.2 -15.97,-14.92 -1.27,-1.27 -2.42,-2.68 -3.26,-4.27 -0.72,-1.37 -1.1,-2.69 -1.16,-3.96 -0.11,-2.25 0.64,-3.99 1.78,-5.19 0.58,-0.6 1.25,-1.07 1.96,-1.4 -0.35,1.45 0.04,3.05 1.17,4.18 1.73,1.73 4.53,1.73 6.26,0 0.79,-0.81 1.22,-1.84 1.29,-2.88 0.16,-2.78 -2.22,-4.89 -4.8,-5.42 -1.43,-0.3 -3.01,-0.19 -4.52,0.32 -1.47,0.5 -2.9,1.38 -4.08,2.62 -1.79,1.87 -2.97,4.55 -2.81,7.95 0.05,1.03 0.24,2.08 0.57,3.11 -1.04,-0.33 -2.07,-0.52 -3.1,-0.57 -3.39,-0.17 -6.07,1.02 -7.94,2.81 -1.23,1.17 -2.1,2.6 -2.6,4.08 -0.51,1.52 -0.64,3.1 -0.34,4.53 0.54,2.59 2.65,4.97 5.42,4.8 1.04,-0.06 2.07,-0.49 2.87,-1.29 1.72,-1.73 1.72,-4.53 0,-6.27 -1.13,-1.13 -2.72,-1.52 -4.17,-1.17 0.32,-0.72 0.79,-1.4 1.4,-1.97 1.2,-1.14 2.93,-1.9 5.17,-1.78 1.27,0.06 2.59,0.44 3.95,1.16 1.58,0.84 3.01,2.01 4.27,3.27 4.7,4.71 11.21,10.93 14.89,16 2.55,3.51 4.42,7.18 5.1,11.23 0.96,5.75 -0.15,11.08 -2.78,15.53 -2.8,4.73 -7.3,8.48 -12.8,10.72 -4.83,1.96 -10.11,1.68 -14.68,-0.3 -4.63,-2 -8.52,-5.73 -10.51,-10.62 -1.54,-3.78 -1.39,-7.84 0.08,-11.34 1.48,-3.49 4.28,-6.43 8.06,-7.97 2.93,-1.19 6.08,-1.08 8.77,0.06 4.96,2.09 8.34,7.75 6.13,12.99 -0.15,0.35 -0.31,0.67 -0.5,1 -0.28,-0.67 -0.67,-1.28 -1.21,-1.82 -2.16,-2.16 -5.66,-2.16 -7.82,0 -2.16,2.16 -2.16,5.68 0,7.84 0.71,0.71 1.57,1.19 2.47,1.43 2.13,0.58 4.24,-0.29 5.98,-1.47 2.05,-1.38 3.6,-3.32 4.53,-5.51 3.02,-7.17 -1.25,-15.02 -8.11,-17.92 -3.58,-1.52 -7.75,-1.66 -11.64,-0.07 -4.74,1.93 -8.26,5.6 -10.1,9.98 -1.84,4.37 -2.02,9.45 -0.09,14.21 2.37,5.83 7,10.27 12.49,12.64 5.46,2.36 11.77,2.69 17.56,0.33 2.07,-0.84 4.02,-1.88 5.81,-3.07l-1.06 1.36c-0.89,1.14 -1.81,2.27 -2.83,3.35 -5.34,5.75 -11.76,10.71 -17.89,13.89 -1.45,0.75 -2.26,2.19 -2.17,3.83 0.55,9.24 -1.31,18.58 -4.95,27.05 -1.08,2.5 -3.15,7.71 -3.15,7.71l-0.49 1.29c-0.37,0.96 0.11,2.05 1.07,2.42 0.97,0.37 2.04,-0.11 2.42,-1.07 5.71,-14.98 13.03,-29.49 21.97,-43.27 8.69,-13.39 18.89,-26.08 30.63,-37.85 11.74,-11.76 24.43,-21.98 37.79,-30.69 13.75,-8.94 28.24,-16.28 43.18,-22zm313.3 184.27c-1.73,-1.73 -4.53,-1.73 -6.26,0 -0.88,0.89 -1.32,2.06 -1.29,3.23 -0.71,-0.35 -1.33,-0.84 -1.86,-1.47 -1.72,-2.06 -2.15,-4.77 -2.59,-7.53 -0.09,-0.56 -0.19,-1.11 -0.33,-1.89 -3.98,-21.77 -11.22,-43.06 -21.73,-63.08 -10.15,-19.35 -23.34,-37.5 -39.57,-53.76 -16.22,-16.26 -34.36,-29.47 -53.67,-39.64 -19.97,-10.52 -41.23,-17.77 -62.97,-21.77 -0.77,-0.14 -1.33,-0.23 -1.89,-0.32 -2.75,-0.44 -5.46,-0.87 -7.52,-2.6 -0.63,-0.53 -1.12,-1.15 -1.47,-1.86 1.16,0.02 2.33,-0.41 3.22,-1.3 1.73,-1.74 1.73,-4.54 0,-6.27 -1.73,-1.73 -4.53,-1.73 -6.26,0 -0.83,0.83 -1.27,2.12 -1.38,3.48 -0.13,1.64 0.2,3.38 0.62,4.62 0.55,1.7 1.54,3.07 2.87,4.19 2.87,2.4 6.07,2.92 9.33,3.45 0.67,0.11 1.35,0.21 1.81,0.3 21.35,3.92 42.25,11.05 61.9,21.4 18.97,9.99 36.79,22.98 52.76,38.98 15.97,15.99 28.93,33.84 38.9,52.85 10.34,19.68 17.45,40.61 21.37,62.01 0.08,0.45 0.19,1.14 0.3,1.81 0.52,3.27 1.04,6.48 3.43,9.35 1.12,1.33 2.49,2.32 4.19,2.88 1.25,0.42 2.99,0.75 4.62,0.62 1.35,-0.11 2.65,-0.55 3.47,-1.39 1.73,-1.73 1.73,-4.53 0,-6.27zm-21.19 -178.42c1.7,-5.53 1.8,-10.71 1.89,-12.97 0.02,-0.53 0.4,-0.96 0.93,-1.05 4.14,-0.68 11.2,-3.4 18.53,-7.49 0.43,-0.24 0.96,-0.17 1.32,0.18 0.35,0.36 0.43,0.89 0.18,1.32 -4.08,7.34 -6.8,14.41 -7.47,18.57 -0.09,0.53 -0.53,0.91 -1.06,0.93 -2.26,0.08 -7.42,0.18 -12.95,1.89 -0.4,0.13 -0.81,0.02 -1.11,-0.27 -0.29,-0.3 -0.39,-0.71 -0.27,-1.11zm-32.54 55.06c-3.27,-3.7 -6.66,-7.33 -10.2,-10.86 -3.53,-3.54 -7.15,-6.95 -10.85,-10.21 4.29,1.66 9.08,2.22 14.15,1.36 3.07,-0.52 5.93,-1.61 8.65,-3.12 -1.5,2.72 -2.59,5.58 -3.12,8.66 -0.85,5.09 -0.3,9.88 1.37,14.17zm39.76 72.9c0.37,0.96 1.45,1.44 2.4,1.07 0.97,-0.37 1.45,-1.45 1.08,-2.42l-0.5 -1.29c0.01,0 -2.08,-5.2 -3.15,-7.71 -3.64,-8.47 -5.5,-17.81 -4.96,-27.05 0.1,-1.63 -0.72,-3.08 -2.17,-3.83 -6.13,-3.18 -12.55,-8.14 -17.89,-13.89 -1.01,-1.08 -1.93,-2.21 -2.82,-3.35l-1.06 -1.36c1.79,1.2 3.74,2.24 5.81,3.07 5.8,2.36 12.11,2.03 17.56,-0.33 5.48,-2.37 10.12,-6.81 12.49,-12.64 1.93,-4.75 1.76,-9.84 -0.09,-14.21 -1.85,-4.38 -5.36,-8.05 -10.1,-9.98 -3.9,-1.59 -8.06,-1.45 -11.64,0.07 -6.86,2.9 -11.13,10.74 -8.11,17.92 0.93,2.19 2.48,4.13 4.53,5.51 1.73,1.18 3.84,2.05 5.97,1.47 0.91,-0.24 1.76,-0.72 2.47,-1.43 2.16,-2.16 2.16,-5.68 0,-7.84 -2.16,-2.16 -5.66,-2.16 -7.83,0 -0.53,0.54 -0.93,1.15 -1.2,1.82 -0.19,-0.33 -0.35,-0.65 -0.5,-1 -2.21,-5.25 1.16,-10.9 6.11,-12.99 2.71,-1.14 5.85,-1.25 8.77,-0.06 3.79,1.54 6.58,4.48 8.07,7.97 1.47,3.5 1.61,7.55 0.08,11.34 -1.99,4.89 -5.88,8.62 -10.51,10.62 -4.57,1.98 -9.85,2.26 -14.67,0.3 -5.51,-2.24 -10.01,-5.99 -12.81,-10.72 -2.63,-4.44 -3.75,-9.77 -2.78,-15.53 0.67,-4.05 2.55,-7.73 5.1,-11.23 3.67,-5.07 10.17,-11.28 14.88,-16 1.27,-1.27 2.68,-2.43 4.27,-3.27 1.37,-0.72 2.69,-1.1 3.95,-1.16 2.24,-0.11 3.99,0.64 5.18,1.78 0.6,0.58 1.08,1.25 1.4,1.97 -1.45,-0.35 -3.04,0.04 -4.17,1.17 -1.73,1.74 -1.73,4.54 0,6.27 0.8,0.8 1.83,1.23 2.87,1.29 2.77,0.17 4.88,-2.21 5.42,-4.8 0.29,-1.43 0.17,-3.02 -0.33,-4.53 -0.51,-1.47 -1.38,-2.9 -2.61,-4.08 -1.87,-1.79 -4.55,-2.98 -7.94,-2.81 -1.03,0.05 -2.06,0.24 -3.1,0.57 0.33,-1.03 0.52,-2.08 0.57,-3.11 0.17,-3.4 -1.02,-6.08 -2.8,-7.95 -1.16,-1.23 -2.6,-2.11 -4.08,-2.62 -1.5,-0.51 -3.09,-0.62 -4.52,-0.32 -2.58,0.53 -4.95,2.64 -4.79,5.42 0.06,1.04 0.48,2.07 1.28,2.88 1.74,1.73 4.54,1.73 6.27,0 1.13,-1.13 1.52,-2.73 1.17,-4.18 0.72,0.33 1.4,0.8 1.97,1.4 1.13,1.2 1.9,2.94 1.78,5.19 -0.07,1.27 -0.45,2.59 -1.16,3.96 -0.83,1.59 -2,3.01 -3.26,4.27 -4.71,4.71 -10.91,11.23 -15.97,14.92 -3.5,2.55 -7.16,4.43 -11.21,5.11 -5.75,0.96 -11.06,-0.16 -15.5,-2.79 -4.71,-2.8 -8.46,-7.31 -10.71,-12.82 -1.95,-4.83 -1.68,-10.12 0.3,-14.7 2,-4.63 5.72,-8.54 10.6,-10.52 3.78,-1.55 7.84,-1.4 11.33,0.08 3.49,1.48 6.42,4.29 7.96,8.07 1.18,2.93 1.07,6.08 -0.07,8.79 -2.09,4.96 -7.73,8.35 -12.97,6.13 -0.34,-0.14 -0.67,-0.3 -0.99,-0.5 0.66,-0.27 1.27,-0.67 1.8,-1.2 2.17,-2.17 2.17,-5.67 0,-7.85 -2.15,-2.16 -5.66,-2.16 -7.82,0 -0.71,0.72 -1.19,1.58 -1.44,2.48 -0.57,2.13 0.3,4.25 1.48,6 1.38,2.05 3.32,3.61 5.51,4.53 7.16,3.03 14.99,-1.25 17.89,-8.12 1.51,-3.59 1.65,-7.76 0.07,-11.65 -1.93,-4.75 -5.59,-8.28 -9.96,-10.12 -4.36,-1.85 -9.45,-2.03 -14.2,-0.09 -5.82,2.37 -10.24,7.01 -12.62,12.51 -2.36,5.46 -2.69,11.78 -0.32,17.59 0.84,2.07 1.86,4.02 3.06,5.82l-1.35 -1.05c-1.13,-0.9 -2.26,-1.82 -3.35,-2.84 -5.74,-5.34 -10.69,-11.77 -13.86,-17.92 -0.74,-1.45 -2.19,-2.27 -3.82,-2.18 -9.23,0.55 -18.55,-1.31 -27,-4.96 -2.5,-1.07 -7.71,-3.16 -7.7,-3.15l-1.28 -0.5c-0.96,-0.37 -2.04,0.12 -2.42,1.08 -0.37,0.96 0.12,2.04 1.08,2.42 14.95,5.72 29.45,13.06 43.19,22 13.36,8.7 26.04,18.93 37.78,30.69 11.74,11.76 21.95,24.46 30.64,37.85 8.93,13.78 16.26,28.29 21.97,43.27zm-74.18 83.01c0,36.46 -13.89,72.93 -41.68,100.76 -27.79,27.84 -64.19,41.75 -100.6,41.75 -36.4,0 -72.81,-13.92 -100.59,-41.75 -27.79,-27.83 -41.68,-64.3 -41.68,-100.76 0,-36.46 13.9,-72.93 41.68,-100.77 27.79,-27.83 64.19,-41.74 100.59,-41.74 36.4,0 72.81,13.92 100.6,41.74 27.78,27.84 41.68,64.3 41.68,100.77zm-44.33 98.11c27.05,-27.09 40.58,-62.61 40.58,-98.11 0,-35.51 -13.53,-71.01 -40.58,-98.11 -27.06,-27.1 -62.5,-40.65 -97.95,-40.65 -35.45,0 -70.89,13.55 -97.94,40.65 -27.05,27.1 -40.58,62.6 -40.58,98.11 0,35.5 13.53,71.02 40.58,98.11 27.05,27.1 62.49,40.66 97.94,40.66 35.45,0 70.89,-13.56 97.95,-40.66zm-97.95 116.86c-1.05,0.98 -2.12,2.11 -3.14,3.36 -1.33,1.64 -2.56,3.46 -3.52,5.34 -0.97,1.89 -1.55,4.05 -1.73,6.22 -0.18,2.18 0.05,4.34 0.7,6.25 0.77,2.31 2.06,3.96 3.57,4.98 1.25,0.85 2.68,1.28 4.12,1.28 1.43,0 2.86,-0.43 4.12,-1.28 1.51,-1.02 2.8,-2.68 3.58,-4.98 0.64,-1.91 0.87,-4.07 0.69,-6.25 -0.18,-2.17 -0.77,-4.33 -1.73,-6.22 -0.96,-1.88 -2.19,-3.7 -3.52,-5.34 -1.01,-1.25 -2.08,-2.38 -3.14,-3.36zm214.61 -214.97c0.98,1.06 2.11,2.13 3.36,3.14 1.63,1.34 3.45,2.57 5.33,3.54 1.9,0.96 4.04,1.55 6.21,1.73 2.18,0.18 4.34,-0.05 6.24,-0.7 2.29,-0.77 3.95,-2.06 4.98,-3.58 0.85,-1.26 1.27,-2.69 1.27,-4.13 0,-1.44 -0.42,-2.88 -1.27,-4.12 -1.03,-1.52 -2.69,-2.81 -4.98,-3.59 -1.9,-0.65 -4.06,-0.88 -6.24,-0.69 -2.17,0.17 -4.31,0.76 -6.21,1.73 -1.88,0.96 -3.7,2.19 -5.33,3.53 -1.25,1.01 -2.38,2.08 -3.36,3.14zm-193.59 -204c-8.49,-0.97 -15,-1.7 -21.02,-6.12 -6.03,4.42 -12.53,5.15 -21.03,6.12 -1.33,0.15 -2.73,0.3 -4.52,0.53 -22.19,2.78 -44.02,9.19 -64.49,19.23 -19.76,9.69 -38.28,22.77 -54.72,39.23 -16.45,16.47 -29.5,35.03 -39.17,54.82 -10.02,20.51 -16.43,42.37 -19.2,64.6 -0.22,1.76 -0.38,3.18 -0.53,4.53 -0.96,8.51 -1.7,15.02 -6.11,21.05 4.41,6.04 5.15,12.55 6.11,21.07 0.15,1.34 0.3,2.74 0.53,4.52 2.77,22.24 9.18,44.09 19.2,64.6 9.67,19.78 22.73,38.34 39.17,54.81 16.44,16.47 34.97,29.55 54.72,39.23 20.47,10.05 42.3,16.45 64.49,19.24 1.76,0.22 3.18,0.38 4.52,0.53 8.5,0.96 15,1.7 21.03,6.12 6.03,-4.42 12.53,-5.16 21.03,-6.12 1.33,-0.15 2.72,-0.31 4.5,-0.53 22.21,-2.79 44.02,-9.19 64.5,-19.24 19.75,-9.68 38.27,-22.76 54.72,-39.23 16.44,-16.47 29.51,-35.03 39.17,-54.81 10.03,-20.51 16.42,-42.36 19.2,-64.6 0.22,-1.79 0.38,-3.18 0.53,-4.52 0.96,-8.51 1.69,-15.03 6.1,-21.07 -4.41,-6.04 -5.14,-12.54 -6.1,-21.06 -0.15,-1.34 -0.31,-2.73 -0.53,-4.52 -2.78,-22.23 -9.18,-44.09 -19.21,-64.6 -9.67,-19.79 -22.72,-38.35 -39.16,-54.82 -16.44,-16.47 -34.97,-29.55 -54.73,-39.23 -20.47,-10.04 -42.28,-16.46 -64.49,-19.23 -1.78,-0.23 -3.17,-0.38 -4.51,-0.53zm-33.15 -25.61c-0.21,-2.66 0.08,-5.33 0.89,-7.74 1.05,-3.11 2.86,-5.41 5.02,-6.88 1.91,-1.29 4.06,-1.94 6.22,-1.94 2.15,0 4.31,0.65 6.21,1.94 2.16,1.47 3.97,3.76 5.02,6.88 0.82,2.41 1.11,5.09 0.89,7.74 -0.22,2.64 -0.93,5.28 -2.14,7.63 -1.09,2.15 -2.47,4.19 -3.94,6 -1,1.22 -2.04,2.35 -3.09,3.35 5.09,3.38 10.94,4.05 18.48,4.9 1.57,0.18 3.2,0.36 4.56,0.54 22.58,2.82 44.81,9.35 65.69,19.6 20.13,9.88 39,23.19 55.73,39.94 16.72,16.75 30.01,35.65 39.87,55.83 10.22,20.91 16.75,43.17 19.57,65.78 0.17,1.37 0.35,3 0.54,4.57 0.84,7.56 1.51,13.42 4.88,18.51 1,-1.05 2.13,-2.1 3.35,-3.09 1.82,-1.48 3.85,-2.86 6,-3.95 2.35,-1.2 4.98,-1.93 7.61,-2.14 2.66,-0.22 5.33,0.08 7.73,0.89 3.1,1.05 5.4,2.86 6.87,5.03 1.29,1.91 1.94,4.06 1.94,6.23 0,2.15 -0.66,4.32 -1.94,6.22 -1.47,2.16 -3.76,3.97 -6.87,5.03 -2.4,0.81 -5.07,1.11 -7.73,0.89 -2.63,-0.21 -5.27,-0.94 -7.61,-2.13 -2.14,-1.1 -4.18,-2.48 -6,-3.95 -1.22,-1 -2.36,-2.05 -3.35,-3.09 -3.37,5.1 -4.04,10.95 -4.88,18.52 -0.19,1.56 -0.37,3.2 -0.54,4.56 -2.82,22.63 -9.35,44.88 -19.57,65.79 -9.86,20.18 -23.15,39.08 -39.87,55.82 -16.71,16.75 -35.59,30.06 -55.73,39.94 -20.88,10.23 -43.1,16.78 -65.69,19.6 -1.36,0.17 -2.99,0.34 -4.55,0.54 -7.55,0.84 -13.4,1.51 -18.49,4.88 1.05,1.01 2.09,2.14 3.09,3.35 1.47,1.83 2.85,3.87 3.94,6.01 1.21,2.35 1.92,4.99 2.14,7.63 0.21,2.66 -0.07,5.34 -0.89,7.75 -1.05,3.11 -2.86,5.41 -5.02,6.88 -1.9,1.29 -4.05,1.94 -6.21,1.94 -2.15,0 -4.31,-0.65 -6.22,-1.94 -2.16,-1.47 -3.97,-3.76 -5.02,-6.88 -0.82,-2.41 -1.11,-5.09 -0.89,-7.75 0.22,-2.64 0.94,-5.28 2.14,-7.63 1.09,-2.14 2.47,-4.18 3.95,-6.01 0.99,-1.21 2.03,-2.35 3.08,-3.35 -5.09,-3.37 -10.93,-4.04 -18.48,-4.88 -1.56,-0.19 -3.16,-0.37 -4.56,-0.54 -22.58,-2.83 -44.79,-9.37 -65.67,-19.6 -20.14,-9.88 -39.01,-23.2 -55.74,-39.94 -16.72,-16.74 -30.01,-35.64 -39.88,-55.82 -10.22,-20.91 -16.75,-43.16 -19.56,-65.79 -0.17,-1.36 -0.36,-3 -0.54,-4.56 -0.85,-7.56 -1.51,-13.42 -4.89,-18.52 -1,1.05 -2.12,2.1 -3.35,3.09 -1.81,1.48 -3.85,2.86 -5.99,3.95 -2.35,1.2 -4.99,1.92 -7.62,2.13 -2.65,0.22 -5.33,-0.07 -7.73,-0.89 -3.1,-1.06 -5.4,-2.87 -6.87,-5.03 -1.29,-1.9 -1.93,-4.07 -1.93,-6.22 0,-2.16 0.65,-4.32 1.94,-6.23 1.46,-2.16 3.75,-3.98 6.86,-5.03 2.4,-0.81 5.08,-1.11 7.73,-0.89 2.63,0.21 5.28,0.94 7.62,2.14 2.14,1.09 4.18,2.47 5.99,3.95 1.22,0.99 2.35,2.04 3.35,3.09 3.38,-5.1 4.04,-10.95 4.89,-18.51 0.17,-1.56 0.36,-3.17 0.54,-4.56 2.82,-22.62 9.34,-44.88 19.56,-65.79 9.87,-20.17 23.16,-39.07 39.87,-55.82 16.73,-16.76 35.6,-30.07 55.73,-39.95 20.89,-10.24 43.1,-16.78 65.68,-19.6 1.37,-0.18 3,-0.36 4.56,-0.54 7.55,-0.85 13.39,-1.52 18.48,-4.9 -1.05,-1 -2.09,-2.12 -3.08,-3.35 -1.48,-1.81 -2.86,-3.85 -3.95,-6 -1.2,-2.35 -1.92,-5 -2.14,-7.63zm4.44 -6.54c-0.65,1.91 -0.88,4.08 -0.7,6.25 0.18,2.17 0.76,4.33 1.73,6.22 0.96,1.89 2.19,3.71 3.52,5.35 1.01,1.24 2.08,2.38 3.14,3.37 1.06,-0.99 2.13,-2.12 3.14,-3.37 1.33,-1.64 2.56,-3.46 3.52,-5.35 0.96,-1.89 1.55,-4.04 1.73,-6.22 0.18,-2.17 -0.05,-4.34 -0.69,-6.25 -0.78,-2.3 -2.07,-3.95 -3.58,-4.99 -1.25,-0.85 -2.69,-1.27 -4.12,-1.27 -1.43,0 -2.86,0.42 -4.12,1.28 -1.51,1.03 -2.8,2.68 -3.57,4.98z"/>
    <path class="fil0" d="M409.43 336.08c4.28,-1.62 7.69,-5.03 9.3,-9.32 0.11,-0.26 0.34,-0.43 0.62,-0.43 0.28,0 0.52,0.17 0.62,0.43 1.61,4.29 5.02,7.71 9.3,9.32 0.26,0.1 0.42,0.34 0.42,0.62 0,0.29 -0.16,0.52 -0.42,0.63 -4.28,1.61 -7.7,5.03 -9.3,9.31 -0.1,0.26 -0.33,0.43 -0.62,0.43 -0.28,0 -0.52,-0.17 -0.62,-0.43 -1.61,-4.29 -5.02,-7.7 -9.3,-9.31 -0.26,-0.11 -0.43,-0.34 -0.43,-0.63 0,-0.28 0.17,-0.52 0.43,-0.62z"/>
    <path class="fil0" d="M76.94 264.9l-2.44 -0.96 2.07 -5.26 8.51 3.36 -2.04 5.19 -0.6 -0.23c-1.69,-0.67 -3.09,-0.79 -4.21,-0.35 -1.12,0.43 -1.98,1.43 -2.59,3 -0.53,1.32 -0.59,2.49 -0.2,3.51 0.4,1.02 1.19,1.77 2.38,2.24 1.31,0.52 2.44,0.5 3.37,-0.03 0.94,-0.54 2.11,-2.08 3.54,-4.65l0.02 -0.06c1.7,-3.11 3.28,-5.08 4.73,-5.9 0.96,-0.54 2.11,-0.83 3.42,-0.87 1.31,-0.03 2.61,0.21 3.9,0.72 2.44,0.96 4.12,2.59 5,4.87 0.88,2.28 0.79,4.78 -0.27,7.47 -0.65,1.63 -1.5,2.96 -2.57,4.01 -1.08,1.05 -2.4,1.85 -3.98,2.39l2.88 1.13 -2.05 5.23 -8.91 -3.53 2.05 -5.22 0.44 0.18c1.81,0.72 3.42,0.77 4.82,0.13 1.4,-0.63 2.47,-1.88 3.21,-3.74 0.57,-1.44 0.65,-2.7 0.27,-3.79 -0.38,-1.11 -1.18,-1.9 -2.41,-2.39 -1.36,-0.53 -2.54,-0.5 -3.54,0.13 -1.01,0.62 -2.15,2.17 -3.44,4.66 -1.73,3.27 -3.45,5.33 -5.21,6.18 -1.75,0.85 -3.91,0.77 -6.49,-0.25 -2.64,-1.04 -4.43,-2.63 -5.38,-4.76 -0.95,-2.13 -0.91,-4.49 0.11,-7.09 0.59,-1.5 1.37,-2.7 2.32,-3.61 0.96,-0.9 2.06,-1.48 3.3,-1.72zm20.62 -36.25c-0.21,-0.23 -0.42,-0.43 -0.63,-0.64 -0.2,-0.19 -0.44,-0.4 -0.7,-0.63 -0.26,-0.23 -0.51,-0.42 -0.71,-0.6 -0.21,-0.16 -0.42,-0.32 -0.65,-0.48 1.05,-1.08 1.96,-2.06 2.76,-2.92 0.79,-0.86 1.47,-1.61 2.02,-2.23 0.57,-0.67 1.22,-1.45 1.93,-2.34 0.72,-0.89 1.52,-1.89 2.38,-3 0.16,0.15 0.34,0.3 0.52,0.47 0.18,0.17 0.42,0.39 0.72,0.64 0.37,0.32 0.65,0.56 0.86,0.73 0.21,0.17 0.4,0.33 0.58,0.49l-2.37 2.39 6.66 5.79 6.59 -7.62 -6.67 -5.79 -2.01 2.69c-0.21,-0.22 -0.43,-0.43 -0.64,-0.63 -0.21,-0.2 -0.44,-0.41 -0.7,-0.64 -0.26,-0.23 -0.5,-0.43 -0.71,-0.59 -0.21,-0.16 -0.42,-0.32 -0.65,-0.48 0.99,-1.02 1.87,-1.95 2.65,-2.79 0.78,-0.85 1.46,-1.6 2.03,-2.25 0.56,-0.65 1.2,-1.43 1.93,-2.34 0.74,-0.91 1.56,-1.94 2.47,-3.12 0.23,0.25 0.44,0.48 0.67,0.7 0.22,0.21 0.42,0.4 0.61,0.57 0.19,0.16 0.39,0.32 0.63,0.5 0.23,0.18 0.49,0.37 0.77,0.58l-2.47 2.49 17.08 14.83 2.09 -2.85c0.08,0.09 0.17,0.18 0.3,0.3 0.47,0.46 0.8,0.77 1,0.94 0.23,0.2 0.62,0.51 1.19,0.96 0.12,0.07 0.19,0.13 0.23,0.17 -1.05,1.08 -1.95,2.03 -2.7,2.85 -0.78,0.82 -1.39,1.5 -1.84,2.03 -0.59,0.68 -1.26,1.5 -2.03,2.45 -0.77,0.94 -1.62,2 -2.53,3.19 -0.3,-0.31 -0.55,-0.57 -0.75,-0.77 -0.2,-0.2 -0.37,-0.37 -0.5,-0.48 -0.13,-0.12 -0.32,-0.26 -0.57,-0.45 -0.24,-0.18 -0.54,-0.4 -0.9,-0.67l2.43 -2.39 -7.44 -6.46 -6.59 7.62 7.45 6.46 1.98 -2.72c0.17,0.15 0.35,0.31 0.55,0.49 0.2,0.18 0.46,0.41 0.8,0.71 0.33,0.29 0.6,0.51 0.8,0.67 0.2,0.17 0.39,0.33 0.58,0.49 -1.12,1.17 -2.08,2.18 -2.87,3.04 -0.79,0.86 -1.44,1.57 -1.92,2.13 -0.54,0.62 -1.55,1.87 -3.03,3.74 -0.54,0.67 -0.95,1.19 -1.25,1.57 -0.22,-0.21 -0.44,-0.42 -0.64,-0.62 -0.21,-0.2 -0.44,-0.4 -0.71,-0.64 -0.15,-0.13 -0.46,-0.38 -0.91,-0.73 -0.19,-0.15 -0.35,-0.27 -0.47,-0.36l2.49 -2.44 -17.09 -14.83 -2.1 2.79zm55.32 -50.62l3.91 13.4 5.68 -3.27 -9.59 -10.13zm-3.98 -0.68c0.57,-0.22 1.16,-0.51 1.79,-0.82 0.63,-0.32 1.28,-0.67 1.95,-1.05 0.66,-0.39 1.31,-0.79 1.94,-1.19 0.62,-0.4 1.25,-0.83 1.87,-1.28l18.77 19.15 2.57 -1.8c0.1,0.24 0.22,0.49 0.34,0.73 0.13,0.25 0.29,0.55 0.5,0.91 0.16,0.29 0.32,0.55 0.47,0.78 0.15,0.23 0.31,0.47 0.48,0.71 -1.25,0.62 -2.4,1.21 -3.42,1.76 -1.04,0.55 -1.97,1.06 -2.79,1.54 -0.48,0.28 -1.16,0.7 -2.03,1.24 -0.86,0.54 -1.91,1.21 -3.13,2.01 -0.18,-0.37 -0.34,-0.71 -0.47,-0.99 -0.13,-0.28 -0.24,-0.5 -0.32,-0.64 -0.08,-0.13 -0.2,-0.32 -0.38,-0.58 -0.17,-0.26 -0.38,-0.57 -0.62,-0.92l3 -1.41 -4.75 -5.05 -7.05 4.06 1.91 6.69 2.98 -2.04c0.11,0.25 0.23,0.5 0.35,0.74 0.13,0.24 0.29,0.54 0.5,0.9 0.17,0.29 0.33,0.55 0.47,0.78 0.15,0.23 0.3,0.47 0.47,0.72 -1.07,0.52 -2.01,0.99 -2.84,1.43 -0.83,0.43 -1.54,0.81 -2.12,1.15 -0.44,0.25 -1,0.6 -1.7,1.04 -0.69,0.44 -1.54,1 -2.55,1.67 -0.24,-0.48 -0.42,-0.83 -0.55,-1.07 -0.12,-0.23 -0.23,-0.44 -0.33,-0.6 -0.09,-0.17 -0.32,-0.53 -0.66,-1.05 -0.12,-0.18 -0.21,-0.31 -0.26,-0.4l2.35 -1.03 -6.73 -26.09zm58.26 -19.93l1.64 9.2 1.45 -0.26c1.72,-0.3 2.91,-0.9 3.56,-1.79 0.67,-0.88 0.85,-2.13 0.57,-3.74 -0.29,-1.61 -0.88,-2.69 -1.77,-3.28 -0.9,-0.58 -2.21,-0.71 -3.95,-0.39l-1.5 0.26zm-10.24 1.99c-0.01,-0.18 -0.05,-0.49 -0.09,-0.91 -0.04,-0.43 -0.08,-0.75 -0.11,-0.96 -0.03,-0.17 -0.09,-0.39 -0.15,-0.65 -0.07,-0.26 -0.16,-0.59 -0.27,-0.98 1.25,-0.18 2.45,-0.37 3.56,-0.55 1.13,-0.18 2.15,-0.35 3.1,-0.53 0.97,-0.17 2.3,-0.43 3.98,-0.79 1.68,-0.36 2.9,-0.6 3.63,-0.74 3.13,-0.56 5.52,-0.38 7.16,0.55 1.65,0.93 2.69,2.66 3.14,5.22 0.36,1.98 0.14,3.6 -0.64,4.85 -0.78,1.25 -2.12,2.15 -4.03,2.68 3.14,-0.37 5.24,-0.24 6.29,0.4 1.06,0.62 1.82,2.24 2.28,4.86l0.27 1.53c0.24,1.35 0.58,2.24 1.02,2.68 0.43,0.43 1.1,0.6 1.98,0.48l0.94 -0.13 0.58 3.28 -5.94 1.07c-1.73,0.31 -2.96,0.19 -3.7,-0.37 -0.73,-0.56 -1.28,-1.85 -1.64,-3.88l-0.63 -3.54c-0.38,-2.12 -0.91,-3.38 -1.59,-3.77 -0.68,-0.4 -2.16,-0.4 -4.45,0.01l-2.29 0.41 1.78 9.99 3.49 -0.91c0.02,0.27 0.05,0.54 0.08,0.82 0.04,0.27 0.09,0.6 0.16,1.01 0.06,0.33 0.11,0.63 0.18,0.9 0.06,0.27 0.12,0.54 0.18,0.83 -0.44,0.07 -1.09,0.16 -1.96,0.27 -2.45,0.33 -4.09,0.57 -4.9,0.72 -0.75,0.14 -1.7,0.32 -2.85,0.58 -1.14,0.24 -2.5,0.54 -4.05,0.9 -0.05,-0.42 -0.09,-0.78 -0.13,-1.07 -0.03,-0.3 -0.06,-0.53 -0.09,-0.68 -0.03,-0.13 -0.09,-0.4 -0.2,-0.79 -0.1,-0.4 -0.18,-0.73 -0.25,-1l3.64 -0.37 -3.98 -22.3 -3.54 0.88zm71.61 -5.53l-4.96 13.04 6.5 0.83 -1.54 -13.87zm-2.77 -2.95c0.6,0.16 1.24,0.3 1.93,0.42 0.69,0.13 1.42,0.24 2.18,0.34 0.77,0.09 1.52,0.17 2.27,0.22 0.74,0.05 1.5,0.09 2.26,0.11l3.42 26.61 3.12 0.12c-0.05,0.26 -0.11,0.53 -0.16,0.8 -0.04,0.27 -0.09,0.61 -0.15,1.02 -0.04,0.33 -0.07,0.63 -0.09,0.9 -0.02,0.27 -0.04,0.57 -0.05,0.86 -1.38,-0.25 -2.64,-0.48 -3.79,-0.66 -1.15,-0.19 -2.2,-0.34 -3.15,-0.46 -0.55,-0.08 -1.33,-0.16 -2.37,-0.25 -1.01,-0.09 -2.25,-0.19 -3.7,-0.29 0.08,-0.41 0.15,-0.77 0.22,-1.07 0.06,-0.31 0.1,-0.55 0.13,-0.7 0.01,-0.15 0.03,-0.37 0.04,-0.69 0.01,-0.32 0.04,-0.69 0.06,-1.12l3.24 0.7 -0.74 -6.9 -8.06 -1.03 -2.51 6.49 3.59 0.17c-0.06,0.26 -0.11,0.54 -0.16,0.8 -0.03,0.27 -0.08,0.61 -0.14,1.03 -0.04,0.32 -0.07,0.63 -0.1,0.9 -0.02,0.27 -0.04,0.56 -0.05,0.86 -1.16,-0.23 -2.2,-0.42 -3.12,-0.58 -0.92,-0.15 -1.72,-0.27 -2.4,-0.37 -0.5,-0.05 -1.16,-0.12 -1.97,-0.18 -0.82,-0.07 -1.83,-0.14 -3.05,-0.21 0.1,-0.53 0.17,-0.92 0.21,-1.18 0.05,-0.26 0.09,-0.48 0.11,-0.67 0.03,-0.2 0.06,-0.61 0.1,-1.24 0.01,-0.21 0.02,-0.37 0.04,-0.48l2.48 0.6 10.36 -24.86zm48.53 15.36c0.17,-0.25 0.32,-0.51 0.47,-0.75 0.14,-0.24 0.29,-0.52 0.44,-0.81 0.09,-0.18 0.26,-0.54 0.5,-1.1 0.09,-0.21 0.16,-0.38 0.22,-0.52 0.18,0.11 0.42,0.25 0.74,0.43 1.87,1.1 3.19,1.86 3.95,2.25 0.57,0.29 1.24,0.61 2.01,0.96 0.77,0.35 1.65,0.74 2.65,1.16l1.87 23.84 7.76 -15.17 -3.2 -1.37c0.08,-0.14 0.19,-0.33 0.32,-0.56 0.3,-0.52 0.49,-0.86 0.57,-1.01 0.15,-0.31 0.29,-0.59 0.39,-0.83 0.12,-0.26 0.23,-0.51 0.33,-0.78 1.03,0.63 1.96,1.16 2.78,1.62 0.83,0.47 1.57,0.87 2.21,1.21 0.65,0.32 1.41,0.69 2.27,1.1 0.88,0.39 1.88,0.85 3.01,1.34 -0.22,0.34 -0.4,0.63 -0.55,0.88 -0.16,0.26 -0.29,0.49 -0.4,0.7 -0.07,0.15 -0.18,0.41 -0.33,0.77 -0.14,0.36 -0.26,0.63 -0.33,0.82l-2.99 -1.8 -11.83 23.11c-0.31,-0.18 -0.66,-0.36 -1.03,-0.56 -0.37,-0.2 -0.89,-0.47 -1.53,-0.79 -0.5,-0.26 -0.95,-0.49 -1.37,-0.7 -0.42,-0.2 -0.84,-0.41 -1.29,-0.62l-2.15 -25.93 -8.54 16.7 3.23 1.34c-0.04,0.07 -0.1,0.17 -0.2,0.33 -0.35,0.6 -0.58,1 -0.69,1.23 -0.13,0.24 -0.32,0.66 -0.58,1.26 -0.08,0.17 -0.13,0.3 -0.18,0.39 -1.14,-0.68 -2.13,-1.26 -2.97,-1.72 -0.84,-0.48 -1.53,-0.85 -2.06,-1.12 -0.57,-0.29 -1.28,-0.63 -2.14,-1.03 -0.86,-0.4 -1.88,-0.86 -3.07,-1.37 0.08,-0.13 0.2,-0.32 0.33,-0.56 0.31,-0.51 0.51,-0.85 0.58,-1 0.15,-0.31 0.3,-0.59 0.41,-0.86 0.12,-0.26 0.22,-0.53 0.32,-0.79l2.97 1.84 10.31 -20.16 -3.21 -1.37zm62.52 41.29l-12.06 6.98 4.52 4.75 7.54 -11.73zm-0.28 -4.04c0.36,0.5 0.78,1.01 1.23,1.55 0.45,0.54 0.95,1.08 1.48,1.65 0.53,0.56 1.07,1.09 1.62,1.61 0.54,0.51 1.11,1.02 1.69,1.51l-14.11 22.82 2.35 2.06c-0.21,0.17 -0.42,0.34 -0.63,0.52 -0.2,0.18 -0.46,0.41 -0.76,0.69 -0.24,0.23 -0.46,0.45 -0.64,0.65 -0.19,0.2 -0.39,0.41 -0.58,0.63 -0.91,-1.07 -1.75,-2.04 -2.52,-2.9 -0.77,-0.88 -1.5,-1.66 -2.15,-2.35 -0.38,-0.4 -0.94,-0.96 -1.69,-1.68 -0.73,-0.72 -1.63,-1.57 -2.69,-2.57 0.32,-0.27 0.6,-0.5 0.85,-0.7 0.25,-0.2 0.42,-0.35 0.54,-0.46 0.11,-0.11 0.26,-0.27 0.48,-0.5 0.2,-0.24 0.45,-0.51 0.74,-0.83l2.08 2.59 3.77 -5.82 -5.6 -5.89 -6.04 3.44 2.68 2.41c-0.21,0.16 -0.42,0.34 -0.63,0.52 -0.2,0.18 -0.46,0.41 -0.76,0.7 -0.24,0.23 -0.45,0.44 -0.64,0.64 -0.19,0.2 -0.38,0.41 -0.58,0.63 -0.76,-0.91 -1.45,-1.72 -2.07,-2.42 -0.61,-0.71 -1.15,-1.3 -1.63,-1.8 -0.34,-0.36 -0.81,-0.83 -1.41,-1.4 -0.6,-0.57 -1.34,-1.26 -2.23,-2.08 0.4,-0.34 0.71,-0.61 0.91,-0.79 0.21,-0.17 0.37,-0.32 0.51,-0.46 0.14,-0.14 0.43,-0.43 0.85,-0.9 0.15,-0.16 0.25,-0.27 0.33,-0.34l1.56 2.03 23.7 -12.74zm31.87 40.9c0.5,1.3 0.94,2.42 1.33,3.37 0.38,0.95 0.7,1.72 0.96,2.3 0.39,0.86 0.83,1.79 1.35,2.82 0.5,1.04 1.07,2.16 1.72,3.39l-15.02 12.59 19.24 -3.23c0.48,1.27 0.95,2.43 1.38,3.48 0.43,1.04 0.82,1.95 1.17,2.75 0.35,0.77 0.77,1.65 1.27,2.67 0.5,1 1.06,2.12 1.71,3.35 -0.38,0.13 -0.71,0.24 -0.98,0.34 -0.28,0.11 -0.52,0.2 -0.71,0.28 -0.13,0.06 -0.32,0.16 -0.58,0.3 -0.25,0.13 -0.58,0.31 -0.98,0.54l-1.16 -3.16 -20.6 9.33 1.64 2.94c-0.17,0.08 -0.46,0.18 -0.87,0.33 -0.4,0.14 -0.7,0.25 -0.86,0.32 -0.19,0.08 -0.42,0.2 -0.67,0.34 -0.25,0.14 -0.55,0.3 -0.88,0.5 -0.53,-1.37 -1,-2.57 -1.43,-3.59 -0.42,-1.03 -0.78,-1.88 -1.08,-2.55 -0.3,-0.65 -0.7,-1.5 -1.22,-2.54 -0.51,-1.05 -1.11,-2.24 -1.82,-3.6 0.46,-0.16 0.82,-0.3 1.08,-0.4 0.27,-0.1 0.48,-0.18 0.61,-0.23 0.13,-0.07 0.34,-0.18 0.62,-0.33 0.27,-0.14 0.59,-0.32 0.96,-0.53l1.18 3.29 21.38 -9.68 -27.42 4.37 -1.69 -3.73 20.88 -17.82 -20.99 9.5 1.59 2.83c-0.19,0.07 -0.49,0.18 -0.9,0.33 -0.41,0.16 -0.69,0.26 -0.87,0.34 -0.14,0.06 -0.39,0.2 -0.73,0.39 -0.35,0.19 -0.62,0.34 -0.79,0.43 -0.13,-0.33 -0.33,-0.82 -0.57,-1.45 -0.67,-1.75 -1.14,-2.91 -1.4,-3.49 -0.29,-0.64 -0.64,-1.36 -1.06,-2.19 -0.41,-0.84 -0.9,-1.77 -1.47,-2.83 0.28,-0.1 0.55,-0.19 0.81,-0.3 0.25,-0.1 0.52,-0.22 0.83,-0.35 0.32,-0.14 0.6,-0.27 0.86,-0.41 0.26,-0.13 0.52,-0.27 0.79,-0.42l1.08 3.07 20.6 -9.33 -1.55 -2.85c0.15,-0.05 0.35,-0.13 0.6,-0.22 0.56,-0.22 0.92,-0.37 1.07,-0.44 0.32,-0.14 0.6,-0.28 0.84,-0.4 0.24,-0.12 0.49,-0.26 0.73,-0.4z"/>
    <path class="fil0" d="M148.11 464.92l2 -1.94 4.14 3.61c-0.7,0.74 -1.33,1.42 -1.91,2.04 -0.57,0.62 -1.08,1.2 -1.53,1.71 -0.53,0.6 -1.11,1.28 -1.74,2.04 -0.63,0.75 -1.32,1.6 -2.06,2.51l-4.39 -3.8c0.19,-0.21 0.37,-0.4 0.55,-0.58 0.17,-0.18 0.33,-0.38 0.5,-0.57 1.41,-1.61 2.09,-3.26 2.07,-4.95 -0.04,-1.69 -0.77,-3.16 -2.2,-4.42 -1.83,-1.6 -3.74,-2.07 -5.72,-1.42 -1.98,0.66 -4.34,2.56 -7.1,5.73 -2.82,3.23 -4.39,5.95 -4.7,8.11 -0.31,2.16 0.55,4.14 2.61,5.94 1.67,1.45 3.33,2.06 5.01,1.84 1.67,-0.23 3.39,-1.27 5.16,-3.15l-4.95 -3.92c0.12,-0.13 0.3,-0.3 0.51,-0.53 0.39,-0.4 0.64,-0.67 0.76,-0.8 0.12,-0.14 0.36,-0.43 0.7,-0.87 0.19,-0.24 0.34,-0.43 0.46,-0.58 1.03,1.1 2.05,2.12 3.02,3.07 0.99,0.94 1.98,1.84 2.96,2.7 0.63,0.55 1.33,1.14 2.12,1.78 0.79,0.64 1.74,1.41 2.85,2.29 -0.2,0.19 -0.4,0.38 -0.59,0.58 -0.19,0.19 -0.39,0.42 -0.63,0.69 -0.26,0.3 -0.48,0.55 -0.64,0.77 -0.16,0.2 -0.33,0.42 -0.49,0.64l-2.05 -2.24 -7.09 8.13 -4.2 -3.65 2.26 -2.59c-1.52,0.51 -3.08,0.53 -4.67,0.05 -1.59,-0.48 -3.23,-1.45 -4.91,-2.92 -3.27,-2.84 -4.84,-5.85 -4.73,-9.02 0.11,-3.17 1.94,-6.77 5.46,-10.82 3.38,-3.88 6.64,-6.11 9.77,-6.68 3.14,-0.58 6.25,0.48 9.34,3.17 1.41,1.23 2.44,2.5 3.11,3.82 0.66,1.32 0.98,2.74 0.93,4.26zm40.73 22.92l-2.96 8.86 1.4 0.46c1.66,0.56 2.98,0.6 3.99,0.13 1,-0.45 1.76,-1.46 2.28,-3.02 0.52,-1.54 0.53,-2.78 0.01,-3.71 -0.51,-0.94 -1.61,-1.69 -3.28,-2.24l-1.44 -0.48zm-9.94 -3.15c0.07,-0.17 0.18,-0.45 0.35,-0.84 0.17,-0.39 0.29,-0.69 0.35,-0.89 0.06,-0.17 0.11,-0.38 0.18,-0.64 0.07,-0.25 0.15,-0.59 0.24,-0.99 1.19,0.44 2.32,0.84 3.39,1.22 1.07,0.38 2.06,0.72 2.97,1.02 0.93,0.31 2.22,0.72 3.87,1.21 1.66,0.5 2.83,0.86 3.54,1.09 3.02,1.01 5.03,2.31 6.03,3.91 1,1.6 1.08,3.63 0.26,6.08 -0.64,1.91 -1.59,3.23 -2.88,3.96 -1.29,0.73 -2.89,0.88 -4.82,0.43 2.92,1.18 4.7,2.3 5.33,3.36 0.63,1.06 0.53,2.85 -0.31,5.36l-0.5 1.48c-0.43,1.29 -0.57,2.25 -0.39,2.84 0.18,0.59 0.68,1.05 1.52,1.37l0.89 0.34 -1.06 3.15 -5.73 -1.91c-1.67,-0.55 -2.69,-1.25 -3.07,-2.08 -0.37,-0.84 -0.24,-2.24 0.41,-4.2l1.14 -3.41c0.68,-2.04 0.82,-3.4 0.4,-4.07 -0.4,-0.68 -1.7,-1.38 -3.91,-2.12l-2.2 -0.74 -3.22 9.64 3.51 0.87c-0.1,0.24 -0.22,0.5 -0.32,0.75 -0.1,0.25 -0.21,0.57 -0.34,0.97 -0.11,0.32 -0.2,0.6 -0.27,0.86 -0.07,0.27 -0.15,0.55 -0.23,0.82 -0.42,-0.15 -1.04,-0.39 -1.85,-0.7 -2.31,-0.88 -3.86,-1.45 -4.64,-1.71 -0.73,-0.24 -1.66,-0.53 -2.78,-0.86 -1.13,-0.34 -2.45,-0.73 -3.99,-1.15 0.16,-0.39 0.29,-0.73 0.4,-1 0.11,-0.28 0.2,-0.49 0.25,-0.65 0.04,-0.13 0.11,-0.38 0.21,-0.79 0.09,-0.4 0.18,-0.73 0.26,-1l3.37 1.42 7.17 -21.48 -3.53 -0.93zm69.91 12.59c-2.4,0.09 -4.08,1.03 -5.03,2.83 -0.94,1.8 -1.34,4.92 -1.19,9.35 0.16,4.43 0.77,7.52 1.83,9.27 1.07,1.75 2.8,2.59 5.2,2.51 2.42,-0.09 4.11,-1.02 5.04,-2.83 0.94,-1.8 1.33,-4.93 1.18,-9.4 -0.15,-4.46 -0.76,-7.56 -1.82,-9.28 -1.05,-1.72 -2.8,-2.54 -5.22,-2.45zm-0.11 -3.32c4.72,-0.16 8.26,0.98 10.65,3.41 2.37,2.42 3.65,6.22 3.82,11.4 0.18,5.17 -0.84,9.05 -3.05,11.65 -2.21,2.59 -5.67,3.97 -10.37,4.14 -4.7,0.15 -8.24,-0.99 -10.62,-3.43 -2.38,-2.44 -3.66,-6.24 -3.83,-11.42 -0.18,-5.17 0.83,-9.03 3.04,-11.63 2.21,-2.59 5.66,-3.96 10.37,-4.13zm43.09 -1.9c-0.09,-0.3 -0.18,-0.58 -0.26,-0.84 -0.09,-0.27 -0.2,-0.56 -0.32,-0.87 -0.13,-0.32 -0.25,-0.61 -0.35,-0.86 -0.11,-0.25 -0.23,-0.5 -0.36,-0.75 1.4,-0.46 2.64,-0.89 3.76,-1.28 1.11,-0.39 2.07,-0.74 2.88,-1.06 0.81,-0.31 1.75,-0.7 2.81,-1.15 1.05,-0.46 2.24,-0.98 3.55,-1.58 0.04,0.1 0.08,0.23 0.13,0.41 0.2,0.63 0.35,1.06 0.44,1.3 0.09,0.25 0.28,0.67 0.56,1.28 0.07,0.13 0.11,0.24 0.15,0.33l-3.32 1.04 5.39 13.82c1.05,2.7 2.21,4.48 3.49,5.35 1.27,0.86 2.81,0.94 4.62,0.23 1.8,-0.7 2.87,-1.74 3.21,-3.12 0.34,-1.38 -0.05,-3.5 -1.17,-6.37l-5.4 -13.86 -3.15 1.49c-0.05,-0.15 -0.11,-0.36 -0.2,-0.63 -0.18,-0.56 -0.31,-0.92 -0.37,-1.08 -0.13,-0.32 -0.25,-0.61 -0.35,-0.86 -0.11,-0.25 -0.23,-0.5 -0.36,-0.76 1.1,-0.34 2.08,-0.66 2.95,-0.95 0.87,-0.3 1.64,-0.58 2.3,-0.83 0.62,-0.24 1.37,-0.56 2.22,-0.94 0.87,-0.38 1.85,-0.82 2.93,-1.33 0.03,0.08 0.07,0.18 0.11,0.34 0.22,0.69 0.39,1.17 0.5,1.45 0.13,0.32 0.24,0.6 0.35,0.83 0.11,0.23 0.22,0.47 0.34,0.7l-3.33 1.04 5.05 12.94c0.98,2.5 1.56,4.33 1.76,5.44 0.2,1.12 0.2,2.19 0.01,3.18 -0.28,1.56 -1.04,2.94 -2.29,4.16 -1.25,1.21 -2.96,2.25 -5.15,3.1 -3.67,1.43 -6.64,1.61 -8.9,0.53 -2.25,-1.08 -4.15,-3.61 -5.7,-7.58l-5.37 -13.74 -3.14 1.49zm58.89 -32.95l7.36 8.42 1.37 -1.2c1.48,-1.28 2.27,-2.57 2.38,-3.88 0.11,-1.29 -0.46,-2.66 -1.69,-4.07 -1.29,-1.48 -2.63,-2.2 -4.02,-2.17 -1.4,0.02 -2.98,0.81 -4.74,2.35l-0.65 0.56zm-7.73 7.06c-0.27,-0.34 -0.5,-0.64 -0.69,-0.89 -0.19,-0.25 -0.34,-0.44 -0.44,-0.56 -0.12,-0.13 -0.28,-0.29 -0.48,-0.5 -0.2,-0.2 -0.45,-0.44 -0.74,-0.72 1.18,-0.94 2.22,-1.79 3.13,-2.54 0.92,-0.75 1.75,-1.46 2.5,-2.1 0.48,-0.42 1.34,-1.24 2.62,-2.45 1.27,-1.21 2.31,-2.17 3.14,-2.9 2.48,-2.16 4.79,-3.22 6.9,-3.14 2.11,0.08 4.18,1.27 6.21,3.59 2.01,2.31 2.9,4.52 2.67,6.63 -0.23,2.11 -1.61,4.27 -4.14,6.48 -0.42,0.36 -0.92,0.79 -1.53,1.28 -0.61,0.48 -1.27,1 -1.98,1.55l5.48 6.26 2.5 -2.55c0.2,0.28 0.39,0.53 0.58,0.77 0.17,0.22 0.34,0.44 0.51,0.63 0.16,0.19 0.36,0.39 0.58,0.61 0.22,0.22 0.45,0.46 0.72,0.72 -1.2,0.94 -2.26,1.78 -3.14,2.5 -0.88,0.72 -1.62,1.34 -2.2,1.84 -0.56,0.5 -1.28,1.15 -2.16,1.97 -0.89,0.82 -1.91,1.79 -3.06,2.91 -0.27,-0.34 -0.48,-0.62 -0.66,-0.85 -0.18,-0.24 -0.33,-0.42 -0.42,-0.54 -0.12,-0.13 -0.28,-0.3 -0.51,-0.53 -0.22,-0.21 -0.48,-0.48 -0.79,-0.79l2.96 -2.21 -14.9 -17.07 -2.62 2.6z"/>
   </g>
   <path class="fil0" d="M916.76 341.8c45.21,-6.46 105.2,-23.38 105.54,-79.74 0.31,-52.91 -77.38,-84.34 -77.83,-85.24l93.45 0c0,55.27 -11.52,208.34 76.87,208.34 88.39,0 73.15,-161.94 73.15,-208.34l36.47 -0 0.54 194.64c0.01,23.83 0.9,56.23 -27.07,48.33l0 11.6 46.73 0 46.73 0 0 -11.6c-27.96,7.9 -27.08,-24.5 -27.07,-48.33l0.64 -194.64 95.9 0 0 96.03c-43.43,-0.55 -75.79,26.95 -75.22,70.7 0.42,31.87 19.93,64.94 54.75,64.26 59.06,-1.15 57.94,-77.59 57.21,-119.49l73.47 0c0.21,30.29 0.43,60.58 0.65,90.87 0,12.86 0.86,27.7 -4.51,35.44 -3.06,4.41 -8.37,5.27 -16.11,5.16l0 11.6 50.91 0c30.07,15.04 60.15,30.08 90.23,45.11 0.65,0.22 1.29,0.43 1.94,0.65 4.08,-6.66 8.16,-13.32 12.24,-19.98 -10.91,-4.77 -94.72,-36.67 -98.6,-41.89l0 -238.46 38.67 0 0 -16.76c-257.44,0 -514.87,0 -772.31,0l-53.28 0c15.6,14.26 29.21,16.63 53.52,16.76l18.67 0c0.21,64.87 0.43,129.76 0.65,194.64 0.01,23.83 0.89,56.23 -27.07,48.33l0 11.6 46.73 0 46.73 0 0 -11.6c-27.96,7.9 -27.07,-24.5 -27.07,-48.33 0.21,-64.88 0.43,-129.77 0.65,-194.64l18.62 0c58.28,1.32 127,13.1 124.69,87.68 -2.26,73.03 -77.31,64.76 -124.63,60.55l0 10.96c145.81,48.91 251.46,273.15 475.82,277.09 172.94,3.03 338.73,-121.16 365.23,-262.67 20.85,-111.32 -11.27,-222.67 -84.45,-280.08 -25.94,-22.65 -56.62,-40.22 -90.47,-59.29 -16.41,-9.23 -42.8,-16.19 -51.87,-6.02 -14.75,16.54 1.2,38.27 20.26,41.33 15.67,1.43 31.34,2.86 47.01,4.3 126.46,18.64 176.42,184.63 151.27,299.19 -30.4,138.47 -191.73,256.06 -357.57,252.96 -212.19,-3.96 -295.82,-240.88 -410.78,-261.01zm-295.18 28.36c53.91,10.06 87.14,11.6 119.88,-44.47 14.74,-25.24 18.46,-57.68 13.57,-87.19 -9.09,-54.76 -47.27,-86.94 -105.14,-86.74 -45.06,0.16 -85.77,36.81 -88.76,77.65 -5.3,72.4 93.28,108.96 150.69,67.92 -4.24,27.24 -33.01,61.29 -68.68,62.72 -19.15,0.77 -36.75,-6.21 -51.19,-18.25l-50.28 0 0 10.96c32.92,7.23 41.69,33.16 59.3,55.42 33.65,42.57 133.11,45.62 162.41,0.65 -2.37,-2.79 -5.39,-6.37 -7.75,-9.16 -23.2,28.67 -134.04,32.37 -134.04,-29.51zm30.65 -72.49c-38.87,1.44 -64.87,-31.6 -64.02,-69.86 0.77,-34.88 27.66,-63.6 62.37,-63.88 42.35,-0.34 63.64,33.59 64.79,65.11 1.2,33.24 -20.1,67.03 -63.13,68.63zm938.65 -155.01l5.8 0c1.72,-7.09 3.44,-14.18 5.15,-21.27 0.21,7.09 0.43,14.18 0.65,21.27l5.8 0 0 -29 -9.02 0c-1.5,6.23 -3.01,12.46 -4.51,18.69l-0.65 0c-1.72,-6.23 -3.44,-12.46 -5.16,-18.69l-9.03 0 0 29 5.8 0 0 -20.62c1.72,6.87 3.44,13.75 5.15,20.62zm-23.2 0l0 -23.85 9.03 0 0 -5.15 -23.2 0 0 5.15 8.37 0 0 23.85 5.8 0zm-229.44 249.42c-14.95,0.21 -21.25,-25.86 -20.41,-47.71 0.93,-24.13 14.96,-56.05 42.97,-56.05 0.42,26.82 6.05,103.35 -22.56,103.76zm59.3 -215.26l73.47 0c0.21,31.79 0.43,64.24 0.65,96.03l-74.12 0 0 -96.03zm-320.95 0l72.18 0c0,44.49 8.54,188.14 -34.78,188.14 -44.94,0 -37.39,-144.11 -37.39,-188.14z"/>
  </g>
 </g>
</svg>
