<svg xmlns="http://www.w3.org/2000/svg" xml:space="preserve" width="38.1mm" height="33.7948mm" version="1.1" style="shape-rendering:geometricPrecision; text-rendering:geometricPrecision; image-rendering:optimizeQuality; fill-rule:evenodd; clip-rule:evenodd"
viewBox="0 0 322.34 285.92"
 xmlns:xlink="http://www.w3.org/1999/xlink">
 <defs>
  <style type="text/css">
   <![CDATA[
    .fil0 {fill:black}
   ]]>
  </style>
 </defs>
 <g id="Layer_x0020_1">
  <metadata id="CorelCorpID_0Corel-Layer"/>
  <g id="_2682247203760">
   <polygon class="fil0" points="170.57,0 150.23,10.88 150.23,98.34 170.57,98.34 "/>
   <polygon class="fil0" points="214.5,18.69 194.16,29.58 194.16,133.09 214.5,133.09 "/>
   <polygon class="fil0" points="107.84,18.19 128.18,29.08 128.18,133.09 107.84,133.09 "/>
   <polygon class="fil0" points="143.03,97.92 177.77,97.92 177.77,98.75 143.03,98.75 "/>
   <polygon class="fil0" points="186.96,132.67 221.7,132.67 221.7,133.5 186.96,133.5 "/>
   <polygon class="fil0" points="100.64,132.67 135.38,132.67 135.38,133.5 100.64,133.5 "/>
   <path class="fil0" d="M44.93 166.39c-1.07,-0.68 -2.46,-1.31 -4.14,-1.92 -1.68,-0.61 -3.63,-1.09 -5.84,-1.48 -2.22,-0.39 -4.66,-0.57 -7.32,-0.59 -3.86,0.02 -7.38,0.57 -10.54,1.66 -3.16,1.11 -5.88,2.66 -8.17,4.66 -2.27,2 -4.03,4.35 -5.27,7.06 -1.22,2.7 -1.85,5.68 -1.87,8.91 0.04,3.86 0.94,7.3 2.72,10.3 1.78,3 4.27,5.6 7.47,7.84 3.2,2.22 6.93,4.12 11.22,5.71 3.64,1.46 6.62,3.05 8.91,4.75 2.29,1.7 3.98,3.62 5.03,5.77 1.07,2.13 1.61,4.59 1.59,7.34 -0.02,3.05 -0.72,5.71 -2.14,7.99 -1.42,2.27 -3.46,4.03 -6.14,5.29 -2.68,1.26 -5.9,1.9 -9.69,1.92 -2.31,0 -4.57,-0.24 -6.77,-0.68 -2.2,-0.44 -4.27,-1.07 -6.21,-1.85 -1.94,-0.78 -3.68,-1.66 -5.21,-2.68l-2.55 7.65c1.44,1.02 3.24,1.91 5.4,2.72 2.18,0.8 4.55,1.42 7.1,1.89 2.55,0.46 5.1,0.7 7.69,0.72 4.55,-0.02 8.56,-0.63 12.04,-1.83 3.49,-1.18 6.4,-2.87 8.77,-5.01 2.37,-2.14 4.14,-4.66 5.34,-7.53 1.2,-2.88 1.81,-5.99 1.81,-9.37 0,-4.01 -0.78,-7.53 -2.31,-10.54 -1.55,-3.01 -3.85,-5.68 -6.92,-7.99 -3.05,-2.31 -6.86,-4.42 -11.41,-6.32 -3.77,-1.57 -6.86,-3.14 -9.28,-4.75 -2.42,-1.63 -4.24,-3.42 -5.4,-5.44 -1.16,-2 -1.74,-4.38 -1.74,-7.12 0,-1.55 0.28,-3.11 0.87,-4.66 0.59,-1.55 1.54,-2.98 2.81,-4.29 1.29,-1.29 2.96,-2.35 5.03,-3.14 2.05,-0.8 4.55,-1.2 7.49,-1.22 2.37,0.02 4.53,0.24 6.47,0.67 1.94,0.41 3.62,0.92 5.03,1.52 1.42,0.59 2.55,1.17 3.37,1.7l2.77 -7.65zm49.93 -4.1c-5.32,0.02 -10.23,1.03 -14.7,3.05 -4.47,2.02 -8.36,4.94 -11.67,8.76 -3.31,3.83 -5.86,8.47 -7.69,13.92 -1.81,5.45 -2.76,11.63 -2.77,18.53 0.02,6.62 0.91,12.57 2.64,17.84 1.76,5.29 4.22,9.8 7.41,13.52 3.18,3.74 6.97,6.6 11.33,8.58 4.36,1.98 9.17,2.98 14.44,2.99 4.01,0 7.84,-0.59 11.48,-1.76 3.64,-1.18 6.99,-2.94 10.04,-5.31 3.05,-2.35 5.69,-5.31 7.95,-8.86 2.26,-3.53 4.01,-7.67 5.25,-12.43 1.24,-4.73 1.87,-10.08 1.89,-16.03 -0.02,-6.4 -0.85,-12.22 -2.52,-17.46 -1.66,-5.23 -4.07,-9.74 -7.17,-13.54 -3.13,-3.77 -6.86,-6.69 -11.22,-8.73 -4.38,-2.05 -9.28,-3.09 -14.7,-3.11zm-0.44 7.65c3.62,0.02 6.84,0.72 9.69,2.07 2.85,1.35 5.32,3.22 7.41,5.57 2.11,2.37 3.85,5.07 5.21,8.1 1.39,3.05 2.4,6.27 3.09,9.65 0.67,3.4 1,6.8 1,10.23 0,3.88 -0.37,7.6 -1.09,11.19 -0.74,3.57 -1.81,6.88 -3.25,9.93 -1.44,3.03 -3.24,5.68 -5.38,7.95 -2.14,2.27 -4.62,4.03 -7.43,5.29 -2.83,1.26 -5.97,1.9 -9.47,1.92 -3.44,-0.02 -6.56,-0.68 -9.36,-1.96 -2.81,-1.29 -5.27,-3.09 -7.41,-5.36 -2.13,-2.27 -3.92,-4.92 -5.36,-7.91 -1.44,-2.99 -2.53,-6.23 -3.27,-9.67 -0.74,-3.44 -1.11,-6.97 -1.11,-10.6 0,-3.62 0.33,-7.17 1,-10.69 0.67,-3.51 1.68,-6.8 3.05,-9.89 1.37,-3.09 3.11,-5.81 5.23,-8.17 2.11,-2.37 4.62,-4.23 7.53,-5.58 2.88,-1.35 6.21,-2.03 9.93,-2.05zm50.03 78.22l9.21 0 0 -34.73c1.28,0.31 2.63,0.54 4.07,0.63 1.46,0.11 2.98,0.15 4.59,0.15 3.01,0 6.01,-0.3 8.97,-0.91 2.94,-0.59 5.73,-1.55 8.36,-2.87 2.63,-1.31 4.96,-3.01 6.97,-5.12 2.03,-2.11 3.62,-4.64 4.77,-7.64 1.16,-2.99 1.76,-6.47 1.77,-10.43 0.02,-1.13 -0.07,-2.5 -0.3,-4.1 -0.2,-1.61 -0.63,-3.31 -1.29,-5.12 -0.65,-1.81 -1.63,-3.61 -2.92,-5.36 -1.31,-1.76 -3.05,-3.37 -5.21,-4.81 -2.16,-1.44 -4.88,-2.59 -8.12,-3.46 -3.25,-0.87 -7.14,-1.31 -11.67,-1.33 -3.94,0.02 -7.51,0.18 -10.72,0.5 -3.2,0.31 -6.03,0.7 -8.47,1.16l0 83.43zm9.21 -76.77c1,-0.24 2.35,-0.44 4.05,-0.61 1.7,-0.19 3.72,-0.28 6.05,-0.28 2.9,0 5.57,0.33 8.02,1.02 2.44,0.68 4.59,1.74 6.4,3.16 1.81,1.41 3.24,3.22 4.23,5.42 1.02,2.2 1.52,4.81 1.53,7.82 -0.02,4.03 -0.89,7.45 -2.59,10.24 -1.72,2.77 -4.16,4.88 -7.36,6.32 -3.18,1.44 -7.01,2.18 -11.46,2.18 -1.77,0 -3.4,-0.06 -4.9,-0.2 -1.48,-0.13 -2.81,-0.35 -3.98,-0.68l0 -34.39zm71.84 -7.77l-10.65 0 -27.96 84.54 9.43 0 8.88 -27.4 29.4 0 9.1 27.4 9.76 0 -27.96 -84.54zm-18.42 49.81l8.43 -25.41c0.88,-2.64 1.54,-5.33 2.27,-7.97 0.73,-2.63 1.39,-5.23 1.94,-7.78l0.33 0c0.56,2.5 1.2,5.07 1.92,7.75 0.72,2.68 1.45,5.48 2.4,8.34l8.32 25.07 -25.63 0zm115.27 -49.81l-8.76 0 0 36.83c0,4.4 0.04,8.54 0.09,12.43 0.05,3.86 0.18,7.66 0.33,11.35 0.16,3.7 0.39,7.51 0.68,11.39l-0.22 0.11c-1.94,-4.35 -4.12,-8.79 -6.58,-13.31 -2.46,-4.51 -5.11,-9.32 -8.17,-14.31l-27.29 -44.49 -9.65 0 0 84.54 8.65 0 0 -37.28c0,-3.64 -0.01,-7.04 -0.04,-10.17 -0.03,-3.14 -0.05,-6.12 -0.11,-8.93 -0.06,-2.81 -0.16,-5.53 -0.28,-8.19 -0.12,-2.64 -0.28,-5.31 -0.46,-7.99l0.44 -0.11c2.07,4.66 4.42,9.34 7.03,14.05 2.59,4.69 5.32,9.42 8.17,14.13l26.96 44.49 9.21 0 0 -84.54z"/>
   <path class="fil0" d="M0.31 285.34l0 -21.64 1.97 0 0 8.78 11.77 0 0 -8.78 1.97 0 0 21.64 -1.97 0 0 -11.17 -11.77 0 0 11.17 -1.97 0zm55.5 0l0 -21.64 10.71 0 0 1.85 -8.75 0 0 6.78 8.75 0 0 1.85 -8.75 0 0 9.32 8.75 0 0 1.85 -10.71 0zm49.94 0l0 -21.64 1.97 0 0 21.64 -1.97 0zm59.51 -16.19c-0.88,-1.36 -1.96,-2.4 -3.24,-3.1 -1.28,-0.7 -2.72,-1.05 -4.33,-1.05 -2.68,0 -4.87,0.91 -6.55,2.72 -1.69,1.82 -2.53,4.17 -2.53,7.05 0,1.29 0.22,2.51 0.67,3.65 0.45,1.14 1.1,2.16 1.96,3.04 0.87,0.88 1.84,1.54 2.91,1.98 1.07,0.44 2.26,0.66 3.54,0.66 2.42,0 4.4,-0.72 5.92,-2.14 1.52,-1.43 2.31,-3.3 2.35,-5.61l-7.47 0 0 -1.69 9.62 0 0 0.24c0,3.45 -0.94,6.14 -2.82,8.1 -1.88,1.95 -4.47,2.93 -7.77,2.93 -3.28,0 -5.94,-1.04 -7.96,-3.13 -2.03,-2.09 -3.05,-4.83 -3.05,-8.22 0,-1.56 0.26,-3.03 0.77,-4.41 0.51,-1.38 1.26,-2.59 2.22,-3.61 1.04,-1.12 2.23,-1.95 3.54,-2.5 1.32,-0.55 2.78,-0.83 4.4,-0.83 2.2,0 4.08,0.4 5.65,1.19 1.56,0.79 2.77,1.96 3.62,3.5l-1.43 1.25zm41.4 16.19l0 -21.64 1.97 0 0 8.78 11.77 0 0 -8.78 1.97 0 0 21.64 -1.97 0 0 -11.17 -11.77 0 0 11.17 -1.97 0zm59.35 0l0 -19.79 -5.96 0 0 -1.85 13.89 0 0 1.85 -5.96 0 0 19.79 -1.97 0zm43.95 -3.64l1.69 -0.9c0.31,1.06 0.86,1.89 1.63,2.48 0.78,0.59 1.71,0.88 2.79,0.88 1.37,0 2.44,-0.4 3.2,-1.21 0.77,-0.81 1.16,-1.93 1.16,-3.36 0,-1.04 -0.26,-1.91 -0.78,-2.6 -0.51,-0.69 -1.63,-1.49 -3.33,-2.4 -2.18,-1.15 -3.63,-2.16 -4.35,-3.04 -0.72,-0.88 -1.08,-1.93 -1.08,-3.16 0,-1.54 0.52,-2.79 1.56,-3.75 1.04,-0.96 2.39,-1.45 4.04,-1.45 1.08,0 2.02,0.23 2.82,0.69 0.8,0.46 1.45,1.15 1.96,2.06l-1.51 0.92c-0.31,-0.62 -0.76,-1.1 -1.34,-1.42 -0.58,-0.33 -1.26,-0.49 -2.05,-0.49 -1.06,0 -1.91,0.31 -2.54,0.94 -0.63,0.63 -0.95,1.47 -0.95,2.54 0,1.51 1.25,2.93 3.75,4.24 0.45,0.23 0.8,0.42 1.03,0.54 1.84,1.01 3.07,1.97 3.69,2.87 0.62,0.9 0.93,2.07 0.93,3.51 0,1.94 -0.57,3.48 -1.7,4.62 -1.13,1.13 -2.68,1.71 -4.63,1.71 -1.42,0 -2.63,-0.35 -3.64,-1.06 -1.01,-0.71 -1.81,-1.76 -2.38,-3.16z"/>
  </g>
 </g>
</svg>
