<svg xmlns="http://www.w3.org/2000/svg" xml:space="preserve" width="52.7889mm" height="28.1745mm" version="1.1" style="shape-rendering:geometricPrecision; text-rendering:geometricPrecision; image-rendering:optimizeQuality; fill-rule:evenodd; clip-rule:evenodd"
viewBox="0 0 798.52 426.18"
 xmlns:xlink="http://www.w3.org/1999/xlink">
 <defs>
  <style type="text/css">
   <![CDATA[
    .fil2 {fill:#541E0F}
    .fil1 {fill:#B5D117}
    .fil0 {fill:#AD6D28;fill-rule:nonzero}
   ]]>
  </style>
 </defs>
 <g id="Layer_x0020_1">
  <metadata id="CorelCorpID_0Corel-Layer"/>
  <g id="_2682247174256">
   <path class="fil0" d="M221.54 5.49c-1.43,-0.92 -3.29,-1.76 -5.54,-2.57 -2.25,-0.82 -4.85,-1.46 -7.82,-1.98 -2.97,-0.52 -6.24,-0.77 -9.8,-0.79 -5.17,0.02 -9.87,0.77 -14.1,2.23 -4.23,1.48 -7.87,3.56 -10.94,6.24 -3.04,2.67 -5.39,5.81 -7.05,9.45 -1.63,3.61 -2.47,7.6 -2.5,11.93 0.05,5.17 1.26,9.77 3.64,13.78 2.38,4.01 5.72,7.5 10,10.49 4.28,2.97 9.28,5.52 15.02,7.65 4.88,1.95 8.86,4.08 11.93,6.36 3.07,2.28 5.32,4.85 6.73,7.72 1.44,2.84 2.15,6.14 2.13,9.82 -0.03,4.08 -0.97,7.64 -2.87,10.69 -1.9,3.04 -4.63,5.39 -8.21,7.08 -3.59,1.68 -7.89,2.55 -12.96,2.57 -3.09,0 -6.11,-0.32 -9.06,-0.92 -2.95,-0.59 -5.71,-1.43 -8.31,-2.47 -2.6,-1.04 -4.92,-2.23 -6.98,-3.59l-3.41 10.24c1.93,1.36 4.33,2.55 7.22,3.64 2.92,1.06 6.09,1.9 9.5,2.52 3.41,0.62 6.83,0.94 10.29,0.97 6.09,-0.02 11.46,-0.84 16.11,-2.45 4.68,-1.58 8.56,-3.84 11.73,-6.7 3.17,-2.87 5.54,-6.24 7.15,-10.07 1.61,-3.86 2.42,-8.02 2.42,-12.54 0,-5.37 -1.04,-10.07 -3.09,-14.1 -2.08,-4.03 -5.14,-7.6 -9.25,-10.69 -4.08,-3.09 -9.18,-5.91 -15.27,-8.46 -5.05,-2.1 -9.18,-4.21 -12.42,-6.36 -3.24,-2.18 -5.67,-4.58 -7.22,-7.27 -1.56,-2.67 -2.33,-5.86 -2.33,-9.53 0,-2.08 0.37,-4.16 1.16,-6.24 0.79,-2.08 2.05,-3.98 3.76,-5.74 1.73,-1.73 3.96,-3.14 6.73,-4.21 2.75,-1.06 6.09,-1.61 10.02,-1.63 3.17,0.02 6.06,0.32 8.66,0.89 2.6,0.54 4.85,1.24 6.73,2.03 1.9,0.79 3.41,1.56 4.5,2.28l3.71 -10.24zm66.8 -5.49c-7.12,0.02 -13.68,1.38 -19.67,4.08 -5.99,2.7 -11.18,6.61 -15.61,11.73 -4.43,5.12 -7.84,11.33 -10.29,18.63 -2.42,7.3 -3.69,15.56 -3.71,24.79 0.02,8.86 1.21,16.82 3.54,23.88 2.35,7.08 5.64,13.11 9.92,18.09 4.26,5 9.33,8.83 15.17,11.48 5.84,2.65 12.27,3.98 19.32,4.01 5.37,0 10.49,-0.79 15.36,-2.35 4.87,-1.58 9.35,-3.93 13.44,-7.1 4.08,-3.14 7.62,-7.1 10.64,-11.85 3.02,-4.73 5.37,-10.27 7.03,-16.63 1.66,-6.33 2.5,-13.48 2.52,-21.45 -0.03,-8.56 -1.14,-16.35 -3.37,-23.36 -2.23,-7 -5.44,-13.04 -9.6,-18.11 -4.18,-5.05 -9.18,-8.96 -15.02,-11.68 -5.86,-2.75 -12.42,-4.13 -19.67,-4.16zm-0.59 10.24c4.85,0.02 9.15,0.97 12.97,2.77 3.81,1.81 7.12,4.31 9.92,7.45 2.82,3.17 5.15,6.78 6.98,10.84 1.85,4.08 3.22,8.39 4.13,12.92 0.89,4.55 1.34,9.1 1.34,13.68 0,5.2 -0.49,10.17 -1.46,14.97 -0.99,4.78 -2.42,9.2 -4.35,13.29 -1.93,4.06 -4.33,7.6 -7.2,10.64 -2.87,3.04 -6.19,5.39 -9.95,7.08 -3.79,1.68 -7.99,2.55 -12.67,2.57 -4.6,-0.03 -8.78,-0.92 -12.52,-2.62 -3.76,-1.73 -7.05,-4.13 -9.92,-7.17 -2.85,-3.04 -5.25,-6.58 -7.18,-10.59 -1.93,-4.01 -3.39,-8.34 -4.38,-12.94 -0.99,-4.6 -1.48,-9.33 -1.48,-14.18 0,-4.85 0.44,-9.6 1.34,-14.3 0.89,-4.7 2.25,-9.1 4.08,-13.24 1.83,-4.13 4.16,-7.77 7,-10.94 2.82,-3.17 6.19,-5.66 10.07,-7.47 3.86,-1.81 8.31,-2.72 13.29,-2.75zm66.95 104.66l12.32 0 0 -46.46c1.71,0.42 3.51,0.72 5.44,0.84 1.95,0.15 3.98,0.2 6.14,0.2 4.03,0 8.04,-0.4 12,-1.21 3.93,-0.79 7.67,-2.08 11.18,-3.83 3.51,-1.76 6.63,-4.03 9.33,-6.85 2.72,-2.82 4.85,-6.21 6.38,-10.22 1.56,-4.01 2.35,-8.66 2.37,-13.95 0.02,-1.51 -0.1,-3.34 -0.4,-5.49 -0.27,-2.15 -0.84,-4.43 -1.73,-6.85 -0.87,-2.42 -2.18,-4.83 -3.91,-7.18 -1.76,-2.35 -4.08,-4.5 -6.98,-6.43 -2.9,-1.93 -6.53,-3.46 -10.86,-4.63 -4.35,-1.16 -9.55,-1.76 -15.61,-1.78 -5.27,0.02 -10.05,0.25 -14.35,0.67 -4.28,0.42 -8.07,0.94 -11.33,1.56l0 111.63zm12.32 -102.73c1.34,-0.32 3.14,-0.59 5.42,-0.82 2.28,-0.25 4.97,-0.37 8.09,-0.37 3.88,0 7.45,0.45 10.74,1.36 3.27,0.92 6.14,2.33 8.56,4.23 2.42,1.88 4.33,4.31 5.66,7.25 1.36,2.94 2.03,6.43 2.05,10.47 -0.02,5.39 -1.19,9.97 -3.46,13.71 -2.3,3.71 -5.57,6.53 -9.85,8.46 -4.26,1.93 -9.38,2.92 -15.34,2.92 -2.37,0 -4.55,-0.08 -6.56,-0.27 -1.98,-0.17 -3.76,-0.47 -5.32,-0.92l0 -46.02zm96.12 -10.39l-14.25 0 -37.41 113.12 12.62 0 11.88 -36.67 39.34 0 12.17 36.67 13.06 0 -37.41 -113.12zm-24.64 66.65l11.28 -34c1.17,-3.53 2.06,-7.13 3.04,-10.66 0.97,-3.52 1.86,-7 2.6,-10.42l0.45 0c0.74,3.34 1.61,6.78 2.57,10.37 0.96,3.59 1.94,7.33 3.22,11.16l11.13 33.55 -34.29 0zm154.23 -66.65l-11.73 0 0 49.28c0,5.89 0.05,11.43 0.13,16.63 0.07,5.17 0.23,10.24 0.44,15.19 0.21,4.95 0.52,10.04 0.92,15.24l-0.3 0.15c-2.6,-5.81 -5.51,-11.76 -8.81,-17.82 -3.29,-6.04 -6.84,-12.47 -10.94,-19.15l-36.52 -59.53 -12.92 0 0 113.12 11.58 0 0 -49.88c0,-4.88 -0.01,-9.43 -0.05,-13.61 -0.04,-4.21 -0.06,-8.19 -0.15,-11.95 -0.09,-3.76 -0.21,-7.4 -0.37,-10.96 -0.16,-3.54 -0.37,-7.1 -0.62,-10.69l0.59 -0.15c2.77,6.24 5.92,12.49 9.4,18.8 3.47,6.28 7.12,12.6 10.94,18.9l36.07 59.53 12.32 0 0 -113.12z"/>
   <path class="fil1" d="M167.38 384.67c61.17,-27.98 87.85,-28.63 87.85,-28.63l38.23 -5.24c90.28,3.09 175.32,39.53 261.87,66.38 0.65,0.22 1.17,0.39 1.56,0.49l0.01 -0.03c1.33,0.35 1.49,0.4 -0.01,0.03l-0.6 -0.19c-6.71,-1.75 -31.98,-8.14 -44.69,-10.69 -16.27,-3.25 -71.58,-5.86 -87.2,-12.36 -15.62,-6.51 -16.27,-8.46 -55.31,-11.06 -39.04,-2.6 -0.05,-2.68 -50.11,-1.3 -50.05,1.38 -63.12,8.46 -91.75,12.36 -28.63,3.9 -41,9.11 -68.33,9.11 -27.33,0 -61.82,1.3 -61.82,1.3l70.28 -20.17z"/>
   <path class="fil1" d="M463.27 365.04c22.28,-7.04 32.51,-7.3 32.51,-7.3l38.23 -5.4c90.28,3.19 175.32,40.77 261.87,68.46 0.64,0.23 1.17,0.4 1.56,0.5l0.01 -0.03c1.33,0.36 1.49,0.41 -0.01,0.03l-0.6 -0.19c-6.72,-1.8 -31.98,-8.4 -44.69,-11.02 -16.27,-3.36 -71.58,-6.04 -87.2,-12.75 -15.62,-6.71 -16.27,-8.72 -55.31,-11.41 -39.04,-2.68 -0.05,-2.77 -50.11,-1.34 -12.7,0.36 -23.02,1.1 -31.81,2.07l-64.46 -21.62z"/>
   <path class="fil2" d="M419.52 351.12c11.64,-2.59 23.33,-4.79 35.09,-6.51l0 -209.85 51.47 0 0 205.76c1.78,-0.01 3.57,-0.01 5.36,0 10.05,-0.01 19.95,0.4 29.73,1.17l0 -206.94 51.47 0 0 214.29c70.32,14.28 135.61,43.65 204.24,65.61l-0.07 0.15c-94.43,-25.78 -187.44,-62.48 -285.32,-61.33 -27.19,0.32 -53.88,3.76 -80.27,9.16l-0.14 -0.04c44.03,13.4 87.6,29.91 131.57,43.47l61.55 20.05c-24.54,0.52 -44.99,-1.66 -67.3,-8.44 -89.67,-27.69 -177.67,-65.95 -271.51,-67.06 -97.88,-1.15 -190.89,35.55 -285.32,61.33l-0.07 -0.15c54.44,-17.42 108.24,-39.16 163.04,-54.59l0 -212.8 51.47 0 0 87.45 63.75 0 0 -87.45 51.47 0 0 195.7c12.85,1.48 25.62,3.59 38.31,6.17l0 -140.45 51.47 0 0 145.3zm0.59 -190.04c-0.05,-5.22 -1.17,-9.8 -3.37,-13.7 -2.24,-3.95 -5.31,-7.02 -9.26,-9.26 -3.9,-2.19 -8.48,-3.32 -13.7,-3.36 -5.11,0.05 -9.65,1.17 -13.6,3.36 -3.9,2.24 -7.02,5.31 -9.26,9.26 -2.24,3.9 -3.41,8.48 -3.46,13.7 0.05,5.02 1.17,9.45 3.36,13.36 2.24,3.9 5.31,6.97 9.26,9.21 3.9,2.24 8.48,3.41 13.7,3.46 5.02,-0.05 9.51,-1.12 13.45,-3.32 3.95,-2.15 7.07,-5.22 9.36,-9.07 2.29,-3.9 3.46,-8.43 3.51,-13.65zm-205.59 183.89c21,-3.96 42.22,-6.53 63.75,-7.16l0 -59.75 -63.75 0 0 66.91z"/>
  </g>
 </g>
</svg>
