<svg xmlns="http://www.w3.org/2000/svg" xml:space="preserve" width="27.0459mm" height="38.0999mm" version="1.1" style="shape-rendering:geometricPrecision; text-rendering:geometricPrecision; image-rendering:optimizeQuality; fill-rule:evenodd; clip-rule:evenodd"
viewBox="0 0 165.92 233.73"
 xmlns:xlink="http://www.w3.org/1999/xlink">
 <defs>
  <style type="text/css">
   <![CDATA[
    .fil1 {fill:#EBECEC}
    .fil4 {fill:#9D9E9E}
    .fil2 {fill:#E31E24}
    .fil3 {fill:#222322}
    .fil6 {fill:#2B2A29;fill-rule:nonzero}
    .fil5 {fill:#222322;fill-rule:nonzero}
    .fil0 {fill:black;fill-rule:nonzero}
   ]]>
  </style>
 </defs>
 <g id="Layer_x0020_1">
  <metadata id="CorelCorpID_0Corel-Layer"/>
  <g id="_1757679223952">
   <g>
    <path class="fil0" d="M-0 156.47c1.18,-1.18 2.79,-2.07 4.83,-2.69 2.03,-0.62 4.31,-0.92 6.83,-0.92 4.13,0 7.64,1.3 10.54,3.91 2.89,2.61 4.35,5.74 4.35,9.4l-0.4 2.42 9.62 0 0 -14.9 7.25 0 0 40.18 -7.25 0 0 -19.68 -11.65 0c-1.39,1.65 -2.96,2.92 -4.73,3.83 -1.77,0.91 -3.54,1.36 -5.31,1.36l1.21 6.46c0.11,0.59 0.43,1.07 0.96,1.45 0.53,0.37 1.15,0.56 1.85,0.56l8.84 0 0 6.01 -10.04 0c-2.14,0 -4.05,-0.77 -5.71,-2.29 -1.66,-1.54 -2.7,-3.46 -3.13,-5.76l-1.21 -6.44 -4.83 0 0 -6.42 7.25 0c2.79,0 5.16,-0.67 7.11,-2 1.96,-1.34 2.94,-2.95 2.94,-4.83 0,-1.88 -0.75,-3.49 -2.25,-4.83 -1.51,-1.33 -3.31,-2 -5.39,-2 -1.66,0 -3.18,0.21 -4.58,0.6 -1.4,0.4 -2.55,1 -3.46,1.81l-3.62 -5.23z"/>
    <polygon id="1" class="fil0" points="53.45,153.68 60.69,153.68 60.69,193.86 53.45,193.86 "/>
    <path id="2" class="fil0" d="M31.37 139.6l0 -6.01c3.69,0 7.27,0.62 10.73,1.85 3.46,1.22 6.57,3.02 9.36,5.38l10.06 8.84 -4.42 4.02 -9.66 -8.04c-2.31,-1.93 -4.83,-3.42 -7.59,-4.47 -2.76,-1.04 -5.6,-1.56 -8.48,-1.56z"/>
    <path id="3" class="fil0" d="M73.92 161.69c0,-0.64 -0.29,-1.21 -0.86,-1.69 -0.58,-0.48 -1.23,-0.73 -1.99,-0.73l-4.02 0 0 -5.6 4.83 0c2.69,0 4.98,0.8 6.87,2.37 1.88,1.58 2.83,3.47 2.83,5.67l0 11.68c0,1.44 0.71,2.68 2.13,3.71 1.41,1.02 3.12,1.52 5.09,1.52 1.87,0 3.54,-0.56 5.01,-1.69 1.47,-1.13 2.47,-2.58 3,-4.35l0 -18.91 7.25 0 0 40.18 -7.25 0 0 -12.43c-0.7,1.02 -1.76,1.8 -3.17,2.36 -1.43,0.56 -3.05,0.85 -4.86,0.85 -4.13,0 -7.63,-1.1 -10.53,-3.31 -2.9,-2.2 -4.34,-4.84 -4.34,-7.96l0 -11.68z"/>
    <polygon id="4" class="fil0" points="114.47,153.68 121.72,153.68 121.72,193.86 114.47,193.86 "/>
    <path id="5" class="fil0" d="M128.87 176.16c0,-3.53 1.26,-6.56 3.79,-9.07 2.52,-2.51 5.56,-3.77 9.1,-3.77l16.92 0 0 -9.63 7.25 0 0 40.18 -7.25 0 0 -24.12 -7.67 0c0.91,0.75 1.61,1.73 2.09,2.94 0.48,1.19 0.73,2.5 0.73,3.88 0,3.43 -1.22,6.35 -3.66,8.8 -2.44,2.43 -5.38,3.65 -8.81,3.65 -3.43,0 -6.37,-1.26 -8.81,-3.77 -2.44,-2.51 -3.66,-5.54 -3.66,-9.07zm12.47 6.83c1.45,0 2.68,-0.64 3.71,-1.93 1.02,-1.28 1.52,-2.83 1.52,-4.65 0,-1.83 -0.51,-3.39 -1.52,-4.71 -1.03,-1.3 -2.25,-1.96 -3.71,-1.96 -1.44,0 -2.68,0.66 -3.71,1.96 -1.02,1.32 -1.52,2.88 -1.52,4.71 0,1.83 0.51,3.38 1.52,4.65 1.03,1.29 2.26,1.93 3.71,1.93z"/>
    <path class="fil0" d="M19.5 221.16c0.4,0.15 0.86,0.25 1.38,0.32 0.52,0.07 1.13,0.11 1.8,0.11 1.67,0 3.01,-0.33 4.02,-0.98 1,-0.66 1.51,-1.54 1.51,-2.66 0,-0.83 -0.38,-1.53 -1.13,-2.12 -0.76,-0.59 -1.66,-0.88 -2.71,-0.88 -0.83,0 -1.59,0.11 -2.28,0.32 -0.7,0.21 -1.29,0.53 -1.77,0.96l-1.7 -2.77c0.63,-0.63 1.43,-1.1 2.43,-1.43 0.99,-0.33 2.1,-0.49 3.32,-0.49 2.13,0 3.94,0.63 5.44,1.88 1.49,1.25 2.24,2.76 2.24,4.52 0,1.45 -0.47,2.77 -1.43,3.97 -0.95,1.19 -2.18,2 -3.68,2.43 0,1 0.36,1.85 1.07,2.56 0.71,0.71 1.56,1.06 2.55,1.06 1.17,0 2.1,-0.44 2.79,-1.34 0.7,-0.9 1.05,-2.08 1.05,-3.56l0 -5.54 3.84 0 0 3.41 4.23 0 0 -8.51 3.84 0 0 21.3 -3.84 0 0 -9.39 -4.47 0c0,1.96 -0.71,3.58 -2.11,4.87 -1.4,1.29 -3.19,1.94 -5.34,1.94 -2.13,0 -3.83,-0.54 -5.12,-1.61 -1.27,-1.08 -1.91,-2.52 -1.91,-4.33 -0.54,0 -1.15,-0.04 -1.83,-0.11 -0.68,-0.07 -1.42,-0.17 -2.21,-0.32l0 -3.62z"/>
    <path id="1" class="fil0" d="M30.78 204.96l0 -3.19c1.96,0 3.86,0.33 5.69,0.98 1.83,0.65 3.49,1.6 4.96,2.85l5.33 4.69 -2.34 2.13 -5.12 -4.26c-1.22,-1.03 -2.56,-1.81 -4.02,-2.37 -1.46,-0.55 -2.97,-0.83 -4.5,-0.83z"/>
    <path id="2" class="fil0" d="M60.3 224.13l0 -3.41 6.41 0 0 -8.29 3.84 0 0 21.3 -3.84 0 0 -9.6 -6.41 0zm-0.61 9.6c-2.47,0 -4.58,-1.04 -6.33,-3.11 -1.75,-2.07 -2.63,-4.58 -2.63,-7.54 0,-2.95 0.85,-5.47 2.56,-7.55 1.7,-2.07 3.77,-3.11 6.18,-3.11l2.77 0 0 3.41 -2.56 0c-1.42,0 -2.63,0.69 -3.62,2.07 -1,1.38 -1.49,3.03 -1.49,4.97 0,2.04 0.49,3.8 1.49,5.26 1,1.46 2.2,2.2 3.62,2.2l2.56 0 0 3.41 -2.56 0z"/>
    <path id="3" class="fil0" d="M76.08 209.84c0,-1.39 -0.27,-2.45 -0.81,-3.17 -0.53,-0.73 -1.32,-1.09 -2.36,-1.09 -0.65,0 -1.2,0.42 -1.65,1.26 -0.45,0.84 -0.68,1.84 -0.68,3l0 2.34 -3.84 0 0 -2.34c0,-2.13 0.6,-3.94 1.8,-5.44 1.2,-1.49 2.66,-2.23 4.35,-2.23 2.13,0 3.83,0.7 5.11,2.09 1.28,1.4 1.92,3.26 1.92,5.59l0 23.89 -3.84 0 0 -23.89z"/>
    <path id="4" class="fil0" d="M101.31 212.43l3.84 0 0 21.3 -3.84 0 0 -21.3zm-11.3 15.11c-1.42,0 -2.74,-0.3 -3.94,-0.9 -1.21,-0.6 -2.16,-1.43 -2.87,-2.51l2.34 -2.56c0.6,0.8 1.29,1.43 2.07,1.88 0.79,0.46 1.59,0.68 2.41,0.68 1.11,0 2.07,-0.4 2.86,-1.19 0.79,-0.79 1.19,-1.74 1.19,-2.84 0,-1.11 -0.4,-2.05 -1.19,-2.85 -0.79,-0.79 -1.75,-1.19 -2.86,-1.19 -0.68,0 -1.32,0.12 -1.91,0.34 -0.6,0.23 -1.1,0.54 -1.49,0.94l-2.13 -2.77c0.71,-0.68 1.54,-1.21 2.49,-1.58 0.95,-0.37 1.97,-0.55 3.05,-0.55 2.19,0 4.05,0.73 5.59,2.21 1.54,1.48 2.31,3.26 2.31,5.36 0,2.07 -0.77,3.84 -2.31,5.32 -1.54,1.48 -3.4,2.21 -5.59,2.21z"/>
    <path id="5" class="fil0" d="M108.91 224.56c0,-1.93 0.67,-3.58 2,-4.95 1.34,-1.38 2.94,-2.07 4.82,-2.07l8.95 0 0 3.4 -3.83 0c0.4,0.34 0.71,0.83 0.95,1.47 0.23,0.64 0.35,1.35 0.35,2.15 0,1.82 -0.67,3.37 -2.01,4.66 -1.33,1.29 -2.94,1.94 -4.82,1.94 -1.77,0 -3.27,-0.65 -4.53,-1.94 -1.25,-1.3 -1.88,-2.84 -1.88,-4.66zm6.82 3.41c0.71,0 1.32,-0.31 1.81,-0.94 0.5,-0.63 0.75,-1.37 0.75,-2.26 0,-1.06 -0.27,-1.95 -0.81,-2.71 -0.55,-0.75 -1.19,-1.13 -1.96,-1.13 -0.76,0 -1.42,0.38 -1.96,1.13 -0.54,0.76 -0.81,1.65 -0.81,2.71 0,0.88 0.29,1.63 0.87,2.26 0.58,0.63 1.29,0.94 2.11,0.94z"/>
    <path id="6" class="fil0" d="M124.48 213.9c0.63,-0.63 1.48,-1.1 2.56,-1.43 1.08,-0.33 2.28,-0.49 3.62,-0.49 2.19,0 4.05,0.69 5.59,2.07 1.54,1.38 2.31,3.04 2.31,4.98l-0.21 1.28 5.1 0 0 -7.9 3.84 0 0 21.3 -3.84 0 0 -10.43 -6.18 0c-0.73,0.87 -1.57,1.55 -2.51,2.03 -0.94,0.48 -1.88,0.72 -2.82,0.72l0.64 3.43c0.06,0.31 0.23,0.57 0.51,0.77 0.28,0.2 0.61,0.3 0.98,0.3l4.69 0 0 3.19 -5.33 0c-1.13,0 -2.15,-0.41 -3.03,-1.22 -0.88,-0.81 -1.43,-1.83 -1.66,-3.06l-0.64 -3.41 -2.56 0 0 -3.4 3.84 0c1.48,0 2.73,-0.36 3.77,-1.06 1.04,-0.71 1.56,-1.56 1.56,-2.56 0,-1 -0.4,-1.85 -1.19,-2.56 -0.8,-0.71 -1.75,-1.06 -2.86,-1.06 -0.88,0 -1.69,0.11 -2.43,0.32 -0.74,0.21 -1.35,0.53 -1.83,0.96l-1.92 -2.77z"/>
   </g>
   <rect class="fil1" x="36.41" y="-0" width="93.1" height="112.63" rx="18.53" ry="22.42"/>
   <g>
    <g>
     <path class="fil2" d="M63.21 11.27c5.39,0 9.76,4.37 9.76,9.76 0,5.39 -4.37,9.76 -9.76,9.76 -5.39,0 -9.76,-4.37 -9.76,-9.76 0,-5.39 4.37,-9.76 9.76,-9.76z"/>
     <polygon class="fil3" points="73.09,42.55 92.84,26.66 92.84,30.12 73.09,46 "/>
     <path class="fil3" d="M73.09 63.21l19.75 -15.88 0 3.45 -19.75 15.88 0 -3.45zm0 -6.75l19.75 -15.88 0 3.45 -19.75 15.88 0 -3.45zm0 -6.75l19.75 -15.88 0 3.45 -19.75 15.88 0 -3.45zm0 -7.15l19.75 -15.88 0 3.45 -19.75 15.88 0 -3.45zm0 -7.15l19.75 -15.88 0 3.45 -19.75 15.88 0 -3.45z"/>
     <path class="fil4" d="M53.33 63.21l19.75 0 0 3.45 -19.75 0 0 -3.45zm0 -6.75l19.75 0 0 3.45 -19.75 0 0 -3.45zm0 -6.75l19.75 0 0 3.45 -19.75 0 0 -3.45zm0 -7.15l19.75 0 0 3.45 -19.75 0 0 -3.45zm0 -7.15l19.75 0 0 3.45 -19.75 0 0 -3.45zm39.5 11.93l19.75 0 0 3.45 -19.75 0 0 -3.45zm0 -6.75l19.75 0 0 3.45 -19.75 0 0 -3.45zm0 -6.75l19.75 0 0 3.45 -19.75 0 0 -3.45zm0 -7.15l19.75 0 0 3.45 -19.75 0 0 -3.45zm0 -7.15l19.75 0 0 3.45 -19.75 0 0 -3.45z"/>
     <path class="fil5" d="M60.93 78.89c0.31,-0.31 0.74,-0.55 1.28,-0.71 0.54,-0.16 1.14,-0.24 1.81,-0.24 1.1,0 2.03,0.35 2.8,1.04 0.77,0.69 1.16,1.52 1.16,2.5l-0.11 0.64 2.55 0 0 -3.96 1.92 0 0 10.67 -1.92 0 0 -5.23 -3.09 0c-0.37,0.44 -0.79,0.78 -1.26,1.02 -0.47,0.24 -0.94,0.36 -1.41,0.36l0.32 1.72c0.03,0.16 0.11,0.28 0.26,0.39 0.14,0.1 0.31,0.15 0.49,0.15l2.35 0 0 1.6 -2.67 0c-0.57,0 -1.08,-0.2 -1.52,-0.61 -0.44,-0.41 -0.72,-0.92 -0.83,-1.53l-0.32 -1.71 -1.28 0 0 -1.71 1.92 0c0.74,0 1.37,-0.18 1.89,-0.53 0.52,-0.36 0.78,-0.78 0.78,-1.28 0,-0.5 -0.2,-0.93 -0.6,-1.28 -0.4,-0.35 -0.88,-0.53 -1.43,-0.53 -0.44,0 -0.85,0.05 -1.22,0.16 -0.37,0.11 -0.68,0.27 -0.92,0.48l-0.96 -1.39z"/>
     <polygon id="1" class="fil5" points="75.12,78.15 77.05,78.15 77.05,88.82 75.12,88.82 "/>
     <path id="2" class="fil5" d="M69.26 74.41l0 -1.6c0.98,0 1.93,0.16 2.85,0.49 0.92,0.32 1.75,0.8 2.49,1.43l2.67 2.35 -1.17 1.07 -2.57 -2.14c-0.61,-0.51 -1.28,-0.91 -2.02,-1.19 -0.73,-0.28 -1.49,-0.42 -2.25,-0.42z"/>
     <path id="3" class="fil5" d="M80.56 80.28c0,-0.17 -0.08,-0.32 -0.23,-0.45 -0.15,-0.13 -0.33,-0.19 -0.53,-0.19l-1.07 0 0 -1.49 1.28 0c0.71,0 1.32,0.21 1.83,0.63 0.5,0.42 0.75,0.92 0.75,1.5l0 3.1c0,0.38 0.19,0.71 0.57,0.98 0.38,0.27 0.83,0.4 1.35,0.4 0.5,0 0.94,-0.15 1.33,-0.45 0.39,-0.3 0.66,-0.69 0.8,-1.16l0 -5.02 1.92 0 0 10.67 -1.92 0 0 -3.3c-0.19,0.27 -0.47,0.48 -0.84,0.63 -0.38,0.15 -0.81,0.23 -1.29,0.23 -1.1,0 -2.03,-0.29 -2.79,-0.88 -0.77,-0.58 -1.15,-1.29 -1.15,-2.11l0 -3.1z"/>
     <polygon id="4" class="fil5" points="91.33,78.15 93.25,78.15 93.25,88.82 91.33,88.82 "/>
     <path id="5" class="fil5" d="M95.15 84.12c0,-0.94 0.33,-1.74 1.01,-2.41 0.67,-0.67 1.48,-1 2.42,-1l4.49 0 0 -2.56 1.92 0 0 10.67 -1.92 0 0 -6.41 -2.04 0c0.24,0.2 0.43,0.46 0.55,0.78 0.13,0.32 0.19,0.66 0.19,1.03 0,0.91 -0.32,1.69 -0.97,2.34 -0.65,0.65 -1.43,0.97 -2.34,0.97 -0.91,0 -1.69,-0.33 -2.34,-1 -0.65,-0.67 -0.97,-1.47 -0.97,-2.41zm3.31 1.81c0.39,0 0.71,-0.17 0.98,-0.51 0.27,-0.34 0.4,-0.75 0.4,-1.23 0,-0.48 -0.13,-0.9 -0.4,-1.25 -0.27,-0.35 -0.6,-0.52 -0.98,-0.52 -0.38,0 -0.71,0.17 -0.98,0.52 -0.27,0.35 -0.4,0.77 -0.4,1.25 0,0.48 0.13,0.9 0.4,1.23 0.27,0.34 0.6,0.51 0.98,0.51z"/>
     <path class="fil5" d="M81.88 93.44l0.95 0 0 5.28 -0.95 0 0 -5.28zm-2.8 3.74c-0.35,0 -0.68,-0.07 -0.98,-0.22 -0.3,-0.15 -0.54,-0.36 -0.71,-0.62l0.58 -0.63c0.15,0.2 0.32,0.35 0.51,0.47 0.19,0.11 0.39,0.17 0.6,0.17 0.28,0 0.51,-0.1 0.71,-0.3 0.2,-0.2 0.3,-0.43 0.3,-0.71 0,-0.27 -0.1,-0.51 -0.3,-0.7 -0.2,-0.2 -0.43,-0.3 -0.71,-0.3 -0.17,0 -0.33,0.03 -0.47,0.08 -0.15,0.06 -0.27,0.13 -0.37,0.23l-0.53 -0.69c0.18,-0.17 0.38,-0.3 0.62,-0.39 0.24,-0.09 0.49,-0.14 0.76,-0.14 0.54,0 1,0.18 1.39,0.55 0.38,0.37 0.57,0.81 0.57,1.33 0,0.51 -0.19,0.95 -0.57,1.32 -0.38,0.37 -0.84,0.55 -1.39,0.55z"/>
     <path id="1" class="fil5" d="M82.25 101.36c-0.58,0 -1.04,-0.13 -1.39,-0.39 -0.35,-0.26 -0.52,-0.61 -0.52,-1.03 0,-0.35 0.16,-0.65 0.48,-0.9 0.32,-0.25 0.71,-0.37 1.16,-0.37l0.84 0 0 0.79 -0.58 0c-0.25,0 -0.46,0.06 -0.63,0.17 -0.17,0.11 -0.26,0.25 -0.26,0.41 0,0.15 0.09,0.27 0.27,0.38 0.18,0.1 0.39,0.15 0.63,0.15 0.12,0 0.25,-0.02 0.4,-0.05 0.14,-0.04 0.29,-0.09 0.45,-0.16l0.27 0.79c-0.14,0.07 -0.3,0.12 -0.49,0.16 -0.19,0.03 -0.39,0.05 -0.62,0.05z"/>
     <path id="2" class="fil5" d="M84.57 94.5c0,-0.09 -0.04,-0.16 -0.11,-0.22 -0.08,-0.06 -0.16,-0.1 -0.26,-0.1l-0.53 0 0 -0.74 0.63 0c0.35,0 0.65,0.1 0.9,0.31 0.25,0.21 0.37,0.46 0.37,0.75l0 1.53c0,0.19 0.09,0.35 0.28,0.49 0.19,0.13 0.41,0.2 0.67,0.2 0.25,0 0.47,-0.07 0.66,-0.22 0.19,-0.15 0.32,-0.34 0.4,-0.57l0 -2.49 0.95 0 0 5.28 -0.95 0 0 -1.63c-0.09,0.13 -0.23,0.24 -0.42,0.31 -0.19,0.07 -0.4,0.11 -0.64,0.11 -0.54,0 -1,-0.14 -1.38,-0.43 -0.38,-0.29 -0.57,-0.64 -0.57,-1.05l0 -1.53z"/>
    </g>
    <path class="fil6" d="M107.4 72.51l-0.73 0 0 4.23 -0.65 0 0 -4.23 -0.73 0 0 -0.55 2.1 0 0 0.55zm3.87 4.23l-0.6 0 -0.25 -3.06 -0.02 0 -0.64 3.06 -0.4 0 -0.62 -3.06 -0.02 0 -0.25 3.06 -0.6 0 0.47 -4.78 0.56 0 0.66 3.35 0.02 0 0.67 -3.35 0.56 0 0.46 4.78z"/>
   </g>
  </g>
 </g>
</svg>
