<svg xmlns="http://www.w3.org/2000/svg" xml:space="preserve" width="50.8mm" height="13.7786mm" version="1.1" style="shape-rendering:geometricPrecision; text-rendering:geometricPrecision; image-rendering:optimizeQuality; fill-rule:evenodd; clip-rule:evenodd"
viewBox="0 0 788.53 213.88"
 xmlns:xlink="http://www.w3.org/1999/xlink">
 <defs>
  <style type="text/css">
   <![CDATA[
    .fil0 {fill:#95753C}
    .fil1 {fill:#95753C;fill-rule:nonzero}
   ]]>
  </style>
 </defs>
 <g id="Layer_x0020_1">
  <metadata id="CorelCorpID_0Corel-Layer"/>
  <g id="Sopan_x0020_Luxuria_x0020_-_x0020_Logo.cdr">
   <path class="fil0" d="M622.9 19.11l-6.33 19.22 -13.64 38.51 39.61 0 -13.48 -38.57 -6.16 -19.16zm-114.26 -5.14l0 50.9c4.71,0.74 9.59,0.96 14.33,0.96 9.22,0 20.57,-1.16 28.35,-6.6 6.89,-4.81 9.09,-12.37 9.09,-20.5 0,-7.6 -1.94,-14.91 -8.48,-19.39 -7.44,-5.09 -18.84,-6.06 -27.58,-6.06 -5.18,0 -10.54,0.11 -15.72,0.68zm-117.63 99.7c7.16,5.56 15.48,7.91 24.51,7.91 9.03,0 17.35,-2.36 24.52,-7.91 6.75,-5.24 11.73,-11.8 14.74,-19.81 3.19,-8.49 4.51,-17.47 4.51,-26.51 0,-9.21 -1.19,-18.47 -4.23,-27.2 -2.83,-8.1 -7.69,-14.77 -14.36,-20.17 -7.26,-5.87 -15.93,-8.16 -25.18,-8.16 -9.24,0 -17.91,2.29 -25.17,8.16 -6.67,5.39 -11.54,12.07 -14.36,20.17 -3.04,8.73 -4.23,17.98 -4.23,27.2 0,9.04 1.32,18.02 4.51,26.51 3.01,8.01 7.99,14.58 14.74,19.81zm315.47 -88.97l0.67 40.45 0 66.24 -13.6 0 0 -129.36 13.44 0 0.61 0.92c6.19,9.32 12.38,18.64 18.57,27.97 6.83,10.28 13.63,20.57 20.35,30.92 5.78,8.9 11.42,17.88 17.01,26.9 4.15,6.71 8.26,13.46 12.24,20.29l-0.84 -41.3 0 -65.69 13.6 0 0 129.36 -13.46 0 -0.61 -0.95c-7.49,-11.66 -15.29,-23.2 -22.99,-34.72 -9.71,-14.51 -19.36,-29.1 -28.67,-43.87 -5.63,-8.93 -11.1,-17.97 -16.32,-27.15zm-59.72 63.96l-48.07 0 -15.41 42.73 -14.47 0 47.74 -129.55 12.75 0 47.53 129.55 -14.46 0 -15.6 -42.73zm-138.12 -11.84l0 54.57 -13.6 0 0 -128.05 1.83 -0.2c11,-1.23 22.14,-1.66 33.21,-1.66 11.49,0 23.67,2.16 32.73,9.74 8.29,6.94 11.8,16.27 11.8,26.98 0,11.6 -3.75,21.77 -12.92,29.12 -9.59,7.67 -21.74,10.17 -33.78,10.17 -6.19,0 -12.99,0 -19.27,-0.66zm-50.97 38.27c-11.03,12.69 -25.43,18.31 -42.14,18.31 -16.71,0 -31.11,-5.62 -42.15,-18.31 -11.62,-13.37 -15.81,-30.14 -15.81,-47.56 0,-17.74 4.13,-34.97 15.79,-48.73 10.96,-12.93 25.3,-18.79 42.16,-18.79 16.86,0 31.21,5.87 42.16,18.79 11.67,13.77 15.8,30.99 15.8,48.73 0,17.43 -4.19,34.2 -15.81,47.56zm-157.89 6.49c7.47,0 15,-1.53 20.93,-6.33 5.32,-4.3 7.63,-9.94 7.63,-16.73 0,-5.05 -1.2,-9.8 -4.16,-13.93 -2.74,-3.82 -6.19,-6.8 -10.45,-8.78 -4.9,-2.27 -9.8,-4.53 -14.71,-6.78 -4.98,-2.29 -9.93,-4.67 -14.81,-7.2 -4.98,-2.58 -8.95,-6.39 -12.03,-11.06 -3.48,-5.26 -4.88,-11.28 -4.88,-17.54 0,-9.91 3.93,-18.01 11.76,-24.09 8.21,-6.38 17.92,-8.96 28.23,-8.96 10.15,0 20.19,1.69 29.49,5.87l1.66 0.75 -3.61 11.72 -2.16 -1.03c-8.23,-3.95 -17.07,-5.66 -26.17,-5.66 -6.71,0 -13.57,1.4 -18.66,6.06 -4.2,3.85 -6.54,8.5 -6.54,14.25 0,5.64 1.71,10.58 5.72,14.59 4.17,4.17 9.1,7.3 14.54,9.55 6.04,2.49 12.02,5.1 17.95,7.82 6.31,2.9 11.67,7.1 16.05,12.5 4.89,6.03 6.78,13.33 6.78,21.01 0,10.4 -3.91,19.09 -11.89,25.78 -8.84,7.41 -20.16,9.83 -31.45,9.83 -11.51,0 -23.12,-1.94 -33.36,-7.4l-1.5 -0.8 3.59 -11.68 2.19 1.13c9.35,4.82 19.35,7.11 29.87,7.11z"/>
   <path class="fil1" d="M288.76 213.25l-23.13 0 0.49 -13.53 -0.49 -31.47 7.43 0 -0.42 30.84 0.14 8.13 16.05 0 0.49 0.63 -0.56 5.4zm84.72 -16.82c0.09,5.52 -1.4,9.79 -4.49,12.83 -3.08,3.04 -7.45,4.56 -13.11,4.56 -5.47,0 -9.65,-1.46 -12.55,-4.38 -2.9,-2.92 -4.3,-7.07 -4.21,-12.44l0.14 -6.24 -0.14 -22.5 7.15 0 -0.28 27.76c-0.05,7.76 3.41,11.64 10.38,11.64 7.01,0 10.49,-3.64 10.44,-10.94l-0.35 -28.46 7.29 0 -0.21 22.85 -0.07 5.33zm90.26 16.82l-8.76 0 -2.03 -4 -9.18 -13.81 -9.6 14.23 -1.9 3.58 -7.57 0 14.86 -22.5 -14.51 -22.5 8.76 0 1.96 3.92 8.55 13.04 8.76 -13.18 1.82 -3.78 7.78 0 -14.02 21.52 15.07 23.48zm85.84 -16.82c0.09,5.52 -1.4,9.79 -4.49,12.83 -3.09,3.04 -7.45,4.56 -13.11,4.56 -5.47,0 -9.65,-1.46 -12.55,-4.38 -2.9,-2.92 -4.3,-7.07 -4.2,-12.44l0.14 -6.24 -0.14 -22.5 7.15 0 -0.28 27.76c-0.05,7.76 3.41,11.64 10.38,11.64 7.01,0 10.49,-3.64 10.44,-10.94l-0.35 -28.46 7.29 0 -0.21 22.85 -0.07 5.33zm76.52 -1.19c3.18,5.09 6.94,10.54 11.28,16.33l-0.07 0.84c-2.24,0.75 -4.55,1.24 -6.94,1.47l-0.84 -0.56c-3.88,-6.36 -7.01,-11.73 -9.39,-16.12l-7.64 0 0 1.89 0.35 14.16 -7.36 0 0.49 -13.53 -0.49 -31.47 15.28 -0.07c4.54,0 8.04,1.13 10.52,3.4 2.47,2.27 3.71,5.5 3.71,9.71 0,2.99 -0.78,5.69 -2.35,8.1 -1.57,2.41 -3.75,4.36 -6.56,5.85zm-5.75 -3.72c4.72,-1.45 7.08,-4.67 7.08,-9.67 0,-5.09 -2.87,-7.76 -8.62,-7.99l-5.96 0.21 -0.21 17.24 7.71 0.21zm77.43 21.73l-7.36 0 0.49 -13.53 -0.49 -31.47 7.43 0 -0.42 30.84 0.35 14.16zm83.32 0l-1.05 -5.05 -1.96 -6.24 -9.53 -0.21 -8.62 0.21 -2.1 5.89 -1.12 5.4 -7.22 0 16.05 -45 8.48 0 14.51 45 -7.43 0zm-11.29 -37.92l-0.49 0 -7.36 20.75 7.08 0.14 7.22 -0.14 -6.45 -20.75z"/>
   <path class="fil1" d="M179.04 102.75l-75.91 -75.87c-2.83,-2.83 -5.65,-5.13 -8.44,-6.95 -4.84,-3.05 -9.75,-5.15 -15.53,-5.55 -8.6,-0.59 -16.62,3.01 -22.96,8.83 -0.18,0.16 -0.35,0.33 -0.53,0.49 -1.33,-0.07 -2.67,-0.08 -4.01,-0.04 -5.54,0.17 -10.85,1.2 -15.85,2.97 2.8,-4.69 6.48,-9.24 11.12,-13.49 8.95,-8.21 20.49,-13.28 33.14,-12.42 10.65,0.73 21.89,5.65 32.7,16.46l75.91 75.87 -9.64 9.69zm-78.1 90.74l-16.33 -16.22c3.51,-2.93 6.64,-6.3 9.29,-10.04l16.68 16.57 -9.64 9.69zm-31.48 -31.23l-50.89 -50.42c-10.86,-10.76 -15.84,-21.97 -16.62,-32.63 -0.92,-12.63 4.09,-24.19 12.25,-33.19 11.3,-12.44 24.69,-18.05 37.58,-18.44 8.88,-0.26 17.47,1.98 24.94,6.21 0.54,0.3 1.07,0.62 1.6,0.94l-10.04 10.05c-4.93,-2.44 -10.45,-3.71 -16.12,-3.54 -9.35,0.28 -19.24,4.53 -27.83,13.99 -5.79,6.37 -9.35,14.41 -8.72,23.01 0.55,7.52 4.32,15.69 12.6,23.9l50.31 49.84 -0.25 0.45c-2.21,3.87 -5.22,7.22 -8.81,9.82zm21.8 -115.55c12.5,12.97 11.55,34.09 6.87,50.12l-3.58 1.06c-15.7,4.67 -30.09,2.43 -41.41,-4.04 -7.66,-4.38 -13.89,-10.7 -18.14,-18.14 -3.39,-5.92 -5.52,-12.57 -6.14,-19.53 3.99,-3.99 8.65,-7.22 13.84,-9.13 -0.2,1.36 -0.32,2.72 -0.35,4.06 -0.16,6.31 1.49,12.44 4.54,17.79 3.06,5.35 7.54,9.9 13.05,13.05 7.4,4.23 16.71,5.95 27.05,3.75 2.31,-11.26 0.81,-20.67 -6.34,-29.52l10.61 -9.48z"/>
   <path class="fil1" d="M103.64 34.5l-43.23 43.28c-3.82,-2.57 -7.05,-5.95 -9.44,-9.89l42.77 -42.8 9.9 9.41zm-0.95 142.4l4.38 4.38 16.03 -16.12c-11.35,-14.1 -10.56,-32.19 -5.78,-48.57l3.58 -1.07c15.7,-4.67 30.09,-2.43 41.41,4.04 1.3,0.74 2.55,1.54 3.77,2.39l23.94 -24.07c6.81,-7.52 9.96,-14.93 10.43,-21.8 0.59,-8.6 -3.01,-16.62 -8.83,-22.96 -0.16,-0.18 -0.33,-0.35 -0.49,-0.53 0.07,-1.33 0.08,-2.67 0.04,-4.01 -0.17,-5.55 -1.2,-10.85 -2.97,-15.85 4.69,2.8 9.24,6.48 13.49,11.12 8.21,8.95 13.28,20.49 12.42,33.14 -1.73,25.38 -16.18,32.42 -35.3,51.56l-2.73 2.74c1.63,2.02 3.1,4.16 4.38,6.41 3.39,5.92 5.52,12.57 6.14,19.52 -3.99,3.99 -8.64,7.22 -13.84,9.13 0.2,-1.36 0.32,-2.72 0.35,-4.06 0.16,-6.31 -1.49,-12.45 -4.54,-17.79 -0.67,-1.18 -1.42,-2.32 -2.23,-3.42l-49.37 49.64c1.27,1.02 2.54,1.94 3.8,2.76l0.78 0.78 0.17 -0.18c5.02,3.08 9.92,4.63 14.57,4.95 8.6,0.59 16.62,-3.02 22.96,-8.83 0.18,-0.16 0.35,-0.32 0.53,-0.49 1.33,0.07 2.67,0.08 4.01,0.04 5.55,-0.17 10.85,-1.2 15.85,-2.97 -2.81,4.69 -6.48,9.24 -11.12,13.49 -8.95,8.21 -20.49,13.28 -33.14,12.42 -9.2,-0.63 -18.83,-4.39 -28.25,-12.36 -9.5,8.23 -19.24,12.12 -28.55,12.8 -12.63,0.92 -24.19,-4.09 -33.19,-12.26 -12.44,-11.3 -18.05,-24.69 -18.44,-37.57 -0.26,-8.87 1.98,-17.47 6.21,-24.94 4.21,-7.45 10.4,-13.8 18.04,-18.22 15.44,-8.92 29.56,-7.69 44.99,-3.19l1.07 3.58c4.67,15.7 2.43,30.09 -4.04,41.41 -4.38,7.66 -10.7,13.89 -18.13,18.14 -5.92,3.39 -12.57,5.52 -19.53,6.14 -3.99,-3.99 -7.22,-8.65 -9.13,-13.84 1.36,0.2 2.72,0.32 4.06,0.35 6.31,0.16 12.44,-1.49 17.79,-4.55 5.35,-3.06 9.9,-7.54 13.05,-13.05 4.23,-7.39 5.95,-16.71 3.75,-27.04l-0.01 -0c-16.12,-3.24 -31.94,2.76 -40.01,17.01 -3.02,5.35 -4.63,11.48 -4.44,17.82 0.28,9.35 4.53,19.24 13.99,27.83 6.37,5.78 14.41,9.35 23.01,8.72 7.52,-0.55 15.69,-4.32 23.9,-12.61l1.17 -1.18 0 -8.79zm30.38 -21.76l23.15 -23.27c-0.24,-0.14 -0.47,-0.28 -0.71,-0.42 -7.39,-4.23 -16.7,-5.95 -27.03,-3.75 -1.6,7.83 -1.03,21.21 4.59,27.45zm-88.77 -61.25l-18.05 18.06c-8.25,8.25 -11.98,16.44 -12.49,23.97 -0.59,8.6 3.02,16.62 8.83,22.96 0.16,0.18 0.33,0.35 0.49,0.52 -0.07,1.33 -0.08,2.67 -0.04,4.01 0.17,5.55 1.2,10.85 2.97,15.85 -4.7,-2.81 -9.24,-6.48 -13.49,-11.12 -8.21,-8.95 -13.28,-20.49 -12.42,-33.13 0.73,-10.65 5.65,-21.89 16.46,-32.7l18.22 -18.22c2.73,3.67 5.94,6.97 9.53,9.8zm159.69 15.54c6.29,8.36 8.96,16.47 9.56,24.63 0.92,12.64 -4.09,24.19 -12.26,33.19 -11.3,12.44 -24.69,18.05 -37.57,18.44 -10.52,0.31 -19.3,-2.64 -28.11,-8.09l10.1 -10.05c0.29,0.15 2.11,1.22 2.41,1.36 4.7,2.16 9.9,3.28 15.23,3.12 9.35,-0.28 19.24,-4.53 27.83,-13.99 5.78,-6.37 9.35,-14.41 8.72,-23.01 -0.38,-5.2 -1.98,-9.57 -5.86,-15.18l9.96 -10.42z"/>
   <path class="fil1" d="M113.21 8.45c-0.03,-0.03 0.07,-0.05 0.11,-0.07 7.29,-4.73 14.62,-7.11 21.71,-7.63 12.63,-0.92 24.19,4.09 33.18,12.26 12.44,11.3 18.05,24.69 18.44,37.57 0.27,8.88 -1.98,17.47 -6.21,24.94 -4.22,7.45 -10.4,13.8 -18.04,18.22 -9.62,5.56 -21.49,8.06 -34.52,5.83 -2.73,-0.39 -5.5,-0.99 -8.33,-1.82l-3.59 -1.05 -1.06 -3.58c-4.67,-15.7 -2.43,-30.09 4.04,-41.41 4.38,-7.66 10.7,-13.88 18.14,-18.14 5.92,-3.38 12.57,-5.52 19.53,-6.14 3.99,3.99 7.22,8.64 9.13,13.83 -1.36,-0.2 -2.71,-0.32 -4.06,-0.35 -6.32,-0.16 -12.45,1.49 -17.8,4.54 -5.35,3.06 -9.9,7.54 -13.05,13.05 -4.21,7.37 -5.93,16.65 -3.77,26.95 0.97,0.23 1.93,0.43 2.88,0.6 9.2,1.3 17.47,-0.51 24.16,-4.38 0.77,-0.44 1.51,-0.91 2.23,-1.4l0 1.17c5.15,-3.16 9.33,-7.55 12.22,-12.66 3.02,-5.35 4.63,-11.48 4.44,-17.82 -0.28,-9.35 -4.53,-19.24 -13.99,-27.83 -6.37,-5.78 -14.41,-9.35 -23.01,-8.72 -7.88,0.59 -10.44,2.88 -12.27,3.82 -0.06,0.03 -0.12,0.12 -0.17,0.08l-10.35 -9.85z"/>
  </g>
 </g>
</svg>
