<svg xmlns="http://www.w3.org/2000/svg" xml:space="preserve" width="50.8mm" height="23.9789mm" version="1.1" style="shape-rendering:geometricPrecision; text-rendering:geometricPrecision; image-rendering:optimizeQuality; fill-rule:evenodd; clip-rule:evenodd"
viewBox="0 0 3074.72 1451.35"
 xmlns:xlink="http://www.w3.org/1999/xlink">
 <defs>
  <style type="text/css">
   <![CDATA[
    .fil1 {fill:black}
    .fil0 {fill:#4D4D4D}
    .fil2 {fill:black;fill-rule:nonzero}
   ]]>
  </style>
 </defs>
 <g id="Layer_x0020_1">
  <metadata id="CorelCorpID_0Corel-Layer"/>
  <g id="_2423789959072">
   <polygon class="fil0" points="371.58,1451.35 -0,1451.35 -0,853.65 371.58,628.31 "/>
   <polygon class="fil1" points="1193.76,1451.35 832.54,1451.35 832.54,727.98 543.32,661.48 1193.76,124.74 "/>
   <path class="fil1" d="M1414.09 1025.66l-89.62 -0.07c3.74,21.34 31.9,82.98 41.24,106.55l124.18 309.46c8.01,-11.22 31.25,-76.82 38.41,-95.23l28.31 -72.32c3.69,-9.56 4.06,-13.95 10.14,-21.35l77.38 189.1 164.8 -416.22 -89.52 0.24 -76.71 186.5 -75.78 -183.59c-16.72,20.33 -59.4,157.13 -76.93,183.07l-75.89 -186.13z"/>
   <path class="fil1" d="M1952.65 1111.16c72.33,-11.03 131.03,43.74 140.01,104.15 11.03,74.21 -42.43,133.7 -104.2,142.47 -164.24,23.3 -199.48,-221.68 -35.81,-246.63zm223.86 147.34c13.16,-121.69 -74.86,-218.32 -180.04,-231.13 -123.19,-15.01 -220.79,74.75 -233.55,179.47 -11.05,90.72 32.67,167.58 103.27,209.26 22,12.98 47.5,22.32 77.02,25.74 123.94,14.35 221.67,-75.85 233.3,-183.34z"/>
   <path class="fil1" d="M1497.51 573.1c-147.82,20.82 -226.49,187.65 -150.38,313.18 41.82,68.97 120.59,112.88 209.71,100.29 104.44,-14.76 192.24,-111.3 176.14,-236.36 -3.81,-29.65 -13.06,-53.67 -26.9,-76.39 -6.46,-10.6 -13.96,-21.55 -21.42,-30.35l-26.35 -25.34c-41.94,-31.59 -89.99,-55.01 -160.81,-45.03zm48.12 83.27c162.19,24.5 127.44,269.66 -36.21,246.75 -62.26,-8.72 -114.89,-67.33 -104.97,-141.61 8.16,-61.09 68.33,-116.15 141.18,-105.14z"/>
   <path class="fil1" d="M2284.19 1110.93c19.42,-3.43 70.8,-3.09 86.87,4.16 18.4,8.3 36.61,28.82 36.73,57.06 0.3,66.19 -74.97,68.18 -123.96,61.29l0.36 -122.5zm129.6 190.11c124.65,-62.84 91.92,-256.68 -48.66,-274.05 -24.04,-2.97 -143.3,-4.1 -164.99,-0.24l-0.04 416.09 83.67 -1.45 0.54 -145.74c5.39,4.39 -0.82,-1.92 5.16,4.46 0.72,0.76 3.09,3.95 3.81,4.93 1.63,2.22 3.63,5.22 5.9,8.39l38.83 56.01c9.18,12.76 16.47,23.99 26.02,37.16 6.39,8.82 20,27.08 23.82,36.33l102.62 -0.02c-9.7,-21.35 -77.62,-108.11 -90.7,-132.69l14.01 -9.19z"/>
   <path class="fil1" d="M1754.25 987.7l83.52 0.58 0.17 -225.49 248.38 224.49 1.05 -416.34 -83.85 -0.01 -0.05 225.43c-8.07,-4.87 -25.72,-19.94 -31.69,-26.21l-107.36 -99.47c-5.76,-5.14 -9.84,-8.19 -15.7,-13.12 -22.24,-18.69 -76.46,-74.67 -94.06,-85.1l-0.42 415.25z"/>
   <polygon class="fil1" points="1664.49,540.88 1748.13,540.84 1748.22,374.6 1870.85,374.35 1872.26,539.92 1955.83,540.95 1955.8,123.45 1872.48,123.61 1872.19,290.72 1748.13,290.66 1748.08,123.62 1664.88,123.47 "/>
   <path class="fil1" d="M2866.54 1358.04l0.03 -247.42c91.24,-9.1 173.94,122.63 87.95,211.05 -17.49,17.98 -50.43,41.34 -87.98,36.37zm-83.65 84.12c71.52,7.84 153.59,2.48 208.52,-40.5 150.71,-117.91 81.84,-342.23 -86.12,-372.45 -27.56,-4.96 -93.4,-5.84 -122.2,-2.92l-0.2 415.87z"/>
   <path class="fil1" d="M2128.04 987.43c41.1,3.23 195.63,0.89 249.83,0.79l0.11 -83.76 -165.94 -0.16 -0.36 -81.38 124.64 -1.32 0.18 -83 -124.68 -0.67 0.05 -81.66 165.79 -1.19 0.26 -84.16 -249.84 0.01 -0.04 416.5z"/>
   <polygon class="fil1" points="1994.13,540.87 2244.1,540.79 2244.04,457.76 2077.77,456.99 2078,374.36 2202.5,374.35 2202.39,290.79 2077.77,290.71 2078.02,207.75 2244.05,207.76 2243.92,123.48 1994.64,123.48 "/>
   <polygon class="fil1" points="1337.76,206.77 1439.88,207.82 1441.35,539.83 1525.66,540.72 1525.63,207.79 1628.03,207.74 1629.2,124.34 1338.07,123.49 "/>
   <path class="fil1" d="M2525.24 1442.96c40.78,0.05 224.5,2.58 250.09,-1.31l0.05 -81.74 -166.35 -0.81 -0.19 -333.38 -83.14 -0.16 -0.32 11.65 -0.14 405.75z"/>
   <path class="fil1" d="M2279.46 85.17l0 -38.96 -13.88 0 0 -7.93 37.19 0 0 7.93 -13.82 0 0 38.96 -9.5 0zm29.32 0l0 -46.89 14.22 0 8.41 31.98 8.3 -31.98 14.25 0 0 46.89 -8.78 0 -0.04 -36.91 -9.24 36.91 -9.12 0 -9.21 -36.91 -0.03 36.91 -8.78 0z"/>
   <path class="fil2" d="M2309.78 0c17.04,0 32.47,6.91 43.65,18.08 11.17,11.17 18.08,26.6 18.08,43.65 0,17.04 -6.91,32.47 -18.08,43.65 -11.17,11.17 -26.6,18.08 -43.65,18.08 -17.04,0 -32.48,-6.91 -43.65,-18.08 -11.17,-11.17 -18.08,-26.6 -18.08,-43.65 0,-17.04 6.91,-32.48 18.08,-43.65 11.17,-11.17 26.6,-18.08 43.65,-18.08zm38.46 23.26c-9.84,-9.84 -23.44,-15.93 -38.46,-15.93 -15.02,0 -28.62,6.09 -38.46,15.93 -9.85,9.84 -15.94,23.44 -15.94,38.46 0,15.02 6.09,28.62 15.94,38.46 9.84,9.85 23.44,15.94 38.46,15.94 15.02,0 28.62,-6.09 38.46,-15.94 9.84,-9.84 15.93,-23.44 15.93,-38.46 0,-15.02 -6.09,-28.62 -15.93,-38.46z"/>
  </g>
 </g>
</svg>
