<svg xmlns="http://www.w3.org/2000/svg" xml:space="preserve" width="38.3022mm" height="38.1mm" version="1.1" style="shape-rendering:geometricPrecision; text-rendering:geometricPrecision; image-rendering:optimizeQuality; fill-rule:evenodd; clip-rule:evenodd"
viewBox="0 0 356.75 354.86"
 xmlns:xlink="http://www.w3.org/1999/xlink">
 <defs>
  <style type="text/css">
   <![CDATA[
    .fil1 {fill:black}
    .fil0 {fill:black;fill-rule:nonzero}
    .fil2 {fill:#D5B36A;fill-rule:nonzero}
    .fil3 {fill:red;fill-rule:nonzero}
   ]]>
  </style>
 </defs>
 <g id="Layer_x0020_1">
  <metadata id="CorelCorpID_0Corel-Layer"/>
  <g id="_2479522620864">
   <path class="fil0" d="M46.84 315.17l10.69 0 0 -38.69 14.69 0 0 -9.59c-14.14,0 -26,0 -40.07,0l0 9.59 14.69 0 0 38.69zm65.38 0l11.66 0 -21.66 -48.28 -11.73 0 -21.66 48.28 11.59 0c5.3,-12.47 10.62,-24.92 15.93,-37.38 9.18,21.72 8.24,19.45 15.86,37.38zm47.59 -48.28l0 27.01c0,7.26 -2.62,12.3 -9.93,12.78 -7.86,0.34 -12.69,-4.14 -12.69,-12.78l0 -27.01 -10.69 0 0 27.01c0,15.61 10.69,22.85 23.31,22.44 12.69,-0.41 20.69,-8.07 20.69,-22.44l0 -27.01 -10.69 0zm63.59 47.45l-13.24 -16c9.24,-3.31 11.1,-8.9 11.17,-15.17 0,-8.48 -6.21,-16.28 -17.86,-16.28 -7.79,0 -15.04,0 -22.9,0l0 48.28 10.76 0 0 -9.85 0 -6.01 0 -9.1 0 -7.23 0 -6.84 12.14 0c5.04,0 7.21,4 7.24,7.31 0.03,3.03 -2.14,6.76 -7.1,6.76l-10.92 0 18.79 24.97 11.93 0 0 -0.83zm39.8 -47.45l0 27.01c0,7.26 -2.62,12.3 -9.93,12.78 -7.86,0.34 -12.69,-4.14 -12.69,-12.78l0 -27.01 -10.69 0 0 27.01c0,15.61 10.69,22.85 23.31,22.44 12.69,-0.41 20.69,-8.07 20.69,-22.44l0 -27.01 -10.69 0zm56.07 5.72c-4.97,-5.79 -10.55,-7.45 -18,-7.45 -9.93,0 -19.04,5.1 -19.1,14.69 -0.14,11.38 8.97,13.93 19.17,14.9 6.55,0.55 9.79,2.41 9.72,6.48 0,3.45 -3.93,5.72 -9.66,5.72 -4.9,0 -11.04,-2.07 -14.76,-6.83l-6.41 6.69c4.07,6.76 12.76,10 21.11,9.93 10.41,-0.07 20.35,-4.76 20.35,-15.52 0,-11.17 -9.04,-14.83 -18.55,-15.66 -6.21,-0.55 -10.41,-1.38 -10.41,-5.79 0,-3.31 3.86,-5.31 8.62,-5.31 3.79,0 8.48,1.24 11.17,4.07l6.76 -5.93z"/>
   <path class="fil0" d="M199.27 251.48l10.69 0 0 -38.69 14.69 0 0 -9.59c-14.14,0 -26,0 -40.07,0l0 9.59 14.69 0 0 38.69zm74.9 0l0 -48.28 -10.62 0 0 19.38 -21.59 0 0 -19.38 -10.76 0 0 48.28 10.76 0 0 -19.04 21.59 0 0 19.04 10.62 0zm47.52 -9.93l-26.21 0 0 -9.72 23.8 0 0 -9.45 -23.8 0 0 -9.31 25.24 0 0 -9.86 -35.8 0c0,16.07 0,32.21 0,48.28l36.76 0 0 -9.93z"/>
   <path class="fil1" d="M180.49 251.23l-12.55 0 -1.12 -8.06 -10.23 -9.25 1.8 -17.11 14.32 23.48 7.76 10.94zm-10.12 -70.53l-2.65 0 -2.69 -17.04 -0 -0 0 0 0 0 0 0 10.12 18.99c1.87,3.52 -0.56,7.79 -4.54,7.98l-12.91 0.62 0 0 -1.14 0.05 0 0 -1.79 -10.6 0 0 0 0 0 -0 1.93 0 0 0 0 0 -0 0 0.81 8.61 -0.81 -8.61 13.67 0 -2.61 -8.34 2.61 8.34 0 0zm-14.05 44.1l0 0 0.28 9.12 0 0 0 0 1.42 -13.48 0.38 -3.63 0 0 -0 -0 0 -0 -2.43 -3.98 -0.96 -1.56 0.96 1.56 -0.96 -1.56 0 -0 -0.35 -2.58 2.73 -3.99c0.74,-1.08 1.03,-2.4 0.81,-3.69l-1.64 -9.7 -1.79 -10.6 -0.11 -0.68 -18.04 -27.57c-1.87,-2.85 -4.57,-5.05 -7.74,-6.28l-22.78 -8.9c-1.92,-0.75 -3.94,-1.12 -5.95,-1.12 -3.35,0 -6.67,1.03 -9.48,3.03 -11.72,8.34 -35.49,24.86 -53.21,34.61l0 0.01c-1.26,0.58 -5.82,2.63 -8.41,2.63 -1.89,0 -2.72,-1.09 -0.44,-4.63 3.4,-5.27 9.61,-10.86 4.33,-10.86 -1.76,0 -4.79,0.62 -9.64,2.08l-7.37 2.05c0,0 1.79,1.48 3.97,1.48 1.51,0 3.22,-0.71 4.64,-3.13 1.47,-0.48 4.07,-1.25 5.76,-1.25 0.43,0 0.81,0.05 1.09,0.17 1.88,0.8 -7.34,6.19 -9.24,13.58 -1.16,4.53 1.44,7.16 6.42,7.16 1.13,0 2.39,-0.14 3.75,-0.42l-22.02 37.97 -10.3 23.74 1.49 6.86 11.94 0 -5.82 -7.91 7.42 -11.2 12.59 -2.24c0,0 12.69,-10.55 15.67,-10.74 3.23,-0.21 6.22,-0.27 6.26,-0.27l0 1.91 0 0 0 7.76 18.06 22.69 12.84 0c-1.94,-5.22 -10,-8.51 -10,-8.51l-7.02 -15.38 2.05 -4.16 0 0 0 0 0 0 1.38 -2.81 0.52 -1.06 0.68 -1.37 16.56 3.88 3.74 21.35 2.09 8.06 11.94 0 -6.12 -8.95 2.24 -17.62 13.89 -7.92 5.07 -17.91 -0.28 6.81c-0.1,2.38 1.28,4.57 3.45,5.51l14.3 6.19 -1.06 5.95c-0.27,1.5 0.26,3.04 1.39,4.07l3.18 2.88c0.81,0.73 1.87,1.15 2.97,1.15l10.08 0c1.01,0 1.93,-0.58 2.37,-1.49l2.44 -5.09zm-106.76 -4.02l15.93 2.41 0 0 -15.93 -2.41zm17.32 -0.41l0.34 -0.69 0.18 -0.36 -0.52 1.06zm67.93 -12.13l-6.57 -9.4 0 4.69c0,1.09 0.51,2.12 1.37,2.78l1.56 1.2c0.61,0.47 1.37,0.73 2.14,0.73l1.49 0zm-22.84 -44.59l-10.11 18.99c-1.87,3.52 0.56,7.79 4.54,7.98l21.85 1.04c0,0 1.64,-6.49 -4.4,-10.97l-14.56 0 2.69 -17.04z"/>
   <polygon class="fil2" points="350.09,0 1.96,0 1.96,160.72 12.13,160.72 12.13,10.18 345,10.18 345,343.04 12.13,343.04 12.13,267.38 1.96,267.38 1.96,353.22 355.18,353.22 355.18,0 "/>
   <polygon class="fil3" points="274.64,341.4 343.28,341.4 343.28,267.38 356.75,267.38 356.75,354.86 274.68,354.86 "/>
  </g>
 </g>
</svg>
