<svg xmlns="http://www.w3.org/2000/svg" xml:space="preserve" width="50.8007mm" height="22.6862mm" version="1.1" style="shape-rendering:geometricPrecision; text-rendering:geometricPrecision; image-rendering:optimizeQuality; fill-rule:evenodd; clip-rule:evenodd"
viewBox="0 0 908.89 405.88"
 xmlns:xlink="http://www.w3.org/1999/xlink">
 <defs>
  <style type="text/css">
   <![CDATA[
    .str0 {stroke:#2B2A29;stroke-width:3.16;stroke-miterlimit:2.61313}
    .fil2 {fill:none}
    .fil1 {fill:black}
    .fil0 {fill:black;fill-rule:nonzero}
   ]]>
  </style>
 </defs>
 <g id="Layer_x0020_1">
  <metadata id="CorelCorpID_0Corel-Layer"/>
  <g id="_1758439652512">
   <polygon class="fil0" points="-0,317.73 20.88,317.73 33.51,379.98 48.59,320.05 66.24,320.05 81.45,379.98 93.95,317.73 114.05,317.73 92.15,403.69 71.65,403.69 56.96,347.5 42.01,403.69 21.52,403.69 "/>
   <polygon id="1" class="fil0" points="123.72,317.73 182.49,317.73 182.49,334.74 143.18,334.74 143.18,351.5 173.72,351.5 173.72,367.99 143.18,367.99 143.18,386.55 185.32,386.55 185.32,403.69 123.72,403.69 "/>
   <path id="2" class="fil0" d="M205.17 378.05c1.12,1.2 2.43,2.43 3.93,3.67 1.5,1.25 3.18,2.38 5.03,3.41 1.85,1.03 3.87,1.87 6.06,2.51 2.19,0.64 4.53,0.97 7.02,0.97 1.46,0 2.92,-0.21 4.38,-0.64 1.46,-0.43 2.79,-1.05 4,-1.87 1.2,-0.82 2.17,-1.81 2.9,-2.96 0.73,-1.16 1.09,-2.47 1.09,-3.93 0,-3.18 -1.55,-5.65 -4.64,-7.41 -3.09,-1.76 -7.99,-3.5 -14.69,-5.22 -3.26,-0.77 -6.29,-1.89 -9.09,-3.35 -2.79,-1.46 -5.2,-3.22 -7.22,-5.28 -2.02,-2.06 -3.59,-4.42 -4.7,-7.09 -1.12,-2.66 -1.67,-5.63 -1.67,-8.89 0,-3.61 0.64,-7 1.93,-10.18 1.29,-3.18 3.24,-5.99 5.86,-8.44 2.62,-2.45 5.88,-4.38 9.79,-5.8 3.91,-1.42 8.53,-2.13 13.85,-2.13 4.38,0 8.25,0.45 11.6,1.35 3.35,0.9 6.21,1.98 8.57,3.22 2.36,1.25 4.3,2.54 5.8,3.87 1.5,1.33 2.64,2.38 3.42,3.16l-11.21 12.37c-0.94,-0.77 -2.04,-1.61 -3.29,-2.51 -1.25,-0.9 -2.64,-1.74 -4.19,-2.51 -1.55,-0.77 -3.24,-1.42 -5.09,-1.93 -1.85,-0.52 -3.8,-0.77 -5.86,-0.77 -1.38,0 -2.73,0.21 -4.06,0.64 -1.33,0.43 -2.54,1.01 -3.61,1.74 -1.08,0.73 -1.93,1.59 -2.58,2.58 -0.64,0.99 -0.97,2.04 -0.97,3.16 0,2.92 1.55,5.28 4.64,7.09 3.09,1.8 7.35,3.31 12.76,4.51 3.18,0.77 6.29,1.82 9.34,3.16 3.05,1.33 5.78,3.07 8.18,5.22 2.41,2.15 4.34,4.79 5.8,7.93 1.46,3.14 2.19,6.94 2.19,11.41 0,3.87 -0.86,7.43 -2.58,10.7 -1.72,3.26 -4.06,6.1 -7.02,8.51 -2.96,2.4 -6.44,4.27 -10.44,5.61 -4,1.33 -8.31,2 -12.95,2 -4.3,0 -8.2,-0.41 -11.73,-1.23 -3.52,-0.82 -6.7,-1.89 -9.54,-3.22 -2.84,-1.33 -5.39,-2.86 -7.67,-4.57 -2.28,-1.72 -4.23,-3.48 -5.86,-5.28l12.5 -13.53z"/>
   <polygon id="3" class="fil0" points="293.32,334.87 265.48,334.87 265.48,317.73 340.61,317.73 340.61,334.87 312.91,334.87 312.91,403.69 293.32,403.69 "/>
   <path id="4" class="fil0" d="M419.49 356.39l33.12 0 0 37.25c-4.47,3.86 -9.69,6.85 -15.66,8.96 -5.97,2.1 -12.78,3.16 -20.43,3.16 -7.04,0 -13.34,-1.1 -18.88,-3.29 -5.54,-2.19 -10.25,-5.26 -14.11,-9.22 -3.87,-3.95 -6.81,-8.68 -8.83,-14.18 -2.02,-5.5 -3.03,-11.56 -3.03,-18.17 0,-6.44 1.08,-12.41 3.22,-17.91 2.15,-5.5 5.2,-10.29 9.15,-14.37 3.95,-4.08 8.63,-7.28 14.05,-9.6 5.41,-2.32 11.43,-3.48 18.04,-3.48 7.82,0 14.67,1.44 20.56,4.32 5.89,2.88 10.76,6.9 14.63,12.05l-13.14 12.5c-2.75,-3.27 -5.78,-5.93 -9.09,-7.99 -3.31,-2.06 -7.37,-3.09 -12.18,-3.09 -3.95,0 -7.47,0.73 -10.57,2.19 -3.09,1.46 -5.71,3.44 -7.86,5.93 -2.15,2.49 -3.78,5.41 -4.9,8.76 -1.12,3.35 -1.68,6.91 -1.68,10.7 0,4.12 0.64,7.86 1.93,11.21 1.29,3.35 3.09,6.21 5.41,8.57 2.32,2.36 5.05,4.19 8.18,5.48 3.14,1.29 6.55,1.93 10.25,1.93 3.44,0 6.57,-0.41 9.41,-1.22 2.84,-0.82 5.37,-2.13 7.6,-3.93l0 -10.83 -15.21 0 0 -15.72z"/>
   <path id="5" class="fil0" d="M492.17 317.73l21.52 0 31.44 85.96 -21.26 0 -6.57 -19.72 -30.28 0 -6.57 19.72 -20.36 0 32.09 -85.96zm20.49 51.16l-10.44 -32.48 -10.7 32.48 21.13 0z"/>
   <polygon id="6" class="fil0" points="562.79,334.87 534.96,334.87 534.96,317.73 610.09,317.73 610.09,334.87 582.38,334.87 582.38,403.69 562.79,403.69 "/>
   <polygon id="7" class="fil0" points="621.17,317.73 679.94,317.73 679.94,334.74 640.63,334.74 640.63,351.5 671.18,351.5 671.18,367.99 640.63,367.99 640.63,386.55 682.78,386.55 682.78,403.69 621.17,403.69 "/>
   <polygon id="8" class="fil0" points="734.05,386.17 734.05,370.57 767.17,370.57 767.17,386.17 "/>
   <polygon id="9" class="fil0" points="817.28,403.69 817.28,399.57 827.59,399.57 827.59,323.79 817.28,323.79 817.28,319.92 859.55,319.92 859.55,323.79 849.24,323.79 849.24,399.57 859.55,399.57 859.55,403.69 "/>
   <polygon id="10" class="fil0" points="866.62,403.69 866.62,399.57 876.93,399.57 876.93,323.79 866.62,323.79 866.62,319.92 908.89,319.92 908.89,323.79 898.58,323.79 898.58,399.57 908.89,399.57 908.89,403.69 "/>
   <g>
    <path class="fil1" d="M570.88 266.16c0,-69.65 0,-139.29 0,-208.93l-25.9 -14.96 0 179.02c-36.89,-21.3 -73.78,-42.6 -110.67,-63.89l0 -157.4 -25.9 14.96c0,52.47 0,104.93 0,157.4 54.16,31.27 108.32,62.54 162.48,93.8zm-232.83 0c0,-69.65 0,-139.29 0,-208.93l25.9 -14.96 0 179.02 44.43 -25.65 25.91 14.96 -96.24 55.56zm136.57 -266.16l25.9 14.96c0,52.47 0,104.93 0,157.4l-25.9 -14.97c0,-54.18 0,-103.21 0,-157.39z"/>
    <line class="fil2 str0" x1="469.96" y1="207.91" x2="418.91" y2= "178.42" />
   </g>
  </g>
 </g>
</svg>
